<?xml version="1.0" encoding="UTF-8"?>
<!DOCTYPE svg PUBLIC "-//W3C//DTD SVG 1.1//EN" "http://www.w3.org/Graphics/SVG/1.1/DTD/svg11.dtd">
<!-- Creator: CorelDRAW 2017 -->
<svg xmlns="http://www.w3.org/2000/svg" xml:space="preserve" width="143mm" height="143mm" version="1.1" style="shape-rendering:geometricPrecision; text-rendering:geometricPrecision; image-rendering:optimizeQuality; fill-rule:evenodd; clip-rule:evenodd"
viewBox="0 0 14300 14300"
 xmlns:xlink="http://www.w3.org/1999/xlink">
 <defs>
  <style type="text/css">
   <![CDATA[
    .fil6 {fill:black}
    .fil2 {fill:#396912}
    .fil4 {fill:#4D4D4D}
    .fil1 {fill:#5B962C}
    .fil5 {fill:gray}
    .fil3 {fill:#A5D673}
    .fil0 {fill:#A60000}
    .fil7 {fill:#B3B3B3}
    .fil9 {fill:red}
    .fil8 {fill:white}
   ]]>
  </style>
 </defs>
 <g id="Слой_x0020_1">
  <metadata id="CorelCorpID_0Corel-Layer"/>
  <path class="fil0" d="M9124 8769c501,12 1133,50 1642,89 509,39 896,80 1113,166 218,86 266,217 270,321 4,103 -37,179 -6,244 31,65 134,120 286,154 151,34 351,47 513,105 162,58 286,161 348,322 62,161 63,382 -135,514 -198,133 -594,178 -1062,151 -468,-27 -1007,-126 -1448,-144 -441,-17 -785,48 -936,111 -151,63 -110,125 -48,176 62,51 145,92 152,127 7,34 -62,62 -206,97 -144,35 -364,77 -1062,62 -698,-15 -1874,-87 -2703,-119 -829,-32 -1310,-24 -1809,-43 -499,-19 -1015,-66 -1228,-154 -213,-89 -124,-220 -25,-333 99,-114 209,-210 133,-313 -76,-103 -338,-212 -555,-291 -217,-78 -389,-126 -441,-215 -52,-89 17,-220 102,-324 86,-103 189,-179 164,-269 -24,-89 -176,-192 -341,-278 -165,-85 -344,-154 -479,-215 -134,-61 -224,-116 -296,-171 -72,-55 -128,-110 -83,-185 44,-76 189,-173 388,-241 199,-68 454,-108 700,-88 246,20 484,101 835,164 351,63 815,109 1232,155 418,46 789,93 1102,117 313,24 567,24 997,75 430,50 1036,150 1525,192 489,43 860,28 1361,40z"/>
  <g id="_1995503779360">
   <path class="fil1" d="M4077 8805c-270,-65 -782,-195 -1182,-295 -400,-100 -687,-169 -893,-218 -206,-49 -330,-78 -413,-102 -83,-24 -125,-44 -141,-74 -15,-30 -3,-70 54,-270 58,-199 161,-558 224,-739 63,-182 85,-187 330,-135 245,51 711,159 1145,269 434,110 834,221 1074,283 240,62 319,76 371,98 52,22 77,53 75,115 -3,62 -33,154 -81,329 -49,176 -115,436 -158,584 -42,148 -60,186 -83,204 -23,18 -52,17 -323,-48z"/>
   <path class="fil2" d="M4017 8665c1,-16 14,-44 34,-73 20,-29 48,-59 78,-82 30,-23 63,-39 94,-47 32,-9 62,-11 89,-10 27,1 50,5 59,22 9,17 3,47 -9,86 -11,39 -29,86 -41,117 -13,30 -21,44 -33,51 -12,7 -28,9 -65,3 -37,-6 -96,-19 -130,-28 -35,-9 -45,-12 -55,-16 -10,-4 -21,-7 -20,-22z"/>
   <path class="fil2" d="M4315 7677c-4,19 -6,58 1,93 7,36 23,68 51,101 29,33 70,67 98,83 28,16 44,13 55,-1 11,-14 17,-40 24,-68 6,-28 13,-59 14,-83 1,-23 -3,-39 -20,-56 -17,-16 -46,-33 -78,-46 -32,-13 -67,-22 -89,-28 -22,-6 -30,-9 -37,-12 -7,-2 -14,-3 -19,16z"/>
   <path class="fil2" d="M2968 8307c-38,-14 -73,-32 -111,-60 -38,-28 -77,-67 -108,-115 -31,-48 -53,-104 -66,-158 -13,-54 -16,-105 -10,-153 6,-49 21,-95 45,-141 24,-46 56,-93 97,-128 41,-35 90,-59 143,-75 54,-16 112,-24 163,-23 51,0 94,9 143,28 49,19 104,47 149,87 45,40 80,91 105,151 25,60 39,130 39,192 1,63 -12,118 -38,172 -26,54 -64,106 -112,148 -48,42 -107,73 -163,89 -56,16 -108,17 -154,13 -46,-4 -85,-13 -123,-27z"/>
   <path class="fil3" d="M2999 8200c-12,-11 -37,-23 -56,-34 -19,-11 -32,-23 -35,-35 -3,-13 5,-27 14,-43 8,-16 18,-34 28,-36 11,-2 22,11 38,21 15,10 34,17 54,23 20,5 41,9 58,8 17,-1 31,-6 39,-17 8,-11 10,-28 6,-44 -4,-16 -15,-33 -34,-47 -20,-14 -48,-27 -72,-41 -24,-14 -43,-29 -58,-46 -15,-17 -27,-36 -35,-58 -8,-22 -13,-48 -13,-70 0,-23 4,-42 12,-61 8,-18 19,-36 36,-51 17,-15 38,-29 63,-37 24,-8 51,-10 66,-13 15,-4 19,-9 21,-16 2,-7 3,-15 5,-25 2,-11 5,-24 9,-34 4,-10 8,-18 20,-20 12,-2 31,0 41,9 10,9 12,24 11,38 -1,13 -5,25 -6,34 -1,10 3,18 10,23 7,6 19,9 37,17 18,8 44,20 62,29 18,10 28,17 28,28 0,11 -9,27 -17,40 -8,13 -14,24 -19,33 -5,9 -8,16 -19,11 -11,-5 -29,-20 -47,-31 -18,-11 -34,-17 -52,-22 -17,-5 -34,-9 -52,-7 -17,1 -34,8 -45,19 -11,11 -15,26 -5,46 10,20 34,46 59,69 25,22 51,41 68,57 17,15 26,27 33,45 7,18 14,41 16,63 2,21 0,41 -4,59 -4,19 -10,37 -18,53 -8,16 -17,30 -34,42 -17,12 -42,21 -61,26 -19,5 -32,6 -40,8 -9,2 -13,5 -18,16 -5,11 -11,29 -18,41 -7,12 -14,16 -27,17 -12,1 -29,-2 -40,-5 -11,-3 -15,-7 -14,-15 1,-8 8,-19 11,-31 4,-12 5,-23 -7,-35z"/>
   <path class="fil2" d="M4461 8088c-38,137 -90,338 -122,453 -33,115 -47,144 -65,158 -18,14 -41,13 -278,-47 -237,-60 -689,-181 -1027,-268 -338,-87 -561,-141 -745,-186 -184,-44 -329,-79 -418,-104 -89,-25 -122,-40 -134,-64 -12,-23 -2,-55 42,-209 45,-155 125,-433 174,-574 49,-141 66,-145 281,-99 214,46 626,142 987,233 361,91 672,178 886,236 214,58 330,88 397,115 68,27 87,51 85,99 -2,48 -25,119 -63,256zm-2870 -23c13,26 50,43 135,68 85,25 218,57 409,103 191,46 441,107 803,199 362,92 836,216 1086,278 250,62 275,63 295,47 20,-16 36,-48 72,-177 37,-129 95,-354 137,-506 42,-153 68,-232 71,-286 2,-53 -20,-80 -80,-105 -60,-25 -159,-48 -383,-108 -223,-60 -571,-156 -960,-255 -389,-99 -820,-200 -1045,-248 -225,-48 -245,-44 -299,114 -54,158 -144,468 -194,641 -50,173 -60,208 -47,234z"/>
   <path class="fil2" d="M1907 8141c7,-14 10,-45 8,-80 -2,-35 -11,-75 -25,-110 -14,-35 -34,-65 -57,-89 -23,-24 -48,-41 -72,-54 -24,-13 -46,-21 -62,-11 -16,10 -27,39 -37,78 -10,39 -20,89 -24,121 -5,33 -4,48 2,61 7,12 19,22 54,36 35,14 92,32 126,43 34,10 45,12 56,15 11,2 22,5 29,-9z"/>
   <path class="fil2" d="M2170 7151c-7,18 -26,52 -52,78 -25,26 -56,44 -98,56 -42,12 -95,18 -128,15 -32,-2 -44,-13 -46,-31 -1,-18 7,-43 17,-70 10,-27 22,-57 34,-77 12,-20 24,-31 47,-35 23,-4 56,-2 90,5 34,7 68,19 90,25 21,7 30,9 37,11 7,2 14,5 7,23z"/>
  </g>
  <path class="fil4" d="M10528 4565c-153,-48 -455,-128 -933,-251 -478,-123 -1134,-288 -1622,-414 -489,-126 -811,-212 -990,-256 -179,-45 -213,-49 -298,-21 -85,28 -221,88 -320,136 -99,48 -160,83 -194,116 -33,33 -39,64 -44,239 -5,175 -11,494 -12,675 -1,181 1,224 -34,254 -35,31 -108,49 -245,119 -138,70 -340,192 -522,347 -182,155 -343,343 -481,538 -138,195 -253,397 -331,600 -77,203 -117,406 -148,593 -31,187 -54,358 -64,471 -11,113 -10,169 -38,208 -28,39 -84,61 -183,105 -99,44 -239,109 -311,163 -72,55 -74,99 -75,238 -1,139 -2,373 -6,564 -4,192 -11,341 -9,422 3,81 16,92 388,190 373,97 1105,281 1729,439 624,158 1140,292 1417,361 278,70 317,75 376,64 59,-11 139,-40 618,-236 479,-196 1358,-561 1809,-750 452,-189 477,-204 489,-250 12,-46 12,-123 42,-859 30,-736 90,-2131 120,-2862 30,-731 32,-798 30,-839 -2,-41 -6,-57 -159,-105z"/>
  <path class="fil5" d="M10648 4630c-267,105 -502,200 -645,268 -214,102 -218,141 -221,264 -4,123 -7,330 -9,459 -2,128 -3,178 -35,210 -32,32 -95,48 -263,160 -168,112 -441,322 -672,574 -231,253 -420,549 -567,871 -147,322 -251,669 -303,929 -52,261 -52,435 -52,532 0,97 0,117 -48,146 -48,29 -144,67 -217,100 -73,33 -123,62 -148,126 -26,64 -27,162 -21,347 7,184 22,454 40,746 3,42 5,85 8,127 38,5 60,3 85,-2 59,-11 139,-40 639,-247 500,-207 1319,-550 1791,-750 473,-200 498,-215 510,-261 12,-46 -14,-124 21,-848l138 -2861c35,-719 10,-795 9,-828 -1,-33 -3,-41 -40,-61z"/>
  <path class="fil6" d="M7493 9227c-536,-132 -1069,-263 -1594,-395 -744,-186 -1470,-372 -2193,-558 -16,38 -17,87 -18,170 -1,139 -2,373 -6,564 -4,192 -11,341 -9,422 3,81 16,92 388,190 373,97 1105,281 1729,439 624,158 1140,292 1417,361 159,40 240,59 291,65 -3,-43 -5,-85 -8,-127 -18,-291 -34,-561 -40,-746 -7,-184 -5,-283 21,-347 6,-15 13,-28 22,-39z"/>
  <path class="fil7" d="M5899 8832c524,131 1057,263 1594,395 28,-38 71,-61 127,-86 73,-33 169,-71 217,-100 37,-22 46,-39 48,-88 -733,-183 -1465,-369 -2191,-569 -488,-135 -973,-276 -1458,-421 -32,26 -83,47 -161,82 -99,44 -239,109 -311,163 -29,22 -46,42 -57,68 724,186 1450,371 2193,558z"/>
  <path class="fil7" d="M7046 4191c547,150 1753,477 2838,770 30,-19 69,-39 119,-63 142,-68 378,-163 645,-268 26,14 35,25 38,39 -2,-41 -6,-57 -159,-105 -153,-48 -455,-128 -933,-251 -478,-123 -1134,-288 -1622,-414 -489,-126 -811,-212 -990,-256 -179,-45 -213,-49 -298,-21 -85,28 -221,88 -320,136 -99,48 -160,83 -194,116 -16,16 -25,31 -32,61 209,60 382,111 907,255z"/>
  <path class="fil6" d="M6115 4957c427,108 876,223 1470,380 585,154 1310,350 2059,552 49,-27 76,-39 93,-57 32,-32 33,-82 35,-210 2,-128 6,-335 9,-459 3,-94 6,-139 103,-201 -1085,-293 -2145,-580 -2838,-770 -401,-110 -679,-188 -900,-252 -11,32 -14,86 -17,197 -5,175 -11,494 -12,675 0,64 0,111 -2,146z"/>
  <path class="fil6" d="M8103 4084c-36,36 -129,97 -249,110 -120,14 -265,-20 -481,-73 -215,-53 -500,-125 -674,-173 -174,-48 -236,-72 -216,-110 20,-38 121,-91 193,-119 72,-28 115,-33 221,-12 106,21 274,66 459,115 185,49 386,102 513,137 126,35 177,52 213,66 36,14 57,24 21,60z"/>
  <path class="fil8" d="M7792 3915c22,-165 29,-512 54,-775 25,-264 67,-444 118,-538 51,-95 110,-103 153,-108 43,-4 69,-4 46,-4 -23,0 -95,-2 -155,4 -59,6 -106,18 -125,3 -20,-15 -12,-58 -32,-75 -19,-17 -66,-8 -116,23 -50,30 -103,82 -125,75 -21,-7 -10,-73 2,-109 12,-36 25,-42 4,-36 -21,6 -78,25 -118,49 -40,24 -63,53 -76,48 -13,-5 -16,-45 -2,-87 14,-43 44,-88 28,-93 -16,-5 -79,30 -136,80 -57,50 -107,115 -137,123 -30,8 -39,-42 -21,-94 17,-52 61,-108 65,-122 4,-15 -33,11 -78,37 -45,26 -98,51 -133,88 -35,37 -52,86 -74,193 -21,107 -47,271 -60,451 -13,180 -13,376 -15,507 -1,132 -4,199 6,237 10,38 33,47 118,71 85,24 232,65 361,98 129,33 240,60 313,81 74,22 110,39 132,-126z"/>
  <path class="fil8" d="M9552 5144c25,112 23,310 20,427 -4,117 -10,153 -86,152 -77,0 -224,-37 -469,-102 -245,-66 -586,-161 -834,-229 -248,-68 -403,-110 -498,-144 -95,-34 -130,-59 -147,-155 -16,-96 -14,-262 -4,-377 10,-115 27,-179 47,-209 20,-30 43,-26 164,5 121,31 340,90 549,150 210,60 411,120 597,173 187,53 359,99 471,135 112,36 163,62 188,174z"/>
  <path class="fil7" d="M8031 6041c35,-24 67,-34 134,-27 68,7 172,32 224,56 52,24 52,47 10,87 -42,40 -125,98 -166,137 -41,39 -41,60 -72,59 -31,-1 -94,-22 -153,-43 -59,-21 -115,-42 -129,-70 -14,-28 13,-64 46,-101 33,-37 72,-75 107,-99z"/>
  <path class="fil7" d="M7412 5852c35,-24 67,-34 134,-27 68,7 172,32 224,56 52,24 52,47 10,87 -42,40 -125,98 -166,137 -41,39 -41,60 -72,59 -31,-1 -94,-22 -153,-43 -59,-21 -115,-42 -129,-70 -14,-28 13,-64 46,-101 33,-37 72,-75 107,-99z"/>
  <path class="fil7" d="M6789 5684c35,-24 67,-34 134,-27 68,7 172,32 224,56 52,24 52,47 10,87 -42,40 -125,98 -166,137 -41,39 -41,60 -72,59 -31,-1 -94,-22 -153,-43 -59,-21 -115,-42 -129,-70 -14,-28 13,-64 46,-101 33,-37 72,-75 107,-99z"/>
  <path class="fil7" d="M7983 6615c-41,-31 -166,-61 -233,-76 -67,-15 -77,-15 -95,-2 -18,14 -45,41 -73,83 -28,42 -57,97 -76,139 -20,42 -30,69 -27,87 3,17 19,24 72,41 52,17 141,43 196,58 56,15 79,19 94,7 15,-12 22,-40 38,-82 16,-42 40,-100 72,-145 33,-45 74,-78 33,-109z"/>
  <path class="fil7" d="M7367 6414c-41,-31 -166,-61 -233,-76 -67,-15 -77,-15 -95,-2 -18,14 -45,41 -73,83 -28,42 -57,97 -76,139 -20,42 -30,69 -27,87 3,17 19,24 72,41 52,17 141,43 196,58 56,15 79,19 94,7 15,-12 22,-40 38,-82 16,-42 40,-100 72,-145 33,-45 74,-78 33,-109z"/>
  <path class="fil7" d="M6753 6233c-41,-31 -166,-61 -233,-76 -67,-15 -77,-15 -95,-2 -18,14 -45,41 -73,83 -28,42 -57,97 -76,139 -20,42 -30,69 -27,87 3,17 19,24 72,41 52,17 141,43 196,58 56,15 79,19 94,7 15,-12 22,-40 38,-82 16,-42 40,-100 72,-145 33,-45 74,-78 33,-109z"/>
  <path class="fil7" d="M7688 7221c-44,-25 -149,-58 -209,-75 -61,-17 -77,-19 -93,-14 -16,6 -31,18 -49,58 -19,39 -41,105 -60,167 -18,62 -32,121 -37,158 -5,37 0,52 47,70 47,18 135,39 197,52 62,13 98,16 117,5 18,-11 19,-38 29,-89 10,-52 29,-129 42,-179 13,-50 20,-73 32,-92 12,-20 29,-36 -15,-60z"/>
  <path class="fil7" d="M7057 7046c-44,-25 -149,-57 -209,-75 -61,-17 -77,-19 -93,-14 -16,6 -31,18 -49,58 -19,39 -41,105 -60,167 -18,62 -32,121 -37,158 -5,37 0,52 47,70 47,18 135,39 197,52 62,13 98,16 117,5 18,-11 19,-38 29,-89 10,-52 29,-129 42,-179 13,-50 20,-73 32,-92 12,-20 29,-36 -15,-60z"/>
  <path class="fil7" d="M6445 6852c-44,-25 -149,-57 -209,-75 -61,-17 -77,-19 -93,-14 -16,6 -31,18 -49,58 -19,39 -41,105 -60,167 -18,62 -32,121 -37,158 -5,37 0,52 47,70 47,18 135,39 197,52 62,13 98,16 117,5 18,-11 19,-38 29,-89 10,-52 29,-129 42,-179 13,-50 20,-73 32,-92 12,-20 29,-36 -15,-60z"/>
  <path class="fil2" d="M8043 4713c11,8 32,13 49,20 17,6 28,14 32,24 4,10 -1,22 -5,36 -5,14 -10,29 -18,33 -8,3 -19,-6 -33,-12 -14,-6 -30,-9 -46,-11 -17,-2 -34,-2 -48,1 -14,3 -24,9 -29,18 -5,10 -4,24 1,36 6,13 16,24 34,33 17,9 42,15 63,23 21,8 38,18 52,29 14,12 26,25 36,41 9,17 16,36 19,54 3,18 2,34 -1,50 -4,16 -10,31 -22,46 -11,14 -27,28 -45,37 -18,9 -39,14 -51,19 -12,5 -14,10 -15,15 -1,6 0,12 -1,21 0,9 -1,19 -2,28 -2,9 -4,15 -13,19 -9,3 -24,4 -34,-2 -9,-6 -13,-18 -14,-28 -1,-11 1,-20 0,-28 -1,-8 -4,-14 -11,-17 -7,-4 -16,-5 -32,-9 -16,-4 -38,-10 -53,-15 -15,-5 -24,-10 -26,-18 -2,-9 4,-23 8,-34 5,-12 8,-21 11,-29 3,-8 5,-14 14,-11 9,2 26,13 41,19 15,6 30,9 44,11 14,2 29,2 42,-1 13,-3 26,-11 33,-21 7,-10 8,-23 -2,-38 -11,-15 -33,-33 -56,-47 -23,-15 -46,-26 -62,-36 -16,-10 -24,-18 -32,-32 -8,-13 -16,-31 -21,-48 -5,-17 -6,-32 -5,-48 1,-15 3,-31 7,-45 4,-14 10,-26 22,-38 12,-11 31,-22 45,-28 14,-6 25,-9 31,-11 7,-3 10,-6 12,-15 3,-9 5,-25 9,-35 4,-10 9,-15 19,-17 10,-2 23,-2 32,-1 9,1 13,4 13,10 0,6 -3,16 -5,26 -2,10 -1,19 10,27z"/>
  <path class="fil2" d="M8530 4837c11,8 32,13 49,20 17,6 28,14 32,24 4,10 -1,22 -5,36 -5,14 -10,29 -18,33 -8,3 -19,-6 -33,-12 -14,-6 -30,-9 -46,-11 -17,-2 -34,-2 -48,1 -14,3 -24,9 -29,18 -5,10 -4,24 1,36 6,13 16,24 34,33 17,9 42,15 63,23 21,8 38,18 52,29 14,12 26,25 36,41 9,17 16,36 19,54 3,18 2,34 -1,50 -4,16 -10,31 -22,46 -11,14 -27,28 -45,37 -18,9 -39,14 -51,19 -12,5 -14,10 -15,15 -1,6 0,12 -1,21 0,9 -1,19 -2,28 -2,9 -4,15 -13,19 -9,3 -25,4 -34,-2 -9,-6 -13,-18 -14,-28 -1,-11 1,-20 0,-28 -1,-8 -4,-14 -11,-17 -7,-4 -16,-5 -32,-9 -16,-4 -38,-10 -53,-15 -15,-5 -24,-10 -26,-18 -2,-9 4,-23 8,-34 5,-12 8,-21 11,-29 3,-8 5,-14 14,-11 9,2 26,13 41,19 15,6 30,9 44,11 14,2 29,2 42,-1 13,-3 26,-11 33,-21 7,-10 8,-23 -2,-38 -11,-15 -33,-33 -56,-47 -23,-15 -46,-26 -62,-36 -16,-10 -24,-18 -32,-32 -8,-13 -16,-31 -21,-48 -5,-17 -6,-32 -5,-48 1,-16 3,-31 7,-45 4,-14 10,-26 22,-38 12,-11 31,-22 45,-28 14,-6 25,-9 31,-11 7,-3 10,-6 12,-15 3,-9 5,-25 9,-35 4,-10 9,-15 19,-17 10,-2 23,-2 32,-1 9,1 13,4 13,10 0,6 -3,16 -5,26 -2,10 -1,19 10,27z"/>
  <path class="fil2" d="M9007 4973c11,8 32,13 49,20 17,6 28,14 32,24 4,10 -1,22 -5,36 -5,14 -10,29 -18,33 -8,3 -19,-6 -33,-12 -14,-6 -30,-9 -46,-11 -17,-2 -34,-2 -48,1 -14,3 -24,9 -29,18 -5,10 -4,24 1,36 6,13 16,24 34,33 17,9 42,15 63,23 21,8 38,18 52,29 14,12 26,25 36,41 9,17 16,36 19,54 3,18 2,34 -1,50 -4,16 -11,31 -22,46 -11,14 -27,28 -45,37 -18,9 -39,14 -51,19 -12,5 -14,10 -15,15 -1,6 0,12 -1,21 0,9 -1,19 -2,28 -2,9 -4,15 -13,19 -9,3 -25,4 -34,-2 -9,-6 -13,-18 -14,-28 -1,-11 1,-20 0,-28 -1,-8 -4,-14 -11,-17 -7,-4 -16,-5 -32,-9 -16,-4 -38,-10 -53,-15 -15,-5 -24,-10 -26,-18 -2,-9 4,-23 8,-34 5,-12 8,-21 11,-29 3,-8 5,-14 14,-11 9,2 26,13 41,19 15,6 30,9 44,11 14,2 29,2 42,-1 13,-3 26,-11 33,-21 7,-10 8,-23 -2,-38 -11,-15 -33,-33 -56,-47 -23,-15 -46,-26 -62,-36 -16,-10 -24,-18 -32,-32 -8,-13 -16,-31 -21,-48 -5,-17 -6,-32 -5,-48 1,-16 3,-31 7,-45 4,-14 10,-26 22,-38 12,-11 31,-22 45,-28 14,-6 25,-9 31,-11 7,-3 10,-6 12,-15 3,-9 5,-25 9,-35 4,-10 9,-15 19,-17 10,-2 23,-2 32,-1 9,1 13,4 13,10 0,6 -3,16 -5,26 -2,10 -1,19 10,27z"/>
  <g id="_1995503768672">
   <path class="fil1" d="M12297 8461c-224,165 -652,473 -986,715 -333,242 -572,417 -742,543 -170,126 -271,203 -343,251 -72,48 -114,68 -147,60 -33,-8 -56,-43 -171,-215 -116,-172 -324,-482 -422,-647 -99,-165 -88,-185 109,-340 197,-154 579,-442 942,-704 363,-262 706,-497 908,-640 202,-144 263,-196 314,-221 50,-26 90,-25 136,16 45,42 97,124 200,274 103,150 259,369 346,496 86,128 104,165 102,195 -1,30 -21,51 -245,216z"/>
   <path class="fil2" d="M12151 8417c-11,-11 -25,-39 -34,-73 -9,-34 -15,-75 -13,-112 2,-38 11,-73 24,-102 14,-30 32,-54 50,-74 18,-20 36,-35 55,-31 19,4 38,28 60,62 22,34 48,77 63,107 15,29 20,44 18,58 -2,14 -11,27 -39,51 -28,25 -76,61 -105,82 -29,21 -38,26 -48,32 -9,6 -19,12 -30,1z"/>
   <path class="fil2" d="M11587 7553c12,16 40,42 72,60 32,18 66,26 110,25 44,-1 96,-10 127,-22 30,-12 38,-25 35,-43 -4,-17 -19,-39 -37,-62 -18,-23 -37,-48 -55,-64 -17,-16 -32,-23 -55,-20 -23,2 -55,14 -85,31 -31,16 -60,37 -79,50 -19,13 -26,17 -33,21 -6,4 -12,9 0,24z"/>
   <path class="fil2" d="M11203 8990c-35,20 -72,36 -117,46 -46,11 -101,16 -157,9 -56,-7 -114,-26 -163,-51 -49,-25 -90,-55 -124,-91 -33,-36 -59,-77 -79,-125 -20,-48 -35,-103 -35,-157 -1,-54 12,-107 34,-158 22,-51 54,-101 87,-140 33,-39 68,-66 114,-92 46,-26 103,-49 162,-58 59,-9 121,-3 183,17 62,20 124,54 172,93 48,40 83,86 107,140 25,54 40,117 41,181 1,64 -13,129 -37,182 -23,53 -56,94 -89,126 -33,33 -65,57 -100,77z"/>
   <path class="fil3" d="M11140 8897c-16,2 -41,14 -62,21 -21,7 -38,10 -49,4 -12,-6 -18,-21 -24,-38 -7,-17 -15,-35 -10,-45 5,-10 23,-10 41,-15 18,-5 35,-15 52,-27 17,-12 33,-26 44,-39 11,-14 16,-27 12,-41 -3,-13 -15,-26 -30,-33 -15,-7 -35,-10 -58,-4 -24,6 -52,20 -77,29 -26,9 -50,14 -73,15 -23,1 -45,-2 -67,-10 -22,-8 -45,-21 -62,-35 -17,-14 -30,-30 -39,-48 -9,-18 -15,-38 -16,-60 -1,-23 3,-48 12,-72 10,-24 25,-45 32,-59 7,-14 5,-20 2,-27 -4,-6 -9,-12 -16,-20 -7,-8 -15,-19 -20,-28 -5,-9 -8,-18 -3,-28 6,-11 20,-23 33,-26 14,-2 26,6 36,16 9,9 15,20 22,27 7,7 15,9 24,8 9,-2 19,-8 37,-17 18,-9 44,-21 62,-29 19,-8 31,-11 39,-4 9,7 15,24 20,39 5,15 9,26 13,36 4,9 7,17 -4,22 -10,5 -34,9 -54,15 -20,6 -35,16 -50,25 -15,10 -29,21 -39,35 -10,14 -16,31 -14,46 2,15 10,28 32,34 22,6 57,4 90,-1 33,-5 64,-12 87,-16 23,-3 37,-2 56,4 18,6 40,16 58,28 18,12 31,26 43,41 12,15 22,32 29,48 7,16 12,33 10,53 -2,21 -11,45 -19,63 -8,18 -16,28 -20,36 -4,8 -5,13 0,24 5,11 15,28 19,40 4,13 3,21 -4,31 -7,10 -20,21 -30,27 -9,6 -15,7 -21,1 -5,-6 -10,-18 -16,-29 -6,-11 -15,-19 -31,-17z"/>
   <path class="fil2" d="M11996 7706c80,117 201,286 268,385 67,99 80,128 79,151 -1,23 -16,40 -215,182 -199,143 -581,411 -865,614 -284,202 -469,339 -621,451 -152,113 -272,201 -348,253 -76,52 -109,67 -135,61 -25,-6 -43,-33 -133,-167 -90,-134 -251,-374 -328,-502 -77,-128 -68,-144 105,-278 173,-134 511,-388 813,-605 302,-218 569,-400 750,-526 182,-126 279,-196 344,-230 64,-35 95,-34 130,-2 35,32 75,96 155,213zm-1864 2182c28,7 65,-10 139,-59 74,-49 184,-130 342,-247 159,-117 365,-269 669,-487 303,-218 703,-501 912,-652 208,-151 225,-170 226,-195 1,-26 -14,-58 -89,-169 -75,-111 -210,-300 -300,-431 -90,-130 -134,-202 -173,-238 -39,-36 -74,-37 -132,-6 -58,30 -139,91 -329,224 -189,132 -487,336 -813,571 -326,234 -680,499 -862,640 -182,141 -191,159 -105,302 86,143 266,411 366,561 100,149 120,180 149,187z"/>
   <path class="fil2" d="M10392 9695c-6,-14 -28,-37 -56,-58 -29,-21 -64,-40 -100,-52 -36,-12 -72,-16 -104,-14 -33,2 -62,10 -87,20 -25,10 -46,21 -48,40 -3,19 13,45 36,78 24,33 55,72 77,97 22,24 34,34 48,37 14,3 29,-1 62,-19 33,-18 84,-50 114,-69 30,-19 38,-26 47,-33 9,-7 18,-13 11,-28z"/>
   <path class="fil2" d="M9804 8857c10,17 23,54 26,90 4,36 -3,71 -20,111 -18,40 -48,84 -70,108 -23,23 -38,25 -53,15 -15,-10 -28,-33 -42,-58 -14,-25 -29,-53 -37,-75 -8,-22 -8,-39 3,-59 11,-20 35,-45 62,-66 27,-22 58,-40 77,-52 19,-12 26,-18 32,-22 7,-4 13,-7 22,10z"/>
  </g>
  <g id="_1995503765952">
   <path class="fil1" d="M11885 11212c-244,-133 -704,-392 -1064,-592 -360,-200 -620,-342 -806,-443 -186,-101 -298,-161 -372,-206 -74,-45 -110,-75 -116,-108 -7,-33 15,-69 123,-246 107,-177 300,-497 408,-656 108,-159 131,-158 354,-45 223,113 646,339 1036,557 390,219 748,430 964,553 215,123 288,156 333,191 45,35 61,71 42,130 -18,59 -72,140 -164,297 -93,157 -225,390 -304,523 -79,132 -106,164 -134,175 -27,11 -55,3 -299,-130z"/>
   <path class="fil2" d="M11864 11061c5,-15 25,-39 52,-62 27,-23 61,-45 96,-59 35,-14 70,-21 103,-21 33,0 63,6 89,14 26,8 47,18 51,36 4,19 -10,46 -31,81 -21,34 -50,76 -70,102 -20,26 -32,37 -45,41 -14,4 -29,1 -63,-14 -34,-15 -88,-44 -119,-61 -31,-17 -40,-24 -49,-30 -9,-6 -19,-12 -13,-27z"/>
   <path class="fil2" d="M12409 10185c-9,17 -21,54 -24,90 -3,36 4,71 23,111 19,39 50,83 73,106 23,23 39,24 53,13 14,-11 27,-34 41,-59 14,-26 28,-54 35,-76 7,-22 7,-39 -5,-59 -12,-20 -36,-44 -64,-64 -28,-21 -59,-39 -79,-50 -19,-12 -26,-17 -33,-21 -7,-4 -13,-7 -22,10z"/>
   <path class="fil2" d="M10944 10443c-33,-23 -63,-50 -92,-87 -29,-37 -57,-85 -74,-139 -17,-54 -24,-114 -23,-170 2,-55 12,-105 30,-151 18,-45 45,-86 80,-124 35,-38 79,-75 127,-98 48,-23 102,-34 158,-35 56,-1 114,6 163,20 49,14 89,33 131,64 43,31 88,73 121,123 33,50 54,109 62,173 8,65 4,135 -12,196 -16,61 -43,111 -82,157 -39,45 -89,86 -147,113 -58,28 -122,42 -180,43 -58,1 -109,-11 -152,-27 -43,-16 -79,-35 -112,-58z"/>
   <path class="fil3" d="M11002 10347c-8,-14 -30,-31 -45,-47 -15,-16 -25,-30 -24,-43 1,-13 12,-25 24,-38 12,-13 26,-28 37,-28 11,1 19,17 31,30 12,14 29,26 47,36 18,10 37,19 54,23 17,4 31,2 42,-6 11,-9 17,-24 17,-41 0,-17 -6,-35 -21,-54 -15,-19 -39,-38 -59,-58 -19,-20 -34,-39 -44,-60 -10,-20 -17,-41 -19,-65 -2,-23 0,-49 6,-71 6,-22 15,-40 27,-55 12,-16 28,-30 48,-40 20,-11 45,-18 70,-19 25,-1 52,4 67,4 16,0 21,-4 25,-10 4,-6 7,-14 11,-23 5,-10 11,-21 17,-30 6,-9 12,-15 24,-14 12,1 30,8 37,20 8,11 5,27 1,39 -5,13 -12,22 -15,31 -3,9 -2,18 3,25 5,7 16,14 31,26 16,12 37,31 52,44 15,14 23,23 20,34 -3,11 -16,24 -27,34 -11,11 -20,20 -27,27 -7,7 -12,13 -21,6 -9,-7 -23,-27 -37,-42 -14,-15 -29,-25 -44,-35 -15,-9 -31,-17 -48,-20 -17,-3 -35,-1 -48,7 -13,8 -21,21 -17,44 4,22 21,54 39,82 18,28 38,53 51,72 13,19 18,33 20,52 2,19 2,44 -1,65 -3,21 -10,39 -19,56 -9,17 -20,33 -31,47 -12,14 -24,25 -44,32 -19,7 -46,9 -65,9 -19,0 -32,-3 -41,-3 -9,0 -14,1 -22,10 -8,9 -19,25 -28,34 -10,9 -18,12 -30,10 -12,-2 -27,-10 -37,-16 -9,-6 -13,-11 -10,-18 3,-7 12,-17 19,-27 7,-10 11,-21 3,-35z"/>
   <path class="fil2" d="M12443 10620c-72,122 -174,303 -236,406 -62,103 -83,127 -104,136 -21,9 -43,2 -256,-118 -213,-120 -618,-354 -922,-525 -303,-172 -505,-282 -671,-373 -166,-91 -297,-162 -377,-209 -79,-47 -107,-71 -112,-96 -5,-26 12,-53 95,-191 83,-138 233,-386 317,-509 84,-124 102,-123 297,-23 195,100 567,300 892,482 325,182 603,346 794,458 191,112 295,171 354,214 58,44 71,72 57,117 -14,46 -56,109 -127,231zm-2765 -769c6,29 37,55 112,101 76,46 196,112 368,206 173,95 398,218 723,401 325,183 751,426 976,551 225,125 249,133 273,123 24,-10 47,-37 116,-152 69,-115 183,-317 264,-453 80,-136 126,-207 142,-258 16,-51 2,-82 -50,-122 -52,-40 -141,-88 -342,-204 -200,-116 -511,-299 -860,-496 -350,-197 -739,-406 -944,-511 -205,-105 -225,-106 -318,32 -94,138 -261,415 -354,569 -93,154 -112,185 -106,214z"/>
   <path class="fil2" d="M9963 10006c10,-12 22,-41 29,-75 7,-35 9,-75 5,-113 -4,-37 -16,-72 -32,-100 -16,-29 -36,-52 -55,-71 -19,-19 -38,-32 -57,-27 -18,6 -36,31 -56,66 -20,35 -42,81 -55,111 -13,30 -17,46 -13,59 3,14 13,26 43,48 30,22 81,55 111,74 30,19 40,24 50,29 10,5 19,10 30,-1z"/>
   <path class="fil2" d="M10474 9119c-11,16 -39,43 -70,62 -31,18 -66,28 -109,28 -44,1 -97,-8 -127,-18 -31,-11 -39,-24 -36,-42 3,-18 18,-39 35,-63 17,-24 36,-49 53,-65 17,-16 32,-24 55,-22 23,2 55,13 86,28 31,16 61,36 80,48 19,12 27,16 33,20 7,4 12,8 1,24z"/>
  </g>
  <path class="fil4" d="M6917 9500c13,140 25,403 28,540 3,137 -4,147 -218,101 -214,-46 -635,-147 -1135,-277 -499,-130 -1077,-288 -1378,-371 -301,-83 -325,-89 -334,-169 -9,-80 -2,-233 2,-377 3,-144 3,-278 37,-330 33,-52 100,-23 357,51 257,73 705,190 1090,288 385,99 709,179 939,237 230,58 368,92 448,110 80,18 102,20 120,29 18,9 32,27 45,167z"/>
  <path class="fil0" d="M4277 8630c281,59 809,176 1266,285 456,108 841,207 1059,266 219,59 272,79 305,115 34,36 48,89 59,174 11,85 20,201 2,258 -19,56 -64,53 -112,10 -48,-43 -97,-126 -155,-193 -58,-67 -125,-118 -176,-136 -51,-18 -86,-2 -113,17 -26,19 -44,40 -96,34 -52,-6 -138,-40 -207,-87 -69,-48 -120,-109 -177,-149 -57,-40 -121,-57 -237,-83 -116,-26 -286,-59 -425,-87 -139,-28 -249,-51 -332,-63 -83,-11 -139,-11 -171,10 -32,21 -39,64 -61,90 -22,26 -59,37 -88,25 -29,-12 -50,-48 -59,-80 -9,-33 -5,-63 -56,-94 -51,-31 -157,-64 -237,-99 -80,-35 -134,-74 -182,-99 -49,-25 -93,-36 -124,-30 -31,5 -51,27 -59,25 -8,-2 -5,-28 -3,-54 2,-27 2,-55 7,-73 5,-18 14,-27 36,-31 22,-4 57,-5 338,54z"/>
  <path class="fil0" d="M6974 9965c14,33 26,121 22,169 -4,48 -23,55 -61,55 -38,1 -96,-5 -152,-18 -56,-13 -112,-33 -112,-43 0,-9 55,-8 101,-15 46,-7 82,-23 107,-48 25,-24 38,-58 52,-85 14,-27 29,-49 43,-16z"/>
  <path class="fil0" d="M4632 9330c7,24 18,63 27,94 10,31 19,55 18,89 -1,34 -11,78 -28,103 -17,25 -40,30 -58,25 -18,-5 -31,-21 -31,-56 0,-35 13,-90 22,-128 8,-38 12,-59 13,-78 1,-19 0,-36 4,-51 4,-15 11,-28 17,-30 6,-2 9,8 16,32z"/>
  <path class="fil0" d="M2903 11317c182,-4 432,-4 630,14 198,18 342,53 303,90 -39,37 -261,76 -557,78 -296,2 -667,-34 -868,-60 -201,-26 -233,-44 -191,-60 42,-16 159,-30 273,-41 115,-11 228,-18 409,-21z"/>
  <path class="fil0" d="M10232 11117c52,-2 124,2 206,22 82,20 173,55 196,84 23,29 -23,52 -115,64 -92,11 -229,11 -329,5 -99,-6 -160,-19 -180,-36 -20,-18 1,-41 25,-62 24,-21 50,-41 80,-54 30,-13 63,-21 115,-23z"/>
  <path class="fil0" d="M10668 11406c47,3 120,8 164,20 45,12 61,30 32,41 -29,11 -104,15 -166,13 -62,-1 -110,-8 -138,-19 -27,-11 -34,-28 -27,-39 6,-11 25,-16 45,-19 20,-2 42,-1 90,2z"/>
  <path class="fil0" d="M12394 9221c66,2 146,4 220,18 74,14 143,41 121,53 -22,12 -135,11 -236,9 -101,-2 -191,-4 -235,-18 -44,-14 -42,-41 -15,-53 27,-12 80,-11 146,-9z"/>
  <path class="fil9" d="M3759 6488c-28,-78 -152,-328 -300,-478 -148,-150 -321,-199 -429,-210 -108,-11 -150,18 -113,81 37,64 153,162 252,219 99,56 180,71 258,109 78,39 152,102 222,182 71,79 138,175 109,97z"/>
  <path class="fil9" d="M3731 5481c-28,-55 -138,-220 -259,-325 -122,-104 -256,-146 -335,-139 -79,7 -104,64 -49,118 55,55 189,108 296,155 108,48 189,90 256,139 67,49 120,106 92,51z"/>
  <path class="fil9" d="M11123 6813c19,-49 125,-215 235,-307 109,-92 222,-109 298,-101 76,9 115,44 83,88 -32,44 -134,97 -229,138 -95,41 -183,69 -261,116 -78,48 -145,115 -125,65z"/>
 </g>
</svg>
