<?xml version="1.0" encoding="UTF-8"?>
<!DOCTYPE svg PUBLIC "-//W3C//DTD SVG 1.1//EN" "http://www.w3.org/Graphics/SVG/1.1/DTD/svg11.dtd">
<!-- Creator: CorelDRAW 2017 -->
<svg xmlns="http://www.w3.org/2000/svg" xml:space="preserve" width="143mm" height="143mm" version="1.1" style="shape-rendering:geometricPrecision; text-rendering:geometricPrecision; image-rendering:optimizeQuality; fill-rule:evenodd; clip-rule:evenodd"
viewBox="0 0 14300 14300"
 xmlns:xlink="http://www.w3.org/1999/xlink">
 <defs>
  <style type="text/css">
   <![CDATA[
    .str0 {stroke:black;stroke-width:20}
    .fil4 {fill:none}
    .fil3 {fill:black}
    .fil1 {fill:black}
    .fil0 {fill:#EDBF42}
    .fil2 {fill:white}
   ]]>
  </style>
 </defs>
 <g id="Слой_x0020_1">
  <metadata id="CorelCorpID_0Corel-Layer"/>
  <path class="fil0" d="M7748 12658c228,-35 531,-98 833,-188 302,-91 602,-209 908,-321 306,-112 617,-218 942,-236 325,-18 665,53 973,-4 309,-57 587,-243 684,-452 97,-209 13,-443 -154,-664 -168,-220 -419,-428 -602,-633 -183,-205 -298,-408 -379,-659 -82,-251 -130,-551 -91,-882 40,-331 168,-692 278,-1021 110,-329 203,-624 154,-1003 -49,-379 -238,-842 -476,-1072 -238,-229 -525,-225 -725,-417 -201,-192 -315,-580 -201,-1005 115,-426 459,-889 666,-1319 207,-430 278,-827 40,-1107 -238,-280 -785,-443 -1360,-498 -575,-55 -1180,-2 -1638,192 -459,194 -772,529 -1160,747 -388,218 -851,320 -1296,353 -445,33 -873,-2 -1334,18 -461,20 -955,95 -1266,342 -311,247 -439,666 -298,1136 141,470 551,990 893,1490 342,501 615,981 739,1396 123,415 97,763 -154,983 -251,220 -728,313 -997,595 -269,282 -331,754 -258,1155 73,401 280,732 273,1021 -7,289 -227,536 -428,725 -201,190 -381,322 -395,454 -13,132 141,265 269,355 128,90 229,139 517,198 288,59 763,130 1254,180 491,51 998,81 1444,110 446,29 830,56 1122,70 292,13 490,13 666,8 176,-5 329,-13 557,-48z"/>
  <path class="fil1" d="M4939 10765c-361,-177 -447,-327 -485,-416 -38,-89 -27,-117 4,-137 31,-20 81,-31 140,-47 59,-16 126,-35 232,-91 105,-56 248,-148 411,-320 164,-172 348,-424 445,-633 97,-209 107,-373 105,-512 -1,-138 -14,-249 -77,-341 -63,-92 -177,-165 -301,-284 -125,-119 -260,-284 -382,-526 -121,-242 -228,-563 -286,-917 -58,-354 -68,-742 -5,-1149 63,-407 199,-834 375,-1139 176,-304 392,-487 702,-637 310,-150 715,-269 1147,-256 432,13 891,157 1216,530 325,373 515,976 606,1476 91,500 81,898 23,1223 -58,325 -165,577 -296,815 -131,238 -286,461 -435,603 -148,142 -290,203 -352,280 -62,78 -44,172 -36,311 8,139 6,324 77,528 72,204 217,427 368,571 151,145 307,211 450,250 143,40 274,54 364,58 90,5 139,0 174,36 35,36 56,111 -41,254 -97,143 -312,353 -750,539 -438,186 -1100,349 -1749,329 -649,-20 -1284,-223 -1645,-399z"/>
  <path class="fil1" d="M4493 10831c18,123 148,312 207,512 60,200 49,412 31,550 -18,139 -45,205 -71,269 -26,64 -53,126 40,203 93,77 304,170 589,232 284,62 642,93 1076,108 434,15 946,15 1352,-24 406,-40 706,-119 867,-183 161,-64 183,-112 174,-179 -9,-66 -49,-150 -68,-289 -20,-139 -20,-333 -11,-525 9,-192 26,-381 39,-530 13,-148 21,-255 -59,-343 -79,-88 -246,-157 -517,-234 -271,-77 -646,-161 -1016,-214 -370,-53 -736,-75 -1074,-36 -337,40 -646,141 -873,226 -227,85 -372,153 -492,215 -119,62 -212,118 -193,241z"/>
  <ellipse class="fil2" cx="7597" cy="5542" rx="485" ry="500"/>
  <ellipse class="fil2" cx="5977" cy="5533" rx="485" ry="500"/>
  <path class="fil3" d="M7166 5311c216,-94 495,-249 665,41 224,381 -459,606 -446,162 9,-301 479,-35 264,85 -37,21 -179,48 -82,-87 -209,63 59,260 167,96 245,-370 -634,-510 -448,59 174,533 944,81 634,-373 -212,-310 -539,-189 -754,17z"/>
  <path class="fil3" d="M6385 5687c-216,94 -495,249 -665,-41 -224,-381 459,-606 446,-162 -9,301 -479,35 -264,-85 37,-21 179,-48 82,87 209,-63 -59,-260 -167,-96 -245,370 634,510 448,-59 -174,-533 -944,-81 -634,373 212,310 539,189 754,-17z"/>
  <path class="fil1" d="M8757 3635c181,-185 574,-619 814,-914 239,-296 324,-453 327,-527 3,-73 -77,-63 -229,102 -152,165 -377,485 -560,744 -183,259 -325,456 -413,586 -87,130 -120,194 60,8z"/>
  <path class="fil1" d="M8188 3209c65,-124 249,-596 347,-895 98,-300 111,-427 82,-469 -28,-42 -98,0 -169,188 -71,187 -145,520 -208,798 -63,278 -117,503 -52,379z"/>
  <path class="fil1" d="M4667 3958c-120,-109 -555,-417 -853,-608 -298,-191 -459,-266 -544,-261 -85,5 -96,89 33,194 129,105 398,232 603,336 205,104 347,186 516,272 169,86 365,176 245,67z"/>
  <g id="_1815366561872">
   <path class="fil2" d="M5670 7221c130,-182 96,-129 168,-249 133,703 84,678 548,65 132,615 179,876 302,574l3 0 -1 -4c36,-89 79,-227 132,-417 266,426 271,439 371,-69 471,379 394,405 497,-130 135,55 68,30 242,84l0 0c-349,-232 -278,-226 -389,193 -441,-394 -419,-452 -513,-35 -260,-450 -275,-457 -419,57 -166,-694 -129,-639 -598,36 -145,-567 -121,-683 -344,-106z"/>
  </g>
  <polyline class="fil4" points="5670,7221 5855,6877 5987,7439 6007,7432 6424,6870 6607,7631 6792,6989 7059,7426 7151,7009 7568,7353 7667,6949 7932,7075 "/>
  <path class="fil1 str0" d="M9790 8712c-44,-19 -112,-40 -204,-66 -91,-25 -205,-55 -339,-135 -134,-80 -288,-210 -391,-298 -103,-88 -155,-135 -192,-186 -37,-51 -59,-106 -62,-153 -3,-48 13,-88 40,-111 27,-23 65,-27 100,-18 35,9 68,32 82,41 14,8 10,2 -21,-30 -31,-32 -87,-89 -121,-145 -33,-56 -43,-112 -34,-157 10,-46 39,-82 77,-93 37,-11 82,4 122,22 40,18 74,38 74,30 0,-8 -35,-44 -62,-76 -27,-32 -46,-60 -48,-93 -2,-33 13,-69 34,-95 21,-26 48,-40 86,-37 38,4 86,26 119,43 33,17 50,28 16,-8 -34,-36 -119,-121 -206,-217 -87,-96 -176,-204 -233,-283 -57,-79 -82,-131 -90,-175 -8,-45 0,-83 20,-99 20,-16 52,-8 141,59 89,67 236,195 369,319 133,124 253,245 351,347 98,103 173,187 202,203 29,16 10,-36 -1,-99 -11,-63 -16,-137 -8,-198 7,-61 26,-110 57,-155 31,-45 74,-87 111,-112 36,-25 66,-33 96,-31 30,2 61,16 77,28 16,12 16,23 6,55 -10,31 -31,82 -43,130 -12,48 -16,92 -9,148 7,56 25,123 61,191 36,68 91,138 130,195 39,57 63,100 118,195 55,95 142,243 259,403 117,161 264,334 237,535 -27,200 -228,426 -396,461 -168,35 -304,-123 -382,-210 -78,-88 -97,-105 -141,-125z"/>
  <path class="fil1" d="M10119 9055c66,75 155,182 221,294 66,113 111,232 117,322 7,90 -24,152 -159,201 -135,49 -373,84 -600,105 -227,21 -443,27 -596,27 -154,-1 -245,-9 -334,-23 -89,-15 -175,-36 -246,-58 -70,-23 -124,-46 -225,55 -101,102 -248,329 -315,586 -67,257 -54,544 23,802 77,258 218,487 343,593 124,106 232,89 283,37 51,-52 46,-140 43,-215 -2,-75 -1,-138 53,-208 55,-69 163,-144 414,-228 251,-84 643,-176 1007,-284 364,-108 699,-232 939,-359 240,-128 386,-260 485,-397 99,-137 152,-278 112,-470 -40,-192 -172,-434 -367,-708 -195,-274 -453,-580 -605,-764 -151,-184 -196,-247 -268,-304 -72,-57 -170,-107 -250,-81 -80,26 -142,127 -199,217 -57,90 -110,170 -130,240 -20,71 -7,132 -5,184 1,52 -9,95 6,138 15,44 57,89 99,134 42,45 86,89 152,164z"/>
  <path class="fil1" d="M4835 10061c-78,38 -175,76 -241,101 -66,25 -101,38 -143,54 -43,17 -93,37 -150,74 -57,37 -120,89 -202,182 -82,93 -182,226 -260,414 -78,188 -134,430 -176,671 -42,241 -71,481 -83,618 -12,137 -7,172 20,214 27,43 75,94 258,133 184,39 503,67 795,83 292,16 557,21 734,25 177,3 265,5 332,6 67,1 114,2 -1,-114 -115,-116 -391,-348 -528,-540 -137,-192 -135,-342 -133,-517 2,-175 4,-374 -4,-527 -8,-153 -25,-262 11,-372 37,-110 128,-222 182,-296 54,-73 71,-108 29,-156 -42,-48 -142,-109 -222,-120 -80,-11 -139,28 -217,66z"/>
 </g>
</svg>
