<?xml version="1.0" encoding="UTF-8"?>
<!DOCTYPE svg PUBLIC "-//W3C//DTD SVG 1.1//EN" "http://www.w3.org/Graphics/SVG/1.1/DTD/svg11.dtd">
<!-- Creator: CorelDRAW 2017 -->
<svg xmlns="http://www.w3.org/2000/svg" xml:space="preserve" width="143mm" height="143mm" version="1.1" style="shape-rendering:geometricPrecision; text-rendering:geometricPrecision; image-rendering:optimizeQuality; fill-rule:evenodd; clip-rule:evenodd"
viewBox="0 0 14300 14300"
 xmlns:xlink="http://www.w3.org/1999/xlink">
 <defs>
  <style type="text/css">
   <![CDATA[
    .fil1 {fill:black}
    .fil0 {fill:#4D4D4D}
    .fil4 {fill:#999999}
    .fil2 {fill:red}
    .fil3 {fill:white}
   ]]>
  </style>
 </defs>
 <g id="Слой_x0020_1">
  <metadata id="CorelCorpID_0Corel-Layer"/>
  <g id="_2562954863264">
   <path class="fil0" d="M3239 8070c221,-178 609,-490 932,-840 323,-350 582,-740 894,-1147 312,-408 676,-833 906,-1154 230,-321 325,-537 361,-708 35,-171 10,-297 -15,-390 -25,-93 -50,-153 -23,-199 28,-45 108,-75 206,-78 98,-3 214,23 309,118 96,96 171,261 181,500 10,239 -45,551 -128,820 -83,269 -194,495 -226,661 -33,166 13,272 225,322 212,50 591,45 1096,-79 505,-123 1137,-364 1564,-487 427,-123 648,-128 776,-88 128,40 163,126 138,228 -26,102 -112,220 -371,356 -259,136 -690,289 -1080,404 -389,114 -737,190 -920,237 -183,47 -201,66 -175,78 25,13 94,19 442,-58 348,-77 975,-238 1395,-359 420,-121 632,-201 814,-241 182,-40 332,-40 415,23 83,63 98,189 38,294 -60,106 -196,191 -426,287 -229,96 -552,203 -901,299 -348,96 -722,182 -1003,235 -281,53 -470,74 -527,91 -57,18 19,33 264,12 245,-21 659,-77 1039,-148 380,-71 725,-158 966,-191 241,-33 376,-13 442,55 65,68 60,184 -23,277 -83,93 -244,163 -468,231 -224,68 -510,133 -827,198 -316,64 -662,127 -881,181 -219,54 -312,98 -295,115 18,18 146,9 375,-12 229,-21 560,-54 827,-61 267,-7 471,12 632,51 162,40 281,100 311,167 30,67 -29,141 -139,191 -110,50 -271,75 -503,94 -233,19 -537,31 -840,78 -303,47 -605,127 -942,235 -337,108 -709,244 -1064,420 -355,176 -691,392 -1013,586 -322,194 -629,365 -920,480 -292,116 -568,176 -782,224 -214,48 -365,83 -533,-35 -168,-118 -355,-390 -505,-691 -151,-302 -267,-634 -319,-857 -53,-224 -43,-339 -10,-420 33,-80 88,-126 309,-304z"/>
   <path class="fil1" d="M4709 11265c48,-282 118,-714 113,-1028 -5,-314 -85,-510 -189,-789 -103,-279 -229,-641 -329,-1011 -101,-370 -176,-747 -189,-1048 -13,-302 38,-528 58,-704 20,-176 10,-302 -30,-440 -40,-138 -111,-289 -146,-390 -35,-101 -35,-151 0,-206 35,-55 106,-116 194,-138 88,-23 194,-8 304,25 111,33 226,83 334,224 108,141 209,372 307,709 98,337 194,779 259,1036 65,256 101,327 158,349 58,23 138,-3 324,-251 186,-249 478,-722 714,-1134 236,-412 417,-764 536,-1071 118,-307 173,-568 224,-784 50,-216 96,-387 158,-531 63,-143 143,-259 209,-327 65,-68 116,-88 179,-63 63,25 138,96 191,244 53,148 83,375 43,691 -40,317 -151,724 -287,1106 -136,382 -297,739 -362,923 -65,184 -35,194 75,-25 111,-219 302,-666 450,-1096 148,-430 254,-842 314,-1131 60,-289 75,-455 108,-583 33,-128 83,-219 161,-241 78,-23 184,23 254,128 70,106 106,272 96,561 -10,289 -65,701 -158,1192 -93,490 -224,1059 -292,1378 -68,319 -73,390 3,214 75,-176 231,-598 352,-1043 121,-445 206,-913 267,-1182 60,-269 96,-339 141,-377 45,-38 101,-43 153,5 53,48 103,148 96,415 -8,267 -73,699 -156,1159 -83,460 -184,948 -236,1209 -53,261 -58,297 -5,191 53,-106 163,-352 264,-649 101,-297 191,-644 256,-832 65,-189 106,-219 158,-204 53,15 118,75 141,256 23,181 3,483 -60,820 -63,337 -168,709 -327,1121 -158,412 -370,865 -626,1287 -256,422 -558,815 -789,1089 -231,274 -392,430 -483,553 -91,123 -111,214 -146,437 -35,224 -85,581 -116,802 -30,221 -40,307 -80,385 -40,78 -111,148 -531,68 -420,-80 -1189,-312 -1607,-448 -417,-136 -483,-176 -515,-211 -33,-35 -33,-65 -20,-146 13,-80 38,-211 85,-493z"/>
   <path class="fil0" d="M3253 8084c49,129 112,386 240,730 128,344 322,777 475,1050 153,273 266,387 334,466 68,78 90,121 18,227 -71,106 -237,277 -371,401 -134,124 -237,202 -327,217 -89,15 -165,-33 -351,-293 -186,-260 -483,-733 -678,-1177 -195,-444 -288,-859 -324,-1103 -36,-244 -16,-317 34,-368 50,-52 131,-82 250,-118 119,-36 278,-79 381,-108 103,-29 151,-44 192,-50 41,-6 77,-4 126,126z"/>
   <path class="fil1" d="M7285 12068c-238,-63 -713,-148 -1185,-266 -472,-118 -942,-268 -1198,-357 -256,-89 -300,-118 -342,-106 -42,12 -82,65 -169,218 -87,153 -220,407 -255,556 -35,148 28,191 273,290 245,99 673,255 1116,388 444,133 904,244 1234,298 331,54 532,52 631,25 99,-26 97,-77 102,-231 5,-155 18,-414 24,-563 6,-150 6,-190 -231,-253z"/>
  </g>
  <path class="fil2" d="M3214 5869c-47,-68 -214,-242 -413,-338 -199,-96 -428,-115 -574,-71 -146,43 -208,149 -137,220 71,71 276,109 469,134 192,25 373,37 500,62 127,25 202,62 155,-6z"/>
  <path class="fil2" d="M3037 6772c-68,-40 -304,-84 -466,-81 -161,3 -248,53 -264,115 -16,62 40,137 152,152 112,16 279,-28 413,-68 133,-40 233,-78 165,-118z"/>
  <path class="fil2" d="M8354 2263c-9,-115 -71,-419 -168,-599 -96,-180 -227,-236 -317,-248 -90,-12 -140,19 -133,81 6,62 68,155 155,251 87,96 199,196 267,276 68,81 93,143 127,211 34,68 78,143 68,28z"/>
  <path class="fil2" d="M11457 8931c189,6 487,25 705,84 217,59 354,158 379,230 25,71 -62,115 -199,99 -137,-16 -323,-90 -466,-149 -143,-59 -242,-102 -363,-143 -121,-40 -264,-78 -295,-99 -31,-22 50,-28 239,-22z"/>
  <path class="fil2" d="M11333 8338c56,-37 208,-106 337,-146 129,-40 234,-53 321,-34 87,19 155,68 140,121 -16,53 -115,109 -217,127 -102,19 -208,0 -301,-9 -93,-9 -174,-9 -234,-12 -61,-3 -101,-9 -45,-47z"/>
  <path class="fil3" d="M5189 11625c315,84 908,249 1367,368 459,119 782,191 937,269 155,79 141,164 127,284 -13,120 -25,276 -45,364 -20,88 -49,108 -117,49 -68,-59 -175,-199 -385,-350 -211,-151 -525,-315 -914,-475 -389,-160 -852,-318 -1095,-412 -243,-94 -265,-124 -271,-145 -7,-20 2,-30 24,-34 22,-4 57,-2 372,82z"/>
  <path class="fil4" d="M4393 10393c-51,-87 -137,-215 -264,-445 -127,-230 -294,-564 -424,-861 -130,-298 -223,-560 -272,-703 -49,-143 -54,-168 -120,-171 -66,-3 -193,17 -322,40 -129,23 -261,48 -332,78 -71,30 -81,66 -61,111 20,45 71,99 168,165 97,66 241,143 375,256 134,113 260,263 411,496 151,233 329,549 468,761 139,211 238,318 308,376 69,58 108,69 120,50 12,-18 -4,-65 -54,-152z"/>
  <path class="fil2" d="M2347 6129c-79,-24 -272,-68 -424,-87 -152,-19 -264,-14 -331,9 -68,24 -91,66 -66,102 25,36 100,67 207,71 107,4 248,-18 358,-33 110,-15 189,-24 246,-30 57,-6 90,-9 11,-33z"/>
  <g id="_2562954858496">
   <path class="fil3" d="M4028 3798c-26,10 -53,20 -79,29 -11,4 -22,7 -33,10 -35,10 -70,19 -104,26 -29,5 -58,9 -86,11 -14,1 -27,1 -40,1 -42,-1 -81,-7 -114,-18 -9,-3 -17,-6 -25,-10 -46,-21 -75,-52 -102,-93 -28,-41 -55,-92 -82,-136 -27,-44 -53,-80 -80,-117 -27,-37 -55,-75 -83,-98 -27,-23 -54,-30 -81,-37 -60,8 -125,21 -178,24 -7,0 -13,0 -19,0 27,7 54,15 88,28 34,14 76,34 113,65 37,31 71,72 97,123 11,21 20,44 29,67 13,34 24,69 38,104 9,23 18,45 29,67 17,36 38,71 64,107 32,43 72,87 118,126 17,14 35,28 53,41 68,47 146,80 229,92 83,12 172,4 276,-28 104,-31 225,-86 312,-144 87,-59 141,-121 180,-193 30,-56 50,-117 61,-177 3,-17 5,-34 7,-51 7,-76 -2,-147 -15,-206 -3,-13 -6,-25 -9,-36 -12,-42 -26,-77 -40,-108 -18,-40 -36,-73 -49,-107 -1,-2 -2,-5 -3,-7 -11,-32 -18,-66 -21,-106 -3,-44 -1,-96 7,-156 6,-44 16,-92 26,-141 4,-17 8,-34 11,-52 -21,28 -45,55 -72,81 -22,22 -46,44 -69,67 -9,93 -18,186 -13,261 5,75 23,131 40,184 18,52 34,100 30,149 -2,26 -11,53 -26,80 -12,22 -29,45 -50,68 -12,12 -24,25 -38,37 -27,23 -57,46 -89,67 -19,13 -40,25 -60,37 -12,7 -23,13 -35,19 -37,19 -74,36 -112,51z"/>
   <path class="fil3" d="M3496 4076c-46,-39 -86,-83 -118,-126 -27,-36 -47,-72 -64,-107 -251,236 -390,381 -472,459 -85,81 -109,90 -149,88 -39,-3 -94,-18 -148,-14 -54,4 -108,27 -145,60 -38,33 -59,76 -59,123 0,47 23,99 76,125 53,26 138,25 190,26 52,1 71,3 77,17 6,14 -3,39 -2,73 1,33 11,74 28,105 17,32 42,54 79,64 36,10 84,8 123,-10 40,-18 71,-50 83,-92 12,-42 4,-93 -7,-144 -11,-50 -24,-100 13,-164 37,-64 126,-143 444,-437l49 -45z"/>
   <path class="fil3" d="M2969 3675c81,-1 176,-2 279,-3 -9,-23 -18,-46 -29,-67 -26,-51 -59,-93 -97,-123 -37,-31 -79,-51 -113,-65 -34,-14 -61,-21 -88,-28 -10,0 -20,-1 -29,-1 -156,-1 -254,-6 -326,-16 -110,-15 -159,-43 -208,-78 -48,-36 -96,-80 -140,-97 -44,-17 -85,-7 -119,7 -34,14 -61,33 -79,54 -18,21 -27,45 -29,70 -2,25 2,52 16,78 14,26 38,51 54,67 15,16 22,24 9,37 -14,14 -49,33 -82,56 -34,22 -66,47 -81,79 -15,32 -11,71 2,108 13,36 36,70 69,93 33,24 74,38 112,37 37,0 70,-15 101,-42 31,-26 61,-64 103,-89 42,-25 96,-36 153,-47 57,-11 117,-23 522,-29z"/>
   <path class="fil3" d="M4485 2890c-8,59 -10,112 -7,156 3,41 10,74 21,106l114 -104c300,-271 352,-303 402,-334 50,-31 97,-59 144,-70 47,-11 95,-3 136,-5 41,-2 75,-13 102,-38 28,-25 49,-64 57,-103 8,-39 2,-80 -13,-115 -15,-36 -39,-66 -72,-80 -33,-13 -74,-10 -113,-3 -40,7 -79,16 -98,15 -19,0 -19,-11 -19,-33 0,-22 1,-57 -6,-86 -7,-29 -22,-51 -41,-68 -19,-17 -41,-28 -69,-32 -28,-3 -60,1 -95,14 -35,13 -71,33 -92,75 -21,43 -26,107 -37,166 -11,59 -29,112 -99,199 -40,50 -98,110 -189,197 -11,49 -20,97 -26,141z"/>
   <path class="fil3" d="M5120 3388c-98,-1 -262,-11 -529,-14 3,11 6,23 9,36 13,58 22,130 15,206 -2,17 -4,34 -7,51 389,-1 500,-2 568,18 71,22 95,67 121,111 26,44 56,87 93,110 37,23 83,25 124,11 41,-14 78,-45 97,-77 20,-32 23,-66 14,-101 -9,-35 -29,-71 -51,-96 -22,-25 -45,-38 -51,-52 -6,-14 7,-29 44,-65 37,-36 100,-93 122,-148 22,-55 3,-108 -29,-143 -32,-35 -77,-52 -127,-50 -50,1 -105,21 -147,55 -42,34 -72,82 -99,111 -27,29 -52,38 -169,37z"/>
   <path class="fil3" d="M4064 2079c56,2 109,13 148,35 39,23 64,57 77,109 13,52 13,120 -6,192 -19,72 -58,148 -90,189 -32,41 -56,46 -96,44 -41,-2 -98,-12 -164,-38 -66,-26 -141,-67 -193,-106 -52,-39 -82,-76 -106,-110 -24,-34 -42,-64 -37,-99 5,-35 32,-74 85,-109 53,-36 133,-68 201,-87 68,-19 126,-24 182,-22zm387 700c27,-26 51,-53 72,-81 22,-30 40,-62 51,-95 21,-65 17,-138 -5,-203 -22,-65 -61,-121 -101,-184 -11,-17 -22,-35 -32,-53 25,-66 50,-131 75,-219 25,-87 51,-197 41,-319 -11,-122 -58,-257 -140,-373 -83,-115 -201,-210 -345,-267 -145,-56 -315,-74 -511,-54 -195,20 -415,78 -649,182 -233,104 -480,253 -641,405 -161,152 -235,307 -259,451 -23,145 5,279 59,394 53,115 131,210 211,281 81,71 164,120 226,149 62,29 101,39 141,49 13,74 24,159 35,223 13,80 26,127 41,170 15,43 32,81 65,109 25,22 60,38 109,43 9,1 19,1 29,1l19 0c52,-2 117,-16 178,-24 26,-4 52,-6 75,-6 76,-1 125,24 168,63 39,35 72,82 122,106 6,3 11,5 17,7 19,6 40,9 63,10 35,1 74,-5 117,-15 20,-5 40,-10 61,-16 12,-3 24,-7 36,-11 39,-13 79,-27 119,-44 37,-15 73,-31 107,-47 11,-5 23,-11 34,-16 19,-9 37,-19 54,-29 37,-21 70,-42 97,-62 21,-16 37,-32 48,-47 9,-13 14,-25 17,-37 6,-29 -1,-58 -3,-94 -2,-52 8,-118 45,-179 22,-36 54,-69 87,-102 23,-22 47,-44 69,-67zm-837 24c26,31 62,127 86,199 24,72 37,121 35,159 -2,38 -20,65 -43,86 -23,21 -51,35 -77,20 -26,-14 -51,-57 -69,-107 -18,-50 -28,-106 -25,-161 3,-54 19,-106 35,-149 16,-43 32,-78 57,-47zm65 -26c-2,-40 33,-26 74,-5 41,21 88,48 127,86 39,38 70,86 91,135 21,48 32,97 22,125 -10,29 -39,37 -70,38 -31,0 -62,-7 -90,-34 -27,-26 -51,-71 -82,-140 -31,-70 -71,-164 -73,-205zm-675 -332c63,-33 143,-63 206,-73 63,-10 110,0 137,22 27,22 34,57 40,98 5,41 9,88 -3,152 -12,64 -38,146 -69,209 -31,64 -67,110 -95,139 -28,29 -50,42 -101,33 -51,-8 -131,-38 -194,-77 -63,-40 -109,-91 -135,-137 -26,-46 -31,-89 -18,-132 13,-43 46,-87 85,-127 39,-40 85,-75 148,-108z"/>
   <path class="fil3" d="M4324 3367c0,-4 -6,4 -26,23 -20,20 -54,50 -80,55 -26,5 -44,-15 -59,-38 -15,-23 -27,-49 -25,-40 2,9 17,53 12,88 -5,35 -29,60 -49,78 -20,17 -34,26 -45,23 -11,-3 -18,-18 -31,-44 -13,-26 -33,-62 -36,-60 -3,2 10,43 19,72 9,29 15,45 5,58 -10,14 -35,25 -55,33 -20,8 -35,13 -47,5 -12,-8 -20,-29 -32,-56 -12,-27 -27,-61 -30,-57 -3,4 8,45 15,75 7,30 10,48 -2,60 -12,13 -40,20 -62,25 -22,5 -39,9 -54,1 -15,-7 -28,-25 -41,-51 -13,-26 -27,-61 -30,-63 -3,-2 6,30 12,55 7,25 12,43 6,58 -6,14 -23,24 -45,30 -21,5 -46,5 -69,6 -23,1 -43,2 -27,6 16,3 68,8 105,12 37,4 58,7 75,26 17,19 29,55 32,55 3,-1 -4,-38 -3,-59 1,-22 8,-28 20,-31 12,-3 28,-3 45,10 16,12 33,36 46,56 13,19 21,34 27,43 5,9 7,13 1,-2 -6,-15 -19,-50 -27,-73 -7,-24 -8,-37 4,-50 12,-13 38,-25 54,-23 16,2 24,18 34,42 10,24 22,55 31,71 9,16 15,16 13,0 -3,-15 -14,-46 -21,-68 -8,-22 -12,-35 -6,-47 6,-11 22,-21 35,-28 12,-6 20,-10 29,-2 9,8 19,26 31,48 12,21 25,45 27,40 1,-6 -10,-41 -17,-64 -8,-23 -12,-34 -7,-49 4,-15 17,-33 30,-45 13,-12 25,-17 37,-20 12,-4 24,-6 37,-1 12,5 25,17 38,32 12,15 25,33 23,28 -1,-5 -16,-32 -25,-51 -9,-19 -11,-31 -8,-41 3,-10 10,-19 20,-29 10,-10 23,-22 33,-29 10,-7 17,-10 26,-5 9,5 21,17 34,32 13,15 27,33 27,26 0,-7 -14,-40 -23,-63 -9,-22 -12,-33 -10,-47 2,-14 10,-31 10,-35z"/>
  </g>
  <g id="_2562954855872">
   <path class="fil3" d="M11091 3865c-18,-12 -36,-25 -53,-38 -7,-5 -14,-11 -21,-17 -22,-18 -43,-36 -62,-55 -16,-16 -31,-33 -44,-50 -6,-8 -12,-17 -18,-25 -18,-28 -31,-55 -38,-81 -2,-7 -4,-14 -5,-20 -7,-39 1,-70 15,-106 14,-36 35,-75 51,-111 16,-36 28,-69 40,-102 12,-34 24,-68 26,-96 2,-27 -5,-48 -12,-68 -31,-35 -68,-71 -93,-103 -3,-4 -6,-8 -9,-12 7,20 14,41 20,68 6,28 11,63 8,101 -3,37 -15,77 -37,116 -9,16 -19,32 -30,47 -16,23 -34,46 -50,69 -11,15 -21,31 -30,48 -15,27 -29,55 -40,88 -14,39 -24,84 -29,130 -2,17 -3,35 -3,52 0,64 13,128 41,187 28,59 73,111 138,165 66,53 153,106 228,136 75,30 139,37 202,31 49,-5 97,-19 140,-38 12,-6 24,-12 36,-18 52,-29 93,-65 125,-99 7,-7 13,-15 19,-22 22,-26 38,-50 51,-73 17,-29 31,-55 47,-78 1,-2 2,-3 4,-5 16,-21 34,-40 59,-60 27,-21 61,-43 102,-63 31,-15 66,-30 102,-45 13,-5 25,-10 38,-15 -27,-1 -55,-5 -83,-10 -24,-5 -49,-10 -73,-15 -63,35 -127,70 -172,106 -46,36 -74,72 -100,106 -26,34 -49,66 -82,84 -18,10 -39,16 -62,19 -20,2 -42,1 -65,-3 -13,-2 -26,-5 -40,-8 -26,-7 -54,-16 -82,-28 -17,-7 -33,-14 -50,-22 -9,-5 -18,-9 -28,-14 -28,-15 -55,-32 -82,-49z"/>
   <path class="fil3" d="M10681 3646c5,-46 15,-91 29,-130 11,-33 25,-61 40,-88 -261,-58 -414,-83 -499,-101 -89,-19 -105,-30 -121,-57 -16,-26 -30,-68 -56,-101 -26,-33 -64,-57 -102,-67 -37,-10 -74,-5 -104,16 -30,21 -53,58 -46,103 7,45 45,99 67,133 22,34 29,47 22,57 -7,10 -26,16 -47,30 -21,15 -42,39 -55,64 -13,25 -16,51 -7,78 9,28 32,57 60,75 29,18 63,24 95,13 32,-11 61,-38 89,-67 28,-29 53,-59 111,-63 57,-4 147,18 473,93l51 12z"/>
   <path class="fil3" d="M10707 3134c36,51 78,111 124,177 11,-16 22,-32 30,-47 21,-39 33,-78 37,-116 3,-37 -2,-73 -8,-101 -6,-28 -13,-48 -20,-68 -4,-6 -8,-13 -12,-19 -67,-100 -107,-165 -132,-216 -38,-77 -42,-120 -41,-167 2,-46 9,-96 1,-132 -8,-36 -32,-57 -56,-73 -24,-15 -48,-24 -69,-27 -21,-2 -40,2 -57,12 -17,10 -32,24 -42,44 -10,20 -16,47 -19,63 -4,17 -5,25 -20,22 -15,-3 -42,-17 -71,-28 -29,-12 -59,-22 -86,-17 -27,5 -51,24 -68,48 -17,24 -29,54 -29,85 -1,31 9,64 25,88 17,24 40,38 71,46 30,8 68,11 102,27 34,16 65,46 97,77 32,32 66,65 246,321z"/>
   <path class="fil3" d="M11870 3760c-42,21 -76,42 -102,63 -25,20 -43,39 -59,60l116 28c304,74 347,93 389,111 41,18 80,36 108,62 27,26 43,59 62,85 19,25 41,42 69,49 28,7 62,3 91,-9 29,-12 52,-33 68,-59 16,-25 25,-54 20,-81 -6,-27 -26,-51 -48,-74 -22,-23 -44,-43 -53,-56 -8,-13 -2,-17 13,-27 14,-10 37,-24 52,-41 15,-17 23,-36 26,-56 3,-19 0,-39 -10,-58 -10,-19 -27,-38 -50,-54 -23,-17 -52,-31 -88,-26 -36,5 -80,30 -122,49 -43,19 -84,31 -170,24 -49,-4 -113,-15 -209,-35 -36,15 -71,29 -102,45z"/>
   <path class="fil3" d="M11829 4383c-42,-63 -108,-172 -222,-344 -6,7 -12,14 -19,22 -32,34 -73,71 -125,99 -11,6 -23,12 -36,18 171,248 220,319 236,371 17,55 -1,90 -18,126 -17,36 -32,74 -30,107 2,34 20,64 47,84 27,20 62,30 91,29 29,-1 52,-14 70,-35 19,-21 33,-50 39,-75 6,-25 4,-45 11,-55 7,-10 21,-8 61,0 39,8 103,23 148,13 45,-10 71,-45 79,-81 8,-36 -1,-72 -23,-103 -23,-31 -59,-58 -99,-70 -40,-12 -84,-10 -114,-15 -30,-5 -47,-16 -97,-92z"/>
   <path class="fil3" d="M12205 3137c23,37 40,75 42,110 3,35 -9,66 -36,97 -27,31 -71,61 -125,80 -55,19 -120,28 -160,25 -40,-2 -54,-15 -70,-42 -16,-27 -35,-68 -48,-121 -13,-53 -19,-119 -17,-170 2,-50 13,-86 24,-115 11,-30 23,-55 47,-67 24,-12 61,-12 107,7 46,19 101,55 143,91 42,36 70,70 93,107zm-278 553c29,5 56,9 83,10 29,1 57,-1 83,-9 51,-15 95,-50 127,-92 32,-42 51,-92 74,-145 6,-14 13,-29 19,-44 53,-13 106,-25 173,-47 67,-22 148,-53 222,-113 73,-60 139,-149 177,-252 38,-103 47,-220 20,-337 -27,-117 -90,-234 -188,-350 -98,-116 -231,-231 -399,-335 -168,-104 -371,-196 -539,-232 -167,-36 -299,-16 -401,32 -102,48 -176,125 -226,209 -50,84 -77,175 -87,258 -10,83 -5,157 4,209 8,52 19,82 30,112 -41,41 -91,85 -127,120 -45,43 -70,72 -91,100 -21,28 -38,55 -41,89 -3,26 2,55 20,88 3,6 7,12 12,19l9 12c24,32 61,68 93,103 14,15 26,30 37,45 33,48 39,90 33,135 -6,40 -21,82 -14,124 1,5 2,9 3,14 4,15 11,29 21,44 15,23 35,45 60,68 11,11 24,21 37,32 7,6 15,12 23,18 25,19 52,39 80,57 25,17 51,33 77,48 8,5 17,10 25,14 14,8 28,15 42,22 30,15 58,27 82,35 19,6 37,10 51,10 12,0 22,-2 31,-5 21,-9 36,-26 59,-43 32,-24 79,-47 134,-49 32,-2 68,4 103,11 24,5 49,10 73,15zm-381 -524c-8,30 -54,95 -90,142 -36,47 -61,77 -86,92 -25,15 -50,16 -73,10 -23,-6 -44,-17 -47,-40 -2,-23 14,-58 38,-91 24,-33 56,-64 92,-86 36,-22 76,-34 111,-43 35,-9 63,-14 55,16zm45 31c25,-19 31,10 35,45 5,35 8,77 1,119 -7,41 -24,83 -46,117 -22,35 -48,63 -70,69 -22,6 -41,-9 -55,-28 -14,-19 -22,-43 -18,-72 5,-29 23,-63 54,-114 31,-50 74,-117 99,-136zm-82 -576c48,26 103,64 137,100 34,36 48,70 46,97 -2,27 -21,47 -45,68 -24,21 -52,44 -99,65 -46,21 -110,39 -164,47 -54,8 -99,6 -131,0 -31,-5 -48,-14 -65,-50 -17,-36 -33,-100 -35,-158 -2,-58 10,-109 29,-146 18,-37 43,-59 76,-69 33,-10 76,-9 118,-1 42,8 85,22 133,47z"/>
   <path class="fil3" d="M11496 3865c3,-2 -5,-2 -26,-6 -21,-4 -56,-13 -70,-27 -15,-14 -10,-35 -1,-54 8,-20 20,-39 15,-34 -5,5 -27,34 -51,46 -24,12 -51,8 -71,3 -20,-5 -32,-10 -35,-19 -3,-8 4,-19 15,-39 11,-20 26,-48 23,-49 -3,-1 -23,25 -38,44 -14,18 -22,29 -35,28 -13,0 -31,-12 -45,-21 -14,-9 -23,-17 -23,-28 0,-11 10,-25 22,-44 12,-19 27,-44 23,-44 -4,0 -25,25 -41,42 -16,17 -26,27 -40,25 -13,-2 -30,-17 -43,-28 -13,-12 -23,-21 -25,-34 -2,-13 4,-29 15,-49 11,-20 27,-44 27,-47 0,-3 -17,17 -30,32 -13,15 -22,27 -34,29 -12,2 -26,-4 -38,-16 -13,-11 -24,-27 -34,-42 -10,-14 -20,-26 -15,-15 5,12 25,47 38,72 14,25 21,40 16,59 -5,19 -23,43 -21,44 2,2 22,-19 37,-28 14,-9 22,-7 29,-1 7,6 14,17 13,33 -1,16 -9,37 -16,53 -7,17 -12,29 -16,36 -4,7 -6,10 2,0 7,-10 23,-34 35,-49 12,-15 20,-21 33,-19 13,2 32,13 38,25 6,11 -1,23 -12,40 -11,17 -26,38 -32,51 -6,13 -3,17 5,8 9,-8 24,-29 34,-43 11,-14 17,-23 27,-24 10,-1 23,5 33,10 9,5 15,9 14,18 -1,9 -8,24 -17,41 -8,17 -18,36 -14,35 4,-2 22,-24 33,-39 11,-15 17,-22 28,-26 11,-4 29,-4 42,-1 13,3 21,9 29,15 8,6 15,13 17,23 2,10 0,23 -4,38 -4,14 -10,30 -8,27 2,-3 13,-24 22,-38 9,-14 15,-21 22,-23 8,-3 17,-2 27,0 11,2 24,5 33,8 9,3 14,6 15,15 1,8 -2,21 -6,36 -4,15 -9,32 -5,29 5,-3 20,-27 30,-42 10,-15 16,-22 26,-27 10,-5 24,-8 27,-9z"/>
  </g>
  <g id="_2562954854976">
   <path class="fil3" d="M10061 11073c13,-24 27,-48 41,-71 6,-10 12,-19 18,-28 19,-30 40,-58 61,-84 18,-22 37,-43 57,-62 10,-9 19,-18 29,-26 32,-26 65,-46 96,-58 8,-3 17,-6 25,-9 47,-14 88,-8 135,5 46,13 99,34 146,49 47,15 90,26 133,36 44,10 88,21 123,20 35,-1 59,-12 84,-24 40,-44 79,-95 117,-129 5,-4 9,-8 14,-12 -24,11 -49,23 -83,34 -34,11 -77,22 -124,23 -47,1 -98,-9 -149,-31 -21,-9 -42,-20 -63,-32 -30,-17 -61,-36 -93,-53 -21,-11 -42,-22 -64,-32 -35,-16 -73,-29 -115,-39 -50,-12 -108,-19 -166,-19 -22,0 -44,1 -65,3 -80,8 -159,33 -228,76 -69,43 -130,105 -187,194 -58,89 -112,205 -140,303 -28,98 -28,179 -12,256 13,60 36,118 66,170 9,15 18,29 27,42 43,61 94,108 141,143 10,8 20,14 30,21 35,24 67,40 97,55 38,18 73,31 104,48 2,1 4,2 7,4 29,17 55,37 83,65 30,31 61,70 93,120 23,36 46,78 69,121 8,15 16,30 24,46 -2,-34 -1,-69 2,-105 3,-31 6,-62 9,-93 -52,-75 -104,-149 -155,-202 -51,-52 -100,-83 -145,-111 -46,-28 -89,-53 -116,-91 -15,-21 -26,-46 -31,-75 -5,-24 -7,-52 -5,-82 1,-16 3,-34 5,-51 5,-34 13,-70 24,-106 6,-22 13,-43 21,-65 4,-12 9,-24 14,-36 15,-37 32,-73 51,-108z"/>
   <path class="fil3" d="M10281 10532c58,0 116,7 166,19 42,10 80,23 115,39 38,-333 49,-527 60,-637 12,-113 24,-136 55,-158 31,-23 81,-46 118,-83 37,-37 63,-88 70,-136 7,-48 -4,-93 -34,-128 -30,-35 -79,-59 -135,-44 -56,15 -118,69 -157,101 -39,32 -55,42 -68,35 -13,-7 -23,-31 -44,-55 -21,-24 -54,-48 -87,-60 -33,-12 -66,-13 -99,2 -33,15 -67,47 -85,85 -18,38 -21,82 -3,121 18,39 56,72 96,102 40,31 81,59 93,130 13,71 -3,185 -54,603l-8 65z"/>
   <path class="fil3" d="M10923 10497c-59,52 -129,112 -205,178 21,12 42,23 63,32 51,22 102,31 149,31 47,-1 91,-12 124,-23 34,-11 58,-23 83,-34 7,-6 15,-12 22,-17 116,-97 192,-155 252,-193 91,-58 145,-69 203,-73 58,-4 121,-1 165,-17 43,-15 67,-48 83,-80 16,-32 24,-63 24,-90 0,-27 -8,-50 -23,-70 -14,-20 -34,-37 -61,-47 -27,-10 -60,-14 -82,-16 -22,-2 -31,-3 -30,-22 2,-19 15,-55 26,-93 11,-38 19,-77 10,-110 -9,-33 -36,-60 -69,-79 -33,-19 -71,-29 -110,-26 -39,3 -79,19 -106,43 -27,24 -42,55 -49,94 -6,39 -4,86 -20,130 -16,45 -49,87 -84,131 -35,44 -73,91 -368,350z"/>
   <path class="fil3" d="M10294 12033c-31,-49 -63,-89 -93,-120 -28,-28 -54,-49 -83,-65l-19 149c-52,389 -70,446 -88,500 -18,54 -35,105 -63,143 -29,38 -68,62 -97,89 -29,27 -47,57 -52,93 -5,36 4,78 23,112 19,34 49,60 82,77 33,17 71,25 104,14 33,-11 60,-39 86,-69 25,-30 48,-61 63,-73 15,-12 21,-4 35,12 14,17 35,43 58,59 23,17 48,24 73,25 25,1 48,-5 71,-20 23,-15 44,-39 61,-70 18,-31 32,-69 20,-114 -11,-45 -48,-96 -77,-146 -29,-51 -49,-101 -52,-209 -1,-62 4,-144 16,-265 -23,-43 -46,-85 -69,-121z"/>
   <path class="fil3" d="M9511 12063c74,-61 201,-157 400,-322 -10,-6 -19,-13 -30,-21 -47,-35 -98,-82 -141,-143 -9,-13 -19,-28 -27,-42 -287,246 -369,316 -433,344 -66,29 -112,10 -160,-6 -47,-16 -96,-30 -138,-23 -42,7 -77,33 -99,70 -21,36 -29,82 -24,118 6,36 24,63 53,83 28,20 67,35 98,39 32,5 57,0 70,7 13,7 13,26 8,76 -5,50 -16,132 3,186 18,55 66,82 112,88 46,6 90,-10 126,-43 36,-33 65,-82 75,-133 10,-52 2,-106 4,-144 2,-38 14,-61 102,-133z"/>
   <path class="fil3" d="M11117 12369c-43,33 -89,59 -132,67 -43,8 -83,-2 -125,-32 -42,-30 -85,-81 -117,-146 -31,-66 -50,-146 -52,-196 -2,-50 12,-69 44,-93 32,-24 80,-53 145,-76 65,-23 147,-39 210,-43 63,-4 109,5 147,15 39,10 71,21 90,50 18,29 23,75 6,134 -17,60 -56,134 -94,191 -39,57 -78,97 -121,130zm-727 -275c-3,36 -4,72 -2,105 2,36 9,71 22,103 25,61 75,113 131,147 57,34 122,51 191,73 19,6 38,12 57,19 23,64 46,129 82,209 36,81 86,178 171,262 85,84 205,154 338,188 134,33 281,29 424,-20 143,-49 280,-143 412,-281 132,-138 258,-319 366,-543 107,-224 196,-490 219,-703 23,-214 -19,-375 -93,-497 -74,-122 -180,-203 -291,-255 -111,-51 -229,-73 -333,-75 -105,-2 -197,15 -261,32 -64,17 -100,35 -135,53 -56,-46 -118,-102 -166,-143 -60,-51 -99,-78 -137,-101 -38,-22 -74,-40 -116,-40 -32,0 -68,10 -108,37 -7,5 -15,11 -22,17l-14 12c-37,35 -77,86 -117,129 -17,19 -35,37 -51,52 -56,48 -108,61 -164,59 -51,-2 -105,-15 -157,-2 -6,2 -12,3 -17,6 -18,7 -35,18 -53,32 -26,21 -52,50 -77,84 -12,16 -23,32 -35,50 -7,10 -13,20 -20,31 -21,34 -42,70 -61,107 -18,34 -35,69 -50,103 -5,11 -10,22 -15,33 -8,19 -15,37 -22,55 -15,39 -26,75 -32,107 -5,25 -7,47 -6,65 1,15 5,27 11,38 14,25 37,42 61,68 34,37 69,93 79,161 6,40 4,85 0,130 -3,31 -7,62 -9,93zm605 -544c-38,-7 -125,-55 -189,-94 -64,-38 -104,-66 -126,-95 -22,-29 -26,-61 -22,-90 4,-30 16,-57 44,-63 29,-6 74,10 118,36 44,26 87,61 119,103 32,42 53,91 68,133 15,42 25,77 -13,71zm-32 60c27,28 -8,40 -52,50 -43,10 -95,20 -148,17 -53,-3 -106,-20 -152,-42 -46,-23 -84,-52 -95,-79 -11,-27 6,-52 28,-72 22,-20 51,-34 87,-31 37,2 82,20 149,52 67,32 156,77 183,106zm709 -178c-26,64 -66,137 -107,184 -40,47 -81,69 -115,70 -34,0 -61,-20 -91,-47 -30,-27 -62,-60 -94,-115 -32,-55 -63,-132 -80,-199 -17,-67 -20,-123 -17,-163 3,-40 11,-62 53,-88 43,-26 121,-55 193,-65 72,-10 138,-2 186,16 48,18 79,46 96,86 17,40 21,93 17,147 -4,54 -16,109 -42,173z"/>
   <path class="fil3" d="M10114 11578c2,4 2,-7 5,-34 3,-27 8,-71 24,-91 16,-20 42,-17 67,-9 26,8 51,20 44,14 -7,-6 -46,-29 -64,-58 -18,-29 -16,-63 -13,-88 4,-25 9,-41 19,-46 10,-5 25,2 51,13 26,11 63,26 64,22 1,-4 -35,-26 -60,-41 -25,-15 -39,-24 -40,-40 -1,-16 11,-40 21,-59 10,-19 18,-32 32,-33 14,-1 33,9 58,21 26,13 59,28 58,23 -1,-4 -34,-28 -58,-46 -24,-18 -37,-29 -36,-46 1,-17 17,-40 30,-58 13,-18 24,-31 39,-35 16,-4 36,1 63,12 26,11 59,28 62,28 3,0 -23,-18 -44,-33 -21,-14 -36,-25 -41,-39 -5,-14 2,-33 14,-50 13,-17 31,-33 48,-48 16,-15 30,-29 17,-21 -14,8 -55,37 -85,57 -30,20 -47,32 -72,28 -25,-4 -56,-23 -58,-21 -2,2 26,26 40,42 13,16 12,26 5,36 -7,10 -19,20 -39,21 -20,1 -47,-6 -69,-13 -22,-6 -37,-12 -47,-15 -10,-4 -13,-6 1,2 14,8 46,24 66,37 20,13 29,22 28,39 -1,17 -12,42 -26,51 -13,9 -29,1 -52,-10 -22,-11 -51,-27 -68,-33 -17,-6 -21,-2 -9,8 12,10 39,26 59,37 19,11 31,19 33,31 3,12 -3,30 -8,42 -5,12 -9,20 -20,20 -12,0 -31,-7 -53,-16 -22,-8 -47,-18 -45,-13 3,5 33,24 53,37 20,12 30,18 36,31 6,14 8,36 6,52 -2,17 -8,28 -15,38 -7,10 -14,20 -26,24 -12,4 -29,4 -48,0 -19,-3 -39,-9 -35,-6 4,3 32,13 50,22 18,9 28,16 32,25 4,9 4,20 3,34 -1,14 -3,31 -6,42 -3,12 -6,18 -16,20 -10,2 -27,1 -46,-2 -19,-3 -41,-8 -37,-2 5,6 36,21 56,32 20,11 30,17 37,29 7,12 13,29 15,33z"/>
  </g>
 </g>
</svg>
