<?xml version="1.0" encoding="UTF-8"?>
<!DOCTYPE svg PUBLIC "-//W3C//DTD SVG 1.1//EN" "http://www.w3.org/Graphics/SVG/1.1/DTD/svg11.dtd">
<!-- Creator: CorelDRAW 2017 -->
<svg xmlns="http://www.w3.org/2000/svg" xml:space="preserve" width="143mm" height="143mm" version="1.1" style="shape-rendering:geometricPrecision; text-rendering:geometricPrecision; image-rendering:optimizeQuality; fill-rule:evenodd; clip-rule:evenodd"
viewBox="0 0 14300 14300"
 xmlns:xlink="http://www.w3.org/1999/xlink">
 <defs>
  <style type="text/css">
   <![CDATA[
    .fil2 {fill:black}
    .fil7 {fill:#6600FF}
    .fil5 {fill:#6666FF}
    .fil6 {fill:#7BAD52}
    .fil0 {fill:#CC7298}
    .fil1 {fill:red}
    .fil4 {fill:#FFD663}
    .fil3 {fill:white}
   ]]>
  </style>
 </defs>
 <g id="Слой_x0020_1">
  <metadata id="CorelCorpID_0Corel-Layer"/>
  <path class="fil0" d="M6950 10810c794,5 1659,14 2290,19 631,5 1030,5 1218,77 188,72 164,215 271,293 106,78 342,91 671,131 329,40 751,106 995,226 244,120 311,292 173,427 -138,135 -480,231 -872,281 -392,50 -834,53 -1024,115 -189,61 -126,181 -291,273 -165,91 -557,155 -1489,165 -932,10 -2405,-33 -3451,-58 -1047,-25 -1668,-32 -2125,-116 -457,-85 -749,-248 -811,-447 -61,-199 108,-435 47,-618 -61,-183 -354,-312 -452,-439 -98,-126 -2,-249 465,-304 467,-55 1304,-42 2085,-35 781,7 1506,7 2300,11z"/>
  <path class="fil1" d="M11935 4854c536,-904 18,-526 -39,-1208 -42,-501 318,-598 52,-1171 -320,-692 177,-286 -113,-1032 120,163 196,277 135,477 -204,663 389,387 104,1325 -303,999 636,775 -140,1610z"/>
  <path class="fil2" d="M8610 3901c129,-55 267,-58 397,-37 129,21 250,67 344,135 94,67 161,156 208,269 47,113 73,250 57,406 -15,156 -72,332 -148,453 -76,121 -173,187 -216,254 -43,67 -32,134 -4,194 28,60 74,113 161,147 87,34 214,48 367,-12 152,-60 330,-195 472,-319 142,-124 247,-237 378,-371 130,-133 285,-286 398,-398 113,-112 184,-183 242,-215 58,-32 104,-25 143,16 39,41 71,115 -19,273 -90,158 -301,400 -496,606 -194,206 -371,376 -556,532 -184,156 -375,297 -501,390 -126,92 -186,135 -220,264 -34,129 -41,345 -32,558 9,212 33,421 61,606 28,186 60,349 310,622 250,273 718,656 1085,922 367,266 632,415 781,487 149,73 181,69 223,35 43,-34 96,-97 163,-138 67,-41 149,-58 212,-30 64,28 110,103 85,204 -25,101 -120,228 -228,342 -108,113 -228,212 -372,211 -143,-2 -310,-104 -581,-266 -271,-161 -646,-381 -993,-606 -347,-225 -666,-455 -869,-584 -204,-129 -292,-158 -347,-140 -55,18 -76,81 -96,386 -19,305 -37,850 -57,1305 -19,455 -41,820 -58,1015 -18,195 -32,220 -106,244 -74,25 -209,50 -358,48 -149,-2 -312,-30 -407,-76 -96,-46 -124,-110 -119,-174 5,-64 44,-127 103,-175 58,-48 136,-80 200,-117 64,-37 113,-80 140,-230 27,-151 30,-409 28,-730 -2,-320 -9,-703 -25,-1105 -16,-402 -41,-823 -62,-1192 -21,-368 -39,-683 -44,-924 -5,-241 2,-407 -32,-515 -34,-108 -108,-158 -246,-246 -138,-89 -340,-216 -529,-411 -189,-195 -367,-457 -467,-650 -101,-193 -126,-317 -112,-416 14,-99 67,-174 135,-138 67,35 149,181 237,335 89,154 184,317 308,453 124,136 276,246 407,312 131,66 241,87 322,69 81,-18 135,-74 177,-131 42,-57 74,-113 85,-170 11,-57 0,-113 -48,-175 -48,-62 -134,-129 -194,-241 -61,-112 -96,-267 -101,-423 -5,-156 19,-312 92,-443 73,-131 193,-237 322,-292z"/>
  <path class="fil3" d="M8866 5578c53,-1 104,-4 132,7 28,11 33,35 35,67 2,33 0,75 -23,97 -23,22 -67,24 -110,25 -44,1 -87,1 -118,-24 -31,-24 -51,-73 -62,-106 -11,-33 -14,-49 13,-57 26,-8 82,-8 135,-9z"/>
  <path class="fil3" d="M8968 5953c24,126 70,369 105,546 36,177 62,289 72,351 10,63 4,77 -28,173 -32,97 -90,276 -122,354 -33,78 -40,54 -80,-28 -40,-82 -113,-221 -148,-301 -35,-80 -31,-102 -10,-298 21,-197 58,-568 84,-754 26,-185 40,-184 53,-184 14,-1 28,-3 36,0 9,4 13,14 37,140z"/>
  <path class="fil3" d="M4839 4595c23,-119 73,-235 168,-310 96,-74 237,-106 430,-101 193,5 437,48 634,124 197,76 345,186 492,398 147,212 291,528 415,908 124,381 228,827 347,1123 119,296 254,441 386,529 133,89 264,120 347,142 83,21 119,32 104,80 -14,48 -78,133 -156,174 -78,41 -170,37 -250,64 -80,27 -147,83 -195,168 -48,85 -76,198 -158,246 -81,48 -216,30 -342,7 -126,-23 -243,-51 -320,-12 -78,39 -117,145 -179,182 -62,37 -147,5 -209,-50 -62,-55 -101,-133 -120,-297 -19,-165 -19,-416 -47,-604 -27,-188 -81,-313 -153,-445 -72,-132 -160,-271 -250,-409 -90,-138 -180,-274 -279,-386 -98,-112 -205,-201 -313,-337 -108,-137 -218,-321 -280,-468 -62,-147 -76,-256 -85,-371 -9,-115 -12,-235 11,-354z"/>
  <path class="fil2" d="M5759 6031c-16,54 -23,109 -12,156 11,47 39,86 96,123 57,37 142,73 207,81 66,9 112,-9 181,-96 69,-87 161,-243 225,-416 64,-174 99,-365 142,-556 42,-192 92,-384 147,-517 55,-134 115,-209 180,-265 66,-56 137,-93 174,-85 37,8 41,61 7,169 -34,108 -104,272 -191,525 -87,253 -189,596 -237,810 -48,214 -41,299 -129,432 -89,133 -273,313 -404,426 -132,112 -210,157 -309,180 -98,24 -216,26 -345,4 -129,-22 -270,-68 -418,-84 -148,-16 -303,-3 -500,9 -198,12 -439,23 -725,-27 -287,-50 -620,-159 -887,-267 -267,-108 -469,-214 -579,-305 -110,-90 -127,-165 -101,-209 27,-44 97,-58 207,-27 110,32 259,110 436,184 177,74 382,145 577,197 195,51 379,83 544,97 165,14 310,11 441,-9 131,-19 248,-55 349,-89 101,-34 186,-66 264,-106 78,-41 149,-90 193,-138 44,-48 62,-94 51,-131 -11,-37 -50,-66 -122,-101 -73,-35 -179,-78 -271,-158 -92,-80 -170,-198 -207,-327 -38,-129 -35,-270 -25,-356 10,-86 28,-118 7,-131 -21,-12 -81,-5 -110,-12 -28,-7 -25,-28 -14,-73 11,-44 28,-112 57,-175 28,-64 67,-124 110,-175 42,-51 89,-94 154,-131 66,-37 151,-69 225,-81 74,-12 138,-3 181,23 42,26 64,68 96,73 32,5 74,-27 143,-45 68,-19 162,-25 251,-3 88,21 171,69 249,136 78,67 150,152 200,265 50,113 77,255 79,371 2,116 -22,206 -25,289 -3,82 15,157 48,171 34,14 83,-32 97,-34 14,-2 -7,41 -43,96 -35,55 -85,122 -138,159 -53,37 -110,44 -174,42 -64,-3 -135,-15 -182,-25 -48,-10 -73,-17 -97,6 -25,23 -50,76 -66,130z"/>
  <path class="fil3" d="M5593 6734c38,3 66,-51 113,-90 48,-39 115,-63 175,-70 60,-6 111,5 160,33 49,28 95,72 95,149 0,76 -47,184 -94,284 -48,100 -96,192 -126,265 -30,73 -40,126 -46,207 -5,81 -5,191 72,373 77,182 232,436 406,725 174,289 366,613 510,925 144,312 239,612 319,927 80,315 143,644 188,858 44,214 69,313 35,372 -34,58 -126,76 -259,97 -133,21 -306,46 -441,41 -135,-5 -230,-41 -301,-81 -71,-41 -117,-87 -193,-110 -76,-23 -182,-23 -289,2 -106,25 -212,74 -328,101 -115,27 -239,30 -352,4 -113,-27 -216,-83 -313,-133 -97,-50 -189,-92 -273,-110 -83,-18 -158,-11 -234,16 -76,27 -154,73 -267,87 -113,14 -262,-4 -391,-51 -129,-48 -239,-126 -308,-221 -69,-96 -97,-209 -158,-274 -60,-66 -152,-83 -255,-96 -103,-12 -216,-19 -315,-67 -99,-48 -184,-136 -237,-244 -53,-108 -74,-236 -83,-344 -9,-108 -5,-197 -90,-287 -85,-90 -259,-182 -370,-259 -112,-76 -161,-136 -198,-227 -37,-90 -62,-211 -73,-333 -11,-122 -7,-246 -4,-338 4,-92 7,-152 34,-166 27,-14 76,18 179,30 103,12 259,5 432,-21 174,-27 365,-73 528,-135 163,-62 297,-140 453,-228 156,-89 333,-188 519,-278 186,-90 381,-172 561,-232 181,-60 347,-99 466,-131 119,-32 189,-57 248,-110 58,-53 104,-135 126,-207 21,-73 18,-136 -18,-219 -36,-83 -105,-185 -133,-262 -28,-78 -15,-132 13,-182 27,-50 69,-96 118,-122 49,-26 104,-32 149,-27 45,5 80,22 122,60 42,38 91,98 130,100z"/>
  <path class="fil4" d="M7213 1035c-851,579 -392,370 -80,991 304,605 -421,521 -192,945 79,146 108,184 172,347 -267,-361 -433,-452 -160,-755 622,-689 -1160,-962 260,-1529z"/>
  <path class="fil5" d="M3230 2956c243,290 738,786 373,1163 -437,452 -238,374 110,762 178,198 -138,375 -257,664l-67 202c106,-857 571,-551 78,-947 -398,-320 -211,-497 62,-756 310,-295 -112,-768 -300,-1088z"/>
  <path class="fil6" d="M2037 1522c-404,785 -17,401 -75,880 -32,270 -221,391 -27,698 89,141 55,232 -23,371l7 -75c55,-447 -307,-177 -93,-923 130,-452 -341,-394 211,-951z"/>
  <path class="fil7" d="M11134 6214c-404,785 -17,401 -75,880 -32,270 -221,391 -27,698 89,141 55,232 -23,371l7 -75c55,-447 -307,-177 -93,-923 130,-452 -341,-394 211,-951z"/>
 </g>
</svg>
