<?xml version="1.0" encoding="UTF-8"?>
<!DOCTYPE svg PUBLIC "-//W3C//DTD SVG 1.1//EN" "http://www.w3.org/Graphics/SVG/1.1/DTD/svg11.dtd">
<!-- Creator: CorelDRAW 2017 -->
<svg xmlns="http://www.w3.org/2000/svg" xml:space="preserve" width="143mm" height="103mm" version="1.1" style="shape-rendering:geometricPrecision; text-rendering:geometricPrecision; image-rendering:optimizeQuality; fill-rule:evenodd; clip-rule:evenodd"
viewBox="0 0 14300 10300"
 xmlns:xlink="http://www.w3.org/1999/xlink">
 <defs>
  <style type="text/css">
   <![CDATA[
    .fil9 {fill:none}
    .fil7 {fill:#1A1A1A}
    .fil15 {fill:#315063}
    .fil17 {fill:#315063}
    .fil5 {fill:#333333}
    .fil1 {fill:#333333}
    .fil4 {fill:#4D4D4D}
    .fil10 {fill:#75A3B3}
    .fil2 {fill:gray}
    .fil8 {fill:gray}
    .fil6 {fill:#999999}
    .fil0 {fill:#A60000}
    .fil16 {fill:#AB6844}
    .fil3 {fill:#B3B3B3}
    .fil18 {fill:#B5DBE8}
    .fil14 {fill:#FF9933}
    .fil13 {fill:#FFCC99}
    .fil19 {fill:#FFCC99}
    .fil12 {fill:#FFFFCC}
    .fil11 {fill:white}
   ]]>
  </style>
 </defs>
 <g id="Слой_x0020_1">
  <metadata id="CorelCorpID_0Corel-Layer"/>
  <path class="fil0" d="M8757 5596c667,98 1859,295 2781,438 923,143 1576,232 1814,405 238,173 61,432 -415,556 -475,124 -1249,115 -1797,138 -549,23 -873,78 -1032,183 -159,104 -154,258 -379,347 -226,89 -684,115 -1165,87 -481,-28 -987,-108 -1414,-109 -428,-1 -778,78 -1312,106 -534,28 -1252,4 -1962,-27 -710,-31 -1412,-69 -1509,-177 -97,-108 412,-285 738,-439 327,-153 472,-283 359,-371 -113,-89 -484,-137 -880,-202 -395,-65 -815,-145 -993,-270 -178,-125 -113,-295 73,-375 186,-81 492,-73 799,-32 307,40 613,113 999,76 386,-37 851,-182 1423,-272 572,-90 1252,-123 1756,-139 504,-17 833,-17 1069,-18 236,-1 379,-4 1046,94z"/>
  <g id="_2394216269888">
   <path class="fil0" d="M968 7374c204,10 547,34 746,77 200,42 256,103 171,133 -85,30 -311,30 -518,32 -208,2 -397,6 -543,2 -145,-4 -246,-16 -270,-59 -24,-42 28,-115 87,-153 59,-38 123,-42 327,-32z"/>
   <path class="fil0" d="M5829 8040c91,-6 196,2 194,34 -2,32 -111,89 -266,115 -155,26 -357,22 -393,0 -36,-22 93,-63 196,-93 103,-30 180,-50 270,-56z"/>
   <path class="fil0" d="M4929 8231c58,-16 124,-20 136,-6 12,14 -30,46 -88,63 -58,16 -130,16 -142,2 -12,-14 36,-42 94,-59z"/>
   <path class="fil0" d="M13246 7129c15,-11 181,-11 248,0 68,11 37,33 -45,33 -83,0 -218,-22 -203,-33z"/>
   <path class="fil0" d="M13434 7317c82,12 193,48 256,86 64,37 80,76 16,81 -64,5 -207,-23 -314,-50 -107,-27 -178,-53 -196,-71 -18,-17 16,-25 60,-35 43,-10 96,-22 178,-10z"/>
   <g>
    <path class="fil1" d="M9938 8655c-3,3 -8,4 -13,5 -18,3 -39,-1 -76,-8 -36,-7 -87,-18 -136,-24 -50,-6 -99,-8 -144,-8 -44,0 -83,3 -110,15 -27,12 -41,33 -43,62 -2,29 8,67 4,82 -4,15 -22,7 -39,-10 -17,-16 -31,-41 -39,-71 -7,-30 -7,-64 5,-90 12,-26 37,-44 70,-59 33,-15 75,-26 98,-42 23,-16 28,-36 39,-45 11,-9 28,-7 98,24 70,31 193,91 247,126 24,15 35,26 38,33 2,4 1,7 -1,9zm224 87c15,-23 0,-53 -79,-110 -79,-57 -224,-139 -306,-183 -82,-44 -101,-50 -139,-58 -38,-8 -95,-17 -152,-21 -57,-4 -114,-3 -182,0 -68,4 -145,10 -193,22 -48,12 -66,29 -75,53 -9,24 -9,56 9,89 18,34 54,70 125,120 71,50 176,114 264,147 88,34 158,38 260,31 101,-6 233,-22 321,-38 88,-16 132,-31 146,-54z"/>
    <path class="fil2" d="M9933 8647c8,7 11,17 12,33 1,16 -1,37 -2,52 -1,15 -1,25 -7,32 -6,7 -19,12 -50,11 -31,-1 -82,-8 -135,-15 -53,-8 -110,-16 -151,-17 -41,-1 -67,5 -79,16 -12,11 -11,27 -7,45 4,18 10,37 0,48 -10,11 -38,15 -57,10 -19,-4 -31,-16 -41,-30 -9,-14 -16,-31 -19,-60 -3,-29 -2,-70 8,-102 11,-32 31,-55 65,-70 34,-15 80,-22 136,-18 56,4 120,17 169,27 49,10 83,16 101,20 18,4 20,5 28,7 8,2 21,5 30,12z"/>
    <path class="fil3" d="M9925 8660c6,-1 11,-2 13,-5 0,-3 1,-6 1,-9 -3,-7 -14,-17 -38,-33 -55,-35 -177,-95 -247,-126 -70,-31 -87,-33 -98,-24 -11,9 -16,29 -39,45 -23,16 -65,27 -98,42 -33,15 -58,33 -70,59 -12,26 -12,60 -5,90 7,30 22,54 39,71 17,16 35,24 39,10 4,-15 -6,-52 -4,-82 2,-29 16,-50 43,-62 27,-12 66,-15 110,-15 44,0 94,1 144,8 50,6 100,17 136,24 36,7 58,11 76,8z"/>
    <path class="fil4" d="M10413 8859c-93,-3 -212,-2 -351,5 -138,7 -295,20 -414,25 -119,5 -200,1 -309,-39 -109,-40 -247,-116 -335,-176 -87,-60 -125,-105 -155,-134 -31,-29 -56,-42 -78,-74 -23,-32 -44,-82 -104,-104 -60,-21 -159,-14 -401,16 -242,29 -628,81 -859,109 -231,29 -306,34 -351,42 -46,8 -62,19 -79,34 -17,16 -34,37 -53,36 0,0 -1,0 -1,0 1,7 2,14 3,22 10,77 10,148 8,239 -1,56 -3,118 -8,178 12,-2 21,9 37,21 17,12 40,24 103,23 63,-1 165,-15 410,-46 245,-31 632,-78 892,-103 260,-25 393,-27 473,-12 80,15 106,49 159,93 53,44 134,99 231,143 96,44 208,77 310,92 102,14 195,10 308,-1 113,-11 246,-27 336,-34 90,-7 138,-5 195,10 57,14 124,40 257,106 133,65 333,170 471,239 138,69 214,102 283,115 69,13 131,6 169,13 38,7 52,29 81,42 29,13 71,18 187,0 115,-18 303,-58 425,-87 122,-29 179,-45 207,-132 27,-87 25,-244 23,-343 -1,-39 -2,-69 -5,-94 -2,-1 -3,-2 -5,-3 -19,-12 -44,-26 -96,-22 -52,4 -132,25 -243,48 -111,23 -252,49 -338,83 -85,34 -114,76 -139,94 -25,18 -47,12 -160,-39 -113,-51 -318,-147 -476,-215 -158,-68 -270,-108 -359,-132 -89,-24 -155,-31 -247,-35z"/>
    <path class="fil3" d="M10062 8864c138,-7 258,-8 351,-5 93,3 158,11 247,35 89,24 201,64 359,132 158,68 363,164 476,215 113,51 135,57 160,39 25,-18 54,-60 139,-94 85,-34 227,-59 338,-83 111,-23 191,-44 243,-48 52,-4 77,10 96,22 2,1 4,2 5,3 -5,-39 -15,-65 -38,-89 -38,-40 -112,-78 -299,-178 -188,-100 -490,-261 -748,-397 -258,-135 -472,-245 -782,-412 -310,-168 -717,-393 -939,-500 -222,-107 -260,-95 -298,-86 -38,10 -76,17 -138,27 -62,11 -147,25 -214,25 -67,0 -114,-14 -158,-14 -44,0 -84,14 -119,37 -34,23 -63,53 -81,105 -18,51 -25,122 -42,165 -17,43 -43,57 -100,65 -57,8 -145,11 -277,14 -132,4 -308,8 -502,19 -194,11 -405,27 -579,50 -174,23 -309,51 -389,69 -80,18 -103,25 -131,24 -2,0 -4,0 -6,0 29,31 57,64 84,103 55,78 106,177 140,268 31,82 50,157 60,227 0,0 1,0 1,0 19,0 36,-21 53,-36 17,-16 33,-26 79,-34 46,-8 121,-14 351,-42 231,-29 617,-80 859,-109 242,-29 341,-37 401,-16 60,21 81,72 104,104 23,32 48,45 78,74 31,29 68,74 155,134 87,60 225,136 335,176 109,40 190,44 309,39 119,-5 276,-18 414,-25zm22 -232c79,57 94,87 79,110 -15,23 -58,38 -146,54 -25,5 -54,9 -85,13 -76,11 -164,20 -236,25 -101,6 -172,2 -260,-31 -88,-34 -193,-97 -264,-147 -71,-50 -107,-86 -125,-120 -18,-34 -18,-65 -9,-89 9,-24 27,-41 75,-53 48,-12 126,-19 193,-22 68,-4 125,-5 182,0 57,4 114,14 152,21 38,8 57,13 139,58 82,44 226,127 306,183z"/>
    <path class="fil5" d="M6933 8861c2,-91 2,-163 -8,-239 -1,-7 -2,-14 -3,-22 -19,-1 -39,-23 -61,-35 -23,-13 -49,-17 -69,-14 -20,2 -34,11 -53,0 -19,-11 -43,-43 -74,-106 -31,-63 -69,-157 -99,-216 -30,-59 -52,-83 -82,-98 -5,-2 -10,-5 -16,-7 -17,79 -25,200 -26,311 -1,122 6,234 39,326 33,92 93,163 141,225 49,62 87,114 122,140 36,26 69,26 90,14 21,-12 31,-36 44,-57 13,-21 30,-40 43,-44 1,0 1,0 2,0 5,-60 7,-123 8,-178z"/>
    <path class="fil6" d="M6792 8550c20,-2 46,1 69,14 23,13 43,34 61,35 -10,-70 -29,-145 -60,-227 -35,-90 -85,-189 -140,-268 -27,-38 -55,-72 -84,-103 -26,-2 -54,-10 -83,-4 -31,6 -62,27 -82,105 -2,7 -3,14 -5,21 5,2 11,4 16,7 30,15 52,39 82,98 30,59 68,153 99,216 31,63 55,94 74,106 19,11 33,3 53,0z"/>
    <path class="fil7" d="M12218 9235c28,-10 48,-11 67,-3 19,9 37,28 45,49 8,22 7,47 -1,71 -8,24 -23,48 -43,72 -20,24 -44,50 -65,63 -20,13 -36,14 -55,8 -19,-6 -41,-19 -53,-38 -13,-19 -17,-45 -14,-76 3,-31 12,-67 34,-94 22,-27 57,-44 85,-53z"/>
    <path class="fil7" d="M12377 9221c-20,-24 -54,-50 -93,-56 -39,-6 -84,8 -122,29 -38,22 -68,52 -89,82 -21,30 -33,61 -38,94 -5,33 -4,67 6,98 10,32 29,61 48,80 19,19 39,29 64,32 25,2 57,-4 86,-14 29,-10 55,-26 58,-24 4,2 -15,20 -44,36 -28,15 -66,28 -101,25 -35,-2 -67,-19 -92,-47 -25,-28 -44,-66 -52,-109 -8,-43 -5,-89 9,-131 13,-42 36,-80 69,-111 33,-30 76,-53 113,-64 36,-12 66,-13 93,-7 28,6 53,18 73,31 19,13 32,28 39,48 7,20 9,46 5,49 -3,3 -11,-18 -31,-42z"/>
    <path class="fil8" d="M11961 9138c-440,-249 -879,-498 -1325,-749 -445,-251 -896,-504 -1179,-658 -284,-155 -400,-211 -445,-224 -45,-13 -18,16 125,102 143,85 401,226 748,425 346,199 780,455 1154,669 305,174 570,319 828,459 29,-8 61,-16 94,-23z"/>
    <path class="fil8" d="M8496 7840c79,17 163,47 227,83 64,36 108,79 96,111 -11,32 -78,54 -258,83 -180,29 -473,64 -729,95 -257,31 -477,58 -615,56 -137,-1 -192,-31 -242,-65 -50,-34 -97,-73 -136,-110 -39,-37 -70,-71 -73,-97 -2,-26 25,-44 168,-70 144,-27 404,-62 646,-82 242,-20 466,-25 615,-25 148,0 221,5 299,22z"/>
    <g>
     <path class="fil8" d="M12203 8670c34,-772 170,-834 280,-1444 107,-593 -371,-818 -199,-1771 101,-556 84,-412 34,-931l-1 -53c173,340 115,640 69,1001 -133,1038 466,1058 143,2018 -154,459 -218,710 -326,1180z"/>
    </g>
    <path class="fil9" d="M12203 8670c27,-209 53,-418 101,-624 48,-205 116,-407 171,-574 55,-167 97,-300 93,-451 -4,-150 -53,-318 -108,-481 -55,-164 -116,-323 -145,-468 -29,-145 -25,-274 -10,-407 15,-133 42,-270 63,-405 21,-135 36,-268 30,-384 -6,-116 -32,-215 -49,-280 -17,-65 -25,-95 -32,-126"/>
    <g>
     <path class="fil8" d="M12169 6183c-334,-642 -25,-952 -318,-1740 -310,-835 330,-1163 274,-1622 -74,-606 -126,-430 101,-1065 -115,675 -103,438 2,1049 85,497 -505,818 -251,1590 262,794 -16,1028 192,1787z"/>
    </g>
    <path class="fil9" d="M12169 6183c-57,-126 -114,-251 -125,-494 -11,-243 23,-605 -6,-848 -29,-243 -120,-369 -164,-548 -44,-179 -40,-411 15,-608 55,-198 162,-361 224,-498 63,-137 82,-247 63,-373 -19,-126 -76,-266 -74,-445 2,-179 63,-396 124,-612"/>
   </g>
   <path class="fil10" d="M9068 4601c544,98 1150,292 1550,525 400,233 594,504 525,761 -69,257 -400,499 -940,675 -540,176 -1287,285 -2233,338 -946,52 -2089,48 -3039,-48 -950,-95 -1706,-280 -2209,-511 -503,-231 -754,-506 -764,-761 -10,-254 220,-487 655,-663 434,-176 1073,-294 1932,-353 859,-60 1937,-60 2717,-61 780,0 1261,0 1805,97z"/>
   <path class="fil11" d="M8911 5138c314,76 610,177 782,356 172,179 221,436 -5,650 -226,214 -727,385 -1728,432 -1000,47 -2500,-31 -3435,-195 -936,-164 -1307,-414 -1368,-650 -60,-236 191,-457 735,-577 544,-120 1379,-138 2102,-153 722,-15 1331,-27 1801,-7 470,19 802,70 1116,146z"/>
   <path class="fil12" d="M4480 4489c5,-55 5,-131 18,-178 2,-9 5,-16 8,-23 -250,-62 -499,-124 -716,-176 -217,-52 -403,-95 -522,-143 -119,-48 -171,-100 -231,-176 -59,-76 -126,-176 -204,-223 -78,-48 -169,-43 -259,0 -90,43 -181,124 -216,216 -36,93 -17,197 10,269 26,71 59,109 114,143 -95,49 -190,98 -248,160 -58,61 -80,135 -72,214 7,78 43,162 132,220 89,58 232,92 354,78 122,-13 225,-72 346,-100 121,-27 261,-23 428,-1 166,21 359,59 527,99 169,39 313,79 458,119 17,-34 39,-70 32,-107 -7,-36 -43,-73 -45,-117 -2,-45 30,-97 51,-140 21,-43 32,-77 37,-131z"/>
   <path class="fil13" d="M4317 4786c-117,-18 -321,-55 -523,-74 -202,-19 -402,-19 -540,-5 -138,14 -214,41 -276,63 -62,22 -109,38 -97,36 12,-1 84,-20 157,-31 74,-12 150,-17 237,-14 87,3 183,15 340,45 157,30 375,78 516,111 142,33 208,51 259,64 51,13 88,22 116,6 28,-15 47,-55 43,-89 -4,-35 -30,-65 -58,-80 -28,-15 -58,-13 -175,-31z"/>
   <path class="fil14" d="M9079 5166c-2,59 -24,98 -50,96 -26,-2 -57,-45 -96,-74 -39,-30 -87,-46 -138,-49 -51,-2 -106,10 -144,53 -38,44 -59,120 -65,176 -6,56 4,92 11,120 7,29 12,50 -10,40 -21,-10 -69,-50 -113,-69 -44,-19 -84,-17 -127,-6 -43,11 -88,30 -120,59 -32,30 -51,70 -59,114 -8,44 -6,92 2,134 8,43 23,81 18,93 -5,12 -29,-2 -71,-4 -43,-1 -105,11 -159,38 -55,27 -102,70 -134,120 -32,50 -49,107 -57,157 -8,50 -8,93 -5,131 4,38 11,71 25,105 14,33 36,67 27,84 -8,17 -46,17 -95,17 -49,-1 -109,-3 -234,-16 -125,-14 -314,-39 -516,-76 -202,-37 -416,-86 -625,-171 -209,-85 -414,-205 -609,-313 -194,-108 -378,-205 -561,-283 -182,-78 -363,-137 -474,-183 -111,-46 -151,-79 -150,-118 1,-39 43,-85 59,-117 16,-33 7,-52 -38,-74 -45,-21 -126,-44 -160,-72 -34,-27 -22,-59 -5,-93 17,-34 39,-70 32,-107 -7,-36 -43,-73 -45,-117 -2,-45 30,-97 51,-140 21,-43 32,-77 37,-131 5,-55 5,-131 18,-178 13,-47 39,-66 68,-85 29,-19 62,-38 122,-50 60,-11 146,-14 237,15 91,29 185,91 286,131 101,40 209,57 343,51 135,-6 296,-34 485,-79 189,-45 407,-106 590,-145 183,-39 333,-56 485,-65 152,-9 308,-10 472,5 164,15 337,47 499,92 162,44 313,101 449,183 135,82 255,190 338,292 83,102 129,197 161,284 32,87 49,166 47,225z"/>
   <path class="fil15" d="M7297 410c69,8 159,65 200,176 40,112 31,278 -5,506 -36,228 -97,518 -150,877 -52,359 -95,787 -102,1022 -7,235 21,278 59,314 38,36 86,64 126,133 40,69 74,178 78,354 5,176 -19,418 -38,575 -19,157 -33,228 -50,228 -17,0 -36,-71 -38,-188 -2,-117 12,-278 5,-397 -7,-119 -36,-195 -59,-216 -24,-21 -43,12 -50,93 -7,81 -2,209 -7,345 -5,135 -19,278 -43,357 -24,78 -57,93 -74,36 -17,-57 -17,-185 -9,-340 8,-154 24,-335 9,-440 -14,-105 -59,-133 -83,-101 -24,33 -28,126 -35,283 -7,157 -17,377 -28,493 -11,116 -22,127 -38,130 -16,3 -37,-2 -48,-53 -11,-50 -12,-145 -15,-252 -2,-107 -6,-226 -8,-323 -2,-97 -2,-172 -6,-212 -4,-40 -12,-46 -24,-29 -12,17 -27,58 -34,160 -7,103 -6,268 -4,380 2,112 6,172 -2,196 -8,24 -29,12 -48,-41 -19,-53 -37,-147 -48,-276 -11,-129 -14,-293 -2,-439 12,-146 41,-275 90,-358 49,-83 118,-121 158,-172 40,-51 52,-115 69,-422 17,-307 38,-856 45,-1234 7,-378 0,-585 5,-738 5,-153 21,-253 53,-324 32,-71 80,-112 149,-105z"/>
   <path class="fil14" d="M6456 4419c34,-30 103,-56 158,-70 55,-14 96,-16 123,-8 27,8 39,25 65,26 26,1 66,-15 126,-36 60,-21 139,-48 207,-54 67,-6 123,10 194,32 72,23 160,52 251,51 92,-1 187,-33 258,-46 71,-12 119,-5 150,32 31,37 45,105 37,173 -8,68 -39,135 -106,215 -67,79 -169,169 -304,226 -135,57 -304,81 -475,58 -171,-23 -345,-93 -455,-169 -111,-75 -158,-156 -191,-213 -33,-56 -51,-89 -60,-121 -10,-33 -11,-66 23,-96z"/>
   <path class="fil16" d="M8142 4357c13,5 -22,-3 -67,-4 -45,-1 -98,4 -141,13 -43,9 -77,21 -125,41 -49,20 -113,49 -165,68 -52,20 -93,30 -143,23 -50,-7 -109,-32 -171,-44 -62,-12 -125,-10 -201,-6 -75,4 -163,12 -226,19 -63,7 -102,14 -132,9 -30,-4 -52,-20 -69,-33 -17,-13 -29,-22 -52,-26 -24,-4 -59,-1 -99,-1 -40,1 -84,-1 -72,-14 12,-14 81,-40 136,-54 55,-14 96,-16 123,-8 27,8 39,25 65,26 26,1 66,-15 126,-36 60,-21 139,-48 207,-54 67,-6 123,10 194,32 72,23 160,52 251,51 92,-1 187,-33 258,-46 71,-12 119,-5 174,7 55,13 117,30 130,35z"/>
   <path class="fil17" d="M4932 6852c-847,-85 -1540,-241 -2037,-438 133,71 294,143 425,219 131,76 327,162 454,247 127,86 366,155 576,208 210,52 298,82 797,97 499,14 1202,29 1805,31 602,2 1103,-7 1396,-33 293,-26 378,-69 592,-158 214,-89 558,-225 902,-361 -496,118 -1122,195 -1872,237 -946,52 -2089,48 -3039,-48z"/>
   <path class="fil18" d="M7279 530c21,49 40,152 23,392 -18,239 -72,615 -112,905 -39,290 -63,494 -71,452 -8,-42 0,-331 3,-602 4,-271 3,-526 9,-705 6,-179 19,-284 34,-351 14,-67 30,-97 49,-115 20,-18 43,-24 65,25z"/>
   <path class="fil19" d="M2623 4249c-49,-14 -97,-32 -145,-50 -94,48 -187,97 -244,157 -54,57 -76,124 -74,196 0,6 1,11 1,17 5,59 27,121 76,173 -15,-34 -18,-66 -20,-93 -2,-27 -2,-50 7,-80 3,-11 8,-22 13,-34 11,-22 26,-46 47,-70 32,-35 78,-68 144,-93 66,-25 153,-43 231,-52 78,-9 149,-9 175,-12 26,-3 9,-8 -33,-18 -43,-10 -111,-24 -179,-44z"/>
   <path class="fil16" d="M5127 5434c-200,-60 -378,-112 -548,-162 -15,23 -28,47 -29,69 -1,39 40,72 150,118 111,46 292,105 474,183 182,78 366,175 561,283 194,108 399,229 609,313 123,50 248,87 371,117 86,21 171,38 255,54 202,37 391,62 516,76 125,14 185,16 234,16 49,1 87,0 95,-17 8,-17 -13,-50 -27,-84 -7,-16 -12,-32 -16,-48 -4,-18 -7,-37 -9,-57 -4,-38 -4,-81 5,-131 8,-50 25,-107 57,-157 32,-50 80,-93 134,-120 55,-27 116,-39 159,-38 43,1 67,15 71,4 5,-12 -10,-50 -18,-93 -3,-17 -6,-34 -7,-51 -23,-10 -47,-19 -70,-28 -103,-39 -208,-70 -341,-86 -133,-15 -295,-15 -474,-11 -179,5 -377,14 -575,39 -198,25 -398,65 -669,33 -271,-32 -613,-137 -907,-225z"/>
   <path class="fil19" d="M6562 4230c-86,17 -300,69 -485,110 -185,41 -340,71 -491,76 -150,5 -295,-14 -397,-46 -102,-32 -160,-77 -231,-107 -71,-29 -155,-43 -164,-16 -9,26 57,92 145,159 87,67 195,136 334,175 138,39 307,49 490,4 183,-45 380,-145 516,-210 136,-65 211,-94 269,-119 58,-24 100,-43 14,-27z"/>
   <path class="fil0" d="M7386 415c36,21 91,62 125,128 34,66 46,156 48,256 2,100 -7,209 -27,305 -21,95 -54,177 -75,167 -21,-10 -31,-113 -41,-221 -10,-108 -21,-222 -38,-311 -18,-88 -42,-151 -59,-194 -17,-43 -25,-67 -24,-89 1,-22 12,-43 26,-52 14,-10 31,-8 67,13z"/>
   <path class="fil0" d="M7422 1520c3,13 7,50 8,95 1,45 -1,99 -17,138 -17,39 -48,65 -60,59 -12,-6 -6,-43 -3,-84 2,-41 0,-87 11,-121 10,-34 33,-55 45,-72 12,-17 14,-28 17,-16z"/>
  </g>
 </g>
</svg>
