<?xml version="1.0" encoding="UTF-8"?>
<!DOCTYPE svg PUBLIC "-//W3C//DTD SVG 1.1//EN" "http://www.w3.org/Graphics/SVG/1.1/DTD/svg11.dtd">
<!-- Creator: CorelDRAW 2017 -->
<svg xmlns="http://www.w3.org/2000/svg" xml:space="preserve" width="143mm" height="143mm" version="1.1" style="shape-rendering:geometricPrecision; text-rendering:geometricPrecision; image-rendering:optimizeQuality; fill-rule:evenodd; clip-rule:evenodd"
viewBox="0 0 14300 14300"
 xmlns:xlink="http://www.w3.org/1999/xlink">
 <defs>
  <style type="text/css">
   <![CDATA[
    .fil1 {fill:black}
    .fil3 {fill:#A5D673}
    .fil0 {fill:#F0889A}
    .fil2 {fill:#FFFF66}
   ]]>
  </style>
 </defs>
 <g id="Слой_x0020_1">
  <metadata id="CorelCorpID_0Corel-Layer"/>
  <path class="fil0" d="M2229 4042c579,48 1632,165 2367,171 736,6 1154,-99 1517,-174 363,-75 670,-120 1046,-115 376,5 821,60 1285,88 464,28 948,28 1563,57 615,30 1360,89 1844,157 484,67 706,142 582,304 -124,162 -595,410 -1308,590 -713,180 -1668,291 -2586,307 -919,16 -1802,-62 -2501,-7 -700,56 -1216,245 -1511,448 -294,203 -366,419 -298,657 69,239 278,500 494,631 216,131 438,131 811,203 373,72 896,216 1296,350 401,134 678,258 1023,358 345,100 756,176 1173,216 417,40 839,44 1221,54 382,10 722,25 1072,57 350,31 709,78 959,192 250,114 391,295 549,474 159,179 335,355 324,527 -11,172 -211,338 -627,389 -416,51 -1049,-14 -1691,-33 -642,-19 -1293,9 -2045,94 -753,85 -1608,227 -2345,288 -737,61 -1355,42 -1859,87 -504,46 -892,157 -1315,92 -423,-65 -881,-307 -1087,-654 -206,-347 -160,-798 -52,-1233 108,-435 278,-853 258,-1246 -20,-392 -229,-759 -428,-1138 -199,-379 -389,-772 -474,-1140 -85,-368 -65,-712 -3,-895 62,-183 167,-206 745,-158z"/>
  <path class="fil1" d="M4308 3443c13,110 15,315 6,504 -9,189 -28,360 -31,460 -2,100 13,128 42,145 29,17 72,23 119,25 47,2 98,1 127,-11 30,-12 39,-34 34,-57 -5,-22 -25,-45 -48,-60 -24,-16 -52,-25 -66,-45 -14,-20 -14,-51 3,-153 17,-101 51,-273 93,-433 42,-160 91,-309 102,-421 11,-112 -16,-186 -81,-247 -66,-61 -170,-109 -345,-157 -175,-48 -421,-98 -607,-100 -186,-2 -313,42 -401,126 -88,83 -137,206 -213,367 -76,161 -179,361 -251,517 -72,157 -114,270 -136,366 -22,96 -23,175 -9,224 14,48 44,66 86,75 42,9 95,9 136,7 41,-1 69,-4 84,-18 15,-13 16,-37 1,-59 -16,-22 -48,-41 -70,-57 -22,-16 -32,-30 -34,-56 -2,-26 4,-65 29,-129 25,-64 70,-154 144,-203 74,-50 177,-60 284,-86 107,-26 219,-68 311,-134 92,-66 163,-157 212,-239 48,-82 74,-155 107,-203 33,-48 73,-70 112,-86 39,-16 76,-25 109,-23 33,1 61,13 88,26 27,13 52,26 66,136z"/>
  <path class="fil1" d="M9883 7395c-13,110 -15,315 -6,504 9,189 28,360 31,460 2,100 -13,128 -42,145 -29,17 -72,23 -119,25 -47,2 -98,1 -127,-11 -30,-12 -39,-34 -34,-57 5,-22 25,-45 48,-60 24,-16 52,-25 66,-45 14,-20 14,-51 -3,-153 -17,-101 -51,-273 -93,-433 -42,-160 -91,-309 -102,-421 -11,-112 16,-186 81,-247 66,-61 170,-109 345,-157 175,-48 421,-98 607,-100 186,-2 313,42 401,126 88,83 137,206 213,367 76,161 179,361 251,517 72,157 114,270 136,366 22,96 23,175 9,224 -14,48 -44,66 -86,75 -42,9 -95,9 -136,7 -41,-1 -69,-4 -84,-18 -15,-13 -16,-37 -1,-59 16,-22 48,-41 70,-57 22,-16 32,-30 34,-56 2,-26 -4,-65 -29,-129 -25,-64 -70,-154 -144,-203 -74,-50 -177,-60 -284,-86 -107,-26 -219,-68 -311,-134 -92,-66 -163,-157 -212,-239 -48,-82 -74,-155 -107,-203 -33,-48 -73,-70 -112,-86 -39,-16 -76,-25 -109,-23 -33,1 -61,13 -88,26 -27,13 -52,26 -66,136z"/>
  <path class="fil1" d="M5553 11181c13,110 15,315 6,504 -9,189 -28,360 -31,460 -2,100 13,128 42,145 29,17 72,23 119,25 47,2 98,1 127,-11 30,-12 39,-34 34,-57 -5,-22 -25,-45 -48,-60 -24,-16 -52,-25 -66,-45 -14,-20 -14,-51 3,-153 17,-101 51,-273 93,-433 42,-160 91,-309 102,-421 11,-112 -16,-186 -81,-247 -66,-61 -170,-109 -345,-157 -175,-48 -421,-98 -607,-100 -186,-2 -313,42 -401,126 -88,83 -137,206 -213,367 -76,161 -179,361 -251,517 -72,157 -114,270 -136,366 -22,96 -23,175 -9,224 14,48 44,66 86,75 42,9 95,9 136,7 41,-1 69,-4 84,-18 15,-13 16,-37 1,-59 -16,-22 -48,-41 -70,-57 -22,-16 -32,-30 -34,-56 -2,-26 4,-65 29,-129 25,-64 70,-154 144,-203 74,-50 177,-60 284,-86 107,-26 219,-68 311,-134 92,-66 163,-157 212,-239 48,-82 74,-155 107,-203 33,-48 73,-70 112,-86 39,-16 76,-25 109,-23 33,1 61,13 88,26 27,13 52,26 66,136z"/>
  <path class="fil1" d="M4906 2464c-95,-16 -295,-63 -468,-96 -172,-33 -316,-50 -447,-54 -131,-3 -250,7 -344,30 -94,22 -163,56 -232,95 -69,39 -138,82 -193,123 -54,41 -94,80 -158,99 -64,18 -153,16 -209,-14 -56,-30 -79,-87 -92,-149 -13,-63 -16,-132 4,-178 21,-46 65,-69 122,-80 57,-11 126,-9 210,-11 83,-1 181,-6 282,-29 101,-24 207,-67 270,-142 63,-76 85,-184 66,-268 -19,-85 -78,-145 -137,-181 -59,-36 -116,-47 -145,-30 -29,17 -29,62 -9,119 20,57 59,128 56,181 -4,53 -51,88 -115,113 -64,25 -146,39 -249,46 -103,7 -229,8 -327,28 -99,20 -170,59 -219,128 -49,68 -74,166 -75,252 -1,87 22,162 63,233 42,71 102,136 188,179 86,43 197,62 258,95 61,33 73,79 84,133 11,54 21,116 23,200 2,83 -2,187 -24,285 -21,97 -59,188 -88,239 -29,51 -49,64 -55,90 -7,26 0,67 43,182 43,115 122,304 195,416 73,112 141,145 218,160 77,15 165,11 219,5 54,-6 76,-14 93,-33 17,-19 31,-49 30,-80 -1,-31 -16,-64 -37,-84 -21,-20 -49,-28 -81,-32 -31,-4 -66,-4 -91,1 -25,5 -40,16 -50,22 -11,6 -17,7 -31,-13 -13,-20 -33,-62 -53,-108 -20,-46 -40,-96 -51,-133 -12,-37 -15,-60 -9,-71 6,-12 21,-12 69,-16 49,-5 131,-14 200,-33 68,-19 123,-47 167,-83 44,-35 77,-77 100,-126 23,-49 36,-104 47,-141 11,-37 19,-54 68,-80 49,-26 138,-60 216,-82 78,-22 146,-33 214,-25 68,8 138,35 197,72 59,37 109,85 178,170 69,86 158,210 241,325 82,114 158,218 218,300 60,81 105,139 152,180 47,41 96,64 158,72 62,9 136,3 184,-4 48,-7 69,-17 77,-45 7,-28 1,-74 -29,-100 -30,-26 -82,-33 -129,-43 -46,-9 -86,-22 -137,-80 -51,-59 -114,-164 -155,-245 -41,-80 -61,-136 -63,-191 -2,-55 12,-111 33,-181 21,-70 47,-154 77,-227 30,-73 63,-135 91,-205 28,-70 51,-147 64,-195 13,-49 16,-69 30,-87 13,-18 36,-34 67,-57 30,-23 68,-52 103,-75 35,-23 67,-40 107,-75 40,-35 87,-87 118,-132 31,-45 47,-84 44,-136 -3,-52 -24,-117 -47,-205 -23,-89 -47,-201 -104,-274 -57,-74 -148,-109 -249,-129 -101,-20 -214,-26 -313,-3 -100,23 -188,74 -246,152 -59,78 -88,183 -102,241 -13,58 -10,69 -2,82 7,14 19,30 -76,14z"/>
  <path class="fil1" d="M5718 2034c39,-37 119,-100 179,-140 60,-40 101,-56 123,-52 23,4 27,29 30,64 3,34 5,78 0,125 -5,47 -15,97 -35,140 -20,43 -48,80 -74,104 -26,24 -49,34 -79,20 -30,-14 -67,-53 -98,-91 -32,-38 -58,-75 -72,-98 -14,-24 -14,-34 25,-71z"/>
  <path class="fil1" d="M5275 1996c-19,-18 -57,-43 -103,-70 -46,-26 -100,-54 -142,-77 -42,-23 -71,-43 -85,-16 -14,26 -13,98 -8,159 5,61 15,112 35,154 21,42 53,76 81,97 28,21 52,29 80,12 28,-17 61,-60 89,-101 28,-41 50,-80 61,-105 11,-25 11,-35 -9,-53z"/>
  <path class="fil1" d="M9286 6416c95,-16 295,-63 468,-96 172,-33 316,-50 447,-54 131,-3 250,7 344,30 94,22 163,56 232,95 69,39 139,82 193,123 54,41 94,80 158,99 64,18 153,16 209,-14 56,-30 79,-87 92,-149 13,-63 16,-132 -4,-178 -21,-46 -65,-69 -122,-80 -57,-11 -126,-9 -210,-11 -83,-1 -181,-6 -282,-29 -101,-24 -207,-67 -270,-142 -63,-76 -85,-184 -66,-268 19,-85 78,-145 137,-181 59,-36 116,-47 145,-30 29,17 29,62 9,119 -20,57 -59,128 -56,181 4,53 51,88 115,113 64,25 146,39 249,46 103,7 229,8 327,28 99,20 170,59 219,128 49,68 74,166 75,252 1,87 -22,162 -63,233 -42,71 -102,136 -188,179 -86,43 -197,62 -258,95 -61,33 -73,79 -84,133 -11,54 -21,116 -23,200 -2,83 2,187 24,285 21,97 59,188 88,239 29,51 49,64 55,90 7,26 0,67 -43,182 -43,115 -122,304 -195,416 -73,112 -141,145 -218,160 -77,15 -165,11 -219,5 -54,-6 -76,-14 -93,-33 -17,-19 -31,-49 -30,-80 1,-31 16,-64 37,-84 21,-20 49,-28 81,-32 31,-4 66,-4 91,1 25,5 40,16 50,22 11,6 17,7 31,-13 13,-20 33,-62 53,-108 20,-46 40,-96 51,-133 12,-37 15,-60 9,-71 -6,-12 -21,-12 -69,-16 -49,-5 -131,-14 -200,-33 -68,-19 -123,-47 -167,-83 -44,-35 -77,-77 -100,-126 -23,-49 -36,-104 -47,-141 -11,-37 -19,-54 -68,-80 -49,-26 -138,-60 -216,-82 -78,-22 -146,-33 -214,-25 -68,8 -138,35 -197,72 -59,37 -109,85 -178,170 -69,86 -158,210 -241,325 -82,114 -158,218 -218,300 -60,81 -105,139 -152,180 -47,41 -96,64 -158,72 -62,9 -136,3 -184,-4 -48,-7 -69,-17 -77,-45 -7,-28 -1,-74 29,-100 30,-26 82,-33 129,-43 46,-9 86,-22 137,-80 51,-59 114,-164 155,-245 41,-80 61,-136 63,-191 2,-55 -12,-111 -33,-181 -21,-70 -47,-154 -77,-227 -30,-73 -63,-135 -91,-205 -28,-70 -51,-147 -64,-195 -13,-49 -16,-69 -30,-87 -13,-18 -36,-35 -67,-57 -30,-23 -68,-52 -103,-75 -35,-23 -67,-40 -107,-75 -40,-35 -87,-87 -118,-132 -31,-45 -47,-84 -44,-136 3,-52 24,-117 47,-205 23,-89 47,-201 104,-274 57,-74 148,-109 249,-129 101,-20 214,-26 313,-3 100,23 188,74 246,152 59,78 88,183 102,241 13,58 10,69 2,82 -7,14 -19,30 76,14z"/>
  <path class="fil1" d="M10616 1505c-19,-10 -53,7 -86,30 -33,23 -66,54 -88,77 -22,24 -33,41 -44,46 -12,5 -24,-2 -58,-9 -34,-7 -89,-14 -145,-16 -56,-2 -113,0 -159,7 -47,7 -83,19 -105,18 -22,-1 -29,-14 -43,-32 -15,-18 -37,-42 -70,-62 -33,-21 -76,-38 -103,-47 -27,-9 -37,-9 -41,4 -4,13 -3,40 -3,76 0,37 -2,84 -1,123 1,39 4,70 9,92 5,22 12,35 5,59 -7,23 -28,57 -44,106 -16,50 -28,116 -31,158 -4,42 1,60 11,82 10,22 24,49 56,79 32,31 81,66 112,85 31,20 45,24 47,60 2,36 -8,102 -41,204 -33,102 -89,238 -125,357 -36,119 -51,220 -43,319 9,99 41,197 67,286 26,89 44,168 52,268 8,100 5,221 -5,315 -10,94 -27,161 -44,206 -17,45 -34,68 -61,87 -26,19 -62,33 -79,51 -17,19 -16,42 5,63 20,21 59,40 95,42 36,2 71,-12 99,-29 29,-18 52,-40 94,-50 42,-10 102,-9 133,1 30,9 30,26 34,40 4,14 12,25 42,29 30,5 83,3 126,-7 43,-10 75,-29 119,-36 43,-8 98,-5 163,1 65,5 141,13 201,19 60,6 103,11 109,21 5,10 -27,26 -104,37 -77,12 -198,19 -320,27 -122,8 -245,16 -350,30 -106,14 -194,34 -258,68 -64,34 -102,82 -117,127 -15,44 -5,85 19,111 24,26 63,39 122,23 59,-16 138,-59 209,-92 71,-33 133,-57 221,-63 88,-6 203,5 312,5 109,1 211,-9 299,-26 88,-18 161,-44 209,-88 48,-43 71,-104 75,-158 3,-54 -14,-102 -33,-139 -19,-36 -39,-61 -50,-91 -11,-29 -12,-64 -3,-119 9,-55 30,-131 31,-224 2,-93 -16,-203 -52,-329 -36,-126 -92,-267 -178,-411 -85,-144 -200,-290 -272,-415 -72,-126 -102,-231 -116,-309 -14,-78 -12,-127 4,-161 16,-34 47,-53 81,-79 33,-26 69,-61 98,-93 29,-33 50,-64 64,-106 13,-42 18,-95 12,-140 -6,-45 -23,-82 -37,-106 -14,-23 -25,-33 -28,-52 -3,-19 2,-49 8,-95 6,-47 14,-110 16,-160 2,-50 -1,-85 -19,-95z"/>
  <path class="fil1" d="M8108 1487c-19,-10 -53,7 -86,30 -33,23 -66,54 -88,77 -22,24 -33,41 -44,46 -12,5 -24,-2 -58,-9 -34,-7 -89,-14 -145,-16 -56,-2 -113,0 -159,7 -47,7 -83,19 -105,18 -22,-1 -29,-14 -43,-32 -15,-18 -37,-42 -70,-62 -33,-21 -76,-38 -103,-47 -27,-9 -37,-9 -41,4 -4,13 -3,40 -3,76 0,37 -2,84 -1,123 1,39 4,70 9,92 5,22 12,35 5,59 -7,23 -28,57 -44,106 -16,50 -28,116 -31,158 -4,42 1,60 11,82 10,22 24,49 56,79 32,31 81,66 112,85 31,20 45,24 47,60 2,36 -8,102 -41,204 -33,102 -89,238 -125,357 -36,119 -51,220 -43,319 9,99 41,197 67,286 26,88 44,168 52,268 8,100 5,221 -5,315 -10,94 -27,161 -44,206 -17,45 -34,68 -61,87 -26,19 -62,33 -79,51 -17,19 -16,42 5,63 20,21 59,40 95,42 36,2 71,-12 99,-30 29,-18 52,-40 94,-50 42,-10 102,-9 133,1 30,9 30,26 34,40 4,14 12,25 42,30 30,5 83,3 126,-7 43,-10 75,-29 119,-36 43,-8 98,-5 163,1 65,5 141,13 201,19 60,6 103,11 109,21 5,10 -27,26 -104,37 -77,12 -198,19 -320,27 -122,8 -245,16 -350,29 -106,14 -194,34 -258,68 -64,34 -102,82 -117,127 -15,44 -5,85 19,111 24,26 63,39 122,23 59,-16 138,-59 209,-92 71,-33 133,-57 221,-63 88,-6 203,5 312,5 109,1 211,-9 299,-26 88,-18 161,-44 209,-88 48,-43 71,-104 75,-158 3,-54 -14,-102 -33,-139 -19,-36 -39,-61 -50,-91 -11,-30 -12,-64 -3,-119 9,-55 29,-131 31,-224 2,-93 -16,-203 -52,-329 -36,-126 -92,-267 -178,-411 -85,-144 -200,-290 -272,-415 -72,-126 -102,-231 -116,-309 -14,-78 -12,-127 4,-161 16,-34 47,-53 81,-79 33,-26 69,-61 98,-93 29,-33 50,-64 64,-106 13,-42 18,-95 12,-140 -6,-45 -23,-82 -37,-106 -14,-23 -25,-33 -28,-52 -3,-19 2,-49 8,-95 6,-47 14,-110 16,-160 2,-50 -1,-85 -19,-95z"/>
  <path class="fil1" d="M2990 5536c19,-10 53,7 86,30 33,23 66,54 88,77 22,24 33,41 44,46 12,5 24,-2 58,-9 34,-7 89,-14 145,-16 56,-2 113,0 159,7 47,7 83,19 105,18 22,-1 29,-14 43,-32 15,-18 37,-42 70,-62 33,-21 76,-38 103,-47 27,-9 37,-9 41,4 4,13 3,40 3,76 0,37 2,84 1,123 -1,39 -4,70 -9,92 -5,22 -12,35 -5,59 7,23 28,57 44,106 16,50 28,116 31,158 4,42 -1,60 -11,82 -10,22 -24,49 -56,79 -32,31 -81,66 -112,85 -31,20 -45,24 -47,60 -2,36 8,102 41,204 33,102 89,238 125,357 36,119 51,220 43,319 -9,99 -41,197 -67,286 -26,88 -44,168 -52,268 -8,100 -5,221 5,315 10,94 27,161 44,206 17,45 34,68 61,87 26,19 62,33 79,51 17,19 16,42 -5,63 -20,21 -59,40 -95,42 -36,2 -71,-12 -99,-29 -29,-18 -52,-40 -94,-50 -42,-10 -102,-9 -133,1 -30,9 -30,26 -34,40 -4,14 -12,25 -42,30 -30,5 -83,3 -126,-7 -43,-10 -75,-29 -119,-36 -43,-8 -98,-5 -163,1 -65,5 -141,13 -201,19 -60,6 -103,11 -109,21 -5,10 27,26 104,37 77,12 198,19 320,27 122,8 245,16 350,30 106,14 194,34 258,68 64,34 102,82 117,127 15,44 5,85 -19,111 -24,26 -63,39 -122,23 -59,-16 -138,-59 -209,-92 -71,-33 -133,-57 -221,-63 -89,-6 -203,5 -312,5 -109,1 -211,-9 -299,-26 -88,-18 -161,-44 -209,-88 -48,-43 -71,-104 -75,-158 -3,-54 14,-102 33,-139 19,-36 39,-61 50,-91 11,-30 12,-64 3,-119 -9,-55 -29,-131 -31,-224 -2,-93 16,-203 52,-329 36,-126 92,-267 178,-411 85,-144 200,-290 272,-415 72,-126 102,-231 116,-309 14,-78 12,-127 -4,-161 -16,-34 -47,-53 -81,-79 -33,-26 -69,-61 -98,-93 -29,-33 -50,-64 -64,-106 -13,-42 -18,-95 -12,-140 6,-45 23,-82 37,-106 14,-23 25,-33 28,-52 3,-19 -2,-49 -8,-95 -6,-47 -14,-110 -16,-160 -2,-50 1,-85 19,-95z"/>
  <path class="fil1" d="M5890 5528c19,-10 53,7 86,30 33,23 66,54 88,77 22,24 33,41 44,46 12,5 24,-2 58,-9 34,-7 89,-14 145,-16 56,-2 113,0 159,7 47,7 83,19 105,18 22,-1 29,-14 43,-32 15,-18 37,-42 70,-62 33,-21 76,-38 103,-47 27,-9 37,-9 41,4 4,13 3,40 3,76 0,37 2,84 1,123 -1,39 -4,70 -9,92 -5,22 -12,35 -5,59 7,23 28,57 44,106 16,50 28,116 31,158 3,42 -1,60 -11,82 -10,22 -24,49 -56,79 -32,31 -81,66 -112,85 -31,20 -45,24 -47,60 -2,36 8,102 41,204 33,102 89,238 125,357 36,119 51,220 43,319 -9,99 -41,197 -67,286 -26,88 -44,168 -52,268 -8,100 -5,221 5,315 10,94 27,161 44,206 17,45 34,68 61,87 26,19 62,33 79,51 17,19 16,42 -5,63 -20,21 -59,40 -95,42 -36,2 -71,-12 -99,-30 -29,-18 -52,-40 -94,-50 -42,-10 -102,-9 -133,1 -30,9 -30,26 -34,40 -4,14 -12,25 -42,30 -30,5 -83,3 -126,-7 -43,-10 -75,-29 -119,-36 -43,-8 -98,-5 -163,1 -65,5 -141,13 -201,19 -60,6 -103,11 -109,21 -5,10 27,26 104,37 77,12 198,19 320,27 122,8 245,16 350,29 106,14 194,34 258,68 64,34 102,82 117,127 15,44 5,85 -19,111 -24,26 -63,39 -122,23 -59,-16 -138,-59 -209,-92 -71,-33 -133,-57 -221,-63 -88,-6 -203,5 -312,5 -109,1 -211,-9 -299,-26 -88,-18 -161,-44 -209,-88 -48,-43 -71,-104 -75,-158 -3,-54 14,-102 33,-139 19,-36 39,-61 50,-91 11,-30 12,-64 3,-119 -9,-55 -30,-131 -31,-224 -2,-93 16,-203 52,-329 36,-126 92,-267 178,-411 85,-144 200,-290 272,-415 72,-126 102,-231 116,-309 14,-78 12,-127 -4,-161 -16,-34 -47,-53 -81,-79 -33,-26 -69,-61 -98,-93 -29,-33 -50,-64 -64,-106 -13,-42 -18,-95 -12,-140 6,-45 23,-82 37,-106 14,-23 25,-33 28,-52 3,-19 -2,-49 -8,-95 -6,-47 -14,-110 -16,-160 -2,-50 1,-85 19,-95z"/>
  <path class="fil1" d="M6151 10202c-95,-16 -295,-63 -468,-96 -172,-33 -316,-50 -447,-54 -131,-3 -250,7 -344,30 -94,22 -163,56 -232,95 -69,39 -139,82 -193,123 -54,41 -94,80 -158,99 -64,18 -153,16 -209,-14 -56,-30 -79,-87 -92,-149 -13,-63 -16,-132 4,-178 21,-46 65,-69 122,-80 57,-11 126,-9 210,-11 83,-1 181,-6 282,-29 101,-24 207,-67 270,-142 63,-76 85,-184 66,-268 -19,-85 -78,-145 -137,-181 -59,-36 -116,-47 -145,-30 -29,17 -29,62 -9,119 20,57 59,128 56,181 -4,53 -51,88 -115,113 -64,25 -146,39 -249,46 -103,7 -229,8 -327,28 -99,20 -170,59 -219,128 -49,68 -74,166 -75,252 -1,87 22,162 63,233 42,71 102,136 188,179 86,43 197,62 258,95 61,33 73,79 84,133 11,54 21,116 23,200 2,83 -2,187 -24,285 -21,97 -59,188 -88,239 -29,51 -49,64 -55,90 -7,26 0,67 43,182 43,115 122,304 195,416 73,112 141,145 218,160 77,15 165,11 219,5 54,-6 76,-14 93,-33 17,-19 31,-49 30,-80 -1,-31 -16,-64 -37,-84 -21,-20 -49,-28 -81,-32 -31,-4 -66,-4 -91,1 -25,5 -40,16 -50,22 -11,6 -17,7 -31,-13 -13,-20 -33,-62 -53,-108 -20,-46 -40,-96 -51,-133 -12,-37 -15,-60 -9,-71 6,-12 21,-12 69,-16 49,-5 131,-14 200,-33 68,-19 123,-47 167,-83 44,-35 77,-77 100,-126 23,-49 36,-104 47,-141 11,-37 19,-54 68,-80 49,-26 138,-60 216,-82 78,-22 146,-33 214,-25 68,8 138,35 197,72 59,37 109,85 178,170 69,86 158,210 241,325 82,114 158,218 218,300 60,81 105,139 152,180 47,41 96,64 158,72 62,9 136,3 184,-4 48,-7 69,-17 77,-45 7,-28 1,-74 -29,-100 -30,-26 -82,-33 -129,-43 -46,-9 -86,-22 -137,-80 -51,-59 -114,-164 -155,-245 -41,-80 -61,-136 -63,-191 -2,-55 12,-111 33,-181 21,-70 47,-154 77,-227 30,-73 63,-135 91,-205 28,-70 51,-147 64,-195 13,-49 16,-69 30,-87 13,-18 36,-35 67,-57 30,-23 68,-52 103,-75 35,-23 67,-40 107,-75 40,-35 87,-87 118,-132 31,-45 47,-84 44,-136 -3,-52 -24,-117 -47,-205 -23,-89 -47,-201 -104,-274 -57,-74 -148,-109 -249,-129 -101,-20 -214,-26 -313,-3 -100,23 -188,74 -246,152 -59,78 -88,183 -102,241 -13,58 -10,69 -2,82 7,14 19,30 -76,14z"/>
  <path class="fil1" d="M10299 9087c-19,-10 -53,7 -86,30 -33,23 -66,54 -88,77 -22,24 -33,41 -44,46 -12,5 -24,-2 -58,-9 -34,-7 -89,-14 -145,-16 -56,-2 -113,0 -159,7 -47,7 -83,19 -105,18 -22,-1 -29,-14 -43,-32 -15,-18 -37,-42 -70,-62 -33,-21 -76,-38 -103,-47 -27,-9 -37,-9 -41,4 -4,13 -3,40 -3,76 0,37 -2,84 -1,123 1,39 4,70 9,92 5,22 12,35 5,59 -7,23 -28,57 -44,106 -16,50 -28,116 -31,158 -3,42 1,60 11,82 10,22 24,49 56,79 32,31 81,66 112,85 31,20 45,24 47,60 2,36 -8,102 -41,204 -33,102 -89,238 -125,357 -36,119 -51,220 -43,319 9,99 41,197 67,286 26,88 44,168 52,268 8,100 5,221 -5,315 -10,94 -27,161 -44,206 -17,45 -34,68 -61,87 -26,19 -62,33 -79,51 -17,19 -16,42 5,63 20,21 59,40 95,42 36,2 71,-12 99,-29 29,-18 52,-40 94,-50 42,-10 102,-9 133,1 30,9 30,26 34,40 4,14 12,25 42,30 30,5 83,3 126,-7 43,-10 75,-29 119,-36 43,-8 98,-5 163,1 65,5 141,13 201,19 60,6 103,11 109,21 5,10 -27,26 -104,37 -77,12 -198,19 -320,27 -122,8 -245,16 -350,30 -106,14 -194,34 -258,68 -64,34 -102,82 -117,127 -15,44 -5,85 19,111 24,26 63,39 122,23 59,-16 138,-59 209,-92 71,-33 133,-57 221,-63 88,-6 203,5 312,5 109,1 211,-9 299,-26 88,-18 161,-44 209,-88 48,-43 71,-104 75,-158 3,-54 -14,-102 -33,-139 -19,-36 -39,-61 -50,-91 -11,-29 -12,-64 -3,-119 9,-55 30,-131 31,-224 2,-93 -16,-203 -52,-329 -36,-126 -92,-267 -178,-411 -85,-144 -200,-290 -272,-415 -72,-126 -102,-231 -116,-309 -14,-78 -12,-127 4,-161 16,-34 47,-53 81,-79 33,-26 69,-61 98,-93 29,-33 50,-64 64,-106 13,-42 18,-95 12,-140 -6,-45 -23,-82 -37,-106 -14,-23 -25,-33 -28,-52 -3,-19 2,-49 8,-95 6,-47 14,-110 16,-160 2,-50 -1,-85 -19,-95z"/>
  <path class="fil2" d="M7716 1916c5,-10 22,-19 44,-28 23,-9 51,-17 84,-13 33,4 70,20 88,30 18,10 18,14 10,25 -8,11 -25,28 -48,42 -23,13 -51,23 -80,18 -29,-5 -59,-23 -78,-38 -18,-15 -25,-26 -20,-36z"/>
  <path class="fil2" d="M7569 1910c-5,-10 -22,-19 -44,-28 -23,-9 -51,-17 -84,-13 -33,4 -70,20 -88,30 -18,10 -18,14 -10,25 8,11 25,28 48,42 23,13 51,23 80,18 29,-5 59,-23 78,-38 18,-15 25,-26 20,-36z"/>
  <path class="fil2" d="M6448 5972c5,-10 22,-19 44,-28 23,-9 51,-17 84,-13 33,4 70,20 88,30 18,10 18,14 10,25 -8,11 -25,28 -48,42 -23,13 -51,23 -80,18 -29,-5 -59,-23 -78,-38 -18,-15 -25,-26 -20,-36z"/>
  <path class="fil2" d="M6301 5966c-5,-10 -22,-19 -44,-28 -23,-9 -51,-17 -84,-13 -33,4 -70,20 -88,30 -18,10 -18,14 -10,25 8,11 25,28 48,42 23,13 51,23 80,18 29,-5 59,-23 78,-38 18,-15 25,-26 20,-36z"/>
  <path class="fil2" d="M9862 9550c5,-10 22,-19 44,-28 23,-9 51,-17 84,-13 33,4 70,20 88,30 18,10 18,14 10,25 -8,11 -25,28 -48,42 -23,13 -51,23 -80,18 -29,-5 -59,-23 -78,-38 -18,-15 -25,-26 -20,-36z"/>
  <path class="fil2" d="M9715 9545c-5,-10 -22,-19 -44,-28 -23,-9 -51,-17 -84,-13 -33,4 -70,20 -88,30 -18,10 -18,14 -10,25 8,11 25,28 48,42 23,13 51,23 80,18 29,-5 59,-23 78,-38 18,-15 25,-26 20,-36z"/>
  <path class="fil3" d="M8687 6245c5,-10 22,-19 44,-28 23,-9 51,-17 84,-13 33,4 70,20 88,30 18,10 18,14 10,25 -8,11 -25,28 -48,42 -23,13 -51,23 -80,18 -29,-5 -59,-23 -78,-38 -18,-15 -25,-26 -20,-36z"/>
  <path class="fil3" d="M8540 6240c-5,-10 -22,-19 -44,-28 -23,-9 -51,-17 -84,-13 -33,4 -70,20 -88,30 -18,10 -18,14 -10,25 8,11 25,28 48,42 23,13 51,23 80,18 29,-5 59,-23 78,-38 18,-15 25,-26 20,-36z"/>
  <path class="fil3" d="M5646 2310c5,-10 22,-19 44,-28 23,-9 51,-17 84,-13 33,4 70,20 88,30 18,10 18,14 10,25 -8,11 -25,28 -48,42 -23,13 -51,23 -80,18 -29,-5 -59,-23 -78,-38 -18,-15 -25,-26 -20,-36z"/>
  <path class="fil3" d="M5499 2305c-5,-10 -22,-19 -44,-28 -23,-9 -51,-17 -84,-13 -33,4 -70,20 -88,30 -18,10 -18,14 -10,25 8,11 25,28 48,42 23,13 51,23 80,18 29,-5 59,-23 78,-38 18,-15 25,-26 20,-36z"/>
  <path class="fil1" d="M6975 9788c39,-37 119,-100 179,-140 60,-40 101,-56 123,-52 23,4 27,29 30,64 3,34 5,78 0,125 -5,47 -15,97 -35,140 -20,43 -48,80 -74,104 -26,24 -49,34 -79,20 -30,-14 -67,-53 -98,-91 -32,-38 -58,-75 -72,-98 -14,-24 -14,-34 25,-71z"/>
  <path class="fil1" d="M6532 9749c-19,-18 -57,-43 -103,-70 -46,-26 -100,-54 -142,-77 -42,-23 -71,-43 -85,-16 -14,26 -13,98 -8,159 5,61 15,112 35,154 21,42 53,76 81,97 28,21 52,29 80,12 28,-17 61,-60 89,-101 28,-41 50,-80 61,-105 11,-25 11,-35 -9,-53z"/>
  <path class="fil1" d="M8474 5980c-39,-37 -119,-100 -179,-140 -60,-40 -101,-56 -123,-52 -23,4 -27,29 -30,64 -3,34 -5,78 0,125 5,47 15,97 35,140 20,43 48,80 74,104 26,24 49,34 79,20 30,-14 67,-53 98,-91 32,-38 58,-75 72,-98 14,-24 14,-34 -25,-71z"/>
  <path class="fil1" d="M8918 5942c19,-18 57,-43 103,-70 46,-26 100,-54 142,-77 42,-23 71,-43 85,-16 14,26 13,98 8,159 -5,61 -15,112 -35,154 -21,42 -53,76 -81,97 -28,21 -52,29 -80,12 -28,-17 -61,-60 -89,-101 -28,-41 -50,-80 -61,-105 -11,-25 -11,-35 9,-53z"/>
 </g>
</svg>
