<?xml version="1.0" encoding="UTF-8"?>
<!DOCTYPE svg PUBLIC "-//W3C//DTD SVG 1.1//EN" "http://www.w3.org/Graphics/SVG/1.1/DTD/svg11.dtd">
<!-- Creator: CorelDRAW 2017 -->
<svg xmlns="http://www.w3.org/2000/svg" xml:space="preserve" width="143mm" height="143mm" version="1.1" style="shape-rendering:geometricPrecision; text-rendering:geometricPrecision; image-rendering:optimizeQuality; fill-rule:evenodd; clip-rule:evenodd"
viewBox="0 0 14300 14300"
 xmlns:xlink="http://www.w3.org/1999/xlink">
 <defs>
  <style type="text/css">
   <![CDATA[
    .str1 {stroke:black;stroke-width:20}
    .str0 {stroke:red;stroke-width:100;stroke-linecap:round;stroke-linejoin:round}
    .fil2 {fill:none}
    .fil6 {fill:black}
    .fil7 {fill:black}
    .fil5 {fill:black}
    .fil3 {fill:gray}
    .fil4 {fill:#DE8066}
    .fil0 {fill:red}
    .fil1 {fill:white}
   ]]>
  </style>
 </defs>
 <g id="Слой_x0020_1">
  <metadata id="CorelCorpID_0Corel-Layer"/>
  <path class="fil0" d="M7192 690c168,8 374,39 575,90 201,51 395,121 604,236 208,115 430,275 610,444 179,169 316,349 438,543 123,195 232,405 314,633 82,228 136,473 142,746 6,273 -37,573 -132,880 -95,308 -243,623 -456,898 -212,275 -489,508 -744,674 -255,166 -489,263 -795,316 -306,53 -684,60 -972,35 -288,-25 -487,-84 -678,-166 -191,-82 -374,-187 -571,-344 -197,-157 -407,-365 -565,-566 -158,-201 -263,-394 -353,-623 -90,-229 -164,-494 -205,-751 -41,-257 -49,-506 4,-793 53,-286 166,-610 327,-886 162,-277 372,-506 623,-699 251,-193 543,-349 785,-450 242,-101 432,-148 592,-179 160,-31 288,-47 456,-39z"/>
  <path class="fil1" d="M7494 1149c208,39 466,117 692,230 226,113 421,261 580,423 160,162 284,337 384,540 99,203 173,432 210,647 37,214 37,413 11,645 -25,232 -76,497 -175,746 -99,249 -247,483 -391,656 -144,173 -284,286 -462,403 -177,117 -392,238 -621,308 -230,70 -475,90 -725,72 -250,-18 -503,-72 -745,-173 -242,-101 -471,-249 -664,-432 -193,-183 -348,-401 -465,-614 -117,-212 -195,-419 -249,-624 -54,-205 -84,-409 -81,-612 2,-203 37,-404 95,-600 58,-196 139,-387 253,-551 114,-164 262,-300 410,-430 148,-131 296,-255 454,-356 158,-101 325,-179 487,-228 162,-49 318,-68 475,-78 158,-10 318,-10 526,29z"/>
  <g id="_1995419660368">
   <polyline class="fil2 str0" points="7235,3553 6141,4454 6212,4086 "/>
   <line class="fil2 str0" x1="6141" y1="4454" x2="6452" y2= "4424" />
  </g>
  <path class="fil3" d="M7187 4888c35,0 70,5 93,52 23,47 33,137 35,252 2,115 -5,255 -25,351 -19,97 -51,151 -88,169 -37,18 -79,0 -107,-83 -28,-83 -42,-232 -46,-345 -3,-113 4,-189 11,-248 7,-59 14,-99 35,-122 21,-23 56,-27 91,-27z"/>
  <path class="fil3" d="M8429 3413c0,-37 5,-73 54,-97 50,-24 144,-35 265,-37 120,-2 267,6 369,26 102,20 158,53 177,92 19,39 0,83 -87,112 -87,29 -243,44 -361,48 -118,4 -198,-4 -260,-11 -61,-7 -104,-15 -128,-37 -24,-22 -28,-59 -28,-96z"/>
  <path class="fil3" d="M5801 3400c0,-40 -5,-80 -59,-106 -54,-26 -156,-38 -287,-40 -131,-2 -290,6 -400,28 -110,22 -172,58 -192,100 -21,42 0,90 95,122 95,32 264,48 392,52 128,4 215,-4 282,-12 67,-8 113,-16 139,-40 26,-24 31,-64 31,-104z"/>
  <path class="fil4" d="M11675 11969c381,56 1044,148 1425,268 381,120 480,268 310,392 -169,123 -607,222 -1379,240 -773,18 -1880,-46 -2512,-60 -631,-14 -787,21 -744,92 42,71 282,176 335,279 53,102 -81,201 -695,247 -614,46 -1707,39 -2491,25 -783,-14 -1256,-35 -1506,-116 -250,-81 -279,-222 -275,-325 4,-102 39,-166 -113,-219 -152,-53 -490,-95 -861,-99 -370,-4 -773,32 -1115,21 -342,-11 -624,-67 -836,-166 -212,-99 -353,-240 -342,-399 11,-159 173,-335 717,-415 544,-79 1471,-62 2219,-55 748,7 1317,4 1560,-26 242,-30 158,-86 66,-136 -92,-49 -191,-92 -71,-134 120,-42 459,-85 1185,-100 727,-16 1842,-5 2706,13 864,18 1478,42 1799,75 321,33 349,76 279,146 -71,71 -240,169 -296,233 -56,64 0,92 78,116 78,25 176,46 557,102z"/>
  <path class="fil5" d="M2839 3979c101,-20 202,-30 326,0 124,31 273,102 374,220 101,118 155,283 157,465 2,182 -48,382 -110,520 -63,138 -139,214 -190,286 -52,72 -79,140 -81,206 -2,66 20,129 73,181 52,52 134,93 400,57 266,-36 716,-149 1109,-320 393,-171 728,-402 932,-494 204,-92 276,-47 297,21 20,69 -11,160 -208,306 -197,146 -558,346 -915,532 -356,187 -708,360 -904,470 -196,110 -237,155 -259,286 -23,131 -27,349 -38,822 -11,473 -29,1203 -39,1891 -9,689 -9,1336 -2,1696 7,360 20,433 91,489 70,57 197,97 288,136 91,39 145,75 145,131 0,57 -54,134 -163,177 -109,43 -272,52 -426,34 -154,-18 -299,-63 -405,-194 -106,-131 -172,-348 -206,-744 -34,-397 -35,-973 -30,-1373 5,-400 15,-624 12,-722 -4,-98 -22,-71 -54,137 -32,208 -77,598 -107,1054 -30,456 -46,980 -62,1273 -17,293 -35,357 -112,422 -77,66 -213,134 -356,172 -143,39 -292,48 -396,14 -104,-34 -163,-111 -156,-183 7,-72 79,-140 145,-208 66,-68 125,-136 179,-541 54,-405 104,-1148 122,-1839 18,-691 5,-1329 0,-1733 -5,-403 0,-571 6,-792 5,-221 12,-496 55,-665 43,-170 123,-235 176,-304 53,-69 81,-141 101,-210 21,-69 35,-134 1,-186 -35,-51 -119,-89 -199,-212 -80,-124 -157,-334 -135,-548 22,-214 142,-433 253,-557 111,-124 214,-153 315,-172z"/>
  <path class="fil1" d="M3186 5023c-23,16 -60,48 -93,87 -33,39 -62,85 -71,138 -9,54 3,116 22,154 19,38 47,51 72,41 25,-10 48,-43 72,-79 24,-36 48,-76 69,-126 21,-50 39,-109 47,-148 8,-39 5,-57 -6,-68 -11,-11 -30,-16 -43,-18 -14,-1 -22,1 -30,2 -8,1 -16,1 -38,17z"/>
  <path class="fil6" d="M2396 3935c-25,-1 -807,2 -786,-65 4,-13 291,-243 379,-314 -473,-382 -474,-293 171,-404 -7,-110 -35,-407 -9,-529 -2,-5 -3,-9 -3,-11l6 0c7,-25 16,-41 30,-41 27,-1 36,18 40,38l0 0 0 3 0 3c224,371 131,215 322,536 70,-167 245,-582 289,-577 48,7 105,549 121,684 622,-163 537,-256 284,434l0 0c95,-349 50,-191 144,-507 -104,30 -440,128 -452,126 -33,-5 -89,-394 -116,-591 -75,184 -223,543 -263,545 -35,2 -218,-297 -326,-491 24,547 107,429 -476,515 97,81 296,249 301,259 18,39 -257,235 -370,315 440,40 221,18 713,74z"/>
  <path class="fil7" d="M2542 5870c-32,-29 -87,49 -153,75 -66,26 -143,1 -264,-127 -122,-128 -288,-360 -349,-520 -61,-159 -16,-246 28,-354 44,-108 87,-238 171,-351 83,-114 207,-211 294,-268 87,-57 138,-72 193,-77 55,-5 114,1 148,-32 35,-33 46,-107 6,-149 -40,-43 -129,-55 -244,-53 -115,2 -255,19 -379,91 -125,73 -234,201 -341,360 -107,159 -212,350 -278,482 -67,132 -95,206 -64,324 31,118 121,280 231,459 109,180 238,377 364,531 126,154 251,264 311,403 60,139 56,305 109,295 53,-10 163,-197 218,-358 55,-161 54,-297 48,-432 -5,-135 -16,-270 -48,-298z"/>
  <path class="fil5 str1" d="M11514 4189c140,55 271,165 354,312 83,147 117,330 123,514 6,184 -18,368 -38,519 -21,151 -38,270 19,417 58,147 191,323 315,729 124,406 238,1043 287,1525 49,482 34,811 3,999 -31,188 -77,237 -139,228 -62,-9 -139,-75 -179,-280 -40,-205 -41,-548 -82,-874 -41,-325 -121,-632 -177,-774 -56,-142 -87,-119 -61,168 26,287 111,837 214,1635 103,798 224,1843 292,2403 68,560 82,636 67,697 -15,61 -58,107 -137,127 -79,20 -193,15 -494,9 -301,-6 -788,-13 -1111,-18 -324,-5 -484,-7 -592,-26 -108,-19 -164,-54 -183,-111 -19,-58 -1,-138 78,-704 79,-566 218,-1616 304,-2387 86,-771 118,-1261 140,-1582 22,-321 34,-472 13,-497 -21,-25 -74,78 -175,222 -101,144 -249,330 -424,393 -175,63 -377,4 -572,-102 -195,-106 -384,-258 -509,-384 -125,-126 -187,-225 -146,-296 41,-71 184,-112 362,-20 177,93 389,320 550,380 161,61 271,-45 365,-206 95,-162 174,-380 241,-566 67,-186 120,-342 191,-473 71,-132 159,-240 189,-361 30,-122 3,-257 -17,-411 -20,-154 -34,-326 -13,-497 21,-170 78,-339 168,-465 90,-126 212,-210 348,-253 136,-43 285,-44 425,10z"/>
  <path class="fil1" d="M11235 4361c56,8 117,25 171,89 54,64 100,176 108,329 8,154 -21,349 -73,514 -52,164 -125,297 -201,372 -76,75 -154,92 -229,60 -76,-32 -149,-112 -198,-217 -48,-105 -72,-236 -82,-366 -11,-131 -8,-261 19,-377 27,-116 80,-217 139,-283 59,-66 124,-98 182,-114 58,-16 108,-16 164,-7z"/>
  <path class="fil7" d="M12738 3580c-199,-40 -624,-142 -1123,-212 -500,-70 -1075,-107 -1488,-91 -414,16 -666,86 -790,202 -124,116 -118,277 -116,989 3,712 3,1975 8,3314 5,1339 15,2756 11,3508 -3,753 -19,842 -68,887 -48,45 -129,45 -175,-24 -46,-69 -56,-206 -61,-1459 -5,-1252 -4,-3620 2,-5087 6,-1467 17,-2034 25,-2359 8,-325 13,-408 161,-449 148,-40 439,-38 750,-30 311,8 642,21 960,57 318,37 623,97 905,196 282,99 539,236 727,335 187,99 303,158 374,199 71,41 97,64 -102,24z"/>
  <path class="fil3" d="M7111 2172c-10,0 -19,0 -29,-1 -4,0 -8,-1 -12,-1 -12,-1 -25,-3 -36,-5 -10,-2 -20,-4 -29,-7 -4,-1 -9,-3 -13,-5 -13,-6 -25,-13 -34,-20 -2,-2 -5,-4 -7,-6 -12,-12 -17,-26 -21,-42 -4,-17 -6,-36 -9,-53 -3,-17 -7,-32 -11,-47 -4,-15 -8,-31 -14,-42 -6,-11 -14,-16 -21,-22 -20,-5 -43,-9 -60,-15 -2,-1 -4,-1 -6,-2 8,6 15,11 24,20 9,9 20,20 28,35 8,15 14,32 15,51 1,8 1,16 1,25 0,12 -1,25 -1,38 0,8 0,17 1,25 1,14 3,27 7,42 5,18 12,37 22,55 4,7 8,13 12,20 16,24 37,44 61,58 25,14 54,23 91,26 37,3 82,1 117,-7 35,-8 60,-21 81,-39 17,-14 31,-31 42,-49 3,-5 6,-10 9,-15 12,-23 18,-47 21,-67 1,-4 1,-9 2,-13 1,-15 1,-28 1,-39 -1,-15 -2,-28 -2,-40 0,-1 0,-2 0,-3 0,-12 2,-23 7,-36 5,-14 12,-31 22,-49 7,-13 17,-27 26,-42 3,-5 7,-10 10,-15 -10,6 -21,12 -33,17 -10,4 -20,8 -30,13 -14,29 -29,57 -37,81 -8,24 -9,45 -10,64 -1,19 -2,36 -9,51 -4,8 -10,16 -18,22 -7,6 -15,11 -25,15 -5,2 -11,5 -17,7 -11,4 -24,8 -37,10 -8,2 -16,3 -24,4 -5,1 -9,1 -14,2 -14,1 -28,2 -42,2z"/>
  <path class="fil3" d="M6907 2194c-10,-18 -17,-37 -22,-55 -4,-15 -6,-29 -7,-42 -110,44 -172,73 -208,87 -37,15 -46,15 -58,9 -12,-6 -28,-17 -45,-23 -18,-5 -38,-5 -54,1 -16,6 -28,17 -34,32 -6,15 -5,34 9,49 14,15 41,25 57,32 16,7 22,10 22,15 0,5 -6,12 -10,23 -4,11 -6,25 -4,37 2,12 7,23 17,30 10,8 26,13 41,12 15,-1 29,-7 38,-19 9,-12 13,-29 16,-47 3,-17 5,-35 25,-51 20,-16 58,-30 196,-84l21 -8z"/>
  <path class="fil3" d="M6789 2001c26,10 56,21 89,34 0,-9 0,-17 -1,-25 -2,-19 -7,-37 -15,-51 -8,-15 -19,-26 -28,-35 -9,-9 -17,-14 -24,-20 -3,-1 -6,-3 -9,-4 -50,-20 -80,-34 -102,-46 -33,-19 -45,-33 -56,-51 -11,-17 -21,-37 -33,-48 -12,-11 -26,-13 -39,-13 -13,0 -24,3 -32,7 -8,5 -14,11 -18,19 -4,8 -6,17 -5,27 1,10 6,21 9,28 3,7 4,10 -2,13 -6,3 -20,5 -33,7 -14,3 -27,7 -36,15 -9,8 -13,21 -13,34 0,13 3,27 10,38 7,12 19,21 31,26 12,5 24,4 37,-1 13,-5 27,-13 44,-15 16,-3 35,1 55,4 20,4 40,7 170,56z"/>
  <path class="fil3" d="M7370 1941c-10,18 -17,34 -22,49 -4,13 -6,25 -7,36l49 -19c129,-49 150,-52 170,-56 20,-4 38,-7 55,-4 16,3 31,11 44,15 13,5 25,5 37,1 12,-5 24,-14 31,-26 7,-12 11,-25 10,-38 0,-13 -4,-26 -13,-34 -9,-8 -22,-12 -36,-15 -14,-3 -27,-5 -33,-7 -6,-3 -5,-6 -2,-13 3,-7 7,-18 9,-28 1,-10 -1,-19 -5,-27 -4,-8 -10,-14 -18,-19 -8,-5 -19,-7 -32,-7 -13,0 -27,2 -39,13 -12,11 -22,31 -33,48 -11,17 -23,32 -56,51 -19,11 -45,23 -85,39 -10,14 -19,28 -26,42z"/>
  <path class="fil3" d="M7509 2179c-31,-13 -82,-36 -167,-71 0,4 -1,8 -2,13 -3,20 -9,44 -21,67 -3,5 -6,10 -9,15 124,48 160,62 179,77 20,16 22,33 25,51 3,17 7,35 16,47 9,12 23,18 38,19 15,1 30,-5 41,-12 10,-8 15,-18 17,-30 2,-12 0,-26 -4,-37 -4,-11 -10,-18 -10,-23 0,-5 6,-8 22,-15 16,-7 43,-17 57,-32 14,-15 14,-34 9,-49 -6,-15 -18,-26 -34,-32 -16,-6 -36,-6 -54,-1 -18,5 -33,17 -45,23 -12,6 -21,6 -58,-9z"/>
  <path class="fil3" d="M7337 1630c17,8 33,18 43,30 10,12 13,26 11,44 -2,18 -11,40 -26,61 -15,21 -37,40 -52,49 -15,9 -24,8 -36,2 -13,-6 -30,-16 -48,-33 -18,-16 -37,-39 -48,-58 -12,-19 -17,-34 -20,-48 -3,-14 -5,-26 0,-36 6,-10 19,-19 41,-24 21,-5 51,-5 75,-2 24,3 43,8 61,16zm36 271c12,-5 23,-11 33,-17 11,-7 20,-15 28,-24 15,-18 23,-42 24,-65 1,-23 -4,-46 -9,-71 -1,-7 -3,-14 -4,-21 16,-18 32,-36 51,-60 19,-25 41,-56 53,-96 12,-40 14,-89 2,-136 -12,-47 -38,-92 -77,-128 -39,-36 -91,-63 -156,-81 -65,-18 -142,-27 -229,-23 -87,4 -184,21 -255,49 -70,28 -113,68 -139,111 -25,43 -33,89 -31,133 3,43 15,83 32,116 17,33 37,59 53,76 16,17 27,25 39,33 -5,25 -12,54 -17,75 -6,27 -8,44 -8,59 -1,15 0,30 7,43 5,10 14,20 29,27 3,1 6,3 9,4l6 2c17,6 39,10 60,15 9,2 17,5 25,7 24,9 37,23 46,41 8,16 13,35 26,49 1,2 3,3 5,4 5,4 11,8 19,11 11,5 24,8 39,10 7,1 14,2 21,3 4,0 8,1 13,1 14,1 29,1 43,1 13,0 27,-1 40,-2 4,0 9,-1 13,-1 7,-1 14,-1 21,-2 15,-2 28,-5 39,-8 9,-3 16,-6 21,-9 4,-3 8,-6 10,-10 6,-8 7,-19 11,-30 6,-17 17,-37 37,-51 11,-9 26,-15 40,-22 10,-4 20,-8 30,-13zm-269 -97c4,13 4,48 2,74 -1,26 -3,43 -9,55 -5,12 -14,18 -24,22 -10,4 -20,5 -27,-3 -7,-8 -9,-25 -9,-43 1,-18 5,-37 12,-54 8,-17 19,-31 30,-43 10,-12 20,-21 24,-8zm24 0c4,-13 14,-4 24,8 10,12 22,26 30,43 8,17 12,36 12,54 1,18 -2,35 -9,43 -7,8 -17,7 -27,3 -10,-4 -19,-10 -24,-22 -5,-12 -7,-29 -9,-55 -1,-26 -2,-61 2,-74zm-173 -190c24,-3 53,-2 75,2 21,5 35,14 41,24 6,10 4,22 0,36 -3,14 -8,29 -20,48 -12,19 -30,42 -48,58 -18,16 -35,27 -48,33 -13,6 -21,7 -36,-2 -15,-9 -37,-28 -52,-49 -15,-21 -23,-42 -26,-61 -2,-18 1,-32 11,-44 10,-12 25,-22 43,-30 17,-8 36,-13 61,-16z"/>
  <path class="fil3" d="M7259 2072c1,-1 -2,1 -11,4 -9,4 -23,9 -32,8 -9,-2 -12,-10 -14,-19 -2,-9 -2,-19 -3,-16 -1,3 -1,19 -7,30 -6,11 -17,16 -25,19 -8,3 -14,4 -17,2 -3,-2 -3,-8 -4,-18 -1,-10 -3,-24 -4,-24 -1,0 -2,15 -3,25 -1,10 -1,16 -6,19 -5,3 -14,3 -22,3 -7,0 -13,0 -15,-4 -3,-4 -3,-12 -3,-22 0,-10 -1,-23 -2,-22 -1,1 -3,15 -5,26 -2,10 -3,16 -8,19 -5,3 -15,1 -23,0 -8,-1 -14,-2 -17,-6 -4,-4 -6,-11 -7,-21 -1,-10 -1,-23 -2,-24 -1,-1 -2,10 -3,19 -1,9 -2,15 -5,19 -4,4 -10,5 -18,4 -7,-1 -15,-4 -23,-7 -7,-3 -14,-5 -9,-2 5,3 21,11 32,17 11,6 18,9 21,18 3,8 2,21 3,21 1,0 4,-12 6,-19 3,-7 6,-8 10,-7 4,1 9,3 13,9 4,6 6,16 8,23 2,8 3,14 3,17 0,4 0,5 0,-1 0,-6 0,-18 1,-27 1,-8 2,-13 7,-15 5,-3 15,-3 20,-1 5,3 5,9 5,18 0,9 0,20 1,27 1,6 3,7 4,2 1,-5 1,-16 2,-24 0,-8 1,-13 4,-16 3,-3 10,-4 14,-5 5,-1 8,-1 10,3 2,4 3,11 4,19 1,8 2,18 4,16 1,-2 2,-14 3,-23 0,-8 0,-12 4,-16 3,-4 10,-8 15,-11 5,-2 10,-2 14,-2 4,0 9,1 12,4 3,3 6,8 8,15 2,6 4,14 4,12 0,-2 -1,-12 -1,-19 0,-7 0,-11 2,-14 2,-3 6,-5 10,-7 5,-2 10,-4 14,-5 4,-1 7,-1 9,2 2,3 5,8 7,15 2,6 5,14 5,12 1,-2 1,-15 1,-23 0,-8 0,-12 3,-16 2,-4 7,-9 8,-10z"/>
  <path class="fil5" d="M5816 2826c81,21 235,69 461,147 226,78 525,185 720,257 195,72 285,110 341,152 57,42 79,87 73,138 -7,51 -43,107 -80,142 -38,34 -77,46 -116,40 -39,-6 -79,-32 -296,-160 -217,-128 -611,-360 -834,-493 -224,-132 -277,-165 -309,-187 -33,-22 -45,-32 -47,-41 -2,-9 7,-16 88,5z"/>
 </g>
</svg>
