<?xml version="1.0" encoding="UTF-8"?>
<!DOCTYPE svg PUBLIC "-//W3C//DTD SVG 1.1//EN" "http://www.w3.org/Graphics/SVG/1.1/DTD/svg11.dtd">
<!-- Creator: CorelDRAW 2017 -->
<svg xmlns="http://www.w3.org/2000/svg" xml:space="preserve" width="143mm" height="143mm" version="1.1" style="shape-rendering:geometricPrecision; text-rendering:geometricPrecision; image-rendering:optimizeQuality; fill-rule:evenodd; clip-rule:evenodd"
viewBox="0 0 14300 14300"
 xmlns:xlink="http://www.w3.org/1999/xlink">
 <defs>
  <style type="text/css">
   <![CDATA[
    .str0 {stroke:black;stroke-width:20}
    .fil1 {fill:black}
    .fil4 {fill:#4D4D4D}
    .fil3 {fill:gray}
    .fil0 {fill:#EDBF42}
    .fil2 {fill:white}
   ]]>
  </style>
 </defs>
 <g id="Слой_x0020_1">
  <metadata id="CorelCorpID_0Corel-Layer"/>
  <path class="fil0" d="M11322 2378c113,1214 106,3577 123,5584 18,2007 60,3658 39,4509 -21,850 -106,900 -356,871 -250,-28 -667,-134 -998,-208 -332,-74 -579,-116 -861,-88 -282,28 -600,127 -882,247 -282,120 -529,261 -780,360 -250,99 -504,155 -713,131 -208,-25 -370,-131 -571,-233 -201,-102 -441,-201 -677,-222 -236,-21 -469,35 -646,85 -176,49 -296,92 -480,141 -183,49 -430,106 -711,93 -280,-13 -594,-94 -757,-276 -164,-182 -178,-464 -181,-2524 -4,-2060 4,-5898 28,-7938 25,-2039 67,-2279 315,-2351 248,-72 703,24 1008,160 305,136 460,313 598,468 138,155 258,289 427,409 169,120 388,226 600,314 212,88 416,159 561,123 145,-35 229,-176 279,-360 49,-183 64,-409 92,-624 28,-215 71,-420 208,-533 138,-113 370,-134 557,-71 187,64 328,212 388,455 60,243 39,582 131,737 92,155 296,127 522,42 226,-85 473,-226 691,-339 219,-113 409,-198 649,-243 240,-46 529,-53 790,-25 261,28 494,92 607,1305z"/>
  <path class="fil1" d="M10171 2696c-3,954 -3,2722 3,4276 5,1554 16,2894 21,3799 5,906 5,1377 38,1616 32,238 96,244 171,279 75,35 161,99 209,86 48,-13 59,-105 62,-1576 3,-1471 -3,-4322 -3,-6114 0,-1793 5,-2527 -8,-2905 -13,-378 -46,-399 -107,-447 -62,-48 -153,-123 -220,-169 -67,-46 -110,-62 -134,0 -24,62 -29,201 -32,1155z"/>
  <path class="fil1" d="M4252 1948c16,397 0,1219 -11,2907 -11,1689 -16,4245 -16,5686 0,1442 5,1768 -21,1951 -27,182 -86,220 -153,284 -67,64 -142,155 -188,139 -46,-16 -62,-139 -78,-849 -16,-710 -32,-2007 -35,-3711 -3,-1704 8,-3816 19,-4973 11,-1158 21,-1361 46,-1474 24,-113 62,-134 118,-170 56,-36 131,-86 193,-124 62,-38 110,-65 126,333z"/>
  <path class="fil2" d="M1888 6099c49,61 130,210 237,406 107,196 241,438 315,577 75,139 90,173 92,192 2,19 -10,23 -70,25 -60,3 -167,4 -221,13 -54,9 -54,24 -55,172 -1,147 -3,426 -2,632 1,205 4,337 3,409 -1,72 -6,84 -114,90 -107,6 -317,6 -432,3 -114,-3 -133,-10 -143,-23 -10,-12 -10,-29 -9,-243 1,-213 3,-622 -1,-831 -3,-209 -12,-217 -67,-223 -55,-5 -155,-7 -211,-10 -56,-3 -68,-6 -1,-140 68,-133 215,-397 328,-594 113,-198 191,-329 237,-409 47,-80 62,-107 111,-47z"/>
  <path class="fil3" d="M7401 1289c-4,311 -11,816 -15,1088 -4,273 -4,313 -47,337 -43,24 -129,33 -166,-28 -37,-61 -26,-193 -20,-528 6,-335 6,-874 11,-1166 6,-293 17,-339 58,-364 41,-24 112,-27 147,-3 35,23 35,72 35,154 0,82 0,198 -4,509z"/>
  <path class="fil2" d="M12639 8742c48,-59 127,-205 232,-397 105,-192 236,-429 309,-565 73,-136 88,-170 90,-188 2,-19 -10,-22 -69,-25 -59,-3 -164,-4 -216,-13 -53,-8 -53,-24 -53,-168 -1,-144 -3,-417 -2,-619 1,-201 4,-330 3,-400 -1,-70 -6,-82 -111,-88 -105,-6 -311,-6 -423,-3 -112,3 -131,10 -140,22 -9,12 -9,29 -8,238 1,209 3,609 -1,814 -3,204 -12,213 -65,218 -53,5 -152,7 -207,9 -55,3 -67,6 -1,137 66,131 210,389 321,582 110,193 187,322 233,400 46,78 61,105 109,46z"/>
  <path class="fil1" d="M5153 3266c80,-121 225,-216 691,-270 466,-53 1254,-65 1811,-62 557,3 884,20 1080,56 196,37 260,93 351,171 91,79 209,180 263,798 54,618 43,1754 32,3123 -11,1369 -21,2971 -32,3800 -11,829 -21,885 -188,939 -166,53 -488,104 -1160,118 -673,14 -1696,-8 -2245,-34 -549,-25 -624,-53 -667,-169 -43,-115 -54,-318 -56,-1675 -3,-1358 3,-3871 13,-5200 11,-1330 27,-1476 107,-1597zm4697 8008c13,-998 29,-2977 38,-4601 8,-1625 8,-2895 -27,-3536 -35,-641 -105,-652 -949,-658 -844,-6 -2462,-6 -3314,8 -852,14 -938,42 -986,70 -48,28 -59,56 -62,857 -3,801 3,2375 5,3980 3,1605 3,3241 19,4073 16,832 48,860 110,871 62,11 153,6 989,-3 836,-8 2417,-20 3231,-25 815,-6 863,-6 892,-14 29,-8 40,-25 54,-1023z"/>
  <path class="fil3" d="M8411 11314c188,74 472,233 587,330 115,97 60,132 -154,166 -214,34 -588,65 -1054,79 -466,14 -1023,11 -1459,0 -436,-11 -750,-28 -915,-46 -166,-18 -183,-35 -138,-95 46,-60 155,-162 275,-258 120,-95 250,-183 430,-224 180,-41 409,-34 760,-26 351,7 824,14 1106,12 282,-2 374,-12 562,62z"/>
  <path class="fil3" d="M9138 4877c-71,-14 -198,-18 -265,25 -67,42 -74,131 -77,242 -3,111 -1,245 2,432 4,187 9,428 12,622 3,194 3,342 43,409 41,67 122,53 191,44 69,-9 125,-12 155,-86 30,-74 34,-219 34,-478 1,-259 -1,-633 -1,-843 0,-210 2,-256 -4,-291 -6,-35 -20,-60 -91,-74z"/>
  <path class="fil1 str0" d="M7394 5045c120,33 218,103 291,195 73,92 120,207 132,389 12,182 -10,431 -75,583 -65,153 -173,209 -233,263 -60,54 -71,107 -34,147 36,40 120,68 212,140 92,72 191,189 269,319 78,130 134,273 174,390 41,117 66,206 95,235 29,29 60,-4 94,-52 34,-48 70,-112 112,-209 42,-97 90,-227 127,-313 38,-86 65,-127 101,-171 36,-43 82,-89 121,-94 40,-5 73,31 92,82 19,51 22,117 -4,228 -26,111 -81,266 -143,411 -61,146 -128,282 -176,374 -48,92 -76,139 -128,194 -52,55 -128,118 -221,76 -93,-42 -204,-190 -280,-311 -76,-121 -117,-214 -151,-252 -34,-38 -60,-20 -52,257 8,277 52,812 62,1248 10,435 -14,771 -29,1083 -15,312 -23,600 -8,767 15,167 52,213 92,251 41,38 86,67 114,111 28,44 40,103 28,151 -12,48 -49,83 -116,99 -67,16 -163,12 -265,-6 -102,-18 -210,-49 -269,-154 -59,-105 -70,-283 -75,-558 -6,-275 -7,-648 -16,-956 -9,-308 -26,-551 -43,-691 -18,-140 -36,-178 -53,-73 -17,105 -32,353 -43,732 -12,379 -20,887 -29,1188 -9,300 -20,392 -53,452 -34,59 -91,86 -187,98 -96,12 -231,10 -322,-4 -91,-15 -139,-42 -155,-87 -16,-45 -1,-108 35,-151 36,-43 92,-65 128,-133 36,-68 53,-181 65,-381 12,-200 21,-487 12,-808 -9,-320 -34,-674 -25,-1039 9,-365 51,-742 65,-989 13,-247 -3,-365 -34,-384 -31,-19 -76,61 -117,224 -41,164 -79,411 -92,635 -13,224 0,426 -5,557 -4,131 -25,191 -54,223 -29,31 -66,34 -106,10 -40,-24 -83,-76 -113,-195 -30,-120 -47,-308 -34,-542 13,-234 56,-514 104,-753 48,-239 101,-437 151,-596 49,-160 95,-281 157,-362 63,-81 142,-121 215,-159 73,-38 138,-74 166,-112 28,-38 17,-78 -38,-145 -55,-67 -155,-162 -201,-312 -46,-150 -39,-356 -21,-515 18,-159 47,-271 113,-368 66,-97 168,-179 290,-222 122,-43 263,-46 382,-13z"/>
  <path class="fil4" d="M9134 6372c-14,-184 -25,-593 -41,-837 -16,-244 -38,-321 -74,-369 -37,-47 -89,-64 -120,-76 -31,-12 -41,-18 -43,-44 -2,-26 5,-73 35,-93 30,-20 82,-15 136,-13 54,2 110,1 135,32 25,30 20,91 21,243 1,152 8,394 9,619 1,225 -4,431 -15,556 -11,124 -28,166 -42,-18z"/>
 </g>
</svg>
