<?xml version="1.0" encoding="UTF-8"?>
<!DOCTYPE svg PUBLIC "-//W3C//DTD SVG 1.1//EN" "http://www.w3.org/Graphics/SVG/1.1/DTD/svg11.dtd">
<!-- Creator: CorelDRAW 2017 -->
<svg xmlns="http://www.w3.org/2000/svg" xml:space="preserve" width="143mm" height="143mm" version="1.1" style="shape-rendering:geometricPrecision; text-rendering:geometricPrecision; image-rendering:optimizeQuality; fill-rule:evenodd; clip-rule:evenodd"
viewBox="0 0 14300 14300"
 xmlns:xlink="http://www.w3.org/1999/xlink">
 <defs>
  <style type="text/css">
   <![CDATA[
    .fil5 {fill:none}
    .fil6 {fill:black}
    .fil0 {fill:black}
    .fil1 {fill:#964636}
    .fil2 {fill:#CCCCCC}
    .fil4 {fill:#F0A195}
    .fil3 {fill:white}
   ]]>
  </style>
 </defs>
 <g id="Слой_x0020_1">
  <metadata id="CorelCorpID_0Corel-Layer"/>
  <path class="fil0" d="M7482 3038c297,7 619,74 885,282 266,209 475,560 562,897 88,337 55,660 2,914 -53,255 -124,442 -226,599 -102,158 -234,286 -331,408 -97,122 -159,239 -69,416 90,177 332,414 472,858 140,444 178,1094 225,1725 47,631 104,1243 173,1697 69,453 149,747 180,930 31,183 12,254 -410,280 -422,26 -1248,7 -1872,0 -624,-7 -1046,-2 -1260,-62 -214,-59 -218,-183 -212,-559 6,-376 24,-1005 55,-1496 31,-491 75,-845 106,-1194 31,-349 48,-695 202,-1008 154,-313 446,-594 639,-773 193,-179 288,-254 326,-364 38,-109 19,-252 -66,-365 -85,-114 -237,-199 -389,-380 -152,-180 -304,-456 -370,-793 -66,-337 -47,-736 57,-1065 104,-330 294,-591 524,-747 230,-157 501,-209 797,-202z"/>
  <path class="fil1" d="M4330 10718c980,26 2715,93 4149,123 1434,30 2568,22 3254,60 686,38 925,123 834,214 -91,91 -513,190 -1079,364 -567,174 -1278,424 -1514,556 -236,132 3,146 196,223 193,77 341,218 211,351 -130,133 -538,260 -1465,365 -928,105 -2375,190 -3390,169 -1015,-21 -1599,-147 -1915,-344 -316,-197 -365,-464 -401,-723 -35,-260 -56,-513 -112,-667 -56,-154 -148,-211 -186,-309 -39,-98 -25,-239 95,-316 119,-77 344,-91 1324,-65z"/>
  <path class="fil0" d="M6944 7329c-220,51 -544,315 -759,448 -215,133 -322,136 -436,81 -115,-55 -238,-167 -314,-318 -76,-152 -105,-343 -77,-560 28,-218 112,-462 206,-691 94,-229 197,-442 275,-603 78,-160 132,-267 136,-373 4,-106 -41,-211 -138,-255 -97,-44 -245,-27 -387,78 -142,105 -278,297 -426,563 -148,265 -309,603 -417,942 -109,338 -166,677 -168,958 -2,281 52,505 145,692 92,187 223,337 392,448 168,111 374,183 625,223 252,39 549,46 810,-63 261,-109 486,-334 643,-570 158,-236 249,-483 236,-687 -12,-204 -128,-364 -348,-313z"/>
  <path class="fil2" d="M6246 4788c-62,-9 -128,-8 -206,3 -78,11 -169,33 -307,76 -137,43 -321,106 -518,153 -197,46 -409,75 -619,87 -211,12 -421,8 -583,-12 -162,-20 -275,-57 -343,-92 -68,-35 -90,-68 -105,-50 -15,19 -22,89 -8,190 14,101 49,231 101,342 52,111 121,202 197,261 76,59 159,85 279,78 120,-7 278,-49 527,-159 248,-111 587,-291 787,-403 201,-112 263,-156 334,-196 71,-41 149,-78 231,-110 82,-32 168,-60 233,-71 65,-11 108,-5 134,-10 26,-5 34,-22 9,-40 -25,-18 -82,-36 -144,-45z"/>
  <path class="fil3" d="M6384 4813c75,35 132,97 145,193 13,96 -18,224 -129,433 -111,209 -303,497 -483,736 -180,239 -349,428 -489,591 -140,164 -252,301 -331,435 -79,133 -126,261 -143,353 -17,91 -4,146 -15,149 -11,3 -44,-45 -90,-189 -45,-143 -102,-382 -164,-551 -62,-169 -128,-270 -201,-332 -73,-63 -152,-88 -254,-96 -102,-8 -225,1 -334,5 -109,4 -202,2 -303,-51 -101,-53 -210,-157 -267,-286 -57,-129 -62,-283 -58,-384 4,-101 17,-148 32,-148 16,0 34,48 117,73 83,25 232,26 465,-19 233,-44 551,-134 765,-229 214,-95 323,-194 492,-308 169,-114 397,-242 572,-315 174,-73 295,-91 401,-97 106,-5 198,2 273,37z"/>
  <path class="fil2" d="M3679 6502c32,-7 115,-16 215,-45 100,-29 217,-80 418,-185 201,-105 485,-265 701,-399 216,-134 365,-242 483,-325 118,-82 206,-139 232,-145 26,-7 -9,37 -133,140 -124,103 -337,267 -491,400 -155,133 -251,236 -323,324 -72,88 -119,161 -150,227 -31,66 -45,125 -49,167 -4,42 2,68 -9,58 -11,-11 -38,-58 -75,-90 -37,-33 -85,-51 -140,-65 -55,-14 -118,-24 -189,-28 -71,-4 -151,-2 -219,-1 -67,1 -122,1 -155,1 -33,0 -44,-2 -60,-4 -16,-3 -35,-7 -54,-12 -19,-5 -37,-11 -4,-19z"/>
  <path class="fil0" d="M8314 6596c50,46 107,134 213,214 106,80 259,153 438,274 179,121 383,291 477,568 94,276 79,659 -63,983 -142,324 -411,589 -853,713 -442,124 -1058,107 -1529,-58 -471,-165 -798,-478 -1049,-852 -251,-374 -426,-810 -481,-1272 -55,-463 9,-952 73,-1251 63,-299 125,-406 224,-495 99,-89 235,-159 339,-138 103,21 174,134 180,389 6,255 -52,651 -9,1003 42,352 185,660 341,892 156,232 324,389 503,475 179,87 370,104 528,85 158,-19 284,-73 366,-179 82,-105 119,-262 111,-401 -9,-139 -63,-262 -112,-366 -49,-104 -94,-189 -100,-282 -7,-94 24,-196 53,-259 29,-63 56,-87 92,-97 36,-10 80,-7 123,-3 43,4 85,9 135,55z"/>
  <path class="fil0" d="M4280 4825c-51,-30 -215,-105 -348,-196 -133,-91 -235,-198 -305,-293 -70,-95 -108,-178 -138,-224 -30,-46 -53,-54 -54,-11 -1,43 18,137 65,235 47,97 122,198 245,279 122,82 291,144 407,184 116,39 179,56 128,26z"/>
  <path class="fil0" d="M3150 5368c-25,-20 -139,-75 -219,-139 -79,-64 -123,-138 -173,-199 -50,-61 -106,-110 -140,-121 -34,-11 -46,14 -24,65 22,51 78,128 160,196 82,69 189,130 274,167 85,37 148,51 123,31z"/>
  <path class="fil0" d="M4273 6996c-14,94 -61,319 -67,525 -6,206 30,393 49,527 20,134 23,216 -9,250 -32,34 -100,20 -139,-62 -39,-82 -49,-234 -26,-438 23,-204 79,-461 112,-607 33,-146 43,-182 59,-218 15,-36 36,-71 22,23z"/>
  <path class="fil0" d="M3953 6963c-48,26 -177,117 -303,197 -126,80 -248,148 -308,204 -60,56 -56,100 -19,119 37,19 109,12 216,-70 107,-82 250,-238 338,-337 88,-99 122,-139 75,-114z"/>
  <path class="fil3" d="M7403 4504c-234,-203 -313,-265 -239,-581 119,232 165,322 239,581z"/>
  <path class="fil3" d="M7478 4029c-206,310 -163,190 -307,497 -155,-273 71,-415 307,-497z"/>
  <path class="fil3" d="M6518 4411c-175,-255 -237,-335 -86,-623 57,255 79,353 86,623z"/>
  <path class="fil3" d="M6710 3970c-277,248 -206,142 -422,404 -81,-303 173,-384 422,-404z"/>
  <g id="_1995502511968">
   <path class="fil4" d="M6566 5700c93,-330 251,-186 371,-31 159,-284 182,-146 331,10 33,-24 134,-216 145,-234 -49,545 -267,237 -315,182 -20,45 -97,178 -152,182 -193,12 -10,-419 -381,-108zm700 -20c-2,0 -3,0 -4,1 1,0 3,0 4,-1z"/>
  </g>
  <path class="fil5" d="M6566 5700c41,-65 82,-129 131,-150 49,-20 107,3 148,53 41,49 65,124 85,145 20,20 37,-14 61,-60 24,-46 54,-104 85,-119 31,-15 61,12 92,53 31,41 61,95 92,100 31,5 61,-39 87,-94 26,-54 46,-119 66,-184"/>
  <path class="fil6" d="M9093 4044c40,15 1164,183 1176,66 3,-23 -287,-569 -376,-737 985,-276 927,-136 4,-739 84,-165 325,-606 366,-811 7,-7 11,-12 13,-15l-9 -5c6,-44 2,-74 -19,-84 -41,-21 -68,3 -87,31l-1 0 -2 4 -3 4c-593,423 -345,245 -855,614 3,-304 9,-1063 -62,-1083 -79,-22 -528,777 -642,976 -852,-666 -660,-753 -728,481l0 0c86,-602 50,-328 115,-880 140,116 595,491 615,496 55,14 399,-549 573,-837 -7,335 -16,988 42,1017 53,27 534,-314 830,-542 -401,829 -451,591 393,1112 -203,61 -623,187 -637,199 -53,48 241,534 361,733 -431,-43 -497,-12 -1069,-3z"/>
  <path class="fil0" d="M7328 2680c-1,-102 -44,-450 -91,-647 -46,-197 -95,-243 -114,-233 -18,9 -6,74 19,199 25,125 63,309 103,473 40,165 82,310 82,208z"/>
  <path class="fil0" d="M6823 2765c-101,-180 -337,-585 -496,-839 -159,-254 -241,-356 -303,-412 -62,-56 -106,-66 -99,-26 7,40 63,129 185,308 122,179 309,448 444,639 135,191 218,304 276,383 59,79 94,126 -7,-54z"/>
  <path class="fil6" d="M9493 4605c211,31 677,112 939,163 262,51 320,71 357,102 37,31 54,71 -75,60 -129,-12 -405,-77 -653,-138 -248,-61 -469,-119 -602,-158 -133,-39 -177,-60 34,-29z"/>
 </g>
</svg>
