<?xml version="1.0" encoding="UTF-8"?>
<!DOCTYPE svg PUBLIC "-//W3C//DTD SVG 1.1//EN" "http://www.w3.org/Graphics/SVG/1.1/DTD/svg11.dtd">
<!-- Creator: CorelDRAW 2017 -->
<svg xmlns="http://www.w3.org/2000/svg" xml:space="preserve" width="143mm" height="143mm" version="1.1" style="shape-rendering:geometricPrecision; text-rendering:geometricPrecision; image-rendering:optimizeQuality; fill-rule:evenodd; clip-rule:evenodd"
viewBox="0 0 14300 14300"
 xmlns:xlink="http://www.w3.org/1999/xlink">
 <defs>
  <style type="text/css">
   <![CDATA[
    .fil1 {fill:black}
    .fil4 {fill:#4D4D4D}
    .fil0 {fill:#7BAD52}
    .fil3 {fill:red}
    .fil2 {fill:white}
   ]]>
  </style>
 </defs>
 <g id="Слой_x0020_1">
  <metadata id="CorelCorpID_0Corel-Layer"/>
  <path class="fil0" d="M6379 11619c746,-3 1997,-10 2813,-24 816,-14 1197,-37 1621,-26 424,10 890,52 1139,110 250,58 283,132 240,193 -44,61 -165,108 -192,168 -27,61 40,134 182,178 141,44 356,57 518,67 161,10 269,17 313,87 44,71 24,205 -427,245 -451,40 -1331,-13 -2347,-37 -1015,-24 -2165,-17 -2588,12 -423,29 -119,79 96,157 214,78 339,184 -15,240 -354,55 -1186,61 -1884,63 -698,3 -1263,3 -1593,-41 -329,-44 -424,-131 -461,-242 -37,-111 -17,-245 -252,-336 -235,-91 -726,-138 -1059,-178 -333,-40 -508,-74 -609,-161 -101,-87 -128,-229 74,-316 202,-88 632,-122 1204,-139 572,-17 1284,-17 1762,-17 477,0 719,1 1466,-2z"/>
  <path class="fil1" d="M3328 5251c138,28 212,75 258,328 47,253 67,713 58,1371 -8,658 -45,1515 47,1933 92,418 312,398 1045,392 733,-7 1979,0 2996,-3 1016,-3 1803,-17 2223,-33 420,-17 473,-37 497,-93 23,-57 17,-150 33,-270 17,-120 57,-267 127,-370 70,-103 170,-163 293,-207 123,-43 270,-70 410,-53 140,17 273,77 347,243 73,167 87,440 77,1000 -10,560 -43,1406 -83,1853 -40,447 -87,493 -227,530 -140,37 -373,63 -533,53 -160,-10 -247,-57 -330,-180 -83,-123 -163,-323 -200,-520 -37,-197 -30,-390 -63,-493 -33,-103 -107,-117 -700,-127 -593,-10 -1706,-17 -2706,-10 -1000,7 -1886,27 -2393,47 -507,20 -633,40 -710,83 -77,43 -103,110 -117,257 -13,147 -13,373 -23,533 -10,160 -30,253 -100,337 -70,83 -190,157 -363,173 -173,17 -400,-23 -547,-80 -147,-57 -213,-130 -253,-323 -40,-193 -53,-507 -57,-1376 -3,-870 3,-2296 10,-3172 7,-876 13,-1203 43,-1410 30,-207 83,-293 153,-350 70,-57 157,-83 302,-92 145,-8 348,2 486,30z"/>
  <path class="fil1" d="M3879 7499c117,-57 340,-117 588,-138 248,-22 521,-5 766,62 245,67 461,183 665,337 203,153 393,343 530,537 137,193 220,390 287,525 67,135 117,208 25,255 -92,47 -325,67 -638,35 -313,-32 -706,-115 -1060,-283 -353,-168 -667,-422 -876,-630 -210,-208 -317,-372 -365,-480 -48,-108 -38,-162 78,-218z"/>
  <path class="fil2" d="M7840 1379c252,60 525,153 803,348 278,195 562,492 748,785 187,293 277,583 320,905 43,322 40,675 -15,975 -55,300 -162,547 -322,788 -160,242 -373,478 -615,658 -242,180 -512,303 -793,382 -282,78 -575,112 -855,108 -280,-3 -547,-43 -811,-140 -265,-97 -528,-250 -770,-473 -242,-223 -461,-517 -603,-821 -142,-305 -205,-621 -213,-936 -8,-315 38,-628 117,-900 78,-272 188,-502 353,-716 165,-215 385,-415 583,-571 198,-157 375,-270 598,-347 223,-77 493,-117 743,-123 250,-7 480,20 731,80z"/>
  <path class="fil3" d="M7829 2284c33,175 37,528 47,710 10,182 27,192 145,195 118,3 338,0 502,-2 163,-2 270,-2 338,-3 68,-2 98,-5 110,105 12,110 5,333 3,555 -2,222 2,441 -22,561 -23,120 -73,140 -215,143 -142,3 -375,-10 -535,-10 -160,0 -247,13 -290,48 -43,35 -43,92 -42,240 2,148 5,388 8,532 3,143 7,190 -143,213 -150,23 -453,23 -661,22 -208,-2 -322,-5 -392,-25 -70,-20 -97,-57 -105,-218 -8,-162 2,-448 0,-605 -2,-157 -15,-183 -138,-198 -123,-15 -357,-18 -528,-22 -172,-3 -282,-7 -335,-48 -53,-42 -50,-122 -48,-300 2,-178 2,-455 5,-633 3,-178 10,-258 52,-302 42,-43 118,-50 252,-52 133,-2 323,2 453,3 130,2 200,2 243,-13 43,-15 60,-45 62,-147 2,-102 -12,-275 -15,-432 -3,-157 3,-297 17,-372 13,-75 33,-85 182,-95 148,-10 425,-20 595,-23 170,-3 233,0 297,0 63,0 127,-3 160,172z"/>
  <path class="fil3" d="M9328 4913c-55,109 -111,259 -213,410 -102,152 -249,304 -392,406 -143,101 -283,151 -488,192 -205,41 -477,73 -670,114 -194,41 -310,91 -537,68 -227,-23 -564,-119 -781,-208 -217,-89 -314,-171 -428,-235 -114,-65 -246,-113 -381,-206 -135,-94 -274,-233 -313,-238 -39,-5 22,126 134,264 112,138 275,284 380,390 105,107 151,174 316,250 165,76 447,162 676,219 229,57 403,85 515,108 112,23 163,41 194,75 31,34 43,84 93,115 50,32 139,46 201,18 62,-28 97,-99 169,-163 72,-64 180,-121 351,-205 170,-85 403,-197 618,-354 215,-158 414,-361 544,-524 130,-163 191,-286 229,-373 38,-86 52,-135 84,-244 32,-109 81,-277 80,-334 -1,-57 -52,-1 -97,53 -45,54 -84,108 -130,168 -46,60 -99,127 -154,236z"/>
  <path class="fil3" d="M7574 7212c41,14 93,150 134,301 41,150 71,314 26,424 -45,109 -164,164 -261,147 -97,-17 -171,-106 -168,-229 4,-123 86,-280 142,-414 56,-133 86,-243 127,-229z"/>
  <path class="fil3" d="M10395 9203c54,1 98,15 157,33 59,18 135,40 183,89 49,49 71,124 -11,179 -82,55 -270,91 -511,103 -242,11 -537,-2 -779,8 -242,10 -430,44 -570,71 -140,27 -230,47 -286,79 -55,32 -76,76 -138,109 -62,34 -166,57 -326,45 -160,-12 -375,-59 -632,-129 -257,-71 -556,-165 -861,-217 -304,-52 -614,-62 -997,-57 -383,5 -841,25 -1146,27 -306,2 -461,-15 -587,-61 -126,-45 -224,-119 -256,-188 -32,-69 2,-133 50,-150 48,-17 111,13 523,32 412,18 1173,25 2047,25 875,0 1863,-7 2542,-4 679,3 1048,15 1264,15 216,1 280,-11 334,-9z"/>
  <path class="fil3" d="M8209 10326c47,22 91,55 114,104 24,49 27,113 19,154 -8,41 -29,59 -97,68 -69,9 -187,8 -343,8 -156,0 -351,0 -422,-16 -71,-16 -17,-47 64,-84 81,-37 188,-81 267,-120 79,-39 129,-72 166,-98 37,-25 61,-42 98,-45 37,-3 87,7 134,29z"/>
  <path class="fil3" d="M7923 9204c-60,-8 -118,-7 -161,-24 -43,-17 -70,-50 -98,-80 -29,-29 -59,-55 -96,-63 -37,-8 -81,0 -141,36 -61,36 -138,100 -249,131 -111,31 -256,29 -275,45 -19,15 87,47 219,72 133,25 293,44 432,54 140,10 259,12 355,1 96,-11 168,-34 221,-50 53,-15 87,-22 79,-34 -8,-13 -56,-31 -111,-48 -55,-17 -115,-32 -175,-40z"/>
  <path class="fil4" d="M3004 5370c80,2 178,12 236,34 58,22 75,55 -10,172 -85,118 -272,320 -384,839 -113,519 -151,1353 -175,2132 -24,779 -35,1503 -55,1927 -21,424 -52,549 -80,530 -28,-19 -52,-182 -62,-568 -10,-386 -7,-995 0,-1636 7,-641 17,-1312 28,-1814 10,-502 21,-834 36,-1046 16,-211 36,-301 57,-360 21,-59 42,-87 76,-114 35,-28 83,-55 138,-73 55,-17 115,-24 195,-23z"/>
  <path class="fil4" d="M11018 8612c54,42 162,60 232,138 70,78 102,216 128,506 26,290 45,733 60,1082 15,349 26,603 45,513 18,-90 44,-525 56,-900 12,-376 10,-693 0,-909 -10,-216 -30,-332 -57,-415 -27,-83 -62,-132 -111,-166 -49,-34 -111,-53 -181,-55 -70,-1 -147,15 -186,56 -39,41 -40,107 14,149z"/>
  <path class="fil4" d="M3987 7631c62,51 203,131 282,181 80,50 99,71 119,69 21,-2 43,-26 114,-61 71,-35 190,-82 326,-107 136,-25 288,-29 416,-12 128,16 232,53 368,114 136,61 304,148 427,233 123,85 201,168 197,157 -4,-11 -90,-116 -199,-220 -110,-105 -243,-209 -387,-290 -144,-80 -299,-135 -441,-176 -142,-41 -270,-67 -396,-74 -126,-7 -251,5 -379,23 -128,17 -260,40 -340,52 -81,12 -110,14 -132,26 -23,12 -38,35 24,86z"/>
 </g>
</svg>
