<?xml version="1.0" encoding="UTF-8"?>
<!DOCTYPE svg PUBLIC "-//W3C//DTD SVG 1.1//EN" "http://www.w3.org/Graphics/SVG/1.1/DTD/svg11.dtd">
<!-- Creator: CorelDRAW 2017 -->
<svg xmlns="http://www.w3.org/2000/svg" xml:space="preserve" width="143mm" height="143mm" version="1.1" style="shape-rendering:geometricPrecision; text-rendering:geometricPrecision; image-rendering:optimizeQuality; fill-rule:evenodd; clip-rule:evenodd"
viewBox="0 0 14300 14300"
 xmlns:xlink="http://www.w3.org/1999/xlink">
 <defs>
  <style type="text/css">
   <![CDATA[
    .fil0 {fill:black}
    .fil2 {fill:#333333}
    .fil4 {fill:#4A94CE}
    .fil1 {fill:#4D4D4D}
    .fil5 {fill:#6666CC}
    .fil6 {fill:#94E8FF}
    .fil3 {fill:#9786B8}
    .fil7 {fill:white}
   ]]>
  </style>
 </defs>
 <g id="Слой_x0020_1">
  <metadata id="CorelCorpID_0Corel-Layer"/>
  <path class="fil0" d="M8545 3645c36,-32 96,-71 164,-76 69,-5 146,22 269,59 122,37 289,83 454,135 164,52 326,110 383,196 58,86 11,199 -96,256 -107,57 -273,57 -450,3 -176,-54 -362,-163 -491,-239 -129,-77 -201,-122 -241,-157 -40,-36 -48,-63 -45,-90 3,-27 16,-53 52,-86z"/>
  <path class="fil1" d="M9007 3958c-116,-128 -214,-244 -299,-299 -85,-55 -157,-48 -297,-43 -140,5 -347,7 -450,2 -104,-5 -104,-16 -104,-34 0,-17 0,-41 2,-62 2,-21 7,-40 41,-54 34,-14 97,-23 196,-26 99,-2 234,2 321,5 87,2 127,2 146,-17 19,-20 16,-59 15,-101 -1,-42 -1,-86 -31,-106 -30,-20 -91,-15 -403,-8 -312,7 -875,16 -1202,22 -327,6 -418,8 -463,21 -45,13 -45,36 -45,62 0,26 0,54 35,69 35,15 105,17 230,23 126,6 307,15 466,22 158,7 293,12 371,15 78,3 99,6 109,27 10,21 10,61 10,94 0,34 0,62 -56,76 -56,14 -168,14 -584,13 -417,-1 -1138,-3 -1659,-5 -520,-1 -839,-1 -1018,-5 -179,-3 -219,-10 -247,-16 -28,-6 -46,-11 -54,-27 -8,-16 -7,-43 -18,-61 -11,-18 -36,-26 -52,-15 -16,11 -24,41 -27,98 -3,57 0,142 2,195 2,54 5,77 56,88 51,11 150,9 360,8 210,-1 532,-1 741,-3 210,-2 307,-7 356,0 49,7 49,26 52,54 3,28 10,65 34,102 23,37 63,74 132,91 69,16 166,12 318,8 151,-3 356,-6 630,-6 274,0 616,2 903,2 287,0 520,-2 656,8 136,10 176,34 226,89 50,56 112,144 174,221 62,77 124,143 178,183 54,41 101,57 206,65 105,8 268,8 420,3 152,-5 294,-14 294,-77 0,-63 -142,-179 -280,-307 -139,-128 -274,-268 -390,-396z"/>
  <path class="fil0" d="M11016 6891c-28,-338 -102,-957 -182,-1411 -79,-454 -163,-743 -249,-945 -86,-203 -175,-319 -251,-407 -77,-88 -142,-149 -179,-212 -37,-63 -47,-128 -21,-182 26,-54 86,-95 165,-229 79,-134 177,-360 183,-588 6,-228 -80,-459 -199,-612 -119,-154 -270,-230 -422,-274 -152,-43 -306,-52 -453,-10 -147,42 -286,135 -389,256 -102,121 -168,270 -194,426 -27,156 -15,319 31,474 47,155 128,301 208,403 80,101 159,157 190,211 30,54 12,105 -86,207 -98,102 -275,256 -459,400 -184,144 -375,279 -547,352 -172,72 -326,81 -473,-9 -147,-91 -286,-282 -445,-449 -158,-168 -335,-312 -461,-389 -126,-77 -200,-86 -268,-74 -68,12 -128,44 -130,121 -2,77 54,198 214,396 161,198 426,473 652,680 226,207 412,347 552,410 140,63 233,49 365,0 133,-49 305,-133 445,-228 140,-95 247,-203 314,-212 68,-9 95,79 102,249 7,170 -7,421 -37,731 -30,310 -77,677 -112,922 -35,244 -58,365 42,433 100,68 324,81 615,84 291,2 649,-7 906,-21 256,-14 410,-33 496,-70 86,-37 105,-93 77,-431z"/>
  <path class="fil2" d="M8461 3741c-176,-9 -488,-9 -805,-7 -318,2 -641,6 -764,18 -122,12 -43,32 38,52 81,20 164,41 271,52 108,10 240,10 435,11 195,1 452,2 642,1 190,-1 314,-5 387,-8 73,-3 97,-5 97,-18 0,-13 -23,-36 -55,-56 -31,-20 -71,-36 -247,-45z"/>
  <path class="fil3" d="M6277 6773c890,0 2509,0 3560,0 1051,0 1534,0 1879,1 345,1 553,3 728,39 175,37 317,108 325,229 7,121 -121,292 -349,438 -228,146 -555,267 -666,434 -111,167 -6,381 169,509 174,128 418,171 614,253 196,82 346,203 385,285 39,82 -32,125 -178,174 -146,50 -367,107 -498,182 -132,75 -174,167 -110,249 64,82 235,153 281,228 46,75 -32,153 -147,221 -115,68 -265,125 -543,157 -278,32 -682,39 -891,61 -209,21 -224,57 -174,121 50,64 164,157 199,243 36,86 -7,166 -363,206 -356,40 -1025,40 -1680,40 -655,0 -1295,0 -1898,-4 -603,-4 -1169,-13 -1667,-36 -498,-22 -929,-58 -1152,-257 -223,-199 -237,-562 -287,-1014 -50,-452 -135,-993 -180,-1379 -44,-386 -48,-618 115,-822 162,-204 490,-380 737,-468 247,-88 414,-88 578,-88 164,0 324,0 1214,0z"/>
  <path class="fil3" d="M4930 11517c543,-35 1074,-62 1533,4 459,66 846,225 1082,380 236,155 320,306 -139,409 -459,103 -1460,159 -2262,147 -802,-12 -1403,-91 -1824,-177 -421,-85 -661,-177 -781,-274 -120,-97 -120,-201 23,-263 143,-62 429,-83 850,-115 420,-32 975,-76 1518,-111z"/>
  <path class="fil4" d="M6047 7272c-97,868 -318,2575 -438,3459 -120,884 -140,946 -203,1003 -63,57 -169,111 -397,165 -228,55 -578,111 -904,137 -326,27 -628,24 -894,-10 -266,-34 -495,-98 -640,-161 -144,-63 -203,-125 -339,-917 -136,-792 -348,-2315 -474,-3175 -126,-861 -165,-1059 -158,-1191 7,-132 60,-196 291,-262 231,-66 640,-133 1038,-172 399,-39 788,-50 1202,-38 414,13 854,49 1184,92 330,43 551,94 676,133 125,39 153,67 56,935z"/>
  <path class="fil5" d="M5753 6435c-110,-28 -305,-65 -596,-96 -291,-31 -679,-58 -1044,-67 -365,-9 -708,-1 -1060,27 -352,28 -712,77 -916,124 -130,30 -196,60 -229,103 6,9 13,17 19,24 23,27 38,41 89,60 51,18 137,40 421,60 284,19 765,35 1241,34 476,-1 948,-19 1301,-48 353,-28 587,-67 728,-107 60,-17 103,-35 133,-53 -16,-42 -45,-52 -87,-62z"/>
  <path class="fil6" d="M5258 10466c94,-543 218,-1587 297,-2214 79,-627 113,-837 90,-929 -22,-92 -101,-67 -231,-29 -130,38 -312,88 -505,106 -193,18 -397,4 -578,-22 -181,-27 -337,-66 -501,-78 -164,-13 -334,1 -488,52 -154,50 -291,137 -417,172 -126,35 -241,18 -375,-31 -134,-49 -288,-130 -374,-157 -85,-27 -102,1 -84,160 18,158 71,446 143,910 71,463 161,1101 230,1572 69,470 116,772 158,938 42,165 78,193 204,234 126,41 341,94 654,115 312,21 721,10 996,-24 276,-34 418,-90 521,-139 103,-49 166,-91 260,-634z"/>
  <path class="fil7" d="M2346 6858c-47,29 -40,94 25,682 64,588 186,1699 269,2467 83,768 128,1194 164,1406 36,213 64,213 140,221 76,8 199,25 266,22 67,-3 78,-25 42,-274 -36,-249 -120,-725 -221,-1461 -101,-736 -218,-1732 -283,-2289 -64,-557 -76,-675 -92,-733 -17,-59 -39,-59 -101,-62 -62,-3 -162,-8 -209,21z"/>
  <path class="fil7" d="M2977 7332c27,417 108,1243 189,2035 81,792 162,1551 218,1927 56,376 87,371 112,368 25,-3 45,-3 59,-11 14,-8 22,-25 1,-243 -21,-218 -71,-638 -133,-1262 -62,-624 -134,-1453 -186,-2022 -52,-570 -83,-880 -105,-1041 -22,-161 -36,-172 -56,-178 -20,-6 -45,-6 -71,-1 -27,4 -55,13 -28,430z"/>
  <path class="fil7" d="M5827 6410c-23,20 -26,62 -146,101 -120,39 -356,76 -784,104 -428,28 -1048,48 -1424,59 -376,11 -507,14 -559,27 -52,13 -24,36 186,50 210,14 602,18 984,11 382,-7 754,-27 1061,-54 306,-28 547,-64 693,-99 146,-36 198,-71 222,-100 24,-29 20,-53 -5,-71 -25,-18 -71,-31 -116,-38 -45,-7 -88,-8 -111,12z"/>
 </g>
</svg>
