<?xml version="1.0" encoding="UTF-8"?>
<!DOCTYPE svg PUBLIC "-//W3C//DTD SVG 1.1//EN" "http://www.w3.org/Graphics/SVG/1.1/DTD/svg11.dtd">
<!-- Creator: CorelDRAW 2017 -->
<svg xmlns="http://www.w3.org/2000/svg" xml:space="preserve" width="143mm" height="143mm" version="1.1" style="shape-rendering:geometricPrecision; text-rendering:geometricPrecision; image-rendering:optimizeQuality; fill-rule:evenodd; clip-rule:evenodd"
viewBox="0 0 14300 14300"
 xmlns:xlink="http://www.w3.org/1999/xlink">
 <defs>
  <style type="text/css">
   <![CDATA[
    .fil3 {fill:black}
    .fil1 {fill:black}
    .fil2 {fill:#A5D673}
    .fil0 {fill:#F0889A}
   ]]>
  </style>
 </defs>
 <g id="Слой_x0020_1">
  <metadata id="CorelCorpID_0Corel-Layer"/>
  <path class="fil0" d="M10696 10194c348,387 871,1013 1263,1485 392,472 654,790 747,986 93,195 18,268 -223,310 -240,43 -646,55 -1096,28 -451,-28 -946,-96 -1295,-225 -349,-128 -551,-316 -733,-522 -182,-205 -344,-428 -552,-722 -208,-294 -461,-661 -656,-848 -195,-187 -333,-194 -695,-194 -362,0 -947,7 -1289,40 -342,32 -439,90 -612,333 -173,243 -420,672 -689,995 -269,322 -559,537 -791,684 -232,147 -406,226 -818,286 -413,60 -1064,101 -1467,107 -403,6 -557,-23 -506,-198 51,-174 306,-494 667,-944 361,-451 828,-1033 1167,-1466 340,-433 553,-716 771,-893 219,-177 443,-247 1060,-311 617,-64 1625,-124 2464,-161 839,-37 1508,-52 1911,43 403,95 540,299 695,476 155,176 328,324 676,712z"/>
  <path class="fil1" d="M7116 7697c30,248 34,714 14,1141 -20,427 -64,815 -69,1042 -5,226 29,290 95,329 66,39 164,52 270,57 106,5 221,2 289,-25 68,-27 88,-78 76,-128 -12,-51 -56,-101 -110,-137 -54,-35 -118,-56 -150,-101 -32,-46 -32,-116 7,-346 39,-230 116,-618 211,-981 95,-363 206,-701 231,-954 25,-253 -35,-422 -184,-560 -149,-138 -385,-246 -782,-356 -397,-110 -954,-221 -1376,-226 -422,-5 -709,96 -908,285 -199,189 -311,466 -483,831 -172,365 -405,817 -569,1172 -164,355 -258,611 -307,829 -49,218 -52,397 -20,506 32,110 100,150 194,171 95,20 216,20 309,17 93,-3 157,-10 191,-41 34,-30 37,-84 2,-133 -35,-49 -110,-93 -159,-130 -49,-37 -73,-68 -78,-127 -5,-59 8,-147 66,-292 57,-145 159,-348 326,-461 167,-113 400,-137 643,-196 243,-59 496,-154 704,-304 208,-150 370,-356 479,-542 110,-186 167,-351 241,-459 74,-108 165,-159 253,-194 88,-35 172,-56 246,-52 74,3 138,30 199,59 61,29 118,59 149,307z"/>
  <path class="fil1" d="M8470 5480c-214,-35 -669,-143 -1059,-217 -390,-74 -715,-114 -1012,-121 -297,-8 -566,17 -779,67 -213,51 -370,127 -527,215 -157,87 -314,185 -437,279 -123,93 -213,182 -359,224 -146,41 -347,35 -474,-32 -127,-67 -179,-196 -209,-339 -30,-142 -37,-299 9,-403 47,-104 148,-156 276,-181 129,-25 286,-21 475,-25 189,-3 410,-13 640,-67 230,-54 468,-151 612,-323 143,-171 192,-417 149,-608 -43,-192 -177,-329 -310,-411 -133,-81 -263,-106 -329,-67 -65,38 -65,139 -21,270 45,130 134,290 126,409 -8,120 -115,199 -261,255 -146,56 -330,88 -565,105 -234,17 -518,18 -742,64 -223,45 -386,134 -496,289 -110,155 -168,375 -171,572 -3,196 49,368 144,528 94,160 231,309 425,405 194,97 446,141 585,215 139,74 165,179 190,301 24,123 47,264 52,452 6,188 -6,424 -54,645 -49,221 -134,426 -200,542 -65,116 -110,144 -125,204 -15,60 0,152 97,412 97,260 276,689 443,942 166,253 319,329 495,363 176,34 374,25 497,11 123,-14 172,-32 211,-75 39,-43 69,-110 67,-181 -2,-70 -35,-144 -84,-190 -49,-46 -112,-64 -183,-74 -71,-9 -149,-9 -205,3 -56,12 -90,37 -114,51 -24,14 -39,17 -69,-29 -30,-46 -75,-141 -120,-245 -45,-104 -90,-218 -116,-300 -26,-83 -34,-135 -21,-161 13,-26 47,-26 157,-37 110,-11 297,-32 452,-75 155,-43 278,-107 377,-187 99,-80 174,-175 226,-285 52,-110 82,-236 106,-319 24,-83 43,-123 153,-181 110,-58 312,-135 489,-185 177,-51 331,-75 486,-57 155,18 312,80 446,164 134,84 247,192 403,386 157,195 359,477 545,735 187,259 359,495 495,679 136,184 237,316 344,408 106,92 219,144 359,164 140,20 308,8 416,-9 108,-17 157,-38 174,-101 17,-63 2,-167 -65,-227 -67,-60 -187,-75 -291,-97 -105,-21 -194,-49 -310,-182 -116,-133 -258,-372 -351,-555 -93,-182 -138,-308 -144,-434 -6,-126 28,-251 75,-409 47,-158 106,-348 174,-513 67,-165 142,-306 205,-464 64,-158 116,-332 146,-443 30,-110 37,-156 67,-198 30,-41 82,-78 151,-130 69,-51 155,-117 234,-170 79,-52 153,-91 242,-169 90,-78 196,-196 267,-299 71,-103 106,-190 100,-307 -7,-117 -55,-264 -107,-465 -51,-201 -106,-455 -236,-621 -130,-167 -335,-247 -565,-292 -230,-46 -484,-58 -710,-7 -226,52 -425,167 -558,343 -133,176 -200,414 -230,545 -30,131 -22,156 -6,186 17,31 43,67 -171,32z"/>
  <path class="fil1" d="M10311 4506c89,-84 269,-227 405,-318 136,-90 228,-127 279,-118 51,10 61,66 68,144 7,78 11,177 1,284 -10,106 -35,219 -79,318 -44,98 -109,182 -167,235 -58,54 -110,77 -178,45 -68,-32 -151,-120 -223,-206 -72,-86 -132,-169 -162,-223 -31,-54 -32,-77 57,-161z"/>
  <path class="fil1" d="M9307 4419c-44,-41 -130,-98 -234,-158 -104,-60 -226,-122 -321,-175 -94,-53 -161,-97 -193,-37 -32,59 -29,222 -17,361 12,139 33,254 80,350 47,96 120,172 183,220 63,47 118,66 182,27 64,-39 138,-135 201,-228 63,-93 114,-182 139,-238 25,-56 24,-80 -19,-121z"/>
  <path class="fil2" d="M10147 5131c11,-23 49,-44 101,-64 51,-20 116,-39 190,-30 74,9 157,45 199,67 42,23 42,32 23,57 -19,25 -57,65 -108,95 -51,30 -116,51 -182,41 -66,-10 -135,-52 -176,-85 -42,-33 -57,-58 -46,-81z"/>
  <path class="fil2" d="M9814 5119c-11,-23 -49,-44 -101,-64 -51,-20 -116,-39 -190,-30 -74,9 -157,45 -199,67 -42,23 -42,32 -23,57 19,25 57,65 108,95 51,30 116,51 182,41 66,-10 135,-52 176,-85 42,-33 57,-58 46,-81z"/>
  <path class="fil3" d="M9987 3976c44,-29 1444,-866 1336,-963 -22,-19 -781,-122 -1015,-153 433,-1192 532,-1033 -742,-538 -106,-204 -377,-766 -553,-955 -2,-11 -4,-19 -6,-23l-11 6c-39,-38 -73,-55 -98,-42 -51,27 -46,70 -31,110l-1 0 3 5 2 6c-1,903 -2,525 1,1305 -305,-222 -1065,-777 -1136,-720 -79,64 403,1094 520,1352 -1287,378 -1236,121 -42,1081l0 0c-545,-522 -294,-288 -804,-751 218,-58 924,-245 944,-262 54,-45 -265,-799 -430,-1182 333,249 984,730 1056,692 65,-34 69,-765 54,-1229 546,1003 269,882 1405,408 -85,249 -261,763 -259,786 10,89 712,142 1000,166 -743,546 -376,271 -1194,900z"/>
  <path class="fil1" d="M11467 4585c42,-44 226,-161 407,-270 182,-109 362,-212 460,-258 99,-46 116,-35 123,-9 7,26 4,69 -138,159 -141,90 -420,228 -609,310 -189,83 -288,111 -245,67z"/>
  <path class="fil1" d="M11457 4924c77,-28 311,-97 458,-145 146,-48 205,-74 239,-75 34,-1 45,24 49,43 4,19 3,34 -108,63 -111,29 -332,73 -482,101 -151,28 -232,41 -155,12z"/>
  <path class="fil1" d="M7867 4675c-139,-72 -531,-238 -746,-314 -215,-76 -254,-62 -254,-26 0,35 39,92 198,157 159,65 437,139 633,187 196,48 309,69 169,-4z"/>
 </g>
</svg>
