<?xml version="1.0" encoding="UTF-8"?>
<!DOCTYPE svg PUBLIC "-//W3C//DTD SVG 1.1//EN" "http://www.w3.org/Graphics/SVG/1.1/DTD/svg11.dtd">
<!-- Creator: CorelDRAW 2017 -->
<svg xmlns="http://www.w3.org/2000/svg" xml:space="preserve" width="143mm" height="143mm" version="1.1" style="shape-rendering:geometricPrecision; text-rendering:geometricPrecision; image-rendering:optimizeQuality; fill-rule:evenodd; clip-rule:evenodd"
viewBox="0 0 14300 14300"
 xmlns:xlink="http://www.w3.org/1999/xlink">
 <defs>
  <style type="text/css">
   <![CDATA[
    .fil1 {fill:black}
    .fil3 {fill:#780000}
    .fil5 {fill:#A60000}
    .fil4 {fill:#B3AA93}
    .fil2 {fill:#E6DEC8}
    .fil0 {fill:red}
    .fil6 {fill:white}
   ]]>
  </style>
 </defs>
 <g id="Слой_x0020_1">
  <metadata id="CorelCorpID_0Corel-Layer"/>
  <path class="fil0" d="M10286 10571c300,27 728,55 1044,97 316,42 521,99 528,186 7,88 -183,206 -254,302 -72,96 -25,170 104,306 129,136 339,336 282,446 -57,110 -382,131 -781,106 -399,-26 -872,-98 -1306,-121 -434,-23 -828,4 -919,67 -91,64 121,164 72,249 -49,85 -360,155 -953,156 -593,1 -1468,-67 -2170,-142 -702,-75 -1230,-156 -1445,-248 -215,-92 -118,-194 -16,-362 102,-168 209,-402 32,-579 -177,-177 -638,-297 -929,-401 -291,-104 -411,-191 -318,-304 94,-114 401,-254 552,-391 150,-137 144,-271 13,-351 -130,-80 -384,-107 -754,-129 -370,-22 -855,-38 -1108,-106 -253,-68 -273,-189 -157,-281 116,-92 367,-156 486,-217 119,-62 104,-121 77,-167 -27,-46 -67,-80 -31,-147 37,-67 150,-167 314,-214 164,-47 378,-40 620,-42 242,-2 513,-13 1005,17 492,30 1205,100 1796,152 590,53 1058,88 1299,195 241,107 255,286 67,406 -188,120 -577,182 -888,273 -311,91 -544,211 -423,276 120,65 594,75 1172,95 578,20 1262,51 1637,183 375,131 442,363 509,482 67,118 134,123 254,139 120,16 293,42 593,69z"/>
  <path class="fil1" d="M10357 9545c16,107 5,359 -50,619 -55,260 -155,529 -327,755 -173,226 -419,410 -712,549 -293,139 -634,234 -983,306 -349,72 -707,122 -1066,134 -359,12 -720,-12 -976,-65 -256,-52 -408,-132 -492,-206 -84,-74 -101,-142 -105,-203 -4,-60 6,-113 150,-121 144,-8 422,28 686,62 264,33 512,63 874,32 362,-31 836,-123 1240,-255 404,-132 737,-303 981,-497 244,-194 398,-410 487,-582 89,-172 114,-298 135,-384 21,-86 39,-130 69,-172 30,-41 73,-80 89,27z"/>
  <path class="fil1" d="M8241 8074c-6,71 -63,236 -136,362 -73,126 -163,213 -330,305 -168,92 -414,189 -703,262 -290,73 -623,123 -923,139 -301,16 -569,-1 -874,-58 -304,-57 -645,-154 -920,-261 -275,-107 -483,-224 -620,-324 -137,-101 -201,-185 -247,-261 -46,-76 -73,-143 -86,-201 -13,-58 -12,-108 -10,-144 2,-36 6,-57 38,-52 32,5 92,37 162,99 71,62 153,156 319,269 167,113 418,246 715,342 297,96 640,156 941,187 301,31 559,34 808,9 249,-25 487,-77 753,-170 266,-93 559,-227 736,-322 176,-94 236,-149 288,-188 52,-39 97,-63 90,8z"/>
  <path class="fil0" d="M7224 4796c19,-187 24,-531 5,-797 -19,-266 -62,-455 -175,-597 -113,-143 -296,-239 -452,-307 -156,-67 -285,-105 -366,-145 -81,-40 -113,-83 -132,-163 -19,-79 -24,-195 -24,-331 0,-136 5,-292 -8,-385 -13,-93 -46,-122 -77,-114 -31,8 -61,54 -78,130 -17,77 -23,184 -50,274 -27,90 -75,163 -85,254 -9,91 20,202 15,286 -5,85 -46,144 -82,147 -36,3 -69,-51 -85,-130 -16,-79 -16,-184 -26,-208 -9,-24 -28,32 -55,90 -27,58 -62,117 -112,109 -50,-8 -114,-83 -171,-163 -56,-79 -105,-163 -167,-212 -62,-50 -137,-66 -243,-57 -106,9 -243,44 -348,52 -105,8 -177,-11 -288,-94 -110,-83 -258,-231 -432,-407 -173,-176 -372,-381 -519,-484 -147,-104 -241,-106 -292,-74 -51,32 -59,99 -12,180 47,81 149,175 269,254 120,79 257,144 363,207 106,63 182,125 200,195 19,70 -19,148 -82,164 -63,16 -152,-30 -270,-121 -118,-91 -266,-229 -368,-313 -102,-85 -159,-117 -221,-120 -62,-3 -129,24 -149,90 -20,66 7,171 122,289 116,118 320,250 498,372 178,122 328,235 484,351 156,116 317,234 401,378 83,144 89,313 38,424 -51,110 -159,161 -272,180 -113,19 -231,5 -338,17 -106,12 -200,50 -249,93 -48,43 -51,91 -1,149 50,58 152,125 222,187 70,62 108,118 101,169 -7,51 -58,97 -98,137 -40,40 -70,75 -42,165 28,90 114,235 312,371 198,136 507,262 717,311 210,48 320,19 449,4 129,-15 277,-15 374,9 97,24 143,73 190,130 47,58 95,125 179,149 83,24 202,5 321,-56 120,-62 241,-167 335,-234 94,-67 161,-97 214,-126 52,-30 90,-59 126,-122 36,-63 71,-160 129,-218 58,-58 139,-77 195,-101 56,-24 89,-54 108,-241z"/>
  <path class="fil0" d="M4892 2245c-30,-48 -63,-126 -112,-208 -50,-82 -117,-168 -171,-235 -54,-67 -94,-114 -106,-154 -12,-40 4,-74 59,-61 55,13 149,72 227,150 77,78 138,175 171,260 34,85 40,159 39,212 -1,53 -11,85 -30,93 -19,7 -47,-10 -77,-58z"/>
  <path class="fil0" d="M1937 3601c-42,-34 -120,-77 -182,-100 -62,-24 -108,-28 -161,-50 -53,-23 -114,-65 -184,-105 -70,-40 -149,-79 -213,-89 -64,-9 -112,11 -95,61 18,50 101,129 184,169 83,40 167,40 238,50 71,10 130,30 188,61 58,31 114,73 161,89 46,16 83,7 97,-10 15,-17 8,-41 -34,-75z"/>
  <path class="fil0" d="M10084 3457c97,87 241,231 341,418 99,186 154,415 184,641 30,226 35,450 -47,651 -82,201 -251,380 -465,510 -214,129 -472,209 -634,266 -162,57 -226,92 -326,199 -99,107 -234,286 -373,597 -139,311 -283,753 -400,1036 -117,283 -206,408 -385,527 -179,119 -447,234 -748,341 -301,107 -634,206 -1041,229 -408,22 -890,-32 -1302,-140 -412,-107 -754,-267 -988,-409 -233,-142 -358,-266 -442,-366 -85,-99 -129,-174 87,-330 216,-156 692,-394 1092,-550 400,-156 723,-231 1044,-313 321,-82 639,-172 900,-301 261,-129 465,-298 681,-519 216,-221 445,-495 619,-771 174,-276 293,-554 465,-830 172,-276 395,-549 609,-728 214,-179 418,-263 572,-298 154,-35 259,-20 336,3 77,22 127,52 224,139z"/>
  <path class="fil2" d="M9557 3465c65,25 119,77 138,150 19,73 1,168 -71,277 -72,109 -199,234 -329,395 -131,162 -265,360 -441,661 -176,301 -395,703 -645,1082 -250,379 -531,734 -779,974 -249,240 -465,364 -641,426 -176,62 -313,62 -460,42 -147,-20 -303,-60 -428,-126 -124,-66 -216,-158 -263,-234 -47,-76 -50,-135 19,-183 68,-47 208,-82 389,-124 181,-42 405,-92 631,-208 226,-116 455,-297 730,-644 275,-347 595,-859 831,-1238 236,-379 388,-625 558,-815 170,-190 359,-324 491,-393 132,-68 206,-71 271,-46z"/>
  <path class="fil1" d="M11493 6925c-15,152 -72,487 -121,908 -49,421 -92,928 -110,1249 -19,321 -14,455 -19,532 -5,77 -20,97 -57,119 -37,22 -97,47 -148,56 -51,9 -93,1 -114,-32 -21,-34 -21,-93 -7,-259 14,-165 41,-436 52,-707 11,-271 6,-542 -27,-749 -34,-208 -96,-352 -98,-441 -3,-89 55,-124 155,-224 101,-99 245,-263 328,-364 83,-101 106,-138 130,-173 25,-35 52,-67 37,85z"/>
  <path class="fil3" d="M10123 3783c-8,86 23,289 6,508 -16,219 -79,454 -230,665 -152,211 -393,399 -584,559 -191,160 -332,291 -460,477 -128,186 -244,427 -329,695 -84,268 -138,562 -128,616 9,55 81,-130 183,-349 102,-219 233,-472 371,-662 138,-189 282,-314 431,-385 150,-71 305,-88 473,-133 167,-45 347,-119 454,-237 108,-118 144,-279 172,-436 28,-156 48,-308 35,-485 -13,-177 -60,-381 -115,-528 -55,-147 -117,-238 -172,-299 -54,-61 -100,-92 -108,-6z"/>
  <path class="fil0" d="M11627 5304c127,211 176,485 162,776 -15,291 -94,599 -254,867 -159,268 -398,497 -574,701 -176,204 -291,383 -378,669 -87,286 -147,679 -204,1009 -57,331 -112,599 -211,830 -99,231 -244,425 -482,609 -239,184 -572,358 -922,487 -350,129 -718,214 -1123,263 -405,50 -848,65 -1186,45 -338,-20 -572,-75 -698,-117 -127,-42 -147,-72 -119,-181 27,-109 102,-298 261,-532 159,-234 403,-512 634,-738 231,-226 450,-400 661,-569 211,-169 415,-333 644,-572 229,-239 482,-552 718,-892 236,-341 455,-708 629,-1076 174,-368 303,-736 445,-1034 142,-298 296,-527 472,-688 176,-162 375,-256 544,-306 169,-50 308,-55 480,17 172,72 375,221 502,432z"/>
  <path class="fil2" d="M10936 5023c72,65 107,194 70,403 -37,209 -147,497 -311,803 -164,306 -383,629 -567,1061 -184,432 -333,974 -485,1412 -152,437 -306,771 -505,994 -199,224 -442,338 -703,368 -261,30 -539,-25 -716,-129 -176,-104 -251,-259 -234,-390 17,-132 127,-241 318,-437 191,-196 465,-480 733,-788 268,-308 532,-641 731,-1057 199,-416 333,-915 477,-1253 144,-338 298,-515 450,-664 152,-148 301,-268 430,-327 129,-60 239,-60 311,5z"/>
  <path class="fil3" d="M11466 5378c14,109 42,306 13,585 -29,279 -115,641 -268,955 -153,314 -374,582 -509,811 -135,229 -185,420 -210,541 -25,120 -25,171 -9,145 16,-25 47,-125 106,-253 59,-128 145,-282 266,-445 121,-163 278,-333 397,-481 119,-148 202,-273 271,-415 70,-142 127,-300 161,-448 35,-149 47,-288 44,-426 -3,-138 -22,-274 -51,-385 -29,-111 -68,-197 -106,-257 -38,-59 -74,-92 -93,-101 -20,-9 -23,7 -24,25 -2,18 -2,38 13,147z"/>
  <path class="fil4" d="M9587 3584c-26,-21 -68,-45 -164,-28 -96,17 -247,73 -394,202 -147,129 -291,330 -437,541 -147,211 -297,432 -452,666 -155,235 -314,483 -442,673 -128,190 -223,321 -257,376 -34,55 -5,33 102,-77 108,-110 296,-307 487,-495 191,-189 385,-368 515,-464 131,-95 198,-106 239,-112 41,-5 57,-5 84,-37 27,-31 66,-94 127,-187 60,-93 142,-217 231,-334 89,-117 186,-228 252,-321 66,-92 100,-166 120,-221 20,-55 27,-91 25,-118 -2,-27 -11,-46 -37,-67z"/>
  <path class="fil4" d="M8477 8503c52,-62 205,-231 339,-400 134,-169 248,-338 356,-537 108,-199 210,-429 294,-643 84,-214 152,-411 227,-620 75,-209 158,-430 262,-591 104,-162 229,-264 339,-360 110,-96 204,-186 291,-239 87,-54 166,-72 226,-63 60,9 101,43 123,90 23,46 27,104 18,193 -9,89 -33,210 -86,356 -53,146 -137,319 -217,471 -81,153 -158,285 -205,367 -47,82 -62,113 -94,91 -32,-22 -81,-97 -154,-117 -74,-20 -172,14 -247,81 -75,66 -127,165 -232,351 -105,186 -263,460 -413,682 -150,222 -293,393 -421,527 -128,135 -243,233 -325,305 -82,72 -132,117 -81,56z"/>
  <path class="fil5" d="M12423 11494c29,-21 342,-21 470,0 128,21 71,63 -86,63 -157,0 -412,-42 -384,-63z"/>
  <path class="fil5" d="M12778 11851c155,23 365,92 485,162 120,71 151,143 31,153 -120,10 -391,-44 -594,-95 -202,-52 -336,-101 -370,-134 -34,-32 31,-48 113,-67 82,-19 181,-42 336,-19z"/>
  <path class="fil6" d="M7148 9540c-48,33 -219,166 -406,346 -187,180 -391,405 -557,623 -166,217 -295,426 -369,563 -74,137 -92,202 -72,248 20,46 79,73 244,98 165,25 438,48 693,53 255,4 492,-11 541,-22 48,-11 -92,-18 -286,-41 -194,-23 -441,-64 -588,-106 -147,-43 -194,-88 -204,-173 -10,-85 17,-211 68,-345 51,-135 126,-278 270,-470 144,-191 356,-430 499,-584 143,-154 216,-222 168,-190z"/>
  <path class="fil6" d="M5318 8596c-302,-118 -772,-327 -1053,-487 -281,-160 -373,-272 -385,-368 -12,-96 54,-176 124,-244 69,-68 141,-123 91,-107 -50,16 -222,103 -348,183 -126,80 -206,153 -235,207 -28,53 -5,87 49,146 54,59 140,142 258,231 119,89 271,182 473,269 202,87 455,167 671,222 216,55 397,85 545,101 148,16 263,18 254,5 -9,-13 -142,-39 -444,-157z"/>
  <path class="fil5" d="M2066 10250c193,10 518,32 707,73 189,40 243,97 162,126 -80,29 -294,29 -491,31 -197,2 -376,6 -514,2 -138,-4 -233,-15 -256,-55 -23,-40 27,-109 82,-145 55,-36 117,-40 309,-31z"/>
 </g>
</svg>
