<?xml version="1.0" encoding="UTF-8"?>
<!DOCTYPE svg PUBLIC "-//W3C//DTD SVG 1.1//EN" "http://www.w3.org/Graphics/SVG/1.1/DTD/svg11.dtd">
<!-- Creator: CorelDRAW 2017 -->
<svg xmlns="http://www.w3.org/2000/svg" xml:space="preserve" width="143mm" height="143mm" version="1.1" style="shape-rendering:geometricPrecision; text-rendering:geometricPrecision; image-rendering:optimizeQuality; fill-rule:evenodd; clip-rule:evenodd"
viewBox="0 0 14300 14300"
 xmlns:xlink="http://www.w3.org/1999/xlink">
 <defs>
  <style type="text/css">
   <![CDATA[
    .fil4 {fill:black}
    .fil1 {fill:#333333}
    .fil2 {fill:#94E8FF}
    .fil0 {fill:#998293}
    .fil5 {fill:#A5D673}
    .fil3 {fill:white}
   ]]>
  </style>
 </defs>
 <g id="Слой_x0020_1">
  <metadata id="CorelCorpID_0Corel-Layer"/>
  <path class="fil0" d="M4255 4132c197,163 523,341 909,479 386,137 831,234 1318,278 486,45 1013,37 1384,-33 371,-71 586,-204 791,-330 204,-126 397,-245 701,-238 304,7 720,141 1113,382 393,241 765,590 1184,987 419,397 887,843 1184,1251 297,408 423,779 338,1206 -85,427 -382,909 -542,1321 -160,412 -182,753 -219,1091 -37,338 -89,672 -438,1113 -349,442 -995,991 -1540,1229 -546,238 -991,163 -1295,148 -304,-15 -468,30 -731,115 -264,85 -627,212 -1032,182 -405,-30 -850,-215 -1280,-553 -431,-338 -846,-828 -1255,-1229 -408,-401 -809,-713 -1095,-1010 -286,-297 -457,-579 -508,-928 -52,-349 15,-765 -148,-1136 -163,-371 -557,-698 -872,-924 -315,-226 -553,-353 -713,-579 -160,-226 -241,-553 -260,-969 -19,-416 26,-920 134,-1403 108,-483 278,-943 646,-1158 367,-215 932,-186 1280,-104 349,82 483,215 583,356 100,141 167,289 364,453z"/>
  <path class="fil1" d="M11558 8327c-278,318 -802,919 -1450,1665 -648,746 -1420,1639 -1845,2116 -425,477 -503,540 -602,565 -99,25 -218,13 -316,-16 -98,-29 -173,-75 -484,-339 -311,-264 -857,-746 -1251,-1097 -395,-351 -638,-571 -771,-732 -133,-161 -156,-262 -150,-363 6,-101 40,-202 325,-540 285,-339 822,-916 1454,-1635 632,-719 1360,-1581 1776,-2068 417,-486 522,-597 618,-661 96,-64 183,-80 268,-79 85,2 169,21 409,200 240,179 636,517 1033,862 397,346 794,699 1023,907 229,209 291,273 325,348 34,76 40,163 32,244 -8,81 -31,157 -58,212 -27,56 -58,91 -336,410z"/>
  <path class="fil2" d="M11273 8124c-126,141 -362,409 -928,1069 -567,661 -1463,1714 -1928,2252 -464,538 -496,561 -519,564 -23,3 -37,-14 -351,-280 -314,-266 -927,-782 -1343,-1138 -417,-356 -638,-551 -755,-658 -117,-106 -132,-123 -129,-143 2,-20 22,-42 604,-715 582,-673 1728,-1998 2310,-2667 581,-669 598,-684 619,-681 21,2 45,21 466,386 421,364 1237,1075 1655,1439 418,364 436,382 438,399 2,17 -13,32 -139,173z"/>
  <path class="fil3" d="M10812 6903c-3,20 -22,39 -49,40 -26,1 -60,-16 -146,-84 -86,-68 -225,-187 -349,-293 -124,-106 -233,-199 -288,-257 -56,-59 -59,-83 -51,-103 8,-20 26,-35 46,-38 20,-2 43,9 147,95 104,85 288,245 413,354 125,109 190,168 229,207 39,39 52,59 49,78z"/>
  <path class="fil4" d="M11824 7550c12,45 9,92 -8,134 -16,42 -46,79 -91,96 -45,17 -106,15 -156,-10 -50,-25 -89,-73 -105,-124 -16,-51 -10,-106 13,-150 23,-44 62,-78 112,-89 50,-11 110,1 153,28 43,28 70,71 81,116z"/>
  <path class="fil5" d="M6694 11422c17,69 5,118 -26,145 -32,27 -83,34 -184,-23 -102,-57 -253,-176 -360,-278 -106,-102 -166,-187 -183,-256 -17,-69 10,-123 68,-137 58,-15 146,10 247,67 101,57 214,145 294,234 80,89 127,179 144,248z"/>
  <path class="fil4" d="M3948 4580c332,256 844,657 1251,902 408,245 711,334 1125,442 414,108 940,235 1363,341 423,106 744,191 952,236 207,44 300,48 400,36 100,-12 206,-41 283,-46 77,-6 125,12 150,82 26,70 30,194 3,294 -26,100 -83,176 -220,248 -137,72 -354,139 -650,153 -296,14 -670,-26 -920,-47 -249,-21 -373,-22 -497,36 -124,58 -249,176 -373,293 -569,641 -1137,1282 -1706,1922 -50,-44 -101,-87 -292,-260 -191,-172 -523,-474 -730,-774 -208,-300 -291,-598 -398,-828 -107,-230 -237,-391 -429,-539 -191,-149 -444,-285 -660,-419 -216,-134 -396,-266 -526,-419 -130,-153 -210,-328 -69,-627 141,-299 503,-723 757,-994 254,-271 400,-390 550,-394 149,-4 302,107 634,363z"/>
  <path class="fil3" d="M9193 7695c4,11 -120,183 -215,374 -95,191 -162,399 -190,617 -28,219 -18,448 46,640 64,192 180,347 159,369 -21,21 -180,-92 -323,-155 -143,-64 -270,-78 -504,-30 -235,48 -577,157 -836,318 -259,161 -436,372 -432,362 4,-11 187,-243 390,-471 203,-228 425,-450 485,-663 60,-213 -42,-418 -180,-573 -138,-155 -310,-261 -291,-266 19,-5 231,90 395,159 164,69 280,111 420,118 139,7 302,-21 441,-111 139,-90 256,-242 379,-393 123,-152 254,-303 258,-293z"/>
  <path class="fil4" d="M11236 9491c18,99 0,244 -56,364 -56,120 -150,214 -258,246 -108,32 -231,2 -305,-6 -74,-8 -99,5 -87,51 12,46 61,124 100,208 39,84 67,175 40,301 -27,125 -110,286 -217,367 -107,82 -237,86 -343,76 -105,-10 -186,-33 -213,-5 -27,28 -1,108 -12,204 -11,96 -60,209 -144,293 -84,84 -202,139 -294,154 -91,15 -155,-10 -219,-32 -64,-22 -130,-42 -154,-9 -24,33 -7,118 -19,213 -12,95 -53,201 -137,279 -84,78 -211,128 -351,128 -140,0 -292,-50 -425,-207 -133,-157 -248,-421 -303,-623 -55,-202 -51,-342 27,-411 78,-70 229,-69 341,-48 112,20 184,61 246,102 62,41 115,84 101,50 -14,-34 -95,-144 -168,-273 -73,-128 -140,-275 -171,-399 -31,-124 -27,-226 26,-298 53,-72 155,-114 262,-125 107,-11 219,10 332,60 113,50 226,129 252,124 26,-5 -36,-93 -105,-183 -69,-89 -146,-179 -210,-276 -65,-97 -117,-201 -130,-302 -12,-102 16,-202 73,-281 56,-80 140,-139 253,-148 113,-9 256,33 375,87 119,54 214,119 291,172 77,54 135,96 127,65 -8,-31 -83,-137 -138,-255 -55,-118 -91,-249 -50,-348 41,-99 159,-166 264,-194 105,-28 196,-17 306,32 111,49 241,135 406,248 165,113 364,253 490,350 126,97 179,151 197,251z"/>
  <path class="fil3" d="M11749 7556c5,18 3,36 -3,52 -6,16 -18,31 -36,38 -18,7 -42,6 -61,-4 -20,-10 -35,-29 -41,-49 -6,-20 -4,-42 5,-59 9,-17 25,-31 44,-35 20,-4 43,0 60,11 17,11 27,28 32,45z"/>
  <path class="fil4" d="M8778 1586c234,-6 724,69 1046,151 323,82 479,170 540,241 62,71 30,125 -56,190 -85,65 -224,143 -379,220 -155,77 -328,154 -454,223 -127,70 -208,133 -269,194 -61,61 -101,119 -121,166 -20,46 -21,80 33,109 54,29 164,53 301,87 138,34 303,77 467,117 163,40 324,75 404,113 79,38 77,78 67,140 -10,62 -29,145 -99,174 -70,28 -193,1 -483,-60 -290,-61 -748,-156 -1000,-225 -251,-69 -296,-113 -316,-175 -20,-62 -16,-142 13,-243 29,-102 83,-224 200,-337 116,-113 294,-215 485,-318 191,-103 396,-206 450,-282 54,-76 -43,-124 -189,-153 -145,-29 -339,-38 -470,-57 -131,-19 -199,-47 -249,-65 -50,-18 -82,-25 -109,-71 -27,-46 -48,-132 186,-138z"/>
  <path class="fil4" d="M6501 2304c65,-3 182,33 329,69 147,36 325,72 413,124 88,52 87,119 33,171 -54,52 -160,89 -271,141 -111,51 -227,117 -317,173 -90,56 -154,102 -160,137 -6,34 47,56 149,80 103,24 255,51 349,71 94,19 128,30 140,55 11,24 0,62 -14,103 -14,41 -30,84 -89,82 -58,-3 -159,-52 -310,-96 -151,-43 -352,-81 -451,-140 -100,-59 -99,-140 -79,-208 20,-68 59,-123 172,-190 113,-66 298,-143 414,-207 115,-64 160,-115 143,-137 -17,-22 -96,-16 -182,-32 -86,-16 -179,-53 -240,-75 -61,-22 -90,-28 -98,-52 -8,-24 4,-65 69,-67z"/>
  <path class="fil4" d="M4849 2863c77,12 221,52 338,88 117,36 206,68 214,96 8,28 -65,52 -160,104 -95,52 -212,130 -280,178 -68,48 -87,66 -79,81 8,15 44,28 106,46 62,18 150,41 209,59 59,18 90,32 101,56 11,24 1,59 -12,82 -13,22 -31,32 -106,14 -75,-18 -209,-62 -311,-98 -102,-35 -172,-61 -202,-97 -30,-36 -20,-83 24,-135 44,-52 120,-109 191,-156 71,-47 136,-83 162,-108 25,-26 10,-41 -38,-60 -48,-19 -129,-42 -177,-60 -48,-17 -64,-29 -71,-40 -7,-11 -5,-20 1,-34 5,-13 14,-30 91,-18z"/>
 </g>
</svg>
