<?xml version="1.0" encoding="UTF-8"?>
<!DOCTYPE svg PUBLIC "-//W3C//DTD SVG 1.1//EN" "http://www.w3.org/Graphics/SVG/1.1/DTD/svg11.dtd">
<!-- Creator: CorelDRAW 2017 -->
<svg xmlns="http://www.w3.org/2000/svg" xml:space="preserve" width="143mm" height="143mm" version="1.1" style="shape-rendering:geometricPrecision; text-rendering:geometricPrecision; image-rendering:optimizeQuality; fill-rule:evenodd; clip-rule:evenodd"
viewBox="0 0 14300 14300"
 xmlns:xlink="http://www.w3.org/1999/xlink">
 <defs>
  <style type="text/css">
   <![CDATA[
    .str1 {stroke:black;stroke-width:50}
    .str0 {stroke:white;stroke-width:200;stroke-linecap:round;stroke-linejoin:round}
    .fil0 {fill:none}
    .fil2 {fill:black}
    .fil1 {fill:red}
    .fil3 {fill:white}
    .fil5 {fill:black;fill-rule:nonzero}
    .fil4 {fill:black;fill-rule:nonzero}
   ]]>
  </style>
 </defs>
 <g id="Слой_x0020_1">
  <metadata id="CorelCorpID_0Corel-Layer"/>
  <polyline class="fil0 str0" points="1453,4278 2681,4278 3147,1865 3147,2035 3358,5061 3528,4215 4988,4215 "/>
  <polyline class="fil0 str0" points="12827,4274 11599,4274 11134,1861 11134,2031 10922,5057 10753,4211 9292,4211 "/>
  <path class="fil1" d="M7027 2979c156,-74 307,-482 750,-716 443,-235 1177,-297 1701,-24 524,272 838,879 829,1620 -9,741 -340,1616 -925,2352 -585,735 -1423,1330 -1897,1594 -473,264 -582,196 -974,-122 -392,-318 -1068,-886 -1603,-1454 -534,-568 -926,-1136 -1075,-1738 -149,-602 -54,-1238 149,-1657 203,-419 514,-622 832,-703 318,-81 642,-41 933,47 291,88 548,223 756,420 208,197 368,455 524,381z"/>
  <path class="fil2" d="M11449 6444c-96,131 -229,367 -410,655 -182,287 -412,625 -643,887 -231,262 -463,448 -595,604 -132,156 -164,281 -153,382 11,100 67,176 245,95 179,-81 482,-318 702,-545 220,-227 358,-443 509,-714 151,-271 316,-596 429,-821 113,-225 175,-351 188,-454 13,-104 -23,-186 -70,-215 -47,-29 -106,-4 -201,127z"/>
  <path class="fil2" d="M11335 5909c-73,145 -166,400 -299,713 -133,313 -305,684 -491,980 -186,296 -384,517 -489,692 -105,175 -117,304 -89,401 28,97 94,163 258,54 163,-109 424,-392 604,-652 180,-259 281,-495 386,-787 105,-292 215,-639 290,-880 75,-241 116,-374 112,-479 -4,-105 -53,-180 -104,-201 -51,-21 -105,14 -178,158z"/>
  <path class="fil2" d="M8446 12581c-178,-215 -433,-552 -612,-974 -180,-421 -284,-927 -316,-1374 -31,-447 10,-836 77,-1168 67,-332 159,-608 362,-859 203,-251 516,-477 794,-702 278,-226 520,-451 687,-490 167,-38 258,111 235,287 -23,176 -160,377 -322,577 -162,200 -351,399 -445,531 -95,133 -96,200 -68,195 28,-4 84,-79 217,-224 133,-144 342,-357 551,-496 209,-139 418,-203 593,-355 175,-152 316,-390 418,-664 102,-274 165,-583 227,-840 63,-257 125,-462 192,-541 67,-79 138,-33 199,27 61,61 111,136 96,433 -15,297 -94,815 -173,1229 -79,414 -159,723 -261,945 -102,222 -228,355 -439,537 -211,182 -508,412 -717,660 -209,249 -330,516 -382,729 -52,213 -36,372 54,571 90,199 253,437 410,621 157,184 307,314 364,460 56,146 19,309 -163,535 -182,226 -508,514 -731,650 -224,136 -345,119 -456,64 -111,-55 -211,-148 -389,-364z"/>
  <path class="fil2" d="M2809 6457c96,131 229,367 410,655 182,287 412,625 643,887 231,262 463,448 595,604 132,156 164,281 153,382 -11,100 -67,176 -246,95 -179,-81 -482,-318 -702,-545 -220,-227 -358,-443 -509,-714 -151,-271 -316,-596 -429,-821 -113,-225 -175,-351 -188,-454 -13,-104 23,-186 70,-215 47,-29 106,-4 201,127z"/>
  <path class="fil2" d="M2923 5922c73,145 166,400 299,713 133,313 305,684 491,980 186,296 384,517 489,692 105,175 117,304 89,401 -28,97 -94,163 -258,54 -163,-109 -424,-392 -604,-652 -180,-259 -281,-495 -386,-787 -105,-292 -215,-639 -290,-880 -75,-241 -116,-374 -112,-479 4,-105 53,-180 104,-201 51,-21 105,14 178,158z"/>
  <path class="fil2" d="M5811 12595c178,-215 433,-552 612,-974 180,-421 284,-927 316,-1374 31,-447 -10,-836 -77,-1168 -67,-332 -159,-608 -362,-859 -203,-251 -516,-477 -794,-702 -278,-226 -520,-451 -687,-490 -167,-38 -258,111 -235,287 23,176 160,377 322,577 162,200 351,399 445,531 95,133 96,200 68,195 -28,-4 -84,-79 -217,-224 -133,-144 -342,-357 -551,-496 -209,-139 -418,-203 -593,-355 -175,-152 -316,-390 -418,-664 -102,-274 -165,-583 -227,-840 -63,-257 -125,-462 -192,-541 -67,-79 -138,-33 -199,27 -61,61 -111,136 -96,433 15,297 94,815 173,1229 79,414 159,723 261,945 102,222 228,355 439,537 211,182 508,412 717,660 209,249 330,516 382,729 52,213 36,372 -54,571 -90,199 -253,437 -410,621 -157,184 -307,314 -364,460 -56,146 -19,309 163,535 182,226 508,514 731,650 224,136 345,119 456,64 111,-55 211,-148 389,-364z"/>
  <path class="fil3" d="M8616 3121c30,-13 65,-29 98,-21 33,8 65,40 112,138 47,98 110,263 145,354 35,91 42,108 31,128 -11,20 -40,42 -67,79 -27,37 -50,89 -52,139 -2,50 18,99 49,131 31,32 73,48 111,55 39,7 74,4 97,0 23,-4 33,-8 50,21 17,29 41,91 81,187 41,96 98,226 124,305 27,78 23,105 -13,141 -35,36 -101,82 -539,268 -437,186 -1245,512 -1820,745 -575,233 -916,375 -1096,441 -180,66 -199,57 -217,42 -18,-15 -35,-36 -77,-128 -42,-91 -109,-253 -147,-344 -38,-91 -49,-112 -42,-128 7,-16 30,-28 55,-51 25,-24 50,-59 60,-96 10,-37 4,-74 -8,-111 -13,-37 -32,-72 -60,-98 -28,-26 -63,-43 -102,-45 -39,-2 -83,11 -107,0 -25,-11 -30,-45 -63,-127 -32,-82 -91,-212 -128,-301 -37,-90 -53,-140 -58,-172 -5,-32 2,-44 18,-59 16,-15 43,-33 242,-119 199,-87 571,-242 1031,-431 460,-189 1008,-413 1391,-569 383,-157 602,-247 723,-297 121,-50 146,-60 175,-73z"/>
  <path class="fil2" d="M8208 4471c24,2 41,26 42,45 1,19 -13,33 -402,197 -389,164 -1154,479 -1548,638 -395,159 -420,163 -438,156 -18,-7 -28,-24 -20,-43 8,-18 35,-38 418,-198 383,-160 1121,-460 1506,-620 385,-159 418,-178 442,-175z"/>
  <path class="fil2" d="M8341 4793c24,2 41,26 42,45 1,19 -13,33 -402,197 -389,164 -1154,479 -1548,638 -395,159 -420,163 -438,156 -18,-7 -28,-24 -20,-43 8,-18 35,-38 418,-198 383,-160 1121,-460 1506,-620 385,-159 418,-178 442,-175z"/>
  <path class="fil4 str1" d="M5950 5116c-19,8 -56,-53 -109,-182 -54,-129 -105,-184 -153,-164 -48,20 -76,21 -83,4 -7,-17 47,-50 164,-98 116,-48 178,-64 185,-46 7,17 -13,36 -62,56 -48,20 -46,95 8,224 54,129 71,198 51,206zm273 -113c-19,8 -59,-61 -120,-208 -61,-147 -82,-224 -62,-232 19,-8 59,61 120,208 61,147 81,224 62,232zm387 -309c-4,-20 5,-32 27,-35 21,-3 34,8 38,35 4,26 -5,59 -26,97 -21,38 -44,62 -66,72 -23,10 -46,19 -70,29 -24,10 -54,11 -92,4 -38,-7 -72,-26 -103,-56 -31,-30 -50,-56 -59,-77 -9,-21 -18,-43 -27,-66 -10,-23 -13,-55 -9,-96 3,-41 18,-78 43,-109 25,-31 47,-51 67,-59 19,-8 40,-17 62,-26 22,-9 53,-9 92,1 39,10 66,24 80,42 14,18 13,33 -4,45 -17,12 -32,12 -44,-2 -12,-14 -30,-24 -56,-31 -25,-7 -46,-7 -60,-1 -15,6 -31,13 -47,20 -17,7 -33,23 -49,49 -16,26 -23,54 -21,85 2,31 6,54 12,68 6,15 13,31 21,50 8,19 23,40 45,63 23,23 48,37 77,41 29,4 50,4 63,-2 13,-6 28,-12 45,-18 16,-7 32,-24 47,-52 15,-28 20,-52 17,-73zm215 59c-19,8 -59,-61 -120,-208 -61,-147 -82,-224 -62,-232 19,-8 44,24 74,97 30,73 67,58 109,-45 43,-103 77,-160 103,-171 26,-11 21,26 -16,111 -37,85 -5,158 95,218 100,61 138,96 112,107 -26,11 -80,-10 -163,-63 -83,-53 -132,-62 -146,-29 -14,33 -11,75 10,126 21,51 22,80 3,88zm548 -227c-109,45 -194,-5 -255,-152 -61,-147 -38,-242 68,-286 106,-44 163,-57 170,-40 7,17 -33,44 -119,80 -87,36 -121,76 -102,121 19,45 68,50 150,17 81,-34 125,-42 132,-25 7,17 -30,43 -111,76 -81,34 -111,75 -91,125 21,50 76,56 166,19 90,-37 139,-47 146,-30 7,17 -44,49 -153,94zm386 -160c-19,8 -56,-53 -109,-182 -54,-129 -105,-184 -153,-164 -48,20 -76,21 -83,4 -7,-17 47,-50 164,-98 116,-48 178,-64 185,-46 7,17 -13,36 -62,56 -48,20 -46,95 8,224 54,129 71,198 51,206z"/>
  <path class="fil5" d="M8623 4994c17,40 33,81 50,122l61 -25c-17,-41 -33,-81 -50,-122l-61 25zm-620 -1520l50 122 61 -25 -50 -122 -61 25zm124 304l50 122 61 -25 -50 -122 -61 25zm124 304l50 122 61 -25 -50 -122 -61 25zm124 304c17,40 33,81 50,122l61 -25c-17,-41 -33,-81 -50,-122l-61 25zm124 304c17,40 33,81 50,122l61 -25c-17,-41 -33,-81 -50,-122l-61 25z"/>
 </g>
</svg>
