<?xml version="1.0" encoding="UTF-8"?>
<!DOCTYPE svg PUBLIC "-//W3C//DTD SVG 1.1//EN" "http://www.w3.org/Graphics/SVG/1.1/DTD/svg11.dtd">
<!-- Creator: CorelDRAW 2017 -->
<svg xmlns="http://www.w3.org/2000/svg" xml:space="preserve" width="143mm" height="143mm" version="1.1" style="shape-rendering:geometricPrecision; text-rendering:geometricPrecision; image-rendering:optimizeQuality; fill-rule:evenodd; clip-rule:evenodd"
viewBox="0 0 14300 14300"
 xmlns:xlink="http://www.w3.org/1999/xlink">
 <defs>
  <style type="text/css">
   <![CDATA[
    .fil1 {fill:black}
    .fil0 {fill:#5B962C}
    .fil4 {fill:#B3B3B3}
    .fil2 {fill:red}
    .fil5 {fill:#FFCCCC}
    .fil3 {fill:white}
   ]]>
  </style>
 </defs>
 <g id="Слой_x0020_1">
  <metadata id="CorelCorpID_0Corel-Layer"/>
  <path class="fil0" d="M10946 13145c-863,11 -2058,3 -2878,-57 -820,-59 -1263,-170 -1583,-303 -320,-133 -515,-289 -586,-474 -71,-185 -17,-400 15,-623 32,-222 42,-451 -97,-642 -139,-191 -427,-344 -708,-453 -282,-109 -557,-174 -813,-238 -255,-65 -491,-129 -611,-222 -120,-93 -125,-214 -103,-333 22,-119 71,-235 -213,-335 -284,-100 -900,-183 -1332,-297 -432,-114 -679,-259 -799,-388 -120,-129 -114,-242 -34,-359 80,-117 234,-237 414,-333 179,-96 384,-167 530,-210 146,-43 233,-58 297,-45 64,13 105,55 133,108 28,53 44,117 -6,174 -50,57 -165,107 -249,143 -84,36 -137,57 -148,98 -12,42 18,105 98,160 80,56 209,104 363,135 154,31 332,44 485,32 153,-11 281,-47 385,-79 104,-32 183,-61 230,-97 46,-36 60,-80 33,-128 -27,-49 -94,-103 -178,-140 -84,-37 -185,-58 -258,-88 -73,-30 -119,-70 -145,-118 -26,-47 -32,-101 -14,-154 18,-53 59,-104 187,-132 129,-28 345,-33 559,-30 214,3 427,13 628,34 201,22 391,55 529,87 138,32 224,63 262,106 38,42 26,96 0,154 -26,58 -67,119 -68,187 -1,67 38,141 188,216 151,75 413,153 704,228 291,75 609,149 1081,234 472,85 1098,182 1700,299 602,117 1180,255 1637,380 457,125 793,238 1044,370 251,132 417,283 466,409 49,126 -20,226 -120,329 -99,103 -229,209 -255,354 -26,145 52,328 249,466 197,138 513,230 703,345 191,114 256,250 268,448 12,198 -29,457 -314,601 -286,144 -816,173 -1678,184z"/>
  <path class="fil1" d="M10521 2473c136,80 242,213 312,367 71,154 106,329 78,530 -28,202 -119,430 -235,584 -116,154 -257,235 -355,297 -98,63 -153,109 -155,176 -2,67 49,157 101,249 51,93 102,189 108,358 5,169 -36,411 -131,622 -96,211 -246,393 -432,620 -186,227 -406,501 -552,743 -146,242 -216,453 -235,744 -19,291 14,664 64,982 50,319 116,584 253,860 137,276 344,562 526,768 181,206 336,332 458,429 122,96 211,163 272,217 61,54 93,96 113,189 19,93 25,239 16,370 -9,131 -33,249 -69,347 -37,98 -86,178 -189,219 -102,41 -258,43 -355,20 -97,-23 -136,-72 -150,-136 -13,-65 -1,-145 8,-212 9,-67 14,-121 12,-190 -1,-69 -9,-154 -119,-292 -110,-138 -323,-329 -497,-509 -174,-180 -311,-348 -437,-528 -127,-180 -244,-370 -358,-666 -114,-296 -223,-698 -283,-888 -60,-191 -71,-171 -58,64 13,235 51,685 88,1111 38,426 77,829 105,1137 28,308 45,521 44,686 -2,165 -22,283 -75,367 -53,84 -139,136 -259,153 -120,17 -275,-1 -407,-42 -132,-41 -242,-105 -303,-181 -62,-76 -76,-164 -66,-235 11,-71 46,-124 110,-160 64,-37 158,-58 218,-75 60,-17 88,-29 87,-186 -1,-157 -31,-458 -73,-793 -42,-335 -95,-705 -136,-1062 -42,-357 -72,-702 -69,-1074 3,-371 38,-768 90,-1111 52,-343 122,-631 270,-957 148,-326 375,-691 500,-897 125,-206 149,-254 126,-318 -23,-63 -92,-142 -195,-260 -103,-118 -240,-276 -354,-482 -114,-207 -205,-462 -220,-617 -15,-155 45,-209 96,-247 51,-38 92,-61 157,-71 65,-10 154,-9 236,12 81,21 154,60 315,138 161,78 409,195 547,267 138,72 166,99 197,114 30,16 63,21 87,10 23,-11 38,-37 20,-100 -18,-63 -67,-162 -96,-279 -29,-116 -36,-250 -22,-379 15,-129 52,-255 105,-372 52,-117 120,-227 239,-319 119,-93 290,-169 459,-193 169,-25 335,2 471,82z"/>
  <path class="fil1" d="M10160 4348c325,209 897,594 1309,852 412,259 663,392 825,495 162,103 235,175 288,270 53,95 85,212 97,320 12,108 5,207 -34,295 -39,88 -111,164 -189,194 -78,29 -162,12 -230,-31 -68,-43 -119,-110 -147,-178 -29,-68 -35,-136 -28,-214 7,-78 27,-166 51,-240 24,-73 51,-132 51,-177 -1,-45 -29,-76 -200,-194 -171,-118 -485,-323 -830,-550 -345,-227 -721,-475 -977,-633 -256,-158 -391,-224 -496,-291 -105,-67 -179,-133 -191,-172 -12,-39 37,-51 84,-50 47,1 92,14 153,38 62,24 140,57 465,266z"/>
  <path class="fil1" d="M8879 4009c-6,-44 16,-108 47,-165 31,-57 72,-108 121,-134 49,-26 107,-28 176,0 69,28 151,86 209,144 58,58 93,117 111,179 18,62 20,128 -3,163 -23,35 -70,38 -148,27 -78,-12 -187,-38 -266,-61 -79,-23 -127,-41 -168,-62 -41,-21 -74,-46 -79,-90z"/>
  <path class="fil2" d="M4744 4293c-41,5 -131,44 -249,40 -118,-4 -264,-51 -398,-99 -134,-48 -256,-97 -381,-119 -125,-22 -254,-17 -386,14 -132,30 -267,85 -403,140 69,26 139,51 181,101 43,49 59,122 69,214 11,92 16,204 5,296 -10,93 -37,167 -74,233 -38,66 -87,123 -122,167 -35,44 -54,74 -44,81 10,7 51,-9 141,-45 89,-36 227,-90 372,-93 144,-2 296,48 428,98 133,51 247,103 351,132 105,30 200,38 291,35 90,-3 175,-18 224,-28 49,-9 62,-13 55,-53 -6,-40 -32,-116 -47,-210 -15,-94 -21,-205 -19,-322 1,-117 9,-240 16,-329 6,-89 11,-146 17,-188 6,-43 14,-72 -28,-66z"/>
  <path class="fil1" d="M2973 4241c9,148 10,425 14,760 5,335 13,728 18,1287 5,559 7,1284 11,1677 3,392 8,452 -18,486 -26,34 -84,41 -117,15 -34,-26 -43,-86 -51,-279 -8,-193 -15,-519 -19,-920 -4,-401 -5,-877 -6,-1279 -1,-402 -3,-730 -7,-1001 -4,-270 -10,-483 -10,-614 0,-131 7,-179 20,-217 14,-38 34,-64 56,-78 22,-14 44,-16 64,-8 20,8 37,25 46,173z"/>
  <path class="fil3" d="M6459 1374c42,21 99,54 140,96 41,42 67,94 79,150 12,56 10,117 3,170 -8,53 -21,98 -46,141 -25,43 -62,84 -109,118 -47,34 -105,62 -169,75 -65,13 -136,11 -210,-15 -73,-26 -149,-76 -196,-136 -48,-60 -68,-130 -70,-202 -2,-72 13,-147 36,-204 23,-57 54,-97 95,-132 40,-35 90,-65 151,-81 61,-15 132,-16 180,-12 49,4 75,11 117,32z"/>
  <path class="fil1" d="M6912 1790c-8,-22 11,-84 4,-144 -7,-60 -38,-119 -79,-165 -41,-47 -90,-82 -99,-96 -8,-13 25,-5 105,-3 80,2 207,-3 382,2 175,4 397,17 638,42 240,25 499,60 709,110 211,50 374,113 484,157 111,43 169,66 167,72 -2,6 -64,-4 -197,-36 -133,-32 -337,-86 -514,-111 -177,-25 -327,-20 -512,-13 -185,8 -405,19 -566,38 -160,20 -260,49 -325,73 -64,24 -93,43 -124,61 -31,18 -65,35 -73,13z"/>
  <path class="fil4" d="M6463 1479c-4,28 16,95 22,165 6,70 0,143 -19,198 -18,55 -48,91 -80,118 -32,27 -68,43 -112,51 -44,7 -96,5 -139,-3 -43,-7 -77,-19 -76,-10 1,9 36,38 78,56 42,18 90,25 141,23 51,-2 106,-13 153,-34 47,-21 86,-52 116,-89 30,-36 51,-78 63,-137 12,-59 16,-136 -1,-196 -16,-61 -53,-105 -84,-133 -32,-27 -59,-38 -62,-9z"/>
  <path class="fil5" d="M4670 4404c-10,-1 -38,8 -90,10 -51,2 -126,-4 -211,-28 -85,-24 -181,-65 -269,-100 -88,-35 -168,-64 -253,-80 -85,-16 -175,-21 -263,-19 -88,2 -173,11 -248,24 -75,13 -141,31 -183,42 -42,11 -59,15 -44,27 15,12 63,32 97,66 34,33 53,80 63,115 10,35 11,59 25,41 14,-18 42,-77 87,-115 45,-38 108,-55 180,-63 73,-8 156,-8 237,1 81,9 158,28 225,44 67,16 124,31 177,47 53,16 103,34 150,44 47,10 91,13 128,11 38,-2 69,-9 98,-16 30,-8 57,-16 76,-26 19,-10 28,-22 18,-23z"/>
  <path class="fil3" d="M9470 3424c23,40 50,100 96,141 46,41 109,61 165,72 56,11 103,11 144,1 41,-10 75,-29 111,-53 35,-24 71,-52 79,-46 7,6 -15,46 -52,95 -37,49 -90,109 -150,145 -61,36 -129,49 -184,41 -55,-8 -96,-37 -134,-81 -38,-44 -72,-104 -92,-158 -21,-54 -27,-102 -31,-141 -4,-38 -5,-67 3,-71 8,-5 26,15 49,55z"/>
 </g>
</svg>
