<?xml version="1.0" encoding="UTF-8"?>
<!DOCTYPE svg PUBLIC "-//W3C//DTD SVG 1.1//EN" "http://www.w3.org/Graphics/SVG/1.1/DTD/svg11.dtd">
<!-- Creator: CorelDRAW 2017 -->
<svg xmlns="http://www.w3.org/2000/svg" xml:space="preserve" width="143mm" height="143mm" version="1.1" style="shape-rendering:geometricPrecision; text-rendering:geometricPrecision; image-rendering:optimizeQuality; fill-rule:evenodd; clip-rule:evenodd"
viewBox="0 0 14300 14300"
 xmlns:xlink="http://www.w3.org/1999/xlink">
 <defs>
  <style type="text/css">
   <![CDATA[
    .fil2 {fill:black}
    .fil1 {fill:#1A1A1A}
    .fil4 {fill:gray}
    .fil0 {fill:#EDBF42}
    .fil3 {fill:red}
   ]]>
  </style>
 </defs>
 <g id="Слой_x0020_1">
  <metadata id="CorelCorpID_0Corel-Layer"/>
  <path class="fil0" d="M6382 11393c3,284 -2,593 16,778 18,185 58,246 373,297 314,51 903,91 1433,122 531,30 1004,51 1393,81 389,30 693,71 794,128 101,57 0,132 -679,172 -679,41 -1937,47 -2542,85 -605,37 -558,105 -554,174 3,69 -37,140 -487,153 -450,14 -1308,-30 -1903,-49 -595,-18 -926,-12 -1095,-150 -169,-139 -176,-423 -183,-845 -7,-423 -14,-984 -10,-1464 3,-480 17,-879 64,-1149 47,-270 128,-412 436,-362 308,51 842,294 1284,504 443,210 794,385 1051,500 257,115 419,169 506,325 87,156 99,415 102,699z"/>
  <path class="fil0" d="M10820 7878c-169,125 -375,365 -518,484 -143,120 -225,120 -422,33 -197,-87 -510,-261 -672,-234 -162,27 -174,255 -247,396 -73,141 -207,196 -258,308 -51,112 -18,280 9,458 27,179 47,368 -68,503 -115,135 -365,216 -690,284 -325,68 -723,122 -1112,105 -389,-17 -767,-105 -1220,-257 -453,-152 -980,-368 -1410,-636 -429,-267 -761,-586 -947,-791 -186,-204 -225,-294 -323,-358 -98,-64 -254,-101 -291,52 -37,154 44,498 247,886 203,387 529,817 975,1189 446,372 1012,686 1626,868 614,182 1275,233 1932,159 656,-74 1307,-274 1835,-563 528,-289 934,-668 1265,-1076 332,-408 589,-847 735,-1134 145,-287 178,-424 158,-536 -21,-112 -95,-200 -198,-239 -103,-39 -236,-28 -405,97z"/>
  <path class="fil1" d="M11648 8590c-13,14 -29,3 -271,-186 -242,-189 -710,-555 -1459,-1083 -749,-528 -1779,-1217 -2317,-1578 -538,-361 -583,-394 -622,-400 -39,-6 -72,14 -406,250 -334,236 -971,687 -1722,1225 -751,538 -1617,1161 -2062,1482 -445,320 -470,337 -490,269 -21,-68 -37,-220 -55,-369 -18,-150 -39,-298 -21,-380 18,-82 76,-99 213,-168 137,-70 355,-193 501,-271 146,-78 220,-111 277,-158 57,-47 98,-109 113,-164 14,-55 2,-105 68,-162 66,-57 209,-123 367,-195 158,-72 330,-150 431,-203 101,-53 129,-82 142,-123 12,-41 8,-94 4,-127 -4,-33 -8,-45 90,-105 98,-60 300,-166 517,-281 218,-115 451,-238 558,-320 107,-82 86,-123 76,-162 -10,-39 -10,-76 201,-207 211,-131 634,-357 868,-478 234,-121 279,-137 386,-96 107,41 275,140 521,271 246,131 570,295 741,382 170,86 187,94 187,109 0,14 -16,35 -35,62 -18,27 -39,60 -43,84 -4,25 8,41 218,154 209,113 616,322 831,435 215,113 240,129 250,152 10,23 6,51 -4,80 -10,29 -27,57 -27,78 0,21 16,33 220,137 203,105 593,302 784,412 191,111 183,135 166,166 -16,31 -41,68 -53,92 -12,25 -12,37 150,127 162,90 486,259 685,361 199,103 273,140 304,189 31,49 18,111 -30,214 -49,103 -134,248 -181,340 -47,92 -57,132 -69,147z"/>
  <path class="fil2" d="M9335 6287c3,-133 10,-373 11,-629 1,-255 -3,-526 -12,-670 -9,-144 -24,-160 -44,-172 -21,-12 -47,-21 -70,-45 -23,-25 -41,-66 -48,-100 -7,-34 -3,-61 88,-72 91,-11 270,-7 476,-3 206,4 440,8 571,20 131,11 160,30 166,65 6,35 -10,86 -36,119 -26,33 -61,47 -88,87 -28,40 -48,106 -53,229 -5,123 5,304 7,564 2,261 -4,601 -10,822 -6,220 -11,320 -64,349 -53,29 -155,-14 -288,-77 -133,-63 -297,-147 -404,-201 -107,-53 -156,-76 -181,-101 -25,-25 -25,-51 -22,-185z"/>
  <path class="fil2" d="M7115 6662c-8,130 -10,369 -11,507 -1,138 -1,175 33,193 34,18 101,18 275,18 174,0 454,0 606,-3 152,-3 176,-10 188,-89 12,-79 12,-231 14,-374 2,-142 7,-275 4,-348 -2,-73 -11,-86 -99,-90 -88,-4 -255,0 -421,3 -165,3 -328,5 -421,7 -92,1 -114,1 -131,12 -17,11 -30,33 -38,163z"/>
  <path class="fil2" d="M6646 6484c54,4 83,11 100,58 17,47 24,134 24,273 0,139 -7,330 -17,435 -11,104 -26,122 -156,128 -130,7 -376,2 -543,0 -167,-2 -256,-2 -310,-7 -53,-4 -71,-13 -83,-52 -12,-39 -18,-109 -20,-235 -1,-126 3,-309 9,-416 5,-108 12,-140 27,-158 15,-17 39,-20 166,-23 127,-3 358,-8 513,-9 155,-1 236,1 290,5z"/>
  <path class="fil2" d="M6595 7708c88,9 125,24 139,155 14,131 5,379 -3,517 -9,138 -17,166 -47,187 -29,21 -79,34 -234,38 -154,4 -413,0 -567,-5 -154,-5 -204,-12 -233,-46 -28,-34 -35,-95 -36,-227 -1,-133 3,-337 18,-454 15,-117 41,-148 142,-163 101,-15 277,-15 435,-14 158,1 297,3 385,12z"/>
  <path class="fil2" d="M7128 7868c-12,130 -12,376 -5,518 7,142 20,181 80,200 61,18 170,16 340,13 171,-3 403,-8 531,-18 128,-11 152,-28 159,-141 7,-113 -4,-322 -11,-459 -7,-137 -9,-202 -34,-239 -25,-37 -73,-46 -237,-50 -164,-4 -444,-4 -591,-1 -147,3 -160,10 -178,21 -18,11 -42,26 -54,156z"/>
  <path class="fil3" d="M5397 10563c-441,-168 -874,-406 -1274,-779 -400,-373 -768,-882 -1003,-1366 -235,-484 -338,-944 -379,-1366 -41,-422 -19,-806 60,-1182 78,-376 214,-744 319,-1003 105,-260 181,-411 252,-517 70,-105 135,-165 208,-179 73,-14 154,19 541,379 387,360 1079,1047 1936,1893 857,847 1880,1853 2472,2456 592,603 755,803 819,957 65,154 32,262 -197,406 -230,143 -657,322 -1093,438 -435,116 -879,170 -1325,149 -446,-22 -895,-119 -1336,-287zm2210 -4038c-779,-771 -1482,-1463 -1988,-1969 -506,-506 -814,-825 -966,-1022 -151,-197 -146,-273 -65,-360 81,-87 238,-184 438,-287 200,-103 444,-211 833,-300 389,-89 925,-160 1447,-127 522,32 1030,168 1488,392 457,224 863,538 1209,893 346,354 633,749 833,1187 200,438 314,920 338,1439 24,519 -41,1076 -170,1539 -130,462 -325,830 -452,1017 -127,187 -187,192 -252,173 -65,-19 -135,-62 -598,-508 -462,-446 -1317,-1295 -2096,-2066zm2064 -4341c-387,-243 -744,-400 -1079,-518 -335,-118 -649,-196 -1017,-235 -368,-39 -790,-39 -1225,19 -435,58 -884,174 -1314,349 -430,174 -841,407 -1217,696 -376,289 -717,636 -1003,1025 -287,389 -519,822 -698,1274 -179,452 -303,922 -357,1344 -54,422 -38,795 19,1187 57,392 154,803 306,1206 151,403 357,798 619,1158 262,360 581,684 944,968 362,284 768,527 1286,729 518,201 1148,361 1719,404 571,43 1082,-30 1573,-153 491,-123 962,-296 1405,-548 444,-252 860,-581 1193,-938 333,-357 581,-741 798,-1198 216,-457 400,-987 490,-1504 89,-517 84,-1020 8,-1523 -76,-503 -222,-1006 -438,-1479 -216,-473 -503,-917 -855,-1304 -352,-387 -768,-717 -1155,-960z"/>
  <path class="fil4" d="M13056 3139c-58,7 -223,36 -376,29 -153,-7 -294,-51 -391,-126 -98,-76 -152,-184 -232,-272 -80,-88 -185,-155 -339,-154 -154,1 -358,71 -496,125 -138,54 -212,93 -328,93 -116,0 -276,-39 -426,-35 -150,4 -290,49 -383,123 -92,73 -136,175 -169,259 -33,84 -53,152 -92,222 -39,70 -95,142 -127,220 -31,78 -38,163 -19,260 19,98 63,208 91,305 28,96 41,178 60,196 19,18 44,-28 83,-89 39,-61 91,-138 152,-216 61,-77 130,-154 209,-223 79,-69 167,-129 295,-177 128,-48 296,-84 433,-93 137,-8 244,11 328,-26 84,-37 145,-131 211,-210 66,-78 137,-141 220,-173 83,-33 177,-35 263,-27 86,8 164,28 261,47 98,19 215,39 328,43 113,5 222,-5 288,-20 66,-16 89,-37 126,-55 37,-18 87,-33 29,-25z"/>
  <path class="fil2" d="M3457 9441c-9,507 -11,1477 -18,2141 -7,664 -18,1022 27,1205 46,183 148,189 228,193 80,3 137,3 154,-191 17,-194 -6,-583 -14,-1038 -9,-455 -3,-975 3,-1413 6,-438 11,-793 6,-1016 -6,-223 -23,-314 -74,-372 -51,-57 -137,-81 -188,-93 -51,-12 -68,-12 -84,10 -16,22 -30,66 -39,573z"/>
  <path class="fil2" d="M5107 10395c0,352 -3,1021 -3,1494 0,473 3,750 17,901 14,150 37,174 80,183 43,9 104,4 146,-15 41,-19 63,-52 76,-147 13,-95 18,-254 22,-593 4,-339 8,-860 8,-1240 0,-380 -3,-620 -24,-767 -20,-147 -57,-201 -90,-230 -32,-29 -59,-32 -98,-29 -39,3 -90,14 -113,36 -24,22 -20,56 -20,407z"/>
  <path class="fil2" d="M5213 12265c-30,-35 -78,-34 -326,-29 -248,5 -698,14 -933,31 -235,16 -255,40 -264,69 -8,29 -5,63 24,91 29,29 85,53 279,59 194,7 528,-3 764,-14 236,-10 375,-20 437,-61 63,-41 49,-112 19,-147z"/>
  <path class="fil2" d="M5203 11626c-30,-35 -78,-34 -326,-29 -248,5 -698,14 -933,31 -235,16 -255,40 -264,69 -8,29 -5,63 24,91 29,29 85,53 279,59 194,7 528,-3 764,-14 236,-10 375,-20 437,-61 63,-41 49,-112 19,-147z"/>
  <path class="fil2" d="M5191 11007c-30,-35 -78,-34 -326,-29 -248,5 -698,14 -933,31 -235,16 -255,40 -264,69 -8,29 -5,63 24,91 29,29 85,53 279,59 194,7 528,-3 764,-14 236,-10 375,-20 437,-61 63,-41 49,-112 19,-147z"/>
  <path class="fil2" d="M5152 10344c-30,-35 -78,-34 -326,-29 -248,5 -698,14 -933,31 -235,16 -255,40 -264,69 -8,29 -5,63 24,91 29,29 85,53 279,59 194,7 528,-3 764,-14 236,-10 375,-20 437,-61 63,-41 49,-112 19,-147z"/>
 </g>
</svg>
