<?xml version="1.0" encoding="UTF-8"?>
<!DOCTYPE svg PUBLIC "-//W3C//DTD SVG 1.1//EN" "http://www.w3.org/Graphics/SVG/1.1/DTD/svg11.dtd">
<!-- Creator: CorelDRAW 2017 -->
<svg xmlns="http://www.w3.org/2000/svg" xml:space="preserve" width="143mm" height="143mm" version="1.1" style="shape-rendering:geometricPrecision; text-rendering:geometricPrecision; image-rendering:optimizeQuality; fill-rule:evenodd; clip-rule:evenodd"
viewBox="0 0 14300 14300"
 xmlns:xlink="http://www.w3.org/1999/xlink">
 <defs>
  <style type="text/css">
   <![CDATA[
    .fil1 {fill:none}
    .fil15 {fill:#1A1A1A}
    .fil10 {fill:#4A94CE}
    .fil11 {fill:#52C6CE}
    .fil8 {fill:#663399}
    .fil9 {fill:#6666FF}
    .fil12 {fill:#7BAD52}
    .fil0 {fill:#9786B8}
    .fil13 {fill:#A5D673}
    .fil7 {fill:#F76B84}
    .fil5 {fill:#F7735A}
    .fil6 {fill:red}
    .fil4 {fill:#FF9900}
    .fil3 {fill:#FFD663}
    .fil2 {fill:#FFE77B}
    .fil14 {fill:white}
   ]]>
  </style>
 </defs>
 <g id="Слой_x0020_1">
  <metadata id="CorelCorpID_0Corel-Layer"/>
  <path class="fil0" d="M11380 5623c33,-272 3,-660 -60,-1095 -64,-435 -162,-917 -406,-1307 -244,-390 -634,-689 -1030,-927 -396,-237 -799,-413 -1199,-539 -400,-127 -796,-205 -1053,-257 -257,-52 -374,-78 -718,13 -344,91 -916,299 -1387,458 -471,159 -842,270 -1300,416 -458,146 -1004,328 -1371,507 -367,179 -556,354 -660,562 -104,208 -123,448 -81,715 42,266 146,559 188,816 42,257 23,478 0,699 -23,221 -49,442 -16,634 32,192 123,354 237,539 114,185 250,393 367,582 117,188 214,357 364,533 149,175 351,357 613,543 262,185 585,374 822,506 238,132 391,208 799,297 408,89 1069,191 1627,187 558,-5 1011,-116 1491,-320 481,-205 989,-502 1358,-822 369,-319 599,-660 775,-1022 176,-362 298,-746 406,-1016 108,-270 202,-428 235,-700z"/>
  <g id="_2388349902176">
   <polygon class="fil1" points="7220,1866 8276,2126 9331,2385 10104,3094 10876,3802 11159,4770 11442,5738 11159,6706 10876,7674 10104,8383 9331,9092 8276,9351 7220,9610 6165,9351 5109,9092 4336,8383 3564,7674 3281,6706 2998,5738 3281,4770 3564,3802 4336,3094 5109,2385 6165,2126 "/>
   <line class="fil1" x1="7220" y1="1866" x2="7220" y2= "9610" />
   <line class="fil1" x1="11442" y1="5738" x2="2998" y2= "5738" />
   <line class="fil1" x1="10876" y1="3802" x2="3564" y2= "7674" />
   <line class="fil1" x1="3564" y1="3802" x2="10876" y2= "7674" />
   <line class="fil1" x1="5109" y1="9092" x2="9331" y2= "2385" />
   <line class="fil1" x1="5109" y1="2385" x2="9331" y2= "9092" />
   <polygon class="fil2" points="5109,2385 7220,5738 7220,1866 6165,2126 "/>
   <polygon class="fil3" points="7220,1866 7220,5738 9331,2385 8276,2126 "/>
   <polygon class="fil4" points="9331,2385 7220,5738 10876,3802 10104,3094 "/>
   <polygon class="fil5" points="10876,3802 7220,5738 11442,5738 11159,4770 "/>
   <polygon class="fil6" points="11442,5738 7220,5738 10876,7674 11159,6706 "/>
   <polygon class="fil7" points="10876,7674 7220,5738 9331,9092 10104,8383 "/>
   <polygon class="fil8" points="9331,9092 7220,5738 7220,9610 8276,9351 "/>
   <polygon class="fil9" points="7220,9610 7220,5738 5109,9092 6165,9351 "/>
   <polygon class="fil10" points="5109,9092 7220,5738 3564,7674 4336,8383 "/>
   <polygon class="fil11" points="3564,7674 7220,5738 2998,5738 3281,6706 "/>
   <polygon class="fil12" points="2998,5738 7220,5738 3564,3802 3281,4770 "/>
   <polygon class="fil13" points="3564,3802 7220,5738 5109,2385 4336,3094 "/>
  </g>
  <g id="_2388349915104">
   <path class="fil14" d="M7216 6939c-34,0 -68,-1 -102,-3 -14,-1 -28,-2 -42,-3 -44,-4 -87,-9 -128,-17 -35,-7 -69,-15 -101,-26 -16,-5 -31,-11 -46,-17 -47,-20 -89,-44 -121,-71 -9,-7 -17,-15 -24,-22 -43,-44 -61,-92 -74,-151 -13,-59 -21,-128 -32,-189 -11,-61 -25,-113 -39,-167 -14,-54 -29,-109 -50,-147 -21,-38 -48,-58 -75,-78 -71,-18 -151,-32 -211,-52 -8,-3 -15,-5 -22,-8 27,20 54,40 86,71 32,31 70,72 99,123 29,51 48,113 54,182 3,28 3,58 2,88 -1,44 -3,89 -4,134 0,29 0,59 3,89 4,48 11,97 25,150 17,62 42,130 77,194 13,24 27,47 42,70 56,83 129,155 218,206 88,51 192,80 324,91 132,11 291,3 416,-25 124,-27 213,-74 288,-138 59,-50 109,-110 148,-173 11,-18 21,-36 31,-55 42,-83 63,-167 74,-239 2,-15 4,-30 6,-45 5,-52 5,-98 3,-139 -3,-53 -9,-98 -8,-143 0,-3 0,-6 0,-9 1,-41 8,-82 23,-129 16,-51 41,-109 77,-172 26,-47 59,-97 92,-147 12,-18 24,-36 36,-53 -36,22 -75,42 -117,60 -35,15 -72,30 -108,45 -51,101 -102,202 -130,289 -28,86 -32,158 -36,225 -3,67 -6,128 -32,181 -14,29 -36,55 -64,79 -24,20 -53,38 -87,54 -19,9 -39,17 -60,25 -40,14 -85,27 -131,36 -28,6 -56,11 -84,15 -16,2 -32,4 -48,6 -50,5 -100,8 -149,8z"/>
   <path class="fil14" d="M6493 7017c-35,-64 -60,-131 -77,-194 -14,-53 -22,-102 -25,-150 -388,155 -608,257 -735,309 -131,54 -163,54 -206,33 -43,-21 -98,-62 -161,-81 -63,-19 -133,-17 -190,3 -57,21 -100,59 -121,113 -21,54 -18,122 31,174 49,52 145,89 203,113 58,24 79,35 79,54 0,18 -21,43 -34,81 -14,38 -21,88 -15,131 6,43 24,80 60,107 36,27 91,46 144,43 52,-2 103,-25 135,-67 32,-42 46,-104 56,-165 10,-62 17,-123 88,-179 71,-56 205,-106 694,-296l76 -29z"/>
   <path class="fil14" d="M6075 6331c92,34 199,75 316,120 1,-30 0,-60 -2,-88 -6,-69 -26,-131 -54,-182 -29,-51 -66,-93 -99,-123 -32,-31 -59,-51 -86,-71 -11,-5 -22,-9 -32,-14 -175,-71 -284,-120 -361,-163 -117,-66 -161,-119 -200,-180 -39,-62 -73,-132 -115,-171 -42,-39 -92,-46 -137,-44 -44,1 -83,10 -113,26 -30,16 -50,39 -64,66 -14,27 -21,59 -16,95 5,35 21,74 31,99 10,25 15,36 -7,46 -22,9 -70,16 -117,26 -48,10 -96,24 -127,54 -31,30 -44,75 -46,122 -1,47 10,95 36,136 26,41 67,75 109,91 42,16 86,14 132,-2 47,-16 97,-46 155,-55 58,-9 124,2 194,15 70,13 143,26 601,198z"/>
   <path class="fil14" d="M8133 6118c-36,63 -61,122 -77,172 -15,47 -22,88 -23,129l175 -66c458,-172 531,-186 601,-198 70,-13 136,-24 194,-15 58,9 108,39 155,55 47,16 90,18 132,2 42,-16 83,-50 109,-91 26,-41 38,-89 36,-136 -1,-47 -15,-92 -46,-122 -31,-30 -79,-43 -127,-54 -48,-10 -96,-17 -117,-26 -22,-9 -17,-21 -7,-46 10,-25 26,-64 31,-99 5,-35 -2,-67 -16,-95 -14,-27 -34,-50 -64,-66 -30,-16 -68,-25 -113,-26 -44,-1 -95,6 -137,44 -42,39 -76,109 -115,171 -39,62 -82,114 -200,180 -68,38 -160,81 -301,139 -34,51 -66,100 -92,147z"/>
   <path class="fil14" d="M8628 6961c-110,-45 -291,-128 -590,-250 -1,14 -3,29 -6,45 -11,72 -32,156 -74,239 -9,18 -19,37 -31,55 439,171 565,219 633,272 71,56 78,117 88,179 10,62 24,123 56,165 32,42 82,65 135,67 52,2 107,-16 144,-43 36,-27 55,-64 60,-107 6,-43 -1,-94 -15,-131 -14,-38 -34,-63 -34,-81 0,-18 21,-30 79,-54 58,-24 154,-60 203,-113 49,-52 51,-121 31,-174 -21,-54 -64,-92 -121,-113 -57,-21 -128,-23 -190,-3 -63,19 -117,60 -161,81 -43,21 -75,21 -206,-33z"/>
   <path class="fil14" d="M8018 5016c62,27 117,63 152,105 34,43 47,93 38,157 -9,64 -38,141 -92,214 -54,73 -131,141 -185,173 -54,32 -83,27 -128,7 -45,-21 -105,-57 -169,-115 -63,-58 -129,-138 -171,-205 -42,-67 -59,-122 -71,-170 -12,-48 -19,-91 2,-128 21,-37 68,-69 144,-86 76,-17 180,-18 265,-9 86,9 153,28 214,56zm127 961c42,-18 81,-38 117,-60 39,-24 72,-52 100,-85 52,-64 80,-148 84,-231 4,-83 -15,-164 -32,-253 -5,-24 -9,-49 -13,-74 57,-63 114,-126 182,-213 67,-87 145,-199 187,-342 42,-143 49,-316 7,-482 -42,-166 -133,-326 -271,-454 -138,-128 -323,-223 -552,-287 -229,-64 -503,-96 -812,-82 -309,14 -653,73 -902,173 -249,100 -401,242 -491,395 -90,153 -117,317 -108,470 9,153 55,294 114,410 59,116 132,208 189,268 57,60 97,89 137,118 -18,89 -43,190 -60,267 -21,96 -27,155 -30,210 -2,55 0,105 25,151 19,36 51,69 104,96 10,5 20,10 32,14l22 8c60,20 139,34 211,52 31,8 61,16 87,26 85,33 130,83 161,146 28,57 45,124 91,173 5,5 11,11 16,16 18,15 41,28 66,39 39,16 86,27 138,35 24,4 49,7 76,9 15,1 30,2 45,3 50,3 102,4 154,4 48,0 96,-2 142,-6 15,-1 30,-2 45,-4 25,-2 50,-5 74,-8 51,-7 98,-16 137,-27 30,-9 56,-20 75,-32 16,-10 27,-22 35,-34 20,-30 24,-66 39,-108 21,-59 62,-130 130,-181 41,-30 91,-54 143,-76 36,-15 72,-29 108,-45zm-954 -344c15,46 13,170 9,263 -5,92 -11,153 -31,194 -19,42 -51,64 -86,78 -35,13 -72,17 -96,-11 -23,-28 -32,-87 -30,-151 2,-64 16,-132 43,-192 27,-60 68,-111 105,-153 37,-42 70,-74 86,-27zm85 0c15,-46 48,-14 86,27 37,42 78,93 105,153 27,60 41,128 43,192 2,64 -7,123 -30,151 -23,28 -61,25 -96,11 -35,-13 -67,-36 -86,-78 -19,-42 -26,-102 -31,-194 -5,-92 -7,-217 9,-263zm-614 -673c86,-9 189,-8 265,9 76,17 124,48 144,86 21,37 14,79 2,128 -12,48 -29,103 -71,170 -42,67 -108,147 -171,205 -63,58 -124,95 -169,115 -45,21 -75,25 -128,-7 -54,-32 -131,-100 -185,-173 -54,-73 -83,-151 -92,-214 -9,-64 4,-114 38,-157 34,-43 90,-78 152,-105 62,-27 129,-47 214,-56z"/>
   <path class="fil15" d="M6721 6392c-46,-49 -63,-117 -91,-173 -31,-63 -76,-113 -161,-146 -26,-10 -56,-18 -87,-26 27,20 54,40 75,78 21,38 36,93 50,147 14,54 28,106 39,167 11,61 19,131 32,189 13,59 31,107 74,151 7,8 15,15 24,22l37 -153c5,-22 10,-41 13,-60 3,-17 5,-34 5,-53 1,-41 -5,-92 -10,-144z"/>
   <path class="fil15" d="M7764 6279c-14,42 -19,78 -39,108 1,61 3,123 6,176 0,3 0,6 1,9 4,55 9,101 17,137 8,36 17,61 26,87 29,-24 50,-50 64,-79 26,-53 29,-115 32,-181 3,-67 8,-139 36,-225 28,-86 79,-187 130,-289 -52,22 -103,46 -143,76 -68,51 -109,122 -130,181z"/>
   <path class="fil15" d="M6831 5557c63,-58 129,-138 171,-205 42,-67 59,-122 71,-170 12,-48 19,-91 -2,-128 -21,-37 -68,-69 -144,-86 -76,-17 -180,-18 -265,-9 -86,9 -153,28 -214,56 -62,27 -117,63 -152,105 -34,43 -47,93 -38,157 9,64 38,141 92,214 54,73 131,141 185,173 54,32 83,27 128,7 45,-21 105,-57 169,-115z"/>
   <path class="fil15" d="M7392 5182c12,48 29,103 71,170 42,67 108,147 171,205 63,58 124,95 169,115 45,21 75,25 128,-7 54,-32 131,-100 185,-173 54,-73 83,-151 92,-214 9,-64 -4,-114 -38,-157 -34,-43 -90,-78 -152,-105 -62,-27 -129,-47 -214,-56 -86,-9 -189,-8 -265,9 -76,17 -124,48 -144,86 -21,37 -14,79 -2,128z"/>
   <path class="fil15" d="M7466 5813c-27,-60 -68,-111 -105,-153 -37,-42 -70,-74 -86,-27 -15,46 -13,170 -9,263 5,92 11,153 31,194 19,42 51,64 86,78 35,13 72,17 96,-11 23,-28 32,-87 30,-151 -2,-64 -16,-132 -43,-192z"/>
   <path class="fil15" d="M7168 6091c19,-42 26,-102 31,-194 5,-92 7,-217 -9,-263 -15,-46 -48,-14 -86,27 -37,42 -78,93 -105,153 -27,60 -41,128 -43,192 -2,64 7,123 30,151 23,28 61,25 96,11 35,-13 67,-36 86,-78z"/>
   <path class="fil15" d="M7740 6583c2,-5 -9,2 -40,15 -31,13 -83,33 -115,27 -32,-6 -43,-36 -50,-69 -7,-33 -9,-68 -11,-57 -2,11 -5,67 -26,105 -21,37 -59,55 -89,66 -30,11 -50,15 -61,6 -11,-8 -12,-29 -15,-64 -3,-35 -9,-85 -14,-83 -5,1 -8,54 -10,90 -2,36 -3,57 -21,68 -17,11 -51,12 -77,12 -26,0 -45,-1 -55,-15 -10,-14 -10,-41 -11,-77 -1,-36 -4,-81 -9,-78 -5,3 -11,54 -16,91 -5,36 -10,58 -29,67 -19,9 -54,5 -81,1 -27,-4 -48,-8 -62,-22 -14,-15 -21,-40 -24,-76 -3,-36 -3,-81 -6,-84 -2,-3 -7,36 -10,67 -3,31 -6,54 -19,67 -13,13 -37,17 -63,14 -26,-4 -55,-15 -81,-24 -26,-9 -50,-16 -33,-6 17,11 73,39 113,60 40,21 63,33 73,63 10,29 8,75 11,76 3,1 13,-44 23,-68 10,-24 22,-28 36,-26 15,2 33,10 46,31 13,21 21,56 27,83 6,27 9,48 11,61 2,13 2,18 2,-2 0,-20 0,-64 2,-94 2,-30 7,-45 26,-54 19,-9 54,-11 71,-2 18,10 19,31 19,63 1,31 1,72 4,94 3,22 10,24 14,6 4,-19 5,-58 6,-86 1,-28 2,-45 14,-55 12,-10 35,-14 51,-16 17,-2 27,-2 34,11 7,13 10,38 14,68 4,29 9,63 13,57 4,-6 7,-50 9,-80 2,-29 2,-43 13,-58 11,-15 34,-30 54,-38 19,-8 35,-8 51,-6 15,1 30,4 42,15 12,11 21,30 29,52 7,22 13,48 14,42 1,-6 -4,-43 -5,-68 -1,-26 1,-40 9,-50 7,-10 20,-17 36,-24 16,-7 35,-15 50,-19 14,-4 23,-4 32,6 9,10 17,29 25,52 8,23 16,50 19,42 3,-8 2,-52 2,-80 0,-29 1,-43 10,-58 9,-15 25,-31 27,-36z"/>
  </g>
  <path class="fil6" d="M10473 7544c-129,155 -309,367 -507,586 -199,219 -417,445 -629,595 -212,150 -419,224 -723,284 -304,61 -706,108 -993,168 -287,61 -459,134 -795,100 -336,-34 -835,-176 -1157,-308 -322,-132 -465,-253 -634,-349 -169,-96 -365,-167 -583,-292 -219,-126 -462,-306 -511,-331 -50,-24 94,107 278,299 184,191 410,443 557,619 147,176 216,276 460,389 244,113 663,240 1002,324 339,84 597,126 764,161 166,34 241,61 287,111 46,50 63,124 138,171 75,47 207,68 299,26 92,-42 144,-147 250,-242 106,-95 267,-179 520,-304 253,-125 597,-292 916,-525 319,-234 613,-535 854,-771 240,-236 427,-407 531,-530 104,-122 125,-195 172,-356 47,-161 120,-411 119,-495 -1,-84 -77,-2 -143,79 -67,81 -124,160 -192,249 -68,89 -147,188 -276,344z"/>
  <path class="fil6" d="M7589 10623c34,11 78,126 112,251 34,126 59,263 22,354 -37,91 -137,137 -218,123 -81,-14 -143,-89 -140,-191 3,-103 72,-234 118,-346 47,-111 72,-203 106,-191z"/>
  <path class="fil6" d="M4155 12062c751,11 1935,34 2926,51 991,17 1790,28 2476,23 687,-6 1262,-28 1475,0 213,28 64,107 74,161 10,54 179,82 416,116 237,34 541,74 704,130 162,57 183,130 -7,161 -189,31 -589,20 -1238,31 -650,11 -1549,45 -1945,90 -396,45 -288,102 -379,147 -91,45 -382,79 -893,82 -511,3 -1242,-25 -1915,-62 -673,-37 -1289,-82 -1610,-170 -321,-88 -348,-218 -440,-305 -91,-88 -247,-133 -474,-175 -227,-42 -524,-82 -629,-130 -105,-48 -17,-105 186,-133 203,-28 521,-28 1272,-17z"/>
  <path class="fil6" d="M9130 13062c53,-30 222,-58 420,-64 198,-5 423,12 589,26 166,14 272,25 228,35 -44,11 -238,21 -457,37 -219,16 -462,37 -616,32 -153,-5 -217,-37 -164,-67z"/>
  <path class="fil6" d="M1929 12097c123,2 296,9 362,28 65,19 23,51 -93,69 -116,18 -307,21 -422,16 -115,-5 -153,-19 -161,-39 -7,-19 18,-44 67,-58 49,-14 123,-18 247,-16z"/>
  <path class="fil6" d="M10386 11868c137,-8 340,-5 452,6 112,11 132,31 35,52 -97,22 -312,46 -459,45 -147,-1 -227,-28 -231,-52 -4,-23 67,-43 204,-52z"/>
  <path class="fil6" d="M11559 12090c84,1 177,15 196,29 19,15 -36,30 -115,35 -79,5 -181,1 -237,-8 -56,-9 -66,-21 -34,-34 32,-12 107,-24 191,-23z"/>
 </g>
</svg>
