<?xml version="1.0" encoding="UTF-8"?>
<!DOCTYPE svg PUBLIC "-//W3C//DTD SVG 1.1//EN" "http://www.w3.org/Graphics/SVG/1.1/DTD/svg11.dtd">
<!-- Creator: CorelDRAW 2017 -->
<svg xmlns="http://www.w3.org/2000/svg" xml:space="preserve" width="143mm" height="143mm" version="1.1" style="shape-rendering:geometricPrecision; text-rendering:geometricPrecision; image-rendering:optimizeQuality; fill-rule:evenodd; clip-rule:evenodd"
viewBox="0 0 14300 14300"
 xmlns:xlink="http://www.w3.org/1999/xlink">
 <defs>
  <style type="text/css">
   <![CDATA[
    .fil2 {fill:#1A1A1A}
    .fil1 {fill:#FFFF66}
    .fil0 {fill:black;fill-rule:nonzero}
   ]]>
  </style>
 </defs>
 <g id="Слой_x0020_2">
  <metadata id="CorelCorpID_0Corel-Layer"/>
  <path class="fil0" d="M7239 2292c1375,0 2619,557 3520,1458 901,901 1458,2145 1458,3520 0,1375 -557,2619 -1458,3520 -901,901 -2145,1458 -3520,1458 -1375,0 -2619,-557 -3520,-1458 -901,-901 -1458,-2145 -1458,-3520 0,-1375 557,-2619 1458,-3520 901,-901 2145,-1458 3520,-1458zm3292 1685c-843,-843 -2007,-1364 -3292,-1364 -1286,0 -2450,521 -3292,1364 -843,843 -1364,2007 -1364,3292 0,1286 521,2450 1364,3292 843,843 2007,1364 3292,1364 1286,0 2450,-521 3292,-1364 843,-843 1364,-2007 1364,-3292 0,-1286 -521,-2450 -1364,-3292z"/>
  <g id="_3081684951840">
   <path class="fil1" d="M7245 8836c-36,0 -73,-1 -108,-3 -15,-1 -30,-2 -44,-3 -47,-4 -92,-10 -136,-18 -38,-7 -74,-16 -107,-28 -17,-6 -33,-12 -48,-18 -50,-21 -94,-47 -128,-76 -9,-8 -18,-16 -26,-24 -45,-47 -65,-97 -79,-160 -14,-62 -22,-136 -34,-201 -11,-65 -26,-120 -41,-177 -15,-57 -31,-116 -53,-156 -22,-40 -51,-61 -80,-83 -76,-19 -160,-33 -224,-55 -8,-3 -16,-6 -23,-8 29,21 57,43 91,75 34,32 74,76 105,131 30,54 51,120 58,193 3,30 3,61 3,94 -1,46 -3,94 -4,142 0,31 1,62 3,94 4,51 12,103 27,159 18,66 45,137 82,205 14,25 29,50 45,74 60,88 137,164 231,218 94,54 204,85 343,97 140,11 309,3 441,-26 132,-29 226,-79 306,-146 62,-53 115,-116 157,-183 12,-19 23,-39 32,-58 44,-88 67,-177 78,-253 2,-16 4,-32 6,-47 5,-56 5,-104 3,-148 -3,-56 -9,-104 -8,-151 0,-3 0,-7 0,-10 1,-44 9,-87 25,-137 17,-54 44,-115 81,-183 28,-50 62,-103 98,-156 13,-19 25,-38 38,-57 -38,24 -80,44 -124,64 -37,16 -76,31 -114,47 -54,107 -109,214 -138,306 -30,92 -34,168 -38,239 -4,71 -6,136 -34,192 -15,31 -38,59 -68,84 -25,21 -56,40 -92,57 -20,9 -41,18 -63,26 -43,15 -90,28 -139,39 -29,6 -59,11 -89,16 -17,2 -34,5 -51,6 -53,6 -106,8 -158,8z"/>
   <path class="fil1" d="M6477 8918c-37,-68 -64,-139 -82,-205 -15,-56 -23,-108 -27,-159 -411,164 -645,272 -780,327 -139,57 -173,57 -219,35 -46,-22 -104,-65 -170,-86 -67,-21 -141,-18 -202,4 -60,22 -106,63 -128,120 -22,57 -19,129 33,185 52,56 154,94 215,120 62,25 83,37 83,57 0,19 -22,46 -36,86 -15,40 -22,93 -16,139 6,46 25,85 64,114 39,29 97,48 152,46 56,-2 109,-27 143,-71 34,-45 48,-110 59,-175 11,-65 18,-131 93,-190 75,-59 218,-112 736,-314l80 -31z"/>
   <path class="fil1" d="M6035 8191c97,37 211,80 335,127 1,-32 0,-64 -3,-94 -7,-73 -27,-138 -58,-193 -30,-54 -70,-98 -105,-131 -34,-32 -63,-54 -91,-75 -12,-5 -23,-10 -34,-15 -186,-75 -301,-127 -382,-173 -125,-70 -170,-126 -212,-191 -41,-65 -77,-140 -122,-181 -45,-41 -98,-48 -145,-47 -47,1 -88,11 -120,28 -31,17 -53,41 -68,70 -15,29 -22,63 -17,100 5,37 22,79 33,105 11,27 16,39 -7,48 -23,10 -74,17 -125,28 -51,11 -102,25 -134,57 -33,31 -47,80 -48,129 -1,50 11,100 39,144 28,44 71,80 116,97 45,17 91,15 140,-2 50,-17 103,-48 164,-58 62,-10 132,2 206,16 74,13 151,28 637,210z"/>
   <path class="fil1" d="M8217 7965c-38,67 -64,129 -81,183 -16,50 -23,93 -25,137l185 -70c486,-183 563,-197 637,-210 74,-13 144,-25 206,-16 62,10 115,41 164,58 50,17 96,19 140,2 45,-17 88,-53 116,-97 28,-44 40,-94 39,-144 -1,-50 -16,-98 -48,-129 -33,-31 -83,-46 -134,-57 -51,-11 -102,-18 -125,-28 -23,-10 -18,-22 -7,-48 11,-27 28,-68 33,-105 5,-37 -2,-71 -17,-100 -15,-29 -36,-53 -68,-70 -31,-17 -73,-27 -120,-28 -47,-1 -100,6 -145,47 -45,41 -81,116 -122,181 -41,65 -87,121 -212,191 -72,40 -170,86 -319,147 -36,54 -70,106 -98,156z"/>
   <path class="fil1" d="M8742 8859c-117,-48 -308,-136 -625,-265 -2,15 -3,31 -6,47 -11,76 -34,165 -78,253 -10,19 -21,39 -32,58 466,181 599,232 671,289 75,59 82,125 93,190 11,65 25,131 59,175 34,45 87,69 143,71 56,2 114,-17 152,-46 39,-29 58,-68 64,-114 6,-46 -1,-99 -16,-139 -15,-40 -36,-67 -36,-86 0,-19 22,-31 83,-57 62,-25 163,-64 215,-120 52,-56 54,-128 33,-185 -22,-57 -68,-98 -128,-120 -60,-22 -135,-24 -202,-4 -66,21 -125,64 -170,86 -46,22 -80,22 -219,-35z"/>
   <path class="fil1" d="M8095 6797c65,29 125,67 161,112 36,45 50,99 40,166 -9,68 -40,150 -97,227 -57,77 -139,150 -196,184 -57,34 -88,29 -136,7 -48,-22 -112,-60 -179,-122 -67,-62 -137,-146 -181,-218 -44,-71 -62,-129 -75,-181 -13,-51 -20,-96 2,-135 22,-39 73,-73 153,-91 80,-18 190,-19 281,-9 91,10 162,30 227,59zm134 1019c44,-19 86,-40 124,-64 41,-26 77,-55 106,-90 56,-68 85,-157 89,-245 4,-88 -16,-174 -34,-268 -5,-25 -10,-52 -14,-78 61,-67 121,-133 193,-226 71,-93 154,-211 198,-362 45,-151 52,-335 7,-511 -45,-177 -141,-346 -288,-481 -146,-135 -342,-237 -585,-305 -243,-68 -533,-102 -861,-87 -328,15 -693,77 -956,184 -264,106 -426,256 -521,418 -96,162 -125,336 -115,498 10,162 58,312 121,435 63,123 140,220 200,284 60,64 103,94 146,125 -19,94 -46,201 -63,283 -22,102 -29,164 -31,222 -2,58 0,111 26,161 20,38 54,74 110,102 10,5 22,10 34,15l23 8c64,22 148,36 224,55 33,8 65,17 92,28 91,35 138,88 171,154 30,60 47,132 96,184 5,6 11,11 17,17 19,16 43,30 70,41 41,17 91,29 146,37 26,4 52,7 80,9 16,1 32,3 48,4 53,3 108,5 163,4 51,0 101,-3 151,-6 16,-1 32,-2 48,-4 27,-2 53,-5 78,-9 55,-7 104,-17 145,-29 32,-10 59,-21 79,-34 17,-11 29,-23 38,-36 21,-32 26,-70 41,-114 22,-63 65,-138 138,-192 43,-32 96,-57 152,-81 38,-16 77,-31 114,-47zm-1012 -365c16,49 14,181 9,279 -5,98 -12,162 -33,206 -21,44 -54,68 -91,82 -37,14 -77,18 -102,-12 -25,-30 -34,-93 -32,-160 2,-68 17,-140 46,-204 29,-63 73,-118 112,-162 39,-44 74,-78 91,-29zm90 0c16,-49 51,-15 91,29 39,44 83,99 112,162 29,63 44,136 46,204 2,68 -7,131 -32,160 -25,30 -65,26 -102,12 -37,-14 -71,-38 -91,-82 -21,-44 -28,-108 -33,-206 -5,-98 -7,-230 9,-279zm-651 -714c91,-10 201,-8 281,9 80,18 131,51 153,91 22,39 15,84 2,135 -13,51 -31,109 -75,181 -44,71 -114,156 -181,218 -67,62 -131,100 -179,122 -48,22 -79,27 -136,-7 -57,-34 -139,-106 -196,-184 -57,-77 -88,-160 -97,-227 -9,-68 4,-121 40,-166 36,-45 96,-83 161,-112 65,-29 137,-50 227,-59z"/>
   <path class="fil2" d="M6720 8256c-49,-52 -67,-124 -96,-184 -33,-67 -81,-120 -171,-154 -28,-11 -59,-20 -92,-28 29,21 58,43 80,83 22,40 38,99 53,156 15,57 30,113 41,177 11,65 20,138 34,201 14,62 33,113 79,160 8,8 16,16 26,24l39 -162c6,-24 11,-44 14,-64 3,-18 5,-36 5,-56 1,-43 -5,-98 -11,-153z"/>
   <path class="fil2" d="M7825 8136c-15,44 -20,83 -41,114 1,65 3,130 6,187 0,3 0,6 1,9 4,59 10,107 18,145 8,38 18,65 28,92 30,-25 53,-53 68,-84 28,-56 30,-122 34,-192 4,-71 8,-147 38,-239 30,-92 84,-199 138,-306 -55,23 -109,48 -152,81 -73,54 -116,129 -138,192z"/>
   <path class="fil2" d="M6836 7371c67,-62 137,-146 181,-218 44,-71 62,-129 75,-181 13,-51 20,-96 -2,-135 -22,-39 -73,-73 -153,-91 -80,-18 -190,-19 -281,-9 -91,10 -162,30 -227,59 -65,29 -125,67 -161,112 -36,45 -50,99 -40,166 9,68 40,150 97,227 57,77 139,150 196,184 57,34 88,29 136,7 48,-22 112,-60 179,-122z"/>
   <path class="fil2" d="M7431 6973c13,51 31,109 75,181 44,71 114,156 181,218 67,62 131,100 179,122 48,22 79,27 136,-7 57,-34 139,-106 196,-184 57,-77 88,-160 97,-227 9,-68 -4,-121 -40,-166 -36,-45 -96,-83 -161,-112 -65,-29 -137,-50 -227,-59 -91,-10 -201,-8 -281,9 -80,18 -131,51 -153,91 -22,39 -15,84 -2,135z"/>
   <path class="fil2" d="M7509 7643c-29,-63 -73,-118 -112,-162 -39,-44 -74,-78 -91,-29 -16,49 -14,181 -9,279 5,98 12,162 33,206 21,44 54,68 91,82 37,14 77,18 102,-12 25,-30 34,-93 32,-160 -2,-68 -17,-140 -46,-204z"/>
   <path class="fil2" d="M7193 7936c21,-44 28,-108 33,-206 5,-98 7,-230 -9,-279 -16,-49 -51,-15 -91,29 -39,44 -83,99 -112,162 -29,63 -44,136 -46,204 -2,68 7,131 32,160 25,30 65,26 102,12 37,-14 71,-38 91,-82z"/>
   <path class="fil2" d="M7800 8459c3,-5 -9,2 -42,16 -33,14 -88,35 -121,29 -33,-6 -46,-38 -53,-73 -7,-35 -9,-72 -12,-60 -2,12 -5,71 -27,111 -22,39 -63,58 -94,70 -31,12 -53,16 -65,7 -11,-9 -13,-30 -16,-68 -4,-37 -10,-90 -15,-89 -5,1 -8,57 -11,95 -2,39 -4,60 -22,72 -18,12 -54,13 -81,13 -28,0 -48,-1 -58,-16 -10,-15 -10,-43 -12,-81 -1,-38 -4,-86 -9,-82 -5,3 -12,58 -17,96 -6,39 -11,62 -31,71 -21,9 -57,5 -86,1 -29,-4 -51,-8 -65,-24 -15,-16 -22,-43 -25,-80 -4,-38 -4,-86 -6,-89 -2,-3 -7,38 -11,71 -4,33 -6,57 -20,72 -14,14 -39,18 -67,14 -28,-4 -58,-16 -86,-25 -28,-10 -53,-17 -35,-6 18,11 77,42 120,64 42,22 66,35 77,67 11,31 8,80 12,81 4,1 13,-47 24,-72 11,-26 23,-30 39,-28 16,2 35,10 49,32 14,22 22,59 28,88 6,29 10,51 11,64 2,14 2,19 2,-2 0,-21 0,-68 2,-100 2,-32 7,-48 28,-58 21,-9 57,-12 76,-2 19,10 20,33 21,66 1,33 1,77 4,100 4,23 11,26 15,6 4,-20 5,-62 7,-91 1,-30 2,-47 15,-58 13,-11 37,-15 54,-17 18,-2 28,-2 36,12 7,14 11,41 15,72 4,31 9,66 13,60 4,-6 8,-53 10,-85 2,-31 2,-46 14,-62 12,-16 36,-32 57,-40 21,-8 37,-8 54,-7 16,1 32,4 45,16 13,12 22,32 30,56 8,24 14,51 15,45 1,-6 -4,-45 -5,-72 -1,-27 1,-42 9,-53 8,-11 21,-18 38,-25 17,-7 37,-16 53,-20 15,-4 25,-4 34,6 9,10 18,30 26,55 8,24 17,53 21,44 4,-9 2,-55 2,-85 0,-30 1,-45 10,-61 9,-16 26,-33 29,-38z"/>
  </g>
  <path class="fil0" d="M1827 7471c-111,0 -201,-90 -201,-201 0,-111 90,-201 201,-201l1191 0c111,0 201,90 201,201 0,111 -90,201 -201,201l-1191 0z"/>
  <path class="fil0" d="M11460 7471c-111,0 -201,-90 -201,-201 0,-111 90,-201 201,-201l1191 0c111,0 201,90 201,201 0,111 -90,201 -201,201l-1191 0z"/>
  <path class="fil0" d="M7440 2929c0,111 -90,201 -201,201 -111,0 -201,-90 -201,-201l0 -1191c0,-111 90,-201 201,-201 111,0 201,90 201,201l0 1191z"/>
  <path class="fil0" d="M7449 12682c0,111 -90,201 -201,201 -111,0 -201,-90 -201,-201l0 -1191c0,-111 90,-201 201,-201 111,0 201,90 201,201l0 1191z"/>
  <path class="fil0" d="M11111 7471c47,-1 77,-165 54,-300 -11,-64 -31,-102 -54,-102l-123 0c-47,1 -77,165 -54,300 11,64 31,102 54,102l123 0zm-493 0c47,-1 77,-165 54,-300 -11,-64 -31,-102 -54,-102l-123 0c-47,1 -77,165 -54,300 11,64 31,102 54,102l123 0zm-493 0c47,-1 77,-165 54,-300 -11,-64 -31,-102 -54,-102l-123 0c-47,1 -77,165 -54,300 11,64 31,102 54,102l123 0zm-493 0c47,-1 77,-165 54,-300 -11,-64 -31,-102 -54,-102l-123 0c-47,1 -77,165 -54,300 11,64 31,102 54,102l123 0z"/>
  <path class="fil0" d="M4886 7471c45,-1 74,-165 52,-300 -11,-64 -30,-102 -52,-102l-119 0c-45,1 -74,165 -52,300 11,64 30,102 52,102l119 0zm-475 0c45,-1 74,-165 52,-300 -11,-64 -30,-102 -52,-102l-119 0c-45,1 -74,165 -52,300 11,64 30,102 52,102l119 0zm-475 0c45,-1 74,-165 52,-300 -11,-64 -30,-102 -52,-102l-119 0c-45,1 -74,165 -52,300 11,64 30,102 52,102l119 0zm-475 0c45,-1 74,-165 52,-300 -11,-64 -30,-102 -52,-102l-119 0c-45,1 -74,165 -52,300 11,64 30,102 52,102l119 0z"/>
  <path class="fil0" d="M7429 3385c-1,-46 -165,-75 -300,-52 -64,11 -102,30 -102,52l0 120c1,46 165,75 300,52 64,-11 102,-30 102,-52l0 -120zm0 480c-1,-46 -165,-75 -300,-52 -64,11 -102,30 -102,52l0 120c1,46 165,75 300,52 64,-11 102,-30 102,-52l0 -120zm0 480c-1,-46 -165,-75 -300,-52 -64,11 -102,30 -102,52l0 120c1,46 165,75 300,52 64,-11 102,-30 102,-52l0 -120zm0 480c-1,-46 -165,-75 -300,-52 -64,11 -102,30 -102,52l0 120c1,46 165,75 300,52 64,-11 102,-30 102,-52l0 -120z"/>
  <path class="fil0" d="M7429 9543c-1,-47 -165,-77 -300,-54 -64,11 -102,31 -102,54l0 124c1,47 165,77 300,54 64,-11 102,-31 102,-54l0 -124zm0 495c-1,-47 -165,-77 -300,-54 -64,11 -102,31 -102,54l0 124c1,47 165,77 300,54 64,-11 102,-31 102,-54l0 -124zm0 495c-1,-47 -165,-77 -300,-54 -64,11 -102,31 -102,54l0 124c1,47 165,77 300,54 64,-11 102,-31 102,-54l0 -124zm0 495c-1,-47 -165,-77 -300,-54 -64,11 -102,31 -102,54l0 124c1,47 165,77 300,54 64,-11 102,-31 102,-54l0 -124z"/>
 </g>
</svg>
