<?xml version="1.0" encoding="UTF-8"?>
<!DOCTYPE svg PUBLIC "-//W3C//DTD SVG 1.1//EN" "http://www.w3.org/Graphics/SVG/1.1/DTD/svg11.dtd">
<!-- Creator: CorelDRAW 2017 -->
<svg xmlns="http://www.w3.org/2000/svg" xml:space="preserve" width="143mm" height="143mm" version="1.1" style="shape-rendering:geometricPrecision; text-rendering:geometricPrecision; image-rendering:optimizeQuality; fill-rule:evenodd; clip-rule:evenodd"
viewBox="0 0 14300 14300"
 xmlns:xlink="http://www.w3.org/1999/xlink">
 <defs>
  <style type="text/css">
   <![CDATA[
    .fil3 {fill:black}
    .fil4 {fill:gray}
    .fil0 {fill:#998293}
    .fil5 {fill:#A60000}
    .fil1 {fill:#CCCCCC}
    .fil2 {fill:white}
   ]]>
  </style>
 </defs>
 <g id="Слой_x0020_1">
  <metadata id="CorelCorpID_0Corel-Layer"/>
  <path class="fil0" d="M4347 3038c-315,-25 -704,45 -977,514 -272,469 -428,1337 -590,2201 -162,864 -332,1725 -483,2540 -152,815 -286,1584 -381,2127 -95,543 -152,861 -102,1072 49,212 205,318 730,377 526,60 1422,74 2298,98 877,24 1734,58 2524,54 790,-4 1514,-44 1925,-135 411,-91 510,-232 704,-619 194,-387 485,-1020 674,-1505 189,-485 278,-823 267,-1798 -11,-975 -122,-2588 -226,-3467 -104,-879 -201,-1024 -777,-1104 -575,-79 -1628,-92 -2507,-96 -879,-4 -1583,2 -2055,-55 -472,-58 -711,-179 -1026,-205z"/>
  <path class="fil1" d="M10742 3188c91,44 196,121 253,243 57,121 65,287 65,1138 0,851 -8,2388 -12,3354 -4,966 -4,1363 -12,1609 -8,247 -24,344 -79,425 -55,81 -148,146 -301,176 -154,30 -368,26 -1365,22 -997,-4 -2776,-8 -3759,-12 -983,-4 -1169,-8 -1296,-32 -127,-24 -196,-69 -243,-233 -47,-164 -71,-447 -81,-1510 -10,-1063 -6,-2907 5,-3873 11,-966 29,-1054 74,-1127 45,-73 117,-132 187,-171 70,-39 137,-58 244,-66 106,-8 252,-4 1188,-4 936,0 2663,-4 3609,-6 946,-2 1112,-2 1233,4 121,6 198,18 289,63z"/>
  <path class="fil2" d="M9560 4367c119,3 286,8 392,24 107,15 154,40 190,86 36,46 61,112 73,449 12,337 12,944 10,1501 -3,557 -8,1064 -17,1386 -8,322 -19,457 -43,552 -24,94 -60,147 -223,172 -164,25 -455,22 -805,21 -351,-1 -761,-1 -991,-10 -230,-8 -280,-25 -313,-65 -33,-40 -50,-104 -58,-342 -8,-238 -8,-651 -11,-1238 -3,-586 -8,-1346 1,-1773 10,-427 35,-521 79,-588 44,-67 108,-105 220,-129 112,-24 273,-32 486,-37 213,-6 480,-8 649,-10 169,-1 241,-1 360,1z"/>
  <path class="fil1" d="M10059 5053c22,82 33,237 37,559 4,322 1,809 -4,1069 -6,259 -14,290 -53,243 -39,-47 -108,-172 -236,-313 -128,-141 -313,-299 -534,-403 -220,-104 -475,-154 -708,-169 -233,-15 -443,4 -553,-73 -110,-78 -118,-252 -119,-425 -1,-173 4,-345 17,-443 12,-98 32,-123 208,-134 176,-11 509,-8 844,-7 335,1 674,1 859,6 186,4 219,12 241,94z"/>
  <path class="fil2" d="M5452 8887c-119,-3 -285,-8 -392,-24 -107,-15 -154,-40 -190,-86 -36,-46 -61,-112 -73,-449 -12,-337 -12,-944 -10,-1501 3,-557 8,-1064 17,-1386 8,-322 19,-457 43,-552 24,-94 60,-147 223,-172 164,-25 455,-22 805,-21 351,1 761,1 991,10 230,8 280,25 313,65 33,40 50,104 58,342 8,238 8,651 11,1238 3,586 8,1346 -1,1773 -10,427 -35,521 -79,588 -44,67 -108,105 -220,129 -112,24 -273,32 -486,37 -213,6 -480,8 -649,10 -169,1 -241,1 -360,-1z"/>
  <path class="fil1" d="M4953 8201c-22,-82 -33,-237 -37,-559 -4,-322 -1,-809 4,-1069 6,-259 14,-290 53,-243 39,47 108,172 236,313 128,141 313,299 534,403 220,104 475,154 708,169 233,15 443,-4 553,73 109,78 118,252 119,425 1,173 -4,345 -17,443 -12,98 -32,123 -208,134 -176,11 -509,8 -844,7 -335,-1 -674,-1 -859,-6 -186,-4 -219,-12 -241,-94z"/>
  <path class="fil3" d="M6865 4707c-230,-8 -640,-8 -991,-10 -351,-1 -642,-4 -805,21 -164,25 -200,78 -223,172 -24,94 -35,230 -43,552 -8,322 -14,829 -17,1386 -3,557 -3,1164 10,1501 12,337 37,403 73,449 36,46 83,71 190,86 107,15 273,21 392,24 119,3 191,3 360,1 169,-1 435,-4 649,-10 213,-6 374,-14 486,-37 112,-24 176,-62 220,-129 44,-67 69,-161 79,-588 10,-427 4,-1186 1,-1773 -3,-586 -3,-999 -11,-1238 -8,-238 -25,-302 -58,-342 -33,-40 -83,-57 -313,-65zm-2127 4098c-40,-60 -51,-121 -57,-521 -6,-401 -6,-1141 -6,-1809 0,-668 0,-1264 6,-1585 6,-322 17,-369 61,-424 44,-55 122,-119 201,-154 79,-35 159,-40 475,-47 316,-7 868,-15 1209,-8 341,7 471,29 556,80 85,51 123,132 150,212 26,80 40,161 43,725 3,564 -6,1612 -10,2259 -4,647 -4,894 -19,1052 -15,158 -46,227 -101,279 -55,51 -136,85 -345,103 -209,18 -547,21 -879,24 -331,3 -656,6 -838,4 -183,-1 -225,-7 -280,-39 -55,-32 -125,-90 -165,-150z"/>
  <path class="fil3" d="M7636 7980c3,564 17,644 43,725 26,80 65,161 150,212 85,51 215,73 556,80 341,7 893,-1 1209,-8 316,-7 396,-12 475,-47 79,-35 157,-98 201,-154 44,-55 55,-103 61,-424 6,-322 6,-917 6,-1585 0,-668 0,-1408 -6,-1809 -6,-401 -17,-462 -57,-521 -40,-60 -109,-118 -165,-150 -55,-32 -97,-37 -280,-39 -183,-1 -507,1 -838,4 -331,3 -669,6 -879,24 -209,18 -290,51 -345,103 -55,51 -86,121 -101,279 -15,158 -15,405 -19,1052 -4,647 -12,1695 -10,2259zm1501 577c-351,-1 -761,-1 -991,-10 -230,-8 -280,-25 -313,-65 -33,-40 -50,-104 -58,-342 -8,-238 -8,-651 -11,-1238 -3,-586 -8,-1346 1,-1773 10,-427 35,-521 79,-588 44,-67 108,-105 220,-129 112,-24 273,-32 486,-37 213,-6 480,-8 649,-10 169,-1 241,-1 360,1 119,3 285,8 392,24 107,15 154,40 190,86 36,46 61,112 73,449 12,337 12,944 10,1501 -3,557 -8,1064 -17,1386 -8,322 -19,457 -43,552 -24,94 -60,147 -223,172 -164,25 -455,22 -805,21z"/>
  <path class="fil4" d="M10804 5064c-52,791 -60,2377 -76,3238 -16,861 -40,998 -121,1095 -81,98 -218,157 -1251,175 -1033,18 -2962,-4 -3955,-24 -993,-20 -1049,-39 -1094,-179 -44,-140 -77,-402 -101,-1245 -24,-843 -40,-2266 -61,-3008 -20,-741 -44,-800 -80,-832 -36,-32 -82,-36 -111,338 -28,374 -38,1128 -38,1996 0,869 9,1853 21,2410 12,557 26,686 49,785 23,98 55,166 114,213 59,47 144,73 332,89 189,16 481,21 1292,26 811,5 2142,9 2991,11 849,2 1217,3 1460,0 243,-3 361,-11 471,-41 109,-30 210,-84 271,-142 61,-58 83,-121 98,-460 15,-339 24,-953 30,-1816 6,-862 9,-1972 9,-2583 0,-610 -3,-721 -53,-779 -49,-57 -145,-61 -197,730z"/>
  <path class="fil2" d="M10704 3764c40,-87 36,-233 -18,-323 -55,-91 -160,-127 -867,-144 -708,-16 -2018,-12 -3037,-6 -1019,6 -1747,14 -2129,26 -382,12 -419,28 -386,53 32,24 133,57 873,65 740,8 2119,-8 3061,12 942,20 1448,77 1725,131 277,55 326,107 382,162 57,55 121,111 196,125 75,14 160,-14 200,-101z"/>
  <path class="fil5" d="M11074 7932c28,239 84,831 130,1251 46,420 81,667 28,871 -53,205 -194,367 -497,420 -303,53 -769,-4 -1129,-32 -360,-28 -614,-28 -931,-28 -318,0 -698,0 -910,42 -212,42 -254,127 -286,226 -32,99 -53,212 -131,282 -78,71 -212,99 -303,18 -92,-81 -141,-272 -208,-392 -67,-120 -152,-169 -363,-187 -212,-18 -550,-4 -843,11 -293,14 -540,28 -769,35 -229,7 -441,7 -582,46 -141,39 -212,116 -272,95 -60,-21 -109,-141 -117,-352 -8,-211 26,-513 37,-820 11,-307 -1,-619 39,-554 40,65 131,508 296,748 166,240 405,277 1002,303 596,26 1549,40 2455,36 907,-4 1767,-25 2247,-60 480,-35 579,-85 653,-123 74,-39 123,-67 190,-239 67,-172 151,-487 194,-778 43,-292 44,-560 44,-752 0,-192 0,-307 28,-68z"/>
  <path class="fil5" d="M7332 11652c48,138 108,349 113,543 5,194 -44,370 -143,450 -99,79 -247,62 -305,-34 -58,-95 -26,-268 7,-434 34,-166 69,-325 101,-443 32,-118 60,-196 78,-247 18,-51 25,-76 46,-56 21,19 56,83 104,220z"/>
  <path class="fil5" d="M7299 8233c-25,51 -57,212 -94,348 -38,136 -81,248 -329,312 -249,64 -702,82 -1081,73 -378,-9 -680,-43 -844,-74 -164,-31 -188,-59 -166,-16 22,43 92,155 238,231 146,76 368,115 608,115 240,0 497,-39 723,-65 226,-26 420,-41 568,-34 148,7 250,35 316,26 65,-9 93,-55 101,-130 8,-75 -5,-180 4,-291 9,-111 39,-229 46,-301 6,-73 -11,-101 -29,-144 -18,-43 -35,-100 -60,-49z"/>
  <path class="fil5" d="M3589 2551c-60,-102 -250,-356 -416,-508 -166,-152 -307,-201 -388,-169 -81,32 -102,145 -21,258 81,113 265,226 406,296 141,71 240,99 325,138 85,39 155,88 95,-14z"/>
  <path class="fil5" d="M2533 2430c-97,-51 -323,-153 -483,-205 -161,-51 -256,-51 -307,-2 -51,49 -58,148 19,199 78,51 240,55 388,56 148,2 282,2 365,2 83,0 115,0 18,-51z"/>
  <path class="fil5" d="M11526 3482c42,-71 166,-226 288,-326 122,-101 242,-146 358,-141 116,5 229,62 249,127 19,65 -55,139 -168,199 -113,60 -265,106 -386,134 -122,28 -213,39 -279,51 -65,12 -104,26 -62,-44z"/>
 </g>
</svg>
