<?xml version="1.0" encoding="UTF-8"?>
<!DOCTYPE svg PUBLIC "-//W3C//DTD SVG 1.1//EN" "http://www.w3.org/Graphics/SVG/1.1/DTD/svg11.dtd">
<!-- Creator: CorelDRAW 2017 -->
<svg xmlns="http://www.w3.org/2000/svg" xml:space="preserve" width="143mm" height="143mm" version="1.1" style="shape-rendering:geometricPrecision; text-rendering:geometricPrecision; image-rendering:optimizeQuality; fill-rule:evenodd; clip-rule:evenodd"
viewBox="0 0 14300 14300"
 xmlns:xlink="http://www.w3.org/1999/xlink">
 <defs>
  <style type="text/css">
   <![CDATA[
    .str0 {stroke:black;stroke-width:75;stroke-linecap:round;stroke-linejoin:round}
    .fil5 {fill:none}
    .fil6 {fill:black}
    .fil1 {fill:black}
    .fil3 {fill:#4D4D4D}
    .fil0 {fill:#A3313C}
    .fil2 {fill:#A60000}
    .fil4 {fill:white}
   ]]>
  </style>
 </defs>
 <g id="Слой_x0020_1">
  <metadata id="CorelCorpID_0Corel-Layer"/>
  <path class="fil0" d="M6072 12751c306,7 742,16 1281,-3 540,-20 1184,-68 1678,-142 494,-74 838,-174 1235,-285 397,-112 847,-235 1160,-354 313,-119 489,-234 578,-538 88,-304 88,-798 -35,-1292 -123,-494 -370,-988 -635,-1364 -264,-376 -545,-633 -779,-913 -233,-279 -418,-580 -330,-927 88,-347 448,-742 650,-1155 202,-413 246,-845 198,-1269 -49,-423 -190,-838 -498,-1058 -309,-220 -785,-247 -1058,-260 -273,-13 -344,-13 -181,-251 163,-238 560,-714 723,-944 163,-229 93,-212 -229,-150 -322,62 -895,168 -1173,97 -278,-71 -260,-318 -273,-489 -13,-172 -57,-269 -207,-295 -150,-26 -406,18 -670,123 -265,106 -538,273 -842,318 -304,44 -639,-35 -1098,-26 -459,9 -1041,106 -1486,295 -445,190 -754,472 -970,781 -216,309 -340,644 -269,961 71,318 335,617 556,842 220,225 397,375 388,564 -9,190 -203,419 -370,679 -168,260 -309,551 -300,860 9,309 168,635 335,948 168,313 344,613 220,1010 -123,397 -547,891 -886,1274 -340,384 -595,657 -745,953 -150,295 -194,613 -97,864 97,251 335,437 666,575 331,139 754,231 1080,306 326,74 554,130 825,169 271,39 585,60 831,73 246,13 423,17 730,24z"/>
  <path class="fil1" d="M5008 11160c-344,-162 -428,-302 -456,-387 -28,-85 -1,-113 38,-145 39,-32 89,-67 146,-99 57,-31 120,-58 209,-100 89,-41 202,-97 344,-246 142,-149 313,-390 401,-589 89,-199 95,-355 92,-486 -3,-131 -17,-236 -78,-322 -61,-86 -169,-154 -289,-264 -120,-111 -250,-265 -369,-492 -118,-227 -224,-529 -284,-863 -60,-334 -75,-701 -22,-1087 54,-386 176,-792 337,-1083 162,-291 363,-466 655,-613 291,-147 673,-265 1082,-259 409,6 846,135 1159,484 313,348 502,916 595,1387 93,472 90,848 40,1156 -50,308 -147,549 -268,775 -120,227 -264,440 -402,577 -138,137 -271,196 -329,270 -57,74 -39,163 -30,295 9,132 10,306 81,498 71,192 212,401 357,535 145,135 294,195 430,230 136,36 260,47 345,50 85,3 132,-2 166,31 34,33 55,104 -35,241 -90,136 -290,338 -702,521 -412,183 -1036,347 -1650,338 -614,-9 -1218,-192 -1562,-353z"/>
  <path class="fil1" d="M4983 11031c19,116 144,293 204,481 59,189 53,389 37,520 -15,132 -39,194 -63,255 -24,61 -48,120 41,191 89,72 290,156 560,210 270,54 608,78 1019,86 411,8 895,1 1285,-65 390,-66 686,-189 845,-274 158,-85 178,-131 169,-194 -9,-62 -48,-141 -76,-250 -28,-109 -44,-249 -46,-408 -1,-160 12,-339 22,-480 10,-140 16,-241 -61,-323 -76,-82 -235,-145 -492,-214 -257,-69 -613,-143 -964,-188 -351,-45 -698,-60 -1016,-18 -319,43 -609,143 -823,227 -214,84 -350,150 -462,211 -112,60 -199,115 -179,230z"/>
  <path class="fil1" d="M5466 10200c-74,35 -178,98 -268,141 -90,43 -165,65 -258,96 -93,31 -202,69 -314,154 -112,85 -226,216 -324,404 -98,188 -181,432 -236,675 -55,242 -84,483 -96,620 -12,137 -7,172 20,214 27,43 75,94 258,133 184,39 503,67 795,83 292,16 557,21 734,25 177,3 265,5 332,6 67,1 114,2 -1,-114 -115,-116 -391,-348 -528,-540 -137,-192 -135,-342 -133,-517 2,-175 4,-374 -4,-527 -8,-153 -25,-262 11,-372 37,-110 128,-222 182,-296 54,-73 71,-108 64,-140 -7,-32 -38,-62 -76,-74 -38,-12 -83,-6 -158,28z"/>
  <path class="fil1" d="M10292 8730c36,-30 81,-63 118,-80 37,-18 65,-21 96,-24 31,-3 65,-5 97,-31 32,-27 63,-78 120,-206 57,-128 142,-334 193,-464 51,-130 70,-185 72,-234 2,-49 -14,-93 -64,-140 -50,-46 -133,-95 -234,-164 -101,-69 -220,-158 -350,-233 -130,-75 -271,-135 -387,-174 -116,-39 -206,-58 -280,-61 -74,-2 -130,12 -177,35 -47,23 -84,53 -106,86 -22,33 -30,69 -30,90 0,22 7,29 25,46 18,17 48,43 46,49 -1,7 -34,-5 -73,-9 -39,-4 -86,0 -118,11 -32,11 -51,28 -74,56 -24,27 -52,64 -68,102 -16,38 -20,77 0,111 20,34 63,65 60,70 -2,6 -50,-13 -90,-17 -40,-4 -72,6 -97,30 -25,24 -42,61 -53,102 -11,41 -15,85 -10,119 5,33 18,55 4,70 -14,14 -54,21 -87,55 -33,34 -59,94 -65,154 -6,60 7,120 62,170 55,50 151,91 258,128 107,37 226,69 303,102 77,33 111,67 121,109 9,41 -7,90 -70,156 -63,66 -173,151 -249,225 -76,74 -116,139 -139,203 -22,63 -27,126 -6,195 21,69 66,145 119,196 53,51 114,76 153,74 39,-3 57,-34 64,-73 7,-39 5,-84 21,-133 16,-48 51,-99 108,-159 57,-60 137,-129 213,-178 76,-49 148,-78 228,-122 80,-43 169,-101 226,-143 57,-42 83,-68 119,-98z"/>
  <path class="fil1" d="M10702 7396c70,50 153,109 248,183 95,74 203,163 334,302 131,139 285,329 443,530 157,202 318,416 464,643 146,228 278,469 382,693 104,224 178,432 176,601 -2,170 -82,302 -304,476 -223,174 -589,390 -997,564 -409,174 -860,305 -1205,397 -345,92 -583,145 -717,211 -134,66 -165,146 -231,209 -66,63 -167,110 -274,162 -107,53 -221,112 -347,163 -126,51 -265,94 -363,99 -98,4 -155,-30 -206,-170 -51,-141 -95,-388 -88,-619 7,-232 64,-449 150,-667 86,-219 200,-439 279,-574 80,-135 124,-184 176,-206 51,-22 109,-17 153,-14 43,3 72,4 188,2 116,-2 321,-7 557,-10 237,-3 506,-3 736,-20 230,-17 421,-51 587,-95 166,-44 307,-96 364,-209 57,-113 29,-286 -14,-436 -43,-150 -100,-276 -173,-417 -73,-141 -161,-297 -241,-396 -80,-99 -152,-141 -222,-150 -70,-10 -140,13 -203,-34 -63,-47 -121,-165 -147,-261 -27,-96 -22,-171 7,-277 29,-106 82,-243 135,-355 53,-112 106,-201 134,-273 28,-72 31,-128 62,-136 30,-8 88,32 158,82z"/>
  <ellipse class="fil2" transform="matrix(0.988149 0.533666 -0.357889 0.93524 7124.18 6382.77)" rx="238" ry="251"/>
  <ellipse class="fil2" transform="matrix(-0.995675 0.174775 0.0612256 1.03929 5847.22 6394.95)" rx="238" ry="251"/>
  <path class="fil3" d="M6189 6128c-168,-273 -552,-630 -910,-469 143,118 725,388 910,469z"/>
  <path class="fil3" d="M6731 6149c154,-285 528,-669 916,-536 -140,128 -728,442 -916,536z"/>
  <path class="fil4" d="M7334 7922c-19,-63 -54,-161 -106,-247 -52,-86 -121,-159 -209,-219 -88,-60 -194,-105 -308,-131 -114,-25 -236,-31 -354,-14 -117,17 -229,56 -321,120 -92,64 -163,154 -211,254 -48,100 -72,210 -83,285 -10,75 -6,116 6,130 12,14 33,2 79,-24 47,-26 120,-67 250,-104 129,-37 315,-69 473,-80 158,-11 288,-1 395,20 107,21 191,54 255,87 64,33 109,65 132,73 23,7 25,-11 24,-34 -1,-23 -5,-52 -24,-116z"/>
  <polyline class="fil5 str0" points="7228,7675 7089,7814 6879,7579 6668,7777 6463,7499 6271,7810 6086,7572 5953,7876 5813,7716 "/>
  <path class="fil6" d="M6167 3986c-37,-30 -752,-1040 -647,-1117 21,-15 706,-39 917,-47 -280,-1099 -382,-966 708,-414 112,-172 403,-648 577,-801 3,-10 5,-17 7,-20l9 6c38,-30 70,-43 91,-28 43,28 35,67 18,101l1 0 -3 4 -3 5c-78,804 -45,468 -116,1162 291,-171 1017,-597 1075,-540 65,64 -455,938 -582,1157 1112,450 1089,217 -58,966l0 0c531,-416 287,-230 782,-598 -189,-71 -801,-300 -817,-316 -44,-45 306,-688 487,-1014 -318,192 -940,563 -1001,523 -55,-36 6,-687 61,-1098 -575,844 -318,761 -1286,239 54,229 165,702 161,722 -16,78 -647,64 -905,59 309,611 116,304 527,1048z"/>
  <path class="fil1" d="M8576 4589c169,-55 552,-168 779,-218 227,-51 298,-40 318,-20 20,20 -11,49 -133,82 -122,33 -336,71 -525,106 -189,35 -352,68 -456,86 -105,18 -151,20 18,-35z"/>
  <path class="fil1" d="M5374 3969c-95,-117 -333,-395 -506,-593 -173,-198 -281,-318 -351,-373 -69,-55 -100,-46 -109,-13 -9,33 4,90 109,205 105,115 301,287 459,430 158,143 277,258 361,337 84,79 132,123 37,7z"/>
  <path class="fil1" d="M5095 4168c-158,-106 -513,-333 -709,-446 -196,-114 -234,-114 -252,-92 -19,22 -19,66 37,116 56,50 169,105 312,173 143,68 318,150 438,206 120,56 186,87 239,110 53,23 93,39 -65,-67z"/>
 </g>
</svg>
