<?xml version="1.0" encoding="UTF-8"?>
<!DOCTYPE svg PUBLIC "-//W3C//DTD SVG 1.1//EN" "http://www.w3.org/Graphics/SVG/1.1/DTD/svg11.dtd">
<!-- Creator: CorelDRAW 2017 -->
<svg xmlns="http://www.w3.org/2000/svg" xml:space="preserve" width="143mm" height="143mm" version="1.1" style="shape-rendering:geometricPrecision; text-rendering:geometricPrecision; image-rendering:optimizeQuality; fill-rule:evenodd; clip-rule:evenodd"
viewBox="0 0 14300 14300"
 xmlns:xlink="http://www.w3.org/1999/xlink">
 <defs>
  <style type="text/css">
   <![CDATA[
    .fil1 {fill:black}
    .fil7 {fill:black}
    .fil13 {fill:#000066}
    .fil11 {fill:#2BABE4}
    .fil3 {fill:#333333}
    .fil8 {fill:#4A94CE}
    .fil9 {fill:#4D4D4D}
    .fil10 {fill:#6666FF}
    .fil5 {fill:#6E2D17}
    .fil6 {fill:#6E2D17}
    .fil2 {fill:gray}
    .fil14 {fill:#A60000}
    .fil0 {fill:#B3B3B3}
    .fil4 {fill:#FF6633}
    .fil12 {fill:#FFFF66}
   ]]>
  </style>
 </defs>
 <g id="Слой_x0020_1">
  <metadata id="CorelCorpID_0Corel-Layer"/>
  <path class="fil0" d="M13006 5638c-614,254 -1781,751 -2636,1116 -855,366 -1399,600 -1637,785 -238,185 -171,319 548,718 720,399 2092,1063 2935,1473 844,409 1159,564 1374,664 215,101 329,148 285,195 -44,47 -245,94 -461,121 -216,27 -448,34 -527,111 -79,77 -5,225 96,362 101,138 228,265 329,392 101,127 174,255 128,343 -46,88 -213,136 -372,137 -159,1 -309,-44 -361,-20 -52,24 -5,118 25,225 30,107 44,228 -32,237 -75,8 -240,-96 -403,-161 -163,-65 -324,-92 -364,-39 -40,54 40,188 158,366 117,178 272,399 171,395 -101,-4 -458,-233 -1162,-598 -704,-365 -1755,-864 -2763,-1350 -1008,-485 -1973,-956 -2627,-1267 -655,-311 -999,-463 -1276,-515 -277,-51 -485,-2 -704,63 -219,66 -448,148 -831,346 -383,198 -920,513 -1227,647 -307,134 -385,88 -287,-63 98,-152 371,-409 481,-625 110,-216 56,-390 -135,-442 -191,-51 -520,21 -628,-5 -108,-26 5,-149 100,-266 95,-116 173,-226 93,-303 -79,-78 -316,-123 -513,-251 -197,-128 -354,-337 -384,-468 -30,-131 67,-183 221,-266 153,-82 363,-195 525,-282 162,-87 276,-149 385,-205 110,-55 215,-104 79,-217 -135,-113 -511,-292 -781,-440 -270,-148 -434,-266 -469,-350 -35,-84 58,-133 207,-195 149,-62 353,-137 411,-289 58,-151 -29,-378 -62,-720 -34,-342 -13,-798 40,-982 54,-185 141,-97 453,121 312,218 849,567 1338,855 489,288 931,517 1338,563 408,46 781,-89 1564,-373 783,-283 1975,-714 3049,-1103 1075,-388 2032,-734 2688,-921 656,-186 1012,-213 1109,-170 97,44 -64,158 -54,221 10,64 191,77 403,47 211,-30 453,-104 634,-101 181,3 302,84 272,164 -30,81 -211,161 -389,285 -178,124 -352,292 -382,436 -30,144 84,265 285,278 201,13 490,-81 611,-87 121,-7 74,74 -57,171 -131,97 -345,211 -448,324 -102,112 -92,223 -12,279 80,55 230,55 306,105 75,49 75,148 45,203 -30,55 -90,67 -704,321z"/>
  <path class="fil1" d="M10610 4532c262,-106 755,-328 1100,-488 345,-160 543,-259 625,-305 82,-46 49,-38 -102,22 -152,60 -423,174 -750,305 -327,131 -712,280 -874,327 -163,48 -104,-6 99,-108 203,-102 551,-252 862,-393 311,-141 585,-273 836,-392 251,-119 477,-225 461,-236 -16,-11 -276,73 -584,201 -307,128 -662,300 -929,415 -267,115 -446,174 -455,158 -9,-16 152,-108 342,-202 190,-93 410,-189 529,-245 119,-57 137,-75 82,-59 -55,16 -183,68 -414,158 -231,90 -565,220 -804,348 -240,128 -385,255 -453,339 -68,85 -58,127 -45,160 13,33 29,57 54,68 25,11 60,11 94,15 34,5 66,15 329,-91z"/>
  <path class="fil1" d="M11628 5555c262,-106 755,-328 1100,-488 345,-160 543,-259 625,-305 82,-46 49,-38 -102,22 -152,60 -423,174 -750,305 -327,131 -712,280 -874,327 -163,48 -104,-6 99,-108 203,-102 551,-252 862,-393 311,-141 585,-273 836,-392 251,-119 478,-225 461,-236 -16,-11 -276,73 -584,201 -307,128 -662,300 -929,415 -267,115 -446,174 -455,158 -9,-16 152,-108 342,-201 190,-93 410,-189 529,-245 119,-57 137,-75 82,-59 -55,16 -183,68 -414,158 -231,90 -565,220 -804,348 -240,128 -385,255 -453,339 -68,85 -58,127 -45,160 13,33 29,57 54,68 25,11 60,11 94,15 34,5 66,15 329,-91z"/>
  <path class="fil1" d="M8648 5641c-4,-131 -39,-271 -90,-374 -52,-103 -120,-170 -208,-209 -87,-39 -192,-49 -284,-39 -91,11 -169,43 -247,99 -79,56 -158,136 -225,237 -67,101 -120,224 -161,362 -41,139 -69,294 -81,418 -5,57 -7,107 -10,150 81,5 180,-1 301,-20 204,-33 470,-105 956,-249 3,-12 6,-26 9,-41 18,-82 44,-204 40,-336z"/>
  <path class="fil1" d="M11131 4724c-40,145 -85,345 -112,461 -8,34 -14,61 -20,83 293,-99 482,-171 610,-226 157,-68 222,-111 261,-156 12,-60 24,-136 26,-206 2,-101 -17,-191 -46,-266 -29,-74 -68,-132 -108,-170 -40,-38 -81,-55 -126,-59 -45,-4 -95,4 -158,42 -63,38 -141,104 -197,183 -56,79 -90,169 -130,314z"/>
  <path class="fil1" d="M9160 9375c1,12 -28,21 -91,18 -62,-2 -158,-16 -493,-156 -335,-140 -910,-407 -1443,-671 -533,-264 -1024,-526 -1273,-663 -250,-137 -258,-149 -203,-126 55,23 173,80 449,210 276,130 711,333 1071,500 361,167 647,298 923,424 275,126 539,246 703,316 164,69 228,88 276,104 48,17 80,32 81,43z"/>
  <path class="fil1" d="M11410 10528c3,31 -75,54 -256,17 -181,-37 -464,-135 -1346,-538 -882,-403 -2361,-1111 -3760,-1782 -1399,-670 -2717,-1303 -3387,-1634 -670,-332 -693,-363 -547,-303 146,61 460,213 1193,558 733,345 1885,883 2842,1327 957,443 1718,792 2449,1126 731,334 1431,654 1866,837 435,184 604,232 732,276 127,44 212,84 215,115z"/>
  <path class="fil2" d="M11766 9150c-3,55 -6,159 -3,229 3,70 12,104 24,118 12,14 28,6 43,-13 15,-19 28,-51 36,-101 8,-51 11,-121 10,-173 -1,-53 -4,-88 -13,-109 -8,-21 -21,-27 -37,-28 -16,0 -35,6 -45,11 -11,6 -13,11 -16,66z"/>
  <path class="fil3" d="M11857 9974c2,-32 5,-85 11,-155 6,-70 15,-156 22,-227 7,-71 11,-128 9,-167 -2,-39 -11,-59 -38,-60 -27,0 -72,20 -102,48 -30,28 -45,65 -54,113 -8,47 -10,105 -6,165 4,60 15,124 26,177 11,53 23,96 44,120 21,24 51,30 67,29 16,-2 18,-11 20,-43z"/>
  <path class="fil2" d="M11438 9853c-4,22 -7,42 -5,62 2,21 10,43 28,59 18,17 47,28 70,29 23,1 39,-7 50,-13 11,-6 16,-9 23,-6 7,3 17,12 29,21 12,9 26,18 36,28 11,10 18,22 19,34 1,12 -5,24 -4,34 1,10 7,18 22,22 15,3 38,1 59,-12 21,-13 41,-36 52,-58 11,-23 15,-45 6,-60 -9,-15 -30,-23 -47,-31 -17,-8 -29,-15 -45,-31 -15,-16 -34,-40 -48,-61 -14,-21 -24,-40 -33,-54 -9,-14 -17,-24 -30,-36 -13,-12 -29,-28 -48,-33 -19,-5 -40,0 -60,8 -20,8 -40,19 -52,35 -13,17 -18,40 -23,62z"/>
  <path class="fil1" d="M11538 10130c109,-34 212,-87 297,-152 85,-65 152,-141 178,-205 26,-64 10,-115 -33,-148 -43,-33 -112,-46 -197,-44 -85,2 -186,20 -281,57 -95,37 -185,93 -247,142 -62,49 -95,92 -124,138 -29,46 -54,95 -41,141 12,46 62,89 143,103 82,15 196,1 305,-33zm31 -638c135,-52 289,-88 419,-78 130,10 235,66 296,158 61,92 76,220 36,348 -40,128 -137,256 -267,363 -130,108 -294,195 -455,234 -161,39 -321,30 -445,-16 -124,-46 -214,-129 -239,-234 -25,-105 16,-233 75,-335 59,-101 138,-177 234,-248 96,-72 211,-140 345,-192z"/>
  <path class="fil1" d="M9733 8915c7,86 -20,183 -76,270 -56,87 -141,166 -268,221 -127,55 -295,86 -450,85 -155,-1 -296,-35 -398,-92 -102,-57 -165,-138 -195,-216 -30,-78 -28,-155 3,-228 31,-73 92,-142 173,-203 81,-61 182,-112 285,-144 103,-32 209,-43 313,-45 104,-2 207,5 294,25 87,20 159,54 215,109 56,55 96,131 103,217zm-855 209c77,8 172,12 267,-1 95,-12 189,-40 256,-76 67,-36 106,-80 119,-123 13,-43 1,-86 -22,-117 -24,-31 -58,-52 -110,-70 -52,-19 -120,-35 -212,-41 -92,-6 -209,-2 -308,24 -99,25 -179,71 -224,118 -45,47 -54,95 -41,137 12,42 46,78 92,103 47,25 106,38 183,47z"/>
  <path class="fil3" d="M8938 8821c-35,2 -72,7 -104,20 -32,13 -58,34 -72,57 -13,23 -14,49 2,73 16,24 48,47 99,59 51,13 121,15 175,8 54,-7 93,-25 118,-49 25,-25 35,-56 30,-81 -5,-25 -26,-44 -53,-57 -27,-13 -62,-21 -95,-26 -33,-5 -65,-6 -100,-4z"/>
  <path class="fil4" d="M8957 8818c34,2 84,4 219,33 135,29 353,84 476,112 123,29 150,31 167,24 17,-7 25,-22 13,-58 -12,-35 -45,-90 -79,-142 -35,-52 -71,-100 -173,-183 -102,-83 -269,-201 -437,-318 1,-8 2,-16 1,-38 -2,-22 -6,-59 -11,-96 44,13 87,27 112,24 25,-3 30,-22 31,-36 1,-14 -2,-23 -11,-32 -9,-9 -24,-18 -38,-27 0,-9 0,-18 0,-27 85,37 170,74 258,127 88,53 179,123 240,158 62,35 94,36 158,48 64,12 159,34 244,57 85,22 160,45 286,85 126,40 302,99 413,137 111,39 157,58 213,62 56,4 122,-7 179,-12 57,-5 104,-4 148,10 44,14 86,41 126,77 40,36 78,81 106,125 29,44 48,88 66,106 18,18 35,10 69,-1 35,-11 87,-26 145,-33 58,-7 120,-7 190,4 70,12 146,35 212,71 66,36 120,84 162,138 41,54 69,113 97,172 -29,-6 -58,-11 -93,-20 -35,-8 -75,-20 -111,-44 -36,-24 -67,-61 -103,-91 -36,-30 -76,-52 -128,-64 -52,-12 -116,-15 -194,-8 -78,6 -170,21 -258,52 -89,31 -174,80 -239,134 -66,54 -112,115 -140,161 -29,46 -40,77 -49,95 -9,18 -16,22 -34,21 -18,-1 -49,-8 -72,-20 -23,-12 -39,-28 -65,-42 -26,-13 -63,-24 -122,-24 -59,-1 -140,8 -263,28 -124,20 -291,50 -437,34 -146,-16 -272,-79 -357,-118 -85,-39 -130,-53 -161,-72 -31,-19 -47,-42 -78,-49 -31,-7 -78,3 -107,5 -29,2 -42,-4 -44,-26 -2,-21 6,-58 25,-88 20,-30 51,-54 63,-72 12,-18 4,-30 -39,-55 -43,-25 -122,-63 -194,-94 -73,-31 -140,-54 -217,-76 -77,-21 -163,-40 -207,-62 -44,-22 -45,-47 -41,-61 3,-14 11,-17 24,-18 12,-1 29,2 63,4z"/>
  <path class="fil2" d="M11522 8921c-11,88 -22,259 -28,362 -5,103 -5,139 13,161 17,22 51,32 74,-10 23,-41 34,-133 42,-215 7,-81 11,-152 10,-207 -1,-55 -6,-94 -15,-119 -9,-25 -21,-37 -32,-47 -11,-9 -21,-16 -31,-17 -10,-1 -21,3 -32,91z"/>
  <path class="fil3" d="M11653 9263c-22,-9 -69,1 -110,22 -41,20 -76,51 -102,93 -27,42 -45,97 -56,153 -11,56 -14,115 -15,169 -1,54 1,105 19,132 18,27 51,31 89,26 37,-5 78,-20 103,-38 25,-18 34,-38 40,-78 6,-40 8,-98 16,-170 8,-72 21,-157 29,-214 8,-57 11,-86 -11,-96z"/>
  <path class="fil5" d="M9648 9344c77,-3 183,-5 241,21 58,27 69,83 153,124 84,41 241,68 415,58 174,-10 366,-57 484,-93 118,-36 163,-60 195,-31 33,29 53,112 73,195 -200,65 -401,130 -535,171 -134,41 -201,59 -268,57 -67,-2 -135,-25 -219,-59 -84,-35 -185,-82 -247,-127 -62,-45 -84,-87 -110,-119 -26,-31 -55,-52 -96,-59 -41,-8 -95,-3 -129,-2 -34,1 -47,-1 -66,-23 -19,-22 -44,-62 -31,-85 12,-22 62,-27 139,-30z"/>
  <path class="fil4" d="M11729 9028c-11,-22 -26,-50 -48,-92 -22,-41 -51,-96 -69,-156 -17,-59 -23,-123 -31,-171 -8,-48 -20,-79 -35,-113 -15,-34 -34,-70 -66,-103 -32,-34 -77,-65 -135,-104 -58,-39 -128,-86 -178,-114 -49,-27 -77,-35 -87,-53 -10,-18 -2,-46 13,-58 15,-12 38,-7 103,30 66,38 174,108 286,185 112,77 228,160 326,233 99,73 180,137 244,188 64,51 110,89 137,118 27,29 36,48 36,59 -1,11 -11,15 -26,10 -15,-4 -35,-17 -63,-34 -27,-17 -62,-40 -84,-50 -22,-11 -31,-10 -35,6 -4,15 -4,44 -5,82 -1,38 -2,85 -11,114 -10,29 -27,40 -55,47 -27,7 -64,9 -98,13 -34,4 -64,11 -83,6 -19,-5 -26,-22 -38,-44z"/>
  <path class="fil3" d="M11188 8058c25,8 66,32 104,57 38,25 72,52 86,79 14,27 8,55 -1,75 -9,20 -20,33 -40,33 -20,1 -48,-10 -79,-27 -31,-17 -65,-41 -89,-58 -24,-17 -36,-26 -43,-36 -6,-10 -5,-19 -1,-38 5,-19 13,-46 21,-65 8,-18 17,-27 42,-20z"/>
  <path class="fil3" d="M12084 8714c22,12 63,41 85,63 22,23 26,40 25,56 -1,17 -6,32 -14,41 -7,9 -16,11 -35,4 -19,-7 -49,-24 -66,-38 -18,-15 -24,-27 -24,-34 0,-7 6,-8 12,-13 6,-6 11,-16 14,-25 3,-9 2,-16 0,-24 -2,-8 -5,-17 -10,-24 -5,-6 -11,-9 -12,-13 -1,-3 3,-7 25,6z"/>
  <path class="fil6" d="M11486 8413c2,14 11,48 16,91 4,43 4,95 2,140 -2,45 -7,84 0,129 7,45 26,96 48,143 22,47 49,89 67,115 18,26 28,35 48,36 19,1 48,-6 66,-10 19,-5 27,-8 21,-20 -6,-12 -28,-33 -52,-73 -25,-39 -52,-97 -70,-142 -18,-45 -27,-79 -33,-117 -7,-38 -12,-80 -19,-116 -7,-35 -15,-64 -30,-93 -15,-29 -35,-59 -48,-76 -13,-17 -17,-22 -15,-8z"/>
  <path class="fil7" d="M4046 9001c-59,73 -155,184 -253,303 -98,119 -199,245 -282,349 -83,104 -149,187 -194,238 -46,52 -72,73 -101,85 -29,12 -62,16 -89,-14 -27,-31 -48,-95 -96,-140 -47,-45 -120,-70 -200,-92 -79,-22 -165,-41 -243,-31 -78,10 -148,50 -184,88 -36,39 -38,77 -34,135 3,58 12,137 42,210 30,73 80,140 152,156 71,16 164,-21 240,-24 76,-3 137,26 161,73 24,46 10,110 -25,189 -35,79 -92,175 -168,278 -75,104 -169,216 -293,307 -123,92 -276,163 -358,224 -82,61 -93,111 -58,141 35,30 115,38 234,-6 118,-45 274,-142 419,-266 145,-124 279,-273 389,-378 111,-105 198,-165 319,-199 121,-34 274,-41 486,-30 212,11 481,41 706,70 225,29 404,56 615,92 211,35 455,78 635,106 180,28 297,41 387,54 90,13 153,27 203,19 49,-8 85,-38 108,-78 23,-40 33,-89 39,-167 6,-78 8,-184 -9,-250 -16,-67 -51,-94 -98,-102 -47,-8 -107,4 -142,47 -35,43 -46,117 -86,148 -41,31 -111,19 -222,-4 -111,-24 -262,-59 -436,-92 -174,-33 -370,-63 -505,-88 -135,-25 -207,-45 -196,-56 12,-11 108,-11 260,-16 152,-5 360,-14 585,-29 225,-16 467,-38 652,-49 184,-11 311,-9 384,-50 73,-41 93,-124 98,-226 5,-102 -5,-222 -22,-291 -17,-69 -42,-87 -78,-98 -36,-11 -83,-16 -122,3 -39,20 -69,64 -90,117 -22,53 -35,115 -84,154 -49,39 -135,56 -360,68 -224,13 -588,22 -907,32 -319,10 -594,22 -833,11 -239,-11 -442,-44 -537,-92 -95,-48 -82,-110 -35,-186 47,-76 126,-167 215,-275 88,-108 185,-234 240,-330 54,-96 66,-161 54,-197 -12,-35 -46,-41 -80,-33 -34,8 -67,30 -94,57 -27,28 -48,62 -106,135z"/>
  <path class="fil3" d="M2570 9620c-30,1 -69,3 -112,13 -44,10 -91,28 -134,54 -42,26 -79,61 -108,107 -29,46 -51,103 -60,160 -9,58 -6,116 5,164 11,47 30,83 63,119 33,36 81,71 127,95 47,24 92,36 140,38 47,2 96,-6 130,-7 33,-1 51,5 75,9 24,4 53,5 101,-20 48,-25 114,-76 168,-131 54,-56 97,-116 129,-170 32,-54 53,-101 61,-139 7,-38 1,-65 -18,-89 -19,-23 -52,-42 -87,-61 -35,-19 -71,-37 -119,-56 -48,-19 -108,-38 -158,-52 -50,-14 -91,-23 -121,-28 -30,-5 -51,-6 -81,-5z"/>
  <path class="fil8" d="M2546 9619c-7,-2 -5,-8 3,-12 8,-5 23,-9 55,-8 31,1 79,6 137,19 58,13 125,35 165,50 40,16 52,25 63,43 11,18 21,44 28,70 7,26 11,51 12,70 1,18 -2,30 -16,53 -13,23 -37,57 -63,91 -26,33 -55,66 -89,104 -34,38 -73,82 -101,108 -28,26 -45,33 -70,39 -26,5 -60,8 -85,7 -24,0 -39,-4 -50,-9 -11,-5 -20,-13 -22,-23 -3,-10 1,-24 13,-45 12,-21 33,-50 50,-74 17,-24 30,-44 40,-68 9,-24 15,-52 21,-78 5,-26 11,-51 15,-73 4,-22 8,-41 9,-63 1,-22 -1,-47 -3,-74 -3,-27 -7,-56 -12,-77 -5,-21 -11,-33 -20,-40 -10,-7 -24,-7 -39,-8 -15,0 -31,0 -39,-2z"/>
  <path class="fil9" d="M8389 6424c37,-50 72,-112 102,-189 30,-77 54,-170 59,-287 5,-117 -9,-258 -55,-382 -46,-124 -125,-232 -221,-297 -96,-66 -210,-89 -318,-69 -108,20 -210,85 -286,172 -76,88 -125,199 -156,322 -30,123 -42,259 -25,386 17,128 62,247 122,336 59,89 133,148 213,184 80,36 167,49 243,37 76,-13 142,-51 194,-89 52,-38 90,-76 127,-125z"/>
  <path class="fil3" d="M7611 6417c-59,-89 -105,-209 -122,-336 -17,-128 -6,-263 25,-386 30,-123 80,-234 156,-322 76,-88 178,-152 286,-172 29,-5 58,-8 87,-7 -33,-6 -65,-10 -99,-13 -40,-4 -82,-7 -129,-3 -19,2 -39,5 -60,9 -72,16 -156,52 -233,106 -77,54 -145,126 -197,226 -52,101 -86,230 -97,360 -10,130 3,260 34,368 20,70 48,130 82,179 19,27 39,51 62,71 63,57 141,87 214,111 73,23 141,40 222,43 55,2 116,-1 167,-8 -61,0 -125,-14 -186,-42 -80,-36 -154,-95 -213,-184z"/>
  <path class="fil0" d="M8122 5640c30,17 58,46 79,94 21,48 35,116 38,186 2,71 -8,145 -42,202 -33,58 -90,100 -142,108 -52,8 -99,-18 -134,-70 -35,-52 -58,-130 -66,-200 -8,-70 -2,-132 15,-182 17,-50 46,-87 75,-112 28,-25 56,-38 86,-42 30,-4 62,0 91,17z"/>
  <path class="fil9" d="M11614 5518c38,-44 75,-99 108,-168 33,-70 62,-154 75,-262 13,-108 10,-240 -25,-359 -34,-119 -100,-224 -185,-292 -85,-68 -189,-97 -291,-86 -102,12 -201,64 -278,141 -76,76 -130,176 -167,288 -37,112 -57,238 -50,357 7,120 41,234 90,321 49,87 114,147 186,186 72,39 152,57 224,51 72,-6 136,-38 187,-69 51,-32 89,-64 127,-108z"/>
  <path class="fil3" d="M10892 5458c-49,-87 -83,-201 -90,-321 -7,-120 13,-245 50,-357 37,-112 90,-212 167,-288 76,-76 176,-129 278,-141 27,-3 54,-3 81,0 -30,-8 -60,-14 -92,-19 -37,-6 -76,-12 -119,-11 -18,0 -37,2 -56,5 -68,10 -149,38 -224,83 -75,45 -144,107 -199,197 -55,90 -96,208 -114,328 -19,120 -15,242 7,344 14,66 36,124 64,172 16,26 33,50 53,70 55,58 125,91 191,117 66,27 129,47 203,56 51,6 108,7 156,4 -56,-4 -115,-22 -170,-51 -72,-39 -136,-99 -186,-186z"/>
  <path class="fil0" d="M11420 4771c27,17 50,46 67,93 16,46 25,110 22,176 -3,66 -18,134 -53,185 -35,51 -90,86 -139,90 -49,4 -91,-23 -120,-74 -29,-51 -45,-125 -47,-191 -3,-66 7,-123 27,-168 20,-45 49,-78 77,-99 28,-21 55,-31 83,-33 28,-2 57,4 84,22z"/>
  <path class="fil10" d="M11613 3211c-79,-13 -184,-32 -290,-60 -106,-28 -214,-65 -366,-118 -152,-54 -347,-125 -540,-180 -192,-55 -382,-94 -613,-131 -231,-38 -504,-75 -812,-80 -308,-5 -650,21 -958,58 -309,37 -584,84 -752,117 -168,33 -228,53 -337,108 -109,55 -266,145 -444,258 -179,113 -379,248 -513,337 -134,88 -203,129 -277,162 -74,33 -154,59 -279,105 -125,46 -295,113 -457,203 -162,90 -317,204 -428,295 -111,90 -177,157 -242,259 -65,102 -127,240 -168,366 -41,126 -61,240 -71,345 -10,105 -10,202 8,269 18,67 53,103 53,117 0,14 -35,5 -53,15 -18,10 -18,38 -18,86 0,48 0,117 76,196 76,79 227,167 451,248 224,82 521,157 835,206 314,49 645,73 952,80 306,6 588,-4 747,-11 159,-6 196,-9 212,-57 16,-48 12,-143 24,-268 12,-125 40,-280 81,-418 41,-139 95,-261 161,-362 67,-101 146,-181 225,-237 79,-56 156,-88 247,-99 91,-11 197,0 284,39 87,39 156,105 208,209 52,103 86,243 90,374 4,131 -22,254 -40,336 -18,82 -29,123 -22,140 8,17 33,11 272,-63 239,-74 690,-216 1052,-334 361,-118 632,-213 795,-268 162,-55 216,-70 247,-94 31,-24 40,-56 67,-172 27,-116 72,-316 112,-461 40,-145 74,-236 130,-314 56,-79 133,-145 197,-183 63,-38 113,-46 158,-42 45,4 86,22 126,59 40,38 79,96 108,170 29,74 48,165 46,266 -2,101 -26,213 -41,275 -15,62 -22,75 1,53 23,-23 74,-81 116,-192 42,-112 74,-277 90,-403 16,-126 16,-212 3,-290 -13,-78 -39,-149 -64,-210 -25,-60 -48,-110 -63,-172 -15,-62 -22,-138 -44,-196 -23,-58 -61,-99 -81,-140 -19,-41 -19,-82 -19,-110 0,-28 0,-43 -26,-54 -26,-11 -77,-17 -156,-30z"/>
  <path class="fil11" d="M11074 3251c-91,-44 -248,-119 -383,-165 -134,-45 -246,-60 -350,-58 -103,2 -198,22 -237,46 -39,25 -22,55 4,112 26,57 60,141 88,226 28,85 49,171 130,197 81,26 220,-9 374,-59 154,-51 322,-117 410,-158 88,-41 97,-56 88,-70 -9,-14 -34,-27 -126,-71z"/>
  <path class="fil11" d="M9955 3177c46,54 100,163 137,254 37,90 55,161 14,208 -41,46 -142,68 -322,118 -180,51 -438,130 -698,208 -260,77 -523,153 -624,149 -101,-3 -41,-85 51,-201 91,-116 214,-267 363,-387 149,-120 326,-211 490,-272 165,-61 317,-94 412,-111 95,-17 131,-19 177,34z"/>
  <path class="fil11" d="M6842 3167c159,-10 331,53 566,99 234,46 531,76 723,98 191,22 277,34 330,54 53,19 72,45 76,82 4,37 -6,84 -68,185 -61,101 -173,256 -257,341 -84,85 -140,100 -296,114 -156,14 -412,27 -659,16 -247,-11 -486,-45 -707,-97 -220,-52 -423,-120 -550,-173 -127,-53 -179,-89 -177,-129 1,-40 55,-83 158,-153 103,-70 256,-167 405,-256 149,-89 296,-171 455,-181z"/>
  <path class="fil12" d="M5991 5069c58,-30 142,-54 242,-70 100,-16 216,-25 336,-40 119,-15 242,-37 368,-69 126,-32 255,-75 339,-108 84,-32 123,-54 149,-47 27,6 42,41 20,94 -22,53 -80,124 -171,182 -91,58 -216,103 -385,158 -169,55 -382,119 -566,165 -184,45 -339,71 -422,69 -83,-2 -94,-32 -87,-75 6,-43 30,-99 58,-145 28,-46 60,-83 118,-113z"/>
  <path class="fil12" d="M4458 4663c-12,61 -54,161 -81,211 -27,49 -39,48 -56,26 -17,-22 -40,-65 -45,-116 -5,-51 8,-110 29,-169 20,-59 49,-117 71,-155 23,-38 40,-56 49,-44 9,13 10,57 11,85 1,28 1,41 9,59 9,18 26,40 13,102z"/>
  <polygon class="fil1" points="5881,4956 5026,4905 4532,4656 4481,4814 4945,5044 5713,5134 "/>
  <polygon class="fil1" points="5639,5234 4862,5198 4413,4992 4374,5118 4816,5340 5523,5411 "/>
  <path class="fil13" d="M8561 4253c31,-16 70,-25 109,-49 39,-24 76,-63 108,-101 32,-38 58,-74 101,-104 43,-30 103,-54 168,-67 65,-13 135,-15 174,6 39,22 48,67 45,111 -3,44 -18,87 -64,118 -46,31 -122,51 -195,63 -73,13 -141,19 -189,32 -48,13 -75,32 -103,55 -29,23 -59,50 -88,68 -29,18 -57,28 -79,26 -22,-2 -37,-15 -46,-33 -9,-19 -12,-44 -3,-67 9,-23 31,-45 61,-60z"/>
  <path class="fil14" d="M11810 3402c-7,-9 -18,-21 -33,-27 -15,-6 -34,-8 -58,-1 -24,6 -52,20 -74,35 -23,15 -40,30 -50,48 -10,17 -14,36 -19,63 -4,27 -9,63 -10,88 -1,25 3,39 20,45 17,6 48,4 85,-4 37,-8 80,-20 117,-35 38,-14 70,-30 88,-41 18,-11 22,-16 18,-29 -3,-12 -14,-31 -24,-48 -10,-17 -21,-33 -28,-45 -8,-12 -13,-20 -17,-27 -4,-7 -8,-14 -15,-23z"/>
  <path class="fil13" d="M11920 3642c-4,86 -8,172 2,280 10,109 35,240 39,329 4,89 -13,137 -44,181 -13,19 -27,37 -44,55 15,58 24,123 23,193 -2,70 -13,146 -26,206 -5,26 -11,50 -15,69 -15,62 -22,75 1,53 23,-23 74,-81 116,-192 42,-112 74,-277 90,-403 16,-126 16,-212 3,-290 -13,-78 -39,-149 -64,-210 -25,-60 -48,-110 -63,-172 -7,-31 -13,-65 -19,-99z"/>
  <path class="fil13" d="M4232 5691c-91,-42 -102,-43 -113,-43 -11,3 -33,1 -45,8 -18,10 -18,38 -18,86 0,48 0,117 76,196 76,79 227,167 451,248 224,82 521,157 835,206 314,49 645,73 952,80 306,6 588,-4 747,-11 159,-6 196,-9 212,-57 0,-1 1,-2 1,-3 8,-26 11,-65 13,-115 2,-43 4,-93 10,-150 0,-3 1,-7 1,-10 -22,3 -50,6 -86,9 -9,1 -19,2 -29,2 -120,9 -310,17 -528,19 -237,1 -509,-5 -744,-22 -235,-17 -434,-45 -644,-86 -210,-41 -432,-95 -629,-163 -197,-69 -369,-152 -461,-194z"/>
  <path class="fil13" d="M9396 5693c-284,89 -566,175 -778,240 -3,16 -6,30 -9,44 -3,15 -6,28 -9,41 -12,55 -18,85 -12,99 8,17 33,11 272,-63 239,-74 690,-216 1052,-334 327,-107 581,-195 746,-251 17,-6 33,-11 49,-16 70,-24 120,-40 157,-53 48,-17 73,-27 90,-41 22,-17 33,-38 47,-89 6,-22 12,-49 20,-83 15,-66 36,-159 59,-254 -40,46 -80,92 -161,157 -30,24 -66,50 -113,80 -56,35 -127,74 -222,117 -39,18 -82,36 -130,55 -261,104 -661,230 -1056,353z"/>
  <path class="fil13" d="M9968 4061c63,-28 174,-60 233,-67 59,-7 67,12 68,38 1,26 -4,61 -28,82 -24,21 -66,29 -124,46 -58,17 -132,43 -177,55 -45,12 -60,9 -67,-6 -6,-16 -4,-44 6,-71 9,-26 26,-50 89,-78z"/>
  <path class="fil13" d="M10384 4314c-14,100 -34,324 -51,508 -18,184 -34,329 -62,426 -28,97 -69,148 -118,192 -49,44 -105,82 -99,91 5,9 72,-10 140,-31 67,-21 134,-44 165,-60 31,-16 26,-25 25,-77 -1,-52 3,-147 9,-295 6,-148 15,-349 19,-492 4,-143 4,-228 0,-282 -4,-55 -13,-80 -27,20z"/>
 </g>
</svg>
