<?xml version="1.0" encoding="UTF-8"?>
<!DOCTYPE svg PUBLIC "-//W3C//DTD SVG 1.1//EN" "http://www.w3.org/Graphics/SVG/1.1/DTD/svg11.dtd">
<!-- Creator: CorelDRAW 2017 -->
<svg xmlns="http://www.w3.org/2000/svg" xml:space="preserve" width="143mm" height="143mm" version="1.1" style="shape-rendering:geometricPrecision; text-rendering:geometricPrecision; image-rendering:optimizeQuality; fill-rule:evenodd; clip-rule:evenodd"
viewBox="0 0 14300 14300"
 xmlns:xlink="http://www.w3.org/1999/xlink">
 <defs>
  <style type="text/css">
   <![CDATA[
    .str0 {stroke:black;stroke-width:150}
    .fil6 {fill:none;fill-rule:nonzero}
    .fil1 {fill:black}
    .fil3 {fill:#4D4D4D}
    .fil0 {fill:#7BAD52}
    .fil2 {fill:white}
    .fil5 {fill:black;fill-rule:nonzero}
    .fil4 {fill:white;fill-rule:nonzero}
   ]]>
  </style>
 </defs>
 <g id="Слой_x0020_1">
  <metadata id="CorelCorpID_0Corel-Layer"/>
  <path class="fil0" d="M9463 12348c311,-136 712,-354 987,-596 276,-241 425,-506 373,-872 -53,-366 -309,-833 -489,-1204 -181,-370 -287,-644 -341,-921 -55,-277 -58,-558 -5,-809 53,-251 162,-473 455,-611 293,-137 769,-190 1170,-358 401,-168 728,-450 975,-732 247,-282 415,-564 489,-895 75,-331 57,-710 -13,-1027 -71,-317 -194,-573 -392,-803 -198,-229 -472,-432 -873,-542 -401,-110 -930,-128 -1398,-22 -467,106 -873,335 -1201,731 -327,396 -577,960 -912,1254 -336,294 -759,319 -1225,341 -467,22 -977,42 -1510,369 -533,328 -1088,964 -1469,1405 -381,441 -589,688 -849,1103 -260,415 -573,997 -773,1416 -201,419 -289,675 -258,913 31,238 181,459 441,675 260,216 631,428 975,609 344,181 661,332 936,446 275,114 506,191 836,230 330,39 757,39 1327,57 570,18 1283,54 1749,44 467,-9 687,-63 998,-200z"/>
  <path class="fil1" d="M8017 10836c350,-149 439,-286 479,-369 40,-82 31,-110 3,-130 -28,-20 -75,-34 -130,-51 -55,-18 -118,-39 -214,-97 -97,-58 -227,-152 -373,-323 -146,-171 -307,-418 -388,-620 -81,-202 -82,-358 -74,-489 8,-130 26,-235 90,-319 64,-84 175,-147 299,-253 124,-106 260,-255 387,-478 127,-223 243,-520 316,-852 73,-332 101,-698 62,-1086 -39,-388 -146,-798 -297,-1095 -151,-296 -346,-479 -631,-637 -286,-158 -662,-290 -1071,-299 -409,-10 -850,104 -1176,440 -326,337 -536,896 -646,1364 -111,468 -121,844 -83,1154 39,310 127,554 239,785 112,231 247,450 380,591 133,142 264,206 318,282 55,76 33,164 19,296 -14,131 -21,306 -99,495 -78,189 -227,392 -376,521 -150,129 -301,184 -438,214 -137,31 -261,37 -347,37 -85,0 -132,-7 -167,25 -35,32 -59,102 26,242 84,140 277,349 682,547 405,198 1022,385 1636,399 614,14 1224,-146 1574,-295z"/>
  <path class="fil1" d="M8435 10922c-23,115 -155,287 -221,474 -66,186 -67,386 -57,518 10,132 32,196 54,258 22,62 44,121 -48,190 -91,68 -296,145 -568,189 -272,44 -611,55 -1022,48 -411,-7 -894,-33 -1282,-113 -387,-80 -679,-215 -834,-305 -155,-91 -173,-138 -162,-200 12,-62 53,-139 85,-247 32,-108 54,-247 61,-406 7,-159 0,-339 -4,-480 -5,-141 -7,-242 73,-321 79,-79 240,-136 500,-195 260,-59 618,-120 971,-151 353,-32 700,-34 1016,20 317,54 603,166 814,257 210,92 344,163 454,228 109,65 194,122 171,237z"/>
  <path class="fil2" d="M6423 7094c36,60 75,143 86,252 12,109 -4,244 -39,329 -35,85 -89,120 -166,115 -78,-4 -180,-47 -251,-139 -72,-92 -113,-233 -123,-346 -10,-113 12,-199 54,-261 42,-63 105,-103 165,-113 60,-10 116,11 161,39 45,28 77,65 113,124z"/>
  <ellipse class="fil2" transform="matrix(0.870044 0.192825 -0.123074 0.609273 6861.54 5707.49)" rx="238" ry="251"/>
  <ellipse class="fil2" transform="matrix(-0.803239 0.103999 0.0493924 0.618428 5717.98 5662.45)" rx="238" ry="251"/>
  <path class="fil3" d="M5892 5032c-142,216 -461,494 -746,355 118,-92 594,-295 746,-355z"/>
  <path class="fil3" d="M6753 5057c118,230 406,540 704,432 -108,-103 -559,-356 -704,-432z"/>
  <path class="fil4" d="M9290 6557c238,85 457,128 702,141 1368,73 2537,-978 2610,-2347 73,-1368 -978,-2537 -2347,-2610 -1368,-73 -2537,978 -2610,2347 -41,774 281,1491 813,1972 -371,375 -742,751 -1113,1126 1944,-629 1296,-419 1944,-629z"/>
  <path class="fil5" d="M9862 4956c-114,-26 -168,-51 -163,-75 5,-23 9,-41 11,-53 3,-12 12,-52 28,-122 16,-70 40,-127 71,-173 32,-46 58,-87 82,-121 23,-34 55,-68 96,-99 41,-32 76,-59 107,-81 30,-23 118,-74 266,-154 148,-80 247,-148 299,-204 52,-55 81,-103 90,-141 9,-38 21,-91 37,-160 16,-69 -18,-168 -101,-297 -83,-129 -164,-202 -243,-220 -78,-18 -154,-36 -230,-53 -75,-17 -174,10 -297,81 -123,71 -203,155 -242,252 -39,96 -117,124 -235,81 -118,-43 -153,-129 -106,-260 47,-130 168,-248 363,-353 195,-106 359,-143 492,-113 133,30 270,62 410,94 141,33 278,145 410,336 132,192 186,342 161,451 -25,109 -45,195 -60,258 -14,63 -63,141 -147,234 -83,92 -177,167 -280,223 -103,56 -189,103 -259,141 -70,38 -127,77 -174,117 -47,41 -85,90 -117,150 -32,59 -56,123 -74,194 -18,71 -83,93 -196,67zm-154 711c-134,-31 -186,-114 -155,-248 31,-134 114,-186 248,-155 134,31 186,114 155,248 -31,134 -114,186 -248,155z"/>
  <path id="1" class="fil6 str0" d="M9862 4956c-114,-26 -168,-51 -163,-75 5,-23 9,-41 11,-53 3,-12 12,-52 28,-122 16,-70 40,-127 71,-173 32,-46 58,-87 82,-121 23,-34 55,-68 96,-99 41,-32 76,-59 107,-81 30,-23 118,-74 266,-154 148,-80 247,-148 299,-204 52,-55 81,-103 90,-141 9,-38 21,-91 37,-160 16,-69 -18,-168 -101,-297 -83,-129 -164,-202 -243,-220 -78,-18 -154,-36 -230,-53 -75,-17 -174,10 -297,81 -123,71 -203,155 -242,252 -39,96 -117,124 -235,81 -118,-43 -153,-129 -106,-260 47,-130 168,-248 363,-353 195,-106 359,-143 492,-113 133,30 270,62 410,94 141,33 278,145 410,336 132,192 186,342 161,451 -25,109 -45,195 -60,258 -14,63 -63,141 -147,234 -83,92 -177,167 -280,223 -103,56 -189,103 -259,141 -70,38 -127,77 -174,117 -47,41 -85,90 -117,150 -32,59 -56,123 -74,194 -18,71 -83,93 -196,67zm-154 711c-134,-31 -186,-114 -155,-248 31,-134 114,-186 248,-155 134,31 186,114 155,248 -31,134 -114,186 -248,155z"/>
  <path class="fil1" d="M4951 9706c-82,-11 -209,-27 -463,-316 -254,-289 -634,-851 -859,-1208 -225,-356 -295,-507 -344,-634 -49,-128 -78,-233 -55,-339 23,-107 98,-215 278,-393 180,-178 466,-425 737,-656 271,-231 529,-446 716,-616 187,-170 305,-294 462,-409 157,-115 352,-221 426,-351 74,-130 26,-283 -33,-390 -59,-107 -129,-166 -304,-169 -175,-3 -454,51 -812,238 -359,186 -797,505 -1184,839 -386,334 -720,682 -961,947 -241,265 -389,447 -462,644 -73,197 -71,408 -32,641 39,233 117,487 227,771 110,284 253,598 479,978 226,380 534,826 815,1167 281,341 534,576 658,749 124,173 120,284 117,378 -3,94 -5,171 -12,227 -7,56 -20,90 64,83 84,-7 266,-55 448,-151 182,-96 364,-239 487,-460 123,-221 186,-520 161,-776 -25,-256 -139,-469 -221,-590 -81,-121 -131,-151 -173,-169 -42,-18 -78,-23 -160,-34z"/>
  <path class="fil1" d="M7983 10073c73,37 174,104 262,151 88,46 163,71 254,105 91,34 199,77 308,166 109,89 218,224 309,416 91,191 164,439 211,683 46,244 66,485 73,623 7,138 1,172 -28,213 -28,42 -78,91 -263,123 -185,32 -505,48 -797,54 -292,6 -557,1 -734,-2 -177,-3 -265,-5 -332,-6 -67,-1 -114,-2 5,-113 119,-111 403,-333 547,-520 144,-186 148,-337 152,-512 5,-175 10,-373 24,-526 14,-153 35,-261 3,-372 -33,-111 -120,-227 -171,-302 -51,-75 -67,-111 -58,-143 8,-32 40,-60 78,-71 38,-11 84,-3 157,34z"/>
  <path class="fil1" d="M4443 4631c-25,-5 -8,-15 9,-25 16,-10 32,-19 61,-74 28,-55 69,-157 102,-277 34,-120 60,-259 91,-350 30,-91 64,-135 136,-147 72,-12 181,7 320,49 139,41 307,105 403,152 96,47 120,79 118,117 -2,38 -32,81 -88,103 -56,22 -139,22 -226,4 -88,-18 -180,-55 -248,-72 -68,-17 -112,-15 -147,21 -35,35 -62,103 -82,164 -19,61 -32,114 -79,170 -47,56 -130,114 -204,143 -74,29 -140,28 -165,22z"/>
  <path class="fil1" d="M4760 4547c40,-71 112,-188 160,-251 48,-63 74,-72 127,-76 53,-4 133,-4 232,13 99,18 216,53 285,81 69,28 91,47 94,81 3,34 -13,83 -71,94 -58,11 -159,-16 -245,-29 -86,-13 -156,-13 -214,17 -57,30 -101,91 -137,140 -36,48 -64,84 -106,102 -41,18 -96,19 -129,8 -33,-11 -44,-34 -45,-59 -1,-24 7,-50 47,-121z"/>
  <path class="fil1" d="M4799 3968c42,-134 64,-219 85,-269 21,-50 41,-65 98,-73 58,-8 154,-9 284,-12 130,-3 295,-9 387,0 92,8 113,30 107,56 -5,26 -37,57 -104,84 -67,27 -170,52 -254,73 -84,21 -149,40 -201,54 -53,14 -94,25 -142,115 -48,90 -103,259 -162,370 -59,110 -121,162 -166,170 -44,8 -70,-28 -53,-138 17,-110 79,-294 120,-428z"/>
  <path class="fil1" d="M5935 3244c-147,-251 -461,-830 -643,-1218 -182,-387 -232,-582 -216,-663 17,-81 101,-48 222,174 122,221 281,631 411,963 130,332 232,585 293,751 60,166 79,244 -68,-7z"/>
  <path class="fil1" d="M6671 2932c-38,-153 -111,-717 -138,-1071 -27,-354 -6,-496 36,-535 42,-39 107,27 134,251 28,224 18,607 12,928 -6,321 -8,580 -45,428z"/>
  <path class="fil1" d="M9283 7689c247,178 869,574 1229,753 360,179 458,143 419,70 -39,-73 -215,-183 -511,-342 -296,-159 -714,-369 -985,-493 -272,-125 -398,-165 -151,13z"/>
 </g>
</svg>
