<?xml version="1.0" encoding="UTF-8"?>
<!DOCTYPE svg PUBLIC "-//W3C//DTD SVG 1.1//EN" "http://www.w3.org/Graphics/SVG/1.1/DTD/svg11.dtd">
<!-- Creator: CorelDRAW 2017 -->
<svg xmlns="http://www.w3.org/2000/svg" xml:space="preserve" width="143mm" height="143mm" version="1.1" style="shape-rendering:geometricPrecision; text-rendering:geometricPrecision; image-rendering:optimizeQuality; fill-rule:evenodd; clip-rule:evenodd"
viewBox="0 0 14300 14300"
 xmlns:xlink="http://www.w3.org/1999/xlink">
 <defs>
  <style type="text/css">
   <![CDATA[
    .str0 {stroke:black;stroke-width:20}
    .fil12 {fill:none}
    .fil1 {fill:black}
    .fil0 {fill:#46AEB5}
    .fil2 {fill:#4D4D4D}
    .fil3 {fill:#999999}
    .fil6 {fill:#A60000}
    .fil4 {fill:#B3B3B3}
    .fil5 {fill:#E6E6E6}
    .fil11 {fill:red}
    .fil9 {fill:#FF6633}
    .fil10 {fill:#FFE77B}
    .fil7 {fill:#FFFF66}
    .fil8 {fill:white}
   ]]>
  </style>
 </defs>
 <g id="Слой_x0020_1">
  <metadata id="CorelCorpID_0Corel-Layer"/>
  <path class="fil0" d="M6279 11988c570,-51 1398,-39 2281,-20 883,19 1822,46 2204,120 382,74 206,196 13,296 -193,101 -404,180 -389,247 15,67 255,121 573,164 318,43 713,75 901,123 187,48 167,111 -122,156 -289,45 -846,71 -1693,86 -847,15 -1983,18 -2575,30 -593,12 -642,34 -631,73 11,39 82,95 -121,133 -203,38 -681,59 -1154,64 -473,5 -941,-5 -1281,-39 -340,-33 -552,-90 -658,-171 -106,-81 -107,-187 -274,-260 -166,-73 -498,-112 -834,-137 -335,-25 -674,-36 -925,-66 -251,-30 -413,-77 -499,-165 -85,-87 -94,-214 18,-307 112,-93 344,-151 711,-183 367,-31 868,-36 1433,-9 566,27 1196,85 1667,57 471,-28 784,-142 1354,-193z"/>
  <path class="fil1" d="M3001 9270c-1,36 33,69 224,253 191,184 540,520 840,811 301,290 554,535 709,689 155,155 211,219 260,243 48,24 88,6 192,-131 103,-137 270,-395 549,-877 279,-482 670,-1190 907,-1600 238,-410 322,-522 386,-577 64,-54 107,-51 156,-55 48,-5 102,-18 142,-54 40,-36 65,-95 53,-154 -12,-60 -63,-120 -225,-276 -162,-157 -434,-410 -622,-577 -188,-167 -291,-249 -371,-290 -80,-41 -137,-41 -182,-19 -45,22 -79,66 -100,105 -21,39 -29,74 -13,109 16,35 57,70 36,119 -21,49 -105,112 -544,435 -438,323 -1231,905 -1677,1238 -446,333 -546,415 -614,476 -68,60 -105,99 -106,134z"/>
  <path class="fil1" d="M3018 9661c236,207 685,634 1042,964 357,331 622,565 749,695 128,130 119,156 54,243 -65,87 -185,235 -342,379 -157,144 -350,283 -513,375 -164,93 -298,139 -474,146 -176,8 -394,-23 -585,-87 -191,-64 -355,-161 -480,-250 -124,-89 -209,-171 -283,-271 -74,-100 -138,-217 -191,-353 -53,-135 -96,-288 -113,-445 -17,-157 -9,-318 23,-479 32,-161 89,-323 170,-466 81,-143 186,-266 285,-359 99,-94 192,-157 253,-198 62,-41 92,-59 119,-74 27,-15 51,-28 287,180z"/>
  <path class="fil2" d="M4324 10632c92,-43 238,-109 416,-131 177,-21 386,1 584,73 198,72 386,192 523,344 137,153 223,338 275,537 52,199 70,413 42,601 -28,188 -101,351 -188,486 -88,135 -190,241 -329,337 -139,95 -313,180 -503,221 -190,41 -395,39 -580,-5 -185,-44 -352,-130 -486,-232 -134,-101 -237,-217 -319,-349 -83,-132 -145,-280 -174,-458 -29,-177 -24,-384 30,-571 55,-187 159,-355 258,-480 99,-125 193,-207 259,-258 65,-51 102,-72 194,-116z"/>
  <path class="fil3" d="M4612 11444c56,-54 109,-94 191,-110 82,-15 191,-6 281,37 89,43 158,120 211,212 53,92 90,199 78,303 -12,104 -75,204 -156,279 -81,75 -182,124 -278,136 -95,12 -186,-12 -255,-50 -69,-38 -117,-90 -162,-151 -45,-60 -87,-129 -100,-208 -13,-79 2,-168 39,-247 37,-79 95,-147 151,-201z"/>
  <path class="fil4 str0" d="M5481 7476c-460,336 -1367,1025 -1826,1383 -459,358 -469,385 -422,446 46,60 149,154 232,227 83,73 146,124 199,82 53,-42 95,-178 189,-353 94,-175 238,-388 581,-721 343,-332 883,-784 1171,-1031 288,-247 324,-290 336,-320 12,-30 0,-48 -460,287z"/>
  <path class="fil4 str0" d="M2812 9698c89,45 224,163 297,236 73,73 85,100 13,140 -73,39 -230,90 -392,188 -162,97 -329,241 -431,407 -102,166 -138,355 -155,502 -17,147 -15,253 -30,271 -14,19 -46,-50 -66,-187 -20,-137 -29,-343 -7,-515 22,-171 73,-308 149,-449 76,-142 176,-288 254,-386 78,-98 135,-147 185,-186 50,-38 94,-66 183,-21z"/>
  <path class="fil5" d="M4671 10632c-123,20 -275,63 -419,156 -145,93 -283,236 -384,390 -101,154 -165,318 -187,501 -22,183 -3,386 64,568 67,182 183,345 284,449 101,105 188,152 259,185 71,33 127,52 107,21 -20,-31 -117,-114 -217,-262 -100,-149 -205,-364 -250,-557 -45,-193 -31,-364 8,-514 39,-149 103,-277 185,-391 82,-113 183,-212 298,-292 115,-79 245,-139 369,-173 124,-34 243,-43 275,-54 32,-11 -24,-26 -99,-35 -75,-9 -169,-13 -292,7z"/>
  <path class="fil6" d="M1915 9902c54,-7 123,-31 174,-94 51,-64 85,-167 118,-287 33,-119 63,-254 61,-284 -2,-30 -37,45 -71,95 -34,50 -66,75 -81,38 -16,-37 -16,-136 -23,-263 -7,-127 -22,-281 -53,-394 -32,-113 -81,-184 -112,-236 -32,-52 -46,-86 -39,-36 8,50 37,182 48,256 11,74 4,89 -13,71 -17,-18 -44,-68 -85,-147 -41,-80 -96,-188 -143,-280 -47,-92 -85,-168 -79,-117 7,51 58,229 80,367 21,138 13,236 -14,278 -27,42 -72,28 -114,-31 -42,-59 -81,-162 -108,-186 -26,-24 -40,30 -56,112 -16,81 -35,189 -24,345 10,156 50,361 98,499 48,137 106,207 157,244 52,36 97,39 141,45 43,6 84,14 138,7z"/>
  <path class="fil7" d="M1854 9840c46,-23 122,-67 156,-141 34,-74 25,-177 6,-206 -19,-29 -50,15 -67,28 -18,12 -24,-8 -27,-63 -3,-55 -4,-145 -13,-236 -9,-91 -25,-182 -38,-241 -13,-59 -24,-85 -31,-52 -7,32 -12,123 -23,190 -11,66 -30,108 -61,108 -32,0 -77,-41 -110,-81 -34,-40 -56,-78 -74,-59 -18,20 -32,98 -34,191 -2,93 8,202 26,294 18,92 45,169 82,215 37,46 84,63 116,70 32,7 49,5 95,-18z"/>
  <path class="fil4" d="M9240 2952c-106,-6 -263,-7 -423,5 -159,12 -321,36 -481,54 -161,18 -321,31 -450,24 -129,-7 -226,-33 -272,-1 -46,33 -39,124 -8,212 31,89 87,174 151,224 64,50 137,63 172,86 35,23 33,55 27,112 -6,57 -14,138 2,188 16,50 56,70 135,60 79,-10 197,-50 240,-44 43,6 10,57 9,118 -1,61 29,132 60,180 31,48 64,74 168,81 104,7 278,-5 382,-43 104,-38 136,-103 165,-110 29,-7 55,44 108,59 53,15 132,-6 212,-71 80,-65 161,-174 206,-308 46,-134 56,-292 45,-418 -11,-126 -43,-220 -86,-279 -43,-58 -96,-81 -150,-98 -54,-17 -108,-27 -214,-33z"/>
  <path class="fil8" d="M9859 1300c55,1 122,8 190,38 68,30 137,82 197,142 60,59 111,126 130,221 19,95 6,219 3,309 -3,90 4,146 48,197 44,50 125,95 243,193 118,98 273,248 395,392 123,144 213,281 286,436 72,155 127,329 132,518 6,190 -38,396 -86,549 -48,153 -101,253 -139,356 -38,103 -61,210 -125,317 -64,107 -169,214 -312,325 -144,111 -326,228 -550,326 -223,98 -488,178 -760,195 -272,17 -552,-27 -779,-112 -227,-84 -402,-208 -515,-267 -113,-59 -165,-52 -277,-43 -112,9 -284,21 -386,-2 -102,-22 -134,-78 -131,-136 3,-58 42,-118 71,-150 29,-32 49,-36 -1,-27 -50,9 -171,31 -240,20 -68,-11 -84,-54 -88,-102 -4,-48 3,-100 49,-137 47,-37 133,-60 150,-69 17,-9 -36,-4 -88,-13 -52,-9 -102,-31 -152,-71 -50,-40 -100,-99 -105,-166 -5,-67 35,-142 74,-176 39,-34 77,-27 102,-23 25,4 37,5 21,-18 -16,-24 -60,-72 -83,-116 -23,-44 -26,-85 -14,-126 12,-41 39,-83 94,-96 55,-13 138,3 271,53 133,50 317,135 465,201 147,66 257,112 362,105 105,-7 204,-69 346,-201 142,-132 328,-334 441,-482 113,-148 152,-243 176,-347 24,-104 31,-218 18,-367 -14,-148 -48,-331 -64,-528 -16,-197 -13,-409 27,-573 40,-163 117,-278 201,-360 84,-81 175,-129 241,-156 66,-26 108,-31 163,-30z"/>
  <path class="fil4" d="M10703 2706c46,-131 111,-258 249,-332 139,-75 351,-97 563,-81 211,16 422,70 624,134 202,64 396,137 595,160 199,23 404,-3 503,7 99,10 91,57 21,117 -70,60 -204,135 -290,174 -86,39 -125,44 -122,69 3,25 48,70 38,131 -10,61 -75,137 -154,182 -80,45 -175,59 -242,62 -67,2 -106,-7 -112,23 -5,30 23,99 0,164 -24,65 -101,127 -193,136 -92,10 -200,-33 -281,-27 -82,6 -138,60 -206,135 -69,74 -150,169 -261,203 -111,34 -251,6 -377,-89 -126,-95 -238,-258 -312,-397 -74,-139 -109,-255 -112,-380 -3,-125 25,-260 71,-391z"/>
  <path class="fil9" d="M9940 1362c-5,-34 -18,-112 -43,-183 -24,-71 -60,-135 -101,-153 -42,-19 -90,7 -113,40 -23,33 -21,72 -29,87 -8,15 -25,4 -63,-12 -38,-16 -97,-39 -166,-27 -69,12 -148,58 -177,114 -29,56 -7,120 18,158 25,38 53,49 13,39 -40,-10 -147,-40 -228,-20 -81,20 -137,91 -150,157 -14,66 14,127 54,157 40,31 92,31 78,52 -14,21 -94,64 -117,112 -23,48 12,102 69,124 57,22 135,11 223,-3 88,-14 185,-31 249,-68 64,-37 94,-95 111,-154 17,-59 22,-119 39,-168 17,-49 48,-86 89,-112 41,-27 92,-43 134,-63 42,-20 74,-42 92,-48 18,-6 22,6 18,-28z"/>
  <path class="fil10" d="M10104 1318c12,-56 32,-149 51,-243 19,-94 35,-190 62,-219 28,-29 66,9 94,63 28,54 45,125 51,197 6,73 0,147 -2,191 -2,44 -1,57 25,69 26,11 76,21 127,24 50,3 100,0 137,-2 36,-2 59,-4 67,7 8,11 1,33 -30,66 -31,32 -86,75 -131,116 -45,41 -81,80 -117,111 -35,31 -70,54 -107,42 -37,-12 -76,-59 -113,-106 -37,-46 -72,-92 -94,-129 -22,-37 -30,-66 -32,-89 -3,-23 0,-41 12,-97z"/>
  <path class="fil10" d="M11350 4387c98,-16 275,-25 393,-53 118,-28 178,-77 222,-139 44,-62 72,-139 86,-211 14,-73 13,-142 41,-151 28,-9 85,42 101,95 16,53 -9,108 -32,153 -24,45 -46,82 -43,113 3,32 31,59 74,65 43,6 100,-10 144,-5 44,5 74,31 54,63 -20,32 -89,69 -155,82 -66,13 -129,2 -165,20 -36,18 -46,66 -39,122 7,56 30,120 31,154 2,34 -18,38 -57,14 -39,-24 -96,-75 -135,-112 -40,-37 -62,-60 -119,-69 -56,-10 -147,-7 -229,2 -82,9 -156,25 -216,23 -60,-2 -107,-21 -120,-42 -13,-20 8,-41 27,-64 20,-22 39,-45 137,-61z"/>
  <path class="fil10" d="M9103 5796c-69,90 -151,178 -224,218 -73,40 -137,32 -202,22 -65,-10 -131,-22 -179,-8 -47,14 -76,54 -63,88 13,34 67,62 135,76 69,13 152,12 205,26 53,13 76,41 78,81 2,39 -17,90 -24,135 -7,45 -2,84 8,115 11,31 28,54 46,39 18,-16 38,-70 59,-135 21,-65 44,-141 66,-181 21,-40 41,-44 82,-24 40,20 101,63 152,85 51,22 93,21 102,1 9,-20 -15,-58 -50,-98 -35,-40 -80,-82 -111,-118 -31,-36 -46,-65 -40,-103 6,-37 34,-83 70,-147 36,-64 79,-147 92,-208 13,-61 -6,-100 -43,-73 -37,27 -92,120 -161,210z"/>
  <g id="_2562899246112">
   <path class="fil11" d="M6601 4883c-5,529 12,1073 -49,1600 -78,-523 -81,-1069 -105,-1597 -1,-42 33,-77 75,-78 42,-1 77,33 78,75z"/>
  </g>
  <path class="fil12" d="M6524 4885c7,405 14,811 19,1077 5,266 7,394 9,522"/>
  <g id="_2562899246656">
   <path class="fil11" d="M9073 7117c-499,130 -1043,297 -1554,364 465,-198 1029,-357 1512,-511 41,-12 83,12 95,52 12,41 -12,83 -52,95z"/>
  </g>
  <path class="fil12" d="M9051 7043c-396,115 -792,229 -1048,302 -256,73 -370,104 -485,135"/>
  <ellipse class="fil1" cx="9887" cy="1693" rx="145" ry="138"/>
  <path class="fil5" d="M10846 2825c15,-75 64,-198 124,-278 60,-80 133,-118 220,-141 87,-23 188,-32 334,-12 146,20 337,68 500,111 163,43 297,80 432,105 135,25 271,38 275,55 3,16 -126,36 -353,25 -226,-11 -549,-53 -762,-57 -213,-4 -316,29 -397,77 -80,48 -137,112 -192,155 -55,43 -108,65 -143,63 -35,-2 -53,-29 -37,-103z"/>
  <path class="fil5" d="M9100 3042c-94,-12 -266,1 -430,17 -163,16 -318,37 -464,40 -147,4 -286,-9 -320,-5 -34,4 36,25 123,52 87,27 190,62 352,81 161,20 381,25 528,22 147,-3 220,-15 264,-38 44,-23 58,-55 58,-90 -1,-34 -16,-69 -110,-81z"/>
  <path class="fil1" d="M1797 9734c9,29 16,118 28,204 11,86 27,168 58,230 31,62 77,104 110,129 33,24 53,30 57,46 4,15 -7,40 -24,65 -18,25 -42,51 -74,43 -32,-8 -71,-48 -103,-90 -32,-42 -58,-85 -73,-160 -15,-75 -20,-181 -20,-258 0,-77 6,-125 14,-165 8,-40 19,-71 27,-42z"/>
  <path class="fil11" d="M7065 6867c54,-82 237,-311 398,-502 161,-192 301,-346 393,-428 92,-82 135,-91 162,-78 27,13 38,47 -12,123 -49,76 -158,195 -309,342 -151,147 -344,323 -478,443 -134,120 -207,183 -153,101z"/>
 </g>
</svg>
