<?xml version="1.0" encoding="UTF-8"?>
<!DOCTYPE svg PUBLIC "-//W3C//DTD SVG 1.1//EN" "http://www.w3.org/Graphics/SVG/1.1/DTD/svg11.dtd">
<!-- Creator: CorelDRAW 2017 -->
<svg xmlns="http://www.w3.org/2000/svg" xml:space="preserve" width="143mm" height="143mm" version="1.1" style="shape-rendering:geometricPrecision; text-rendering:geometricPrecision; image-rendering:optimizeQuality; fill-rule:evenodd; clip-rule:evenodd"
viewBox="0 0 14300 14300"
 xmlns:xlink="http://www.w3.org/1999/xlink">
 <defs>
  <style type="text/css">
   <![CDATA[
    .fil3 {fill:black}
    .fil1 {fill:black}
    .fil0 {fill:#EDBF42}
    .fil2 {fill:white}
   ]]>
  </style>
 </defs>
 <g id="Слой_x0020_1">
  <metadata id="CorelCorpID_0Corel-Layer"/>
  <path class="fil0" d="M7934 12466c139,-45 332,-116 466,-181 134,-65 209,-123 311,-202 102,-78 231,-176 564,-265 333,-89 871,-168 1185,-280 314,-112 404,-257 492,-429 88,-172 175,-371 390,-558 215,-188 559,-364 841,-567 282,-203 503,-432 459,-851 -44,-419 -353,-1027 -560,-1468 -207,-441 -313,-714 -309,-1045 4,-331 119,-719 247,-1063 128,-344 269,-644 273,-1023 4,-379 -128,-838 -370,-1217 -243,-379 -595,-679 -1001,-825 -406,-146 -864,-137 -1270,-26 -406,110 -758,322 -1111,419 -353,97 -706,79 -1111,79 -406,0 -864,18 -1279,-154 -415,-172 -785,-534 -1177,-820 -392,-287 -807,-498 -1169,-472 -362,26 -670,291 -833,648 -163,357 -181,807 -9,1195 172,388 534,714 688,1023 154,309 101,600 -79,772 -181,172 -489,225 -781,362 -291,137 -564,357 -719,666 -154,309 -190,706 -57,1058 132,353 432,661 714,908 282,247 547,432 617,697 71,265 -53,609 -198,930 -146,322 -313,622 -419,873 -106,251 -150,454 -141,657 9,203 71,406 203,578 132,172 335,314 582,415 247,102 539,164 901,205 362,41 795,60 1259,73 463,13 958,21 1311,15 354,-6 568,-26 717,-45 149,-19 234,-37 373,-81z"/>
  <path class="fil1" d="M4964 10797c-344,-162 -428,-302 -465,-386 -37,-84 -27,-111 2,-130 29,-19 76,-31 132,-47 56,-16 119,-35 218,-89 99,-54 232,-143 384,-309 152,-165 323,-406 411,-605 89,-199 95,-355 92,-486 -3,-131 -17,-236 -78,-322 -61,-86 -169,-154 -289,-264 -120,-111 -250,-265 -369,-492 -118,-227 -224,-529 -284,-863 -60,-334 -75,-701 -22,-1087 54,-386 176,-792 337,-1083 162,-291 363,-466 655,-613 291,-147 673,-265 1081,-259 409,6 846,135 1159,484 313,348 502,916 595,1387 93,472 90,848 40,1156 -50,308 -147,549 -268,775 -120,227 -264,440 -402,577 -138,137 -271,196 -329,270 -57,74 -39,163 -30,295 9,132 10,306 81,498 71,192 212,401 357,535 145,135 294,195 430,230 136,36 260,47 345,50 85,3 132,-2 166,31 34,33 55,104 -35,241 -90,136 -290,338 -702,521 -412,183 -1036,347 -1650,338 -614,-9 -1218,-192 -1562,-353z"/>
  <path class="fil1" d="M4543 10866c19,116 144,293 204,481 59,189 53,389 37,520 -15,132 -39,194 -63,255 -24,61 -48,120 41,191 89,72 290,156 560,210 270,54 608,78 1019,86 411,8 895,1 1285,-65 390,-66 686,-189 845,-274 158,-85 178,-131 169,-194 -9,-62 -48,-141 -76,-250 -28,-109 -44,-249 -46,-408 -1,-160 12,-339 22,-480 10,-140 16,-241 -61,-323 -76,-82 -235,-145 -492,-214 -257,-69 -613,-143 -964,-188 -351,-45 -698,-60 -1016,-18 -319,43 -609,143 -823,227 -214,84 -350,150 -462,211 -112,60 -199,115 -179,230z"/>
  <path class="fil1" d="M5026 10035c-74,35 -178,98 -268,141 -90,43 -165,65 -258,96 -93,31 -202,69 -314,154 -112,85 -226,216 -324,404 -98,188 -181,432 -236,675 -55,242 -84,483 -96,620 -12,137 -7,172 20,214 27,43 75,94 258,133 184,39 503,67 795,83 292,16 557,21 734,25 177,3 265,5 332,6 67,1 114,2 -1,-114 -115,-116 -391,-348 -528,-540 -137,-192 -135,-342 -133,-517 2,-175 4,-374 -4,-527 -8,-153 -25,-262 11,-372 37,-110 128,-222 182,-296 54,-73 71,-108 64,-140 -7,-32 -38,-62 -76,-74 -38,-12 -83,-6 -158,28z"/>
  <path class="fil2" d="M7843 6802c-71,86 -172,209 -329,282 -157,73 -369,96 -524,78 -155,-18 -252,-78 -375,-180 -123,-102 -272,-247 -362,-372 -89,-125 -118,-231 -125,-202 -7,30 7,195 48,373 41,178 107,367 222,533 115,166 277,307 442,385 165,78 333,94 481,36 148,-58 277,-190 389,-365 113,-174 210,-391 255,-524 45,-133 37,-181 14,-181 -24,1 -64,50 -135,136z"/>
  <ellipse class="fil2" transform="matrix(0.798805 0.13386 -0.0724035 0.616158 7727.51 5470.45)" rx="238" ry="251"/>
  <path class="fil1" d="M11265 5674c31,28 48,83 10,205 -38,122 -132,310 -205,496 -73,186 -126,369 -139,497 -13,129 12,203 48,289 36,85 82,181 133,307 50,126 105,284 187,502 82,218 192,497 224,729 32,232 -15,417 -104,541 -89,123 -220,185 -380,165 -160,-20 -350,-121 -460,-248 -111,-127 -143,-281 -185,-427 -42,-146 -93,-284 -122,-381 -29,-97 -36,-152 -97,-229 -61,-77 -176,-176 -278,-230 -101,-53 -189,-60 -288,-100 -99,-40 -210,-112 -288,-210 -78,-97 -125,-220 -159,-334 -35,-114 -57,-219 -79,-298 -22,-79 -42,-132 -47,-174 -5,-42 5,-73 58,-78 52,-4 147,19 206,82 60,63 85,167 117,255 32,88 72,160 125,201 53,41 118,51 182,55 64,4 126,1 174,-29 48,-29 82,-85 97,-146 15,-61 11,-126 2,-196 -8,-70 -21,-145 -78,-220 -57,-75 -158,-149 -225,-188 -67,-39 -99,-42 -153,-3 -54,38 -130,117 -178,163 -48,45 -69,57 -90,56 -21,0 -42,-12 -60,-32 -18,-20 -33,-48 -18,-89 14,-41 57,-95 119,-163 61,-68 140,-152 202,-197 62,-46 107,-54 199,-23 92,31 230,101 300,94 70,-7 70,-91 57,-167 -14,-76 -41,-146 -118,-243 -76,-98 -201,-224 -281,-302 -80,-78 -115,-107 -128,-140 -13,-32 -3,-68 22,-96 25,-28 66,-49 152,-6 86,42 219,147 328,250 109,103 195,205 243,290 47,85 56,153 65,216 9,63 18,122 36,155 18,33 44,40 58,-40 14,-80 15,-248 17,-360 2,-112 5,-169 -18,-253 -24,-84 -74,-195 -94,-265 -20,-70 -10,-101 14,-118 25,-17 64,-22 99,-13 34,9 63,33 106,103 43,71 101,188 132,286 31,98 36,178 39,263 3,86 5,178 1,281 -4,104 -13,219 -5,247 7,28 30,-31 88,-158 58,-127 151,-322 210,-435 59,-112 83,-141 118,-155 35,-14 79,-12 110,16z"/>
  <path class="fil1" d="M10479 9097c44,165 82,299 112,408 30,110 52,196 45,258 -7,62 -42,98 -169,144 -127,45 -346,98 -620,110 -274,12 -603,-18 -891,-48 -288,-29 -536,-58 -693,-96 -157,-38 -224,-86 -292,-151 -68,-65 -137,-148 -209,-187 -72,-39 -147,-34 -232,93 -85,126 -181,374 -194,662 -13,289 57,618 183,826 126,208 308,294 453,478 144,184 251,465 328,594 77,129 125,106 168,82 43,-24 82,-49 116,-74 34,-25 63,-50 103,-95 40,-45 92,-108 94,-213 2,-104 -46,-250 -14,-322 31,-73 141,-73 370,-83 230,-10 579,-30 940,-98 361,-68 735,-185 1019,-308 285,-123 481,-254 615,-358 135,-104 208,-180 238,-325 30,-145 16,-357 -39,-594 -55,-237 -151,-500 -243,-765 -92,-265 -180,-532 -263,-773 -84,-241 -163,-456 -271,-561 -108,-105 -245,-100 -388,-48 -143,53 -293,153 -391,235 -99,82 -146,146 -163,187 -17,41 -4,59 14,88 17,29 38,69 60,134 23,64 47,153 85,295 38,142 89,338 133,503z"/>
  <path class="fil2" d="M11022 3733c-9,47 -22,175 -45,270 -23,95 -54,156 -96,201 -42,45 -94,74 -138,94 -44,19 -79,29 -62,40 17,12 85,26 131,48 45,22 67,53 86,108 19,55 36,135 47,223 11,88 17,183 24,277 7,94 14,186 19,216 5,30 8,-3 12,-77 4,-74 10,-189 28,-292 19,-103 51,-194 93,-269 42,-75 93,-134 132,-167 40,-33 68,-39 58,-55 -9,-16 -56,-42 -93,-74 -37,-33 -64,-73 -91,-140 -27,-67 -54,-162 -68,-229 -14,-68 -15,-109 -19,-147 -3,-38 -9,-73 -18,-27z"/>
  <path class="fil2" d="M4238 1799c17,87 42,327 84,505 42,177 102,291 180,376 78,84 176,139 257,175 81,36 147,54 116,75 -31,22 -160,48 -244,89 -84,42 -124,99 -160,202 -36,103 -66,252 -87,416 -21,163 -33,341 -45,516 -13,175 -26,348 -36,403 -10,56 -15,-6 -23,-143 -8,-138 -18,-352 -53,-544 -35,-192 -95,-362 -173,-503 -78,-140 -173,-251 -247,-312 -74,-61 -126,-73 -108,-103 18,-30 105,-78 174,-139 69,-61 120,-136 171,-261 50,-125 100,-302 126,-428 26,-126 29,-203 35,-274 6,-71 16,-137 34,-50z"/>
  <path class="fil2" d="M3082 6285c-8,54 -17,200 -38,310 -21,109 -54,180 -100,234 -46,53 -103,89 -152,113 -49,24 -88,37 -68,49 20,12 98,25 151,48 52,23 78,57 103,119 24,62 47,152 64,251 17,99 29,207 41,313 12,106 25,211 33,245 7,34 9,-4 10,-88 1,-84 1,-215 18,-333 16,-118 48,-223 92,-311 44,-88 99,-157 142,-196 43,-39 75,-48 63,-66 -12,-18 -66,-45 -110,-80 -44,-35 -77,-79 -111,-155 -34,-75 -69,-181 -88,-257 -19,-76 -23,-123 -29,-166 -6,-43 -14,-83 -22,-29z"/>
  <path class="fil3" d="M8763 5007c-45,-279 -129,-771 -182,-1041 -53,-270 -73,-317 -109,-337 -36,-20 -86,-11 -78,132 8,144 76,423 156,721 80,299 173,618 217,744 44,126 39,59 -5,-220z"/>
  <path class="fil3" d="M9251 5001c126,-301 345,-835 451,-1181 106,-346 100,-504 50,-542 -50,-38 -144,45 -222,256 -78,212 -142,553 -217,891 -75,339 -163,675 -191,809 -28,134 4,67 129,-234z"/>
  <path class="fil2" d="M6198 5346c37,-23 97,-53 180,-59 83,-6 190,12 269,58 79,46 130,119 147,153 17,34 2,29 -49,28 -51,-1 -137,2 -217,19 -81,16 -156,45 -208,78 -53,33 -83,70 -91,72 -8,2 6,-30 42,-69 36,-39 95,-84 136,-111 41,-27 65,-35 86,-41 21,-6 38,-9 43,-15 5,-6 -4,-14 -32,-33 -28,-19 -75,-49 -130,-62 -55,-13 -117,-9 -158,0 -41,9 -62,24 -65,23 -3,-1 12,-18 49,-41z"/>
 </g>
</svg>
