<?xml version="1.0" encoding="UTF-8"?>
<!DOCTYPE svg PUBLIC "-//W3C//DTD SVG 1.1//EN" "http://www.w3.org/Graphics/SVG/1.1/DTD/svg11.dtd">
<!-- Creator: CorelDRAW 2017 -->
<svg xmlns="http://www.w3.org/2000/svg" xml:space="preserve" width="143mm" height="143mm" version="1.1" style="shape-rendering:geometricPrecision; text-rendering:geometricPrecision; image-rendering:optimizeQuality; fill-rule:evenodd; clip-rule:evenodd"
viewBox="0 0 14300 14300"
 xmlns:xlink="http://www.w3.org/1999/xlink">
 <defs>
  <style type="text/css">
   <![CDATA[
    .str0 {stroke:black;stroke-width:20}
    .fil4 {fill:black}
    .fil1 {fill:black}
    .fil5 {fill:#2BABE4}
    .fil2 {fill:#4D4D4D}
    .fil6 {fill:gray}
    .fil0 {fill:#A3313C}
    .fil3 {fill:white}
   ]]>
  </style>
 </defs>
 <g id="Слой_x0020_1">
  <metadata id="CorelCorpID_0Corel-Layer"/>
  <path class="fil0" d="M3655 10831c579,-56 1588,-113 2332,-78 744,35 1224,162 1408,318 183,155 71,339 227,435 157,96 584,104 1176,87 593,-18 1351,-61 1956,-80 605,-18 1057,-11 1332,102 275,113 374,332 374,504 0,173 -99,300 7,392 106,92 416,148 512,275 95,127 -25,325 -554,427 -529,102 -1468,109 -2349,95 -882,-14 -1707,-49 -2120,-18 -413,32 -413,131 -427,205 -14,74 -42,123 -423,145 -381,21 -1115,14 -1789,-18 -674,-32 -1288,-88 -1598,-243 -310,-155 -318,-409 -476,-579 -159,-169 -469,-254 -811,-332 -342,-78 -716,-148 -938,-268 -222,-120 -293,-289 -131,-427 162,-138 557,-243 854,-328 296,-85 494,-148 572,-219 78,-71 35,-148 88,-215 53,-67 201,-123 780,-180z"/>
  <path class="fil1 str0" d="M8215 8805c-17,323 -7,834 -26,1327 -19,493 -67,969 -88,1311 -20,342 -12,549 23,717 36,168 99,297 200,389 101,92 238,146 349,174 111,28 194,30 228,-34 34,-64 18,-193 -29,-309 -47,-116 -125,-219 -171,-351 -46,-131 -60,-290 -37,-537 23,-247 83,-581 108,-932 26,-351 17,-719 13,-1061 -4,-342 -2,-657 -44,-893 -42,-236 -126,-392 -204,-445 -78,-53 -149,-2 -206,91 -57,93 -99,229 -116,553z"/>
  <path class="fil1 str0" d="M9622 8280c168,259 348,802 506,1407 158,605 295,1272 364,1707 69,435 70,637 32,781 -39,145 -117,232 -227,308 -110,76 -250,141 -361,164 -110,23 -190,3 -186,-87 4,-90 91,-249 138,-401 47,-152 53,-295 33,-501 -19,-206 -65,-474 -151,-856 -86,-382 -213,-878 -309,-1247 -96,-369 -162,-611 -211,-837 -49,-226 -81,-436 -18,-554 63,-118 220,-143 389,116z"/>
  <path class="fil1 str0" d="M9013 4945c-8,43 -38,112 -39,182 -1,70 29,141 71,204 42,64 98,120 103,170 5,50 -40,93 -149,125 -108,31 -280,50 -398,55 -118,4 -182,-6 -205,-61 -23,-55 -3,-154 6,-273 9,-120 9,-260 15,-360 6,-100 18,-159 60,-194 42,-35 113,-45 203,-29 90,16 200,60 262,90 62,30 78,48 71,91z"/>
  <path class="fil1" d="M8109 6528c-44,34 -116,87 -198,59 -83,-28 -176,-138 -254,-348 -78,-211 -141,-523 -182,-733 -42,-210 -62,-318 -17,-397 45,-79 156,-129 234,-151 78,-22 123,-15 151,26 28,41 38,115 28,180 -10,65 -42,121 -86,148 -44,28 -102,28 -108,60 -7,32 37,97 78,196 41,99 78,232 143,314 64,82 155,113 213,141 58,28 84,52 108,105 24,53 47,135 41,195 -5,61 -38,101 -63,128 -25,27 -42,42 -86,76z"/>
  <path class="fil2" d="M8802 5381c-82,3 -197,11 -320,66 -123,55 -254,157 -328,293 -74,136 -92,307 -70,495 22,188 83,394 129,543 45,149 74,241 50,369 -25,128 -103,292 -199,532 -96,240 -209,555 -245,1015 -36,460 6,1065 36,1473 30,409 49,621 78,693 29,71 69,1 188,-78 119,-79 319,-168 505,-193 186,-25 360,15 483,75 123,60 196,141 309,149 112,7 263,-60 414,-136 151,-76 302,-162 428,-158 126,4 227,98 252,34 26,-64 -23,-287 -73,-565 -50,-278 -102,-612 -186,-919 -84,-307 -200,-587 -320,-845 -120,-258 -245,-493 -343,-664 -98,-171 -169,-276 -228,-374 -60,-98 -108,-188 -94,-301 14,-113 90,-250 142,-380 52,-130 80,-253 99,-389 19,-136 31,-284 1,-411 -30,-128 -101,-235 -196,-285 -95,-50 -213,-44 -297,-41 -84,2 -132,1 -214,4z"/>
  <path class="fil1" d="M6576 2924c144,43 319,130 432,288 113,158 163,387 142,622 -20,236 -110,478 -226,671 -116,193 -257,336 -385,416 -128,80 -242,96 -309,137 -67,41 -86,108 -72,178 14,70 60,144 269,168 209,24 580,-1 946,-130 367,-129 729,-362 1005,-506 277,-144 468,-198 572,-190 104,8 121,78 66,185 -55,107 -181,252 -392,409 -211,157 -506,326 -805,456 -298,130 -600,222 -828,297 -229,75 -384,134 -481,284 -96,149 -134,388 -166,616 -32,227 -59,443 -67,668 -8,226 2,462 18,699 16,238 38,477 75,803 37,326 88,739 101,1158 13,419 -11,844 -52,1189 -42,345 -101,609 -100,786 0,177 59,268 148,350 88,82 206,156 248,218 43,62 10,111 -49,155 -59,44 -145,82 -266,95 -120,13 -275,-1 -411,-36 -136,-35 -254,-92 -333,-164 -80,-72 -121,-157 -119,-322 1,-164 46,-407 81,-722 36,-315 63,-703 72,-1053 9,-351 0,-665 -16,-894 -15,-229 -37,-373 -82,-476 -45,-102 -115,-163 -171,-123 -57,39 -100,178 -188,551 -87,373 -218,979 -303,1423 -85,444 -126,724 -122,907 3,183 51,269 124,333 73,65 173,108 213,172 40,64 20,147 -71,205 -92,58 -256,90 -431,81 -175,-10 -362,-61 -467,-166 -105,-105 -127,-263 -139,-401 -12,-138 -14,-256 24,-561 39,-304 118,-795 222,-1319 104,-525 232,-1083 300,-1523 68,-439 76,-759 84,-1121 8,-361 16,-764 69,-1170 53,-406 149,-814 269,-1053 120,-239 263,-308 354,-371 90,-63 128,-118 149,-208 21,-90 24,-215 -10,-390 -34,-175 -105,-400 -77,-645 29,-245 157,-510 305,-683 148,-173 315,-256 455,-297 140,-41 252,-41 396,2z"/>
  <path class="fil1" d="M6934 5662c356,-56 953,-132 1372,-267 419,-136 660,-332 841,-350 181,-18 302,143 251,293 -51,149 -275,287 -569,422 -294,134 -658,266 -962,351 -305,86 -551,126 -813,144 -262,18 -540,13 -703,-32 -163,-45 -210,-131 -192,-209 18,-78 102,-149 202,-203 100,-54 216,-91 572,-148z"/>
  <path class="fil3" d="M6004 4428c3,-33 10,-88 26,-102 16,-14 42,13 66,19 24,6 48,-10 73,-49 25,-39 50,-102 67,-95 16,7 24,83 32,145 8,61 16,108 38,93 22,-15 57,-91 84,-123 27,-32 45,-21 59,13 15,34 26,90 59,84 33,-5 89,-72 129,-105 40,-33 65,-31 65,16 0,47 -23,139 -30,190 -7,50 3,58 -20,90 -23,32 -81,88 -126,110 -45,22 -78,9 -100,-8 -23,-17 -35,-37 -64,-19 -30,19 -77,76 -122,57 -45,-19 -86,-114 -132,-139 -46,-25 -96,21 -127,28 -31,6 -41,-27 -34,-59 7,-32 32,-63 44,-83 12,-21 11,-31 14,-64z"/>
  <path class="fil1 str0" d="M8941 3209c-122,-3 -265,0 -395,74 -131,74 -249,220 -331,401 -82,181 -126,398 -97,623 29,225 133,460 266,610 133,150 296,216 461,217 165,0 333,-65 454,-223 122,-158 198,-408 241,-649 43,-240 53,-471 2,-641 -51,-171 -163,-282 -270,-341 -107,-60 -209,-68 -331,-70z"/>
  <polygon class="fil3" points="6405,2703 6491,2260 6620,2409 6977,1369 7101,1553 7223,318 6986,1233 6787,1039 6560,2119 6332,2083 "/>
  <path class="fil3" d="M7762 2279l-110 554 1181 -830 -213 396 14 10 657 -131 -851 425 60 -328 -997 804 55 -505c-316,67 -456,86 -484,71 -61,-33 382,-227 688,-466z"/>
  <path class="fil3" d="M5597 2171l-136 383 -425 -948 -14 323 -13 1 -358 -322 370 575 83 -225 321 864 152 -333c171,158 250,221 273,222 50,2 -153,-281 -255,-541z"/>
  <path class="fil1" d="M8537 5481c87,22 140,79 192,181 52,102 104,250 167,378 62,128 134,237 205,306 71,69 140,99 200,121 60,21 111,33 131,-73 20,-107 7,-332 -55,-507 -62,-174 -175,-297 -222,-394 -47,-97 -29,-168 29,-196 59,-28 157,-14 258,30 100,44 201,117 281,253 80,136 139,334 159,524 20,190 1,372 -39,519 -40,147 -101,259 -161,331 -60,72 -119,104 -193,119 -74,14 -163,11 -314,-48 -151,-59 -364,-174 -526,-366 -162,-192 -273,-461 -339,-670 -65,-209 -85,-358 -34,-438 51,-81 172,-92 259,-70z"/>
  <path class="fil3" d="M8647 4458c24,-7 48,4 74,45 26,40 55,110 64,180 10,70 1,140 -21,196 -23,56 -60,97 -99,100 -39,3 -80,-33 -113,-84 -32,-51 -56,-117 -62,-169 -7,-52 4,-89 21,-121 17,-32 41,-59 65,-85 24,-27 47,-53 70,-60z"/>
  <path class="fil4" d="M8252 3272c-70,76 -146,186 -182,300 -36,114 -31,232 -39,299 -8,67 -28,84 -12,104 16,20 68,43 199,28 131,-15 342,-69 473,-95 131,-26 183,-26 238,38 55,63 114,189 190,292 75,103 168,183 268,240 101,57 210,90 325,79 115,-12 237,-68 381,-208 144,-140 311,-362 395,-513 84,-150 84,-228 79,-251 -5,-23 -15,9 -47,41 -32,32 -86,64 -114,62 -29,-2 -32,-39 -27,-92 5,-53 20,-123 20,-203 0,-80 -14,-169 -30,-257 -16,-89 -33,-177 -38,-163 -5,14 1,132 -9,208 -10,76 -36,111 -68,134 -31,24 -68,36 -82,3 -14,-33 -6,-112 -9,-185 -3,-72 -18,-138 -26,-136 -8,1 -9,69 -37,141 -28,72 -82,148 -154,177 -72,28 -160,9 -256,-29 -96,-37 -199,-92 -305,-160 -106,-68 -214,-149 -328,-176 -114,-28 -233,-2 -307,33 -74,35 -102,80 -121,113 -19,32 -30,52 -59,52 -28,1 -73,-17 -128,-5 -55,12 -119,53 -189,129z"/>
  <path class="fil5" d="M9384 3856c-17,87 -51,195 -77,272 -26,77 -44,124 -42,180 2,57 25,123 77,170 52,47 133,73 199,53 65,-20 115,-85 114,-172 -1,-86 -51,-192 -89,-271 -38,-79 -62,-129 -86,-192 -24,-62 -48,-137 -61,-182 -13,-45 -15,-61 -16,-37 -1,25 -2,90 -19,177z"/>
  <path class="fil3" d="M8959 4300c-136,-111 -182,-145 -146,-326 71,130 99,180 146,326z"/>
  <path class="fil3" d="M8993 4028c-112,180 -90,110 -166,288 -92,-153 33,-237 166,-288z"/>
  <path class="fil3" d="M8513 4155c-136,-111 -182,-145 -146,-326 71,130 99,180 146,326z"/>
  <path class="fil3" d="M8547 3884c-112,180 -90,110 -166,288 -92,-153 33,-237 166,-288z"/>
  <path class="fil1" d="M10051 4918c101,13 258,44 364,68 106,24 160,41 166,64 5,22 -38,49 -90,46 -51,-3 -110,-37 -217,-72 -107,-35 -261,-71 -315,-92 -54,-21 -9,-26 92,-13z"/>
  <path class="fil1" d="M10025 4685c132,-4 399,-26 575,-50 176,-25 262,-52 332,-81 70,-29 123,-59 154,-85 31,-26 40,-49 23,-55 -16,-6 -57,4 -201,35 -144,31 -390,84 -575,124 -185,40 -309,66 -373,85 -64,19 -67,32 64,27z"/>
  <path class="fil1" d="M7987 4589c-12,-23 -184,-124 -310,-178 -126,-54 -206,-61 -242,-52 -36,9 -30,33 23,60 52,27 149,56 272,98 122,42 270,95 258,72z"/>
  <path class="fil6" d="M9378 7578c91,243 279,713 408,1115 128,403 197,739 225,966 27,227 14,345 -33,462 -47,117 -126,232 -204,301 -78,69 -155,93 -254,98 -99,5 -221,-9 -302,-16 -82,-7 -123,-7 -75,23 49,30 187,89 321,99 134,10 262,-28 369,-69 107,-42 192,-87 279,-108 87,-22 175,-20 233,-10 58,10 86,27 75,-59 -11,-86 -62,-275 -127,-550 -65,-275 -145,-636 -267,-999 -122,-363 -287,-727 -403,-971 -115,-244 -181,-367 -227,-440 -46,-73 -72,-95 -88,-98 -16,-3 -21,15 71,258z"/>
 </g>
</svg>
