<?xml version="1.0" encoding="UTF-8"?>
<!DOCTYPE svg PUBLIC "-//W3C//DTD SVG 1.1//EN" "http://www.w3.org/Graphics/SVG/1.1/DTD/svg11.dtd">
<!-- Creator: CorelDRAW 2017 -->
<svg xmlns="http://www.w3.org/2000/svg" xml:space="preserve" width="143mm" height="143mm" version="1.1" style="shape-rendering:geometricPrecision; text-rendering:geometricPrecision; image-rendering:optimizeQuality; fill-rule:evenodd; clip-rule:evenodd"
viewBox="0 0 14300 14300"
 xmlns:xlink="http://www.w3.org/1999/xlink">
 <defs>
  <style type="text/css">
   <![CDATA[
    .fil6 {fill:none}
    .fil3 {fill:black}
    .fil1 {fill:#000066}
    .fil7 {fill:#94E8FF}
    .fil0 {fill:#EDBF42}
    .fil5 {fill:red}
    .fil2 {fill:white}
    .fil4 {fill:red;fill-rule:nonzero}
   ]]>
  </style>
 </defs>
 <g id="Слой_x0020_1">
  <metadata id="CorelCorpID_0Corel-Layer"/>
  <path class="fil0" d="M10844 4289c224,197 589,562 792,885 203,322 244,602 445,1448 201,846 563,2259 764,3036 201,778 242,921 -92,1075 -334,154 -1044,317 -2126,396 -1082,78 -2535,72 -3105,130 -570,58 -256,181 -321,331 -65,150 -508,328 -1423,372 -914,44 -2300,-44 -3036,-136 -737,-92 -826,-188 -955,-662 -130,-474 -300,-1327 -379,-1832 -78,-505 -65,-662 47,-1070 111,-408 321,-1066 489,-1384 169,-317 297,-294 1591,-640 1294,-346 3755,-1062 5102,-1492 1348,-429 1582,-571 1741,-627 159,-56 241,-27 465,170z"/>
  <path class="fil1" d="M10824 4243c135,624 368,1862 542,2782 174,920 290,1522 353,1856 62,333 71,398 73,434 2,37 -2,45 -52,58 -49,13 -144,30 -1273,249 -1129,219 -3292,641 -4666,896 -1374,256 -1960,345 -2270,389 -310,44 -345,42 -532,-591 -187,-633 -526,-1897 -732,-2646 -206,-749 -279,-984 -305,-1111 -26,-128 -5,-148 294,-271 299,-123 876,-347 1984,-704 1108,-357 2746,-848 3860,-1187 1114,-340 1703,-529 2034,-636 331,-108 404,-133 460,-142 56,-9 95,0 230,624z"/>
  <path class="fil2" d="M10431 4009c35,12 44,57 149,579 105,523 307,1522 462,2304 155,782 262,1345 327,1678 65,333 86,437 77,497 -9,60 -47,77 -761,228 -714,151 -2103,434 -3415,688 -1312,254 -2546,477 -3187,574 -641,97 -688,67 -862,-518 -174,-585 -475,-1724 -643,-2395 -168,-671 -202,-873 -209,-993 -6,-120 15,-159 576,-340 561,-181 1662,-503 2662,-806 1000,-303 1899,-587 2615,-815 716,-228 1249,-400 1561,-499 312,-99 402,-125 477,-148 75,-24 135,-45 170,-33z"/>
  <path class="fil3" d="M9292 5244c-1075,294 -3184,873 -4449,1211 -1265,338 -1686,436 -1872,510 -186,74 -137,123 430,6 567,-117 1653,-401 2841,-718 1189,-317 2481,-669 3189,-870 709,-201 834,-251 909,-292 76,-41 102,-73 112,-99 10,-25 2,-44 -22,-48 -24,-4 -65,6 -1140,301z"/>
  <path class="fil3" d="M9480 6485c-1075,294 -3184,873 -4449,1211 -1265,338 -1686,436 -1872,510 -186,74 -137,123 430,6 567,-117 1653,-401 2841,-718 1189,-317 2481,-669 3189,-870 708,-201 834,-251 909,-292 76,-41 102,-73 112,-99 10,-25 2,-44 -22,-48 -24,-4 -65,6 -1140,301z"/>
  <path class="fil3" d="M9942 8788c-1087,244 -3221,725 -4500,1004 -1279,279 -1704,358 -1893,423 -189,65 -143,116 429,25 572,-91 1669,-324 2871,-586 1202,-262 2509,-554 3226,-721 717,-168 844,-212 922,-250 78,-38 106,-68 116,-93 11,-25 4,-44 -19,-49 -24,-5 -65,3 -1152,248z"/>
  <path class="fil1" d="M6453 1774c77,215 202,692 389,1395 187,703 436,1632 621,2339 185,707 305,1193 378,1477 73,284 99,366 114,421 15,56 19,86 -170,241 -189,155 -572,434 -1178,875 -606,441 -1436,1043 -2043,1484 -606,441 -989,720 -1191,867 -202,146 -224,159 -314,-166 -90,-325 -249,-987 -443,-1733 -194,-746 -421,-1576 -535,-2023 -114,-447 -114,-512 -103,-561 11,-49 32,-84 267,-342 234,-258 682,-740 1333,-1438 652,-699 1507,-1615 1998,-2144 490,-529 615,-671 692,-765 77,-95 108,-142 185,73z"/>
  <path class="fil4" d="M8049 8842c-16,-52 3,-85 56,-101 53,-16 87,-4 101,34 14,38 47,73 99,103 52,31 93,43 124,37 31,-6 65,-13 102,-21 37,-7 76,-44 116,-111 40,-66 55,-123 46,-169 -9,-46 -18,-91 -28,-135 -9,-44 -43,-86 -103,-127 -60,-41 -110,-57 -150,-49 -40,8 -72,15 -97,20 -25,5 -55,23 -90,53 -35,31 -57,56 -65,77 -8,21 -36,32 -86,36 -50,4 -76,-106 -79,-330 -3,-223 100,-356 308,-399 208,-42 318,-39 328,11 10,49 -69,91 -236,125 -167,34 -251,110 -250,227 0,117 17,159 49,125 32,-34 69,-55 111,-63 41,-8 89,-18 144,-29 55,-11 128,14 219,74 91,61 142,121 154,181 12,60 24,118 36,175 11,57 5,109 -20,158 -25,48 -52,102 -82,161 -30,59 -80,96 -150,110 -70,14 -133,27 -190,39 -57,12 -128,-7 -214,-57 -86,-49 -136,-100 -152,-152z"/>
  <g id="_2031473644832">
   <path class="fil5" d="M8934 8995c157,-217 290,-386 382,-559 -186,-436 -250,-1160 -143,-1328 130,-203 261,205 277,262 107,387 90,697 -33,979 180,450 284,322 465,40 13,-284 185,-615 351,-531 119,60 102,285 194,237 110,-57 253,-192 226,90 -2,18 -12,70 -30,136 21,-10 38,-17 52,-22 164,-54 297,-33 460,-1 -103,-1 -236,-8 -335,11 -36,7 -115,37 -196,80 -60,198 -166,448 -281,328 -102,-107 66,-256 210,-346 32,-105 51,-210 41,-265 -11,6 -20,13 -32,21 -307,212 -259,-162 -355,-181 -52,-11 -116,96 -156,229 79,-74 146,-31 151,133 1,43 -33,557 -209,389 -29,-28 -51,-64 -65,-106 -234,310 -427,185 -564,-97 -99,170 -236,332 -409,499zm454 -722c72,-202 83,-430 10,-756 -14,-64 -81,-311 -143,-360 -126,163 52,879 133,1117zm-139 -1121l0 0 0 0 0 0zm1259 1294c-94,63 -167,140 -146,212 21,71 92,-57 146,-212zm-513 12c4,46 14,88 32,121 21,-64 29,-149 29,-224 -20,33 -41,69 -61,103z"/>
  </g>
  <path class="fil6" d="M8934 8995c239,-274 478,-549 533,-918 55,-369 -74,-834 -170,-945 -96,-111 -158,131 -119,490 39,359 179,835 319,1007 140,172 278,41 390,-121 111,-162 196,-355 223,-288 27,66 -3,392 -58,441 -56,49 -137,-178 -108,-384 29,-207 168,-393 252,-379 83,15 111,231 188,252 77,21 203,-154 228,-72 24,82 -54,421 -137,555 -83,135 -172,66 -137,-33 35,-98 193,-225 346,-280 154,-55 303,-38 452,-21"/>
  <g id="_2031473644064">
   <path class="fil2" d="M3119 8366c0,-3 -192,-1167 192,-880 55,41 101,109 145,179 -41,-202 -48,-352 320,-177 84,40 234,-31 359,-131 -55,-65 -99,-152 -124,-256 -199,-822 660,-410 553,58 42,-93 76,-239 94,-458 1,-17 3,-39 4,-64 -6,-5 -11,-10 -17,-16 -283,-322 152,-794 194,-137 238,-113 476,-547 700,-437 -49,-265 -190,-547 238,-413 244,76 291,-123 272,-285 -152,-217 56,-322 78,26 52,105 105,89 223,-6 -36,60 -107,169 -191,98 -11,-9 -21,-18 -30,-27 -5,487 -454,253 -531,261 -20,89 58,317 76,404 58,273 -164,73 -195,53l0 0c1,0 0,0 1,0 -84,19 -401,392 -636,487 -2,667 -278,902 -516,841 -181,170 -388,309 -615,239 25,103 52,214 37,290 -54,272 -253,116 -406,-64 7,56 20,145 48,382 9,75 -44,143 -119,153 -75,9 -143,-44 -153,-119zm1164 -1162c44,-62 67,-120 52,-162 -20,-54 -74,-146 -130,-191 -35,105 7,258 78,353zm-65 -384c1,-1 2,-2 2,-3 -1,1 -1,2 -2,3zm1839 -1641l0 0 0 0 0 0zm-463 522l0 0 0 0 1 0z"/>
  </g>
  <path class="fil6" d="M3255 8349c-42,-338 -84,-676 -53,-747 31,-71 134,126 224,257 90,131 168,197 191,155 23,-42 -7,-191 -34,-305 -27,-115 -50,-195 -5,-186 45,8 158,105 267,108 108,3 212,-87 298,-156 86,-70 155,-119 220,-186 65,-66 125,-150 77,-283 -47,-133 -201,-317 -283,-273 -81,44 -90,315 7,487 97,172 300,244 424,81 125,-162 171,-559 163,-795 -8,-237 -72,-313 -95,-254 -23,59 -7,255 47,315 55,60 147,-16 214,-60 66,-43 106,-54 192,-127 85,-73 216,-209 297,-261 80,-53 110,-23 147,17 37,40 80,91 58,-19 -22,-110 -110,-381 -58,-451 52,-70 242,60 364,40 122,-20 175,-190 170,-325 -5,-135 -68,-235 -62,-197 6,37 81,212 147,266 66,54 122,-14 178,-81"/>
  <path class="fil7" d="M6995 4551c-108,-332 -306,-981 -456,-1423 -150,-442 -252,-676 -335,-772 -83,-95 -146,-51 -508,327 -362,378 -1021,1091 -1395,1474 -374,383 -462,436 -254,185 208,-250 713,-804 1138,-1273 425,-468 771,-851 956,-1040 185,-189 210,-183 266,-6 56,177 145,527 263,978 118,452 266,1005 346,1316 80,310 92,377 102,435 10,58 17,108 11,126 -6,18 -25,4 -134,-328z"/>
  <path class="fil3" d="M7824 3491c83,-273 210,-757 265,-1087 55,-330 37,-506 5,-561 -32,-55 -78,12 -134,280 -56,268 -123,737 -175,1065 -51,328 -86,515 -85,577 2,62 41,-2 123,-275z"/>
  <path class="fil3" d="M8496 3133c180,-180 600,-579 833,-787 233,-208 279,-226 310,-212 32,14 49,60 23,118 -26,58 -97,129 -309,295 -212,166 -564,427 -771,577 -206,150 -266,189 -86,9z"/>
 </g>
</svg>
